<svg id="Layer_1" data-name="Layer 1" xmlns="http://www.w3.org/2000/svg" xmlns:xlink="http://www.w3.org/1999/xlink" viewBox="0 0 493.05 147.99"><defs><style>.cls-1{fill:url(#linear-gradient);}.cls-2{fill:url(#linear-gradient-2);}.cls-3{fill:url(#linear-gradient-3);}.cls-4{fill:url(#linear-gradient-4);}.cls-5{fill:url(#linear-gradient-5);}.cls-6{fill:url(#linear-gradient-6);}.cls-7{fill:url(#linear-gradient-7);}.cls-13,.cls-8{fill:#023955;}.cls-9{fill:#6acad2;}.cls-10,.cls-12{fill:none;stroke:#6acad2;}.cls-10,.cls-12,.cls-13{stroke-miterlimit:10;}.cls-10{stroke-width:0.68px;}.cls-11{fill:#de8182;}.cls-12{stroke-width:0.39px;}.cls-13{stroke:#023955;stroke-width:0.48px;}</style><linearGradient id="linear-gradient" x1="118.39" y1="118.48" x2="118.81" y2="19.54" gradientUnits="userSpaceOnUse"><stop offset="0" stop-color="#6bcad2"/><stop offset="0.99" stop-color="#023955"/></linearGradient><linearGradient id="linear-gradient-2" x1="68.05" y1="118.49" x2="68.47" y2="19.39" xlink:href="#linear-gradient"/><linearGradient id="linear-gradient-3" x1="175.23" y1="118.46" x2="175.65" y2="19.72" xlink:href="#linear-gradient"/><linearGradient id="linear-gradient-4" x1="244.45" y1="118.45" x2="244.86" y2="19.94" xlink:href="#linear-gradient"/><linearGradient id="linear-gradient-5" x1="307.99" y1="118.45" x2="308.41" y2="20.14" xlink:href="#linear-gradient"/><linearGradient id="linear-gradient-6" x1="374.57" y1="118.43" x2="374.99" y2="20.34" xlink:href="#linear-gradient"/><linearGradient id="linear-gradient-7" x1="424.92" y1="118.41" x2="425.33" y2="20.5" xlink:href="#linear-gradient"/></defs><title>adoption</title><polygon class="cls-1" points="98.63 147.99 66.47 147.99 153.84 70.07 170.39 70.07 98.63 147.99"/><polygon class="cls-2" points="32.16 147.99 0 147.99 119.62 70.07 136.18 70.07 32.16 147.99"/><polygon class="cls-3" points="173.68 147.99 141.51 147.99 192.47 70.07 209.03 70.07 173.68 147.99"/><polygon class="cls-4" points="260.4 147.99 228.24 147.99 237.11 70.07 253.67 70.07 260.4 147.99"/><polygon class="cls-5" points="338.67 147.99 306.5 147.99 277.4 70.07 293.95 70.07 338.67 147.99"/><polygon class="cls-6" points="426.58 147.99 394.42 147.99 322.65 70.07 339.21 70.07 426.58 147.99"/><polygon class="cls-7" points="493.05 147.99 460.88 147.99 356.87 70.07 373.42 70.07 493.05 147.99"/><path class="cls-8" d="M299,133.21c-1.25-.42-2.48-.87-3.75-1.23s-2.74-.95-3.21-2.41a3.31,3.31,0,0,0-1.95-2,20.56,20.56,0,0,0-2.21-1.09c-3.13-1.05-6.27-1.36-9.29.35-4.62,2.61-9.2,5.29-13.85,7.84a4.17,4.17,0,0,1-2.78.55c-2.88-.79-5.61.39-8.42.3s-5.62.16-8.33-.32a43.12,43.12,0,0,0-9.19-.88c-2.26.08-4.52.3-6.77.5-3.15.3-6.31.5-9.25,1.86a1.16,1.16,0,0,1-.82,0,73.66,73.66,0,0,1-8.26-3.23,81.6,81.6,0,0,0-10.62-4.29c-2.22-.77-4.51-1.17-6.47.46,2,3.21,5.37,4,8.69,5a1.23,1.23,0,0,1,.66.3c1,1.43,2.61,1.36,4.06,1.65a2.28,2.28,0,0,1,.6.11c1.93,1.06,3.89,2.07,5.74,3.26a7.57,7.57,0,0,1,1.76,2.1c.09.12-.17.66-.39.8a11,11,0,0,0-4.68,5.57c-.5,1.25-.87,2.55-1.25,3.85a32.88,32.88,0,0,0-1.66,6,13,13,0,0,1-3.77,8.07,8.72,8.72,0,0,0-1.43,2.27c-1.11,2.3-2.08,4.66-3.25,6.92a10.32,10.32,0,0,0-1.17,6.39,1.91,1.91,0,0,0,1.89,1.63c.5.05,1.36-.21,1.53-.58.85-1.82,1.43-3.76,2.27-5.59,1.07-2.35,1.86-5,3.52-6.87,3.66-4.15,7.36-8.34,12.1-11.7.55,1.13,1.09,2.2,1.59,3.29a5.34,5.34,0,0,0,1.79,2.31,19.53,19.53,0,0,1,4,3.73c1.26,1.61,1.58,3.7,2.07,5.68a6.06,6.06,0,0,0,1.15,2.61c1.43,1.59,3.18,2.89,4.57,4.5a8.53,8.53,0,0,0,5.36,3,5.5,5.5,0,0,0,5.24-2.14,10.24,10.24,0,0,1,2.67-2.56L244,175.73c-.83.47-1.67.94-2.49,1.42-.13.08-.19.28-.32.38-.55.39-.16,1.66-1.31,1.48a4.16,4.16,0,0,1-3.39-2,24.1,24.1,0,0,1-1.3-3.57c-.3-.93-.57-1.88-.78-2.84a2.56,2.56,0,0,1,0-1.29,14.18,14.18,0,0,0,.62-6.81,26.15,26.15,0,0,1,0-3.07c0-1,.56-1.14,1.39-1.32a19.43,19.43,0,0,1,10.83,1.12,33.59,33.59,0,0,1,4.74,2.5c.19.11.24.47.39.8-.2.36-.38.71-.6,1a10,10,0,0,0-1.89,4.33,13.84,13.84,0,0,1-1.8,5.19c-.66,1-2.22,1.51-3.4,2.21l-.69.41,3.48,3.38a9,9,0,0,1,2.18-1c2.79-.87,4.45-2.82,5.86-5.16a16.39,16.39,0,0,1,4.68-5.52c.27-.17.41-.51.65-.73a10.12,10.12,0,0,1,2.18-1.88c1.66-.79,3.44-1.33,5.24-2a24.61,24.61,0,0,1,2.24,2.39c1,1.39,1.82,2.93,2.8,4.35,1.75,2.54,3.55,5.05,5.35,7.56.3.43.6,1.09,1,1.19,1.63.41,2.19,1.78,3.06,2.93a2.91,2.91,0,0,0,1.7,1.22,47.66,47.66,0,0,0,6.21,0c.84-.05,1.43-.73,1.43-1.91a17.21,17.21,0,0,0-2.44-.65,5.44,5.44,0,0,1-3.64-2.13c-1.8-2.15-3.58-4.32-4.34-7.11a7.93,7.93,0,0,0-.59-1.21c-1.08-2.22-2.28-4.39-3.17-6.68a9.86,9.86,0,0,1-.4-3.73c.05-1.75.3-3.5.47-5.26a3.9,3.9,0,0,1,.25-1.06,26.61,26.61,0,0,1,1.3-3,54.84,54.84,0,0,1,3.3-5.4,2.7,2.7,0,0,1,2.13-.8c2.27.26,4.59.36,6.69,1.51a2.62,2.62,0,0,0,3.18-.62c.84-.81.51-1.7.05-2.53l2.42-.7c-1.48-1.14-3.49-.07-4.41-1.76,1.25-.31,2.44-.61,3.64-.88a4.66,4.66,0,0,0,3.38-3.29A1.33,1.33,0,0,0,299,133.21Z" transform="translate(-7 -74.4)"/><path class="cls-9" d="M278.28,142.85l-2.1-1.17a2.49,2.49,0,0,0-3.7,2.19v2.54a2.49,2.49,0,0,0,3.85,2.08l2.11-1.37a2.5,2.5,0,0,0,1.13-2.09h0A2.49,2.49,0,0,0,278.28,142.85Z" transform="translate(-7 -74.4)"/><path class="cls-9" d="M280.85,142.85l2.11-1.17a2.49,2.49,0,0,1,3.7,2.19v2.54a2.49,2.49,0,0,1-3.85,2.08l-2.11-1.37a2.47,2.47,0,0,1-1.13-2.09h0A2.5,2.5,0,0,1,280.85,142.85Z" transform="translate(-7 -74.4)"/><path class="cls-10" d="M264.73,133.94l14.84,12Z" transform="translate(-7 -74.4)"/><path class="cls-11" d="M273.49,126.33a1.92,1.92,0,0,1-.4.36,7.63,7.63,0,0,0-2.82,2.37,1.3,1.3,0,0,0,.08,1.77,3,3,0,0,0,.64.58,5.36,5.36,0,0,0,4.35.68c2.74-.62,5.47-1.32,8.19-2a46.72,46.72,0,0,1,7.86-1.47c1-.08,2-.16,3-.32a3.42,3.42,0,0,0,1.58-.61c.26-.21.22-.81.28-1.24.1-.74,0-.94-.74-1.11A22.77,22.77,0,0,0,293,125c-.27,0-.38-.08-.4-.38-.07-1.13-.14-2.26-.28-3.37a11.61,11.61,0,0,0-1.24-4.23,2.67,2.67,0,0,0-1.33-1.36,14.17,14.17,0,0,0-2.77-.74,17.44,17.44,0,0,0-5.62.39,9.05,9.05,0,0,1-1.46.23c-1.05,0-2.09,0-3.13,0a1.75,1.75,0,0,0-1.37.71,5.62,5.62,0,0,0-1.37,3.08c-.05.56-.11,1.12-.15,1.68-.14,1.78-.28,3.56-.41,5.34Z" transform="translate(-7 -74.4)"/><path class="cls-9" d="M273.48,126.35l.21-1.11c.85.11,1.7.24,2.56.31,2.24.16,4.49.39,6.74.42,2.65,0,5.31-.07,8-.14.5,0,1-.11,1.49-.14a1.56,1.56,0,0,1,.49.16V126c-.67.16-1.33.3-2,.48l-6.2,1.76a2,2,0,0,1-.48.07c-2.64.06-5.28.14-7.92.14a28.21,28.21,0,0,1-3-.3l.16-1.85Z" transform="translate(-7 -74.4)"/><path class="cls-8" d="M343.87,166.92c.15,2.39,1.46,4.31,2.67,6.23a5.94,5.94,0,0,1,.13,6.21,1.28,1.28,0,0,0,.13,1.49,15.93,15.93,0,0,1,2.5,6.8,2.68,2.68,0,0,0,3.38,2.22,2.1,2.1,0,0,1,.66-.08c.69,0,1.39,0,1.8-.74.1-.2.47-.25.91-.47-.75-.66-1.41-1.27-2.11-1.83a.67.67,0,0,0-.6-.06c-.75.42-1.17,0-1.45-.58-1.25-2.55-1.85-5.18-.8-8a.68.68,0,0,1,.09-.17c1.93-2,2.29-4.76,3.33-7.19a2.52,2.52,0,0,1,.24,3.33,1,1,0,0,0-.06,1.49,3.67,3.67,0,0,1,.51,1.32,8.79,8.79,0,0,0,2.46,4.53,3.45,3.45,0,0,0,1.55.74,11.87,11.87,0,0,0,1.69.25c.25,0,.53.16.75.09.6-.19,1.17-.47,1.76-.71-.44-.64-.85-1.29-1.34-1.88-.08-.1-.52.06-.78.13a1.39,1.39,0,0,1-1.86-.77,7,7,0,0,1-.76-5.32,2.75,2.75,0,0,1,.61-1.26,5.18,5.18,0,0,0,1.3-2.7,6.43,6.43,0,0,1,.54-1.62,10.53,10.53,0,0,0,.88-7.14,3.41,3.41,0,0,1,1.37-3.65,21.84,21.84,0,0,0,6-8.38,16.56,16.56,0,0,0,.78-3.32c.06-.27.1-.55.16-.95,2.37.69,4.26-.45,6.16-1.47a2.43,2.43,0,0,1,2.51-.06,4.82,4.82,0,0,0,4,.25c.36-.12.73-.19,1.08-.34a9.41,9.41,0,0,0,1-.53c-.26-.38-.5-.78-.78-1.14a.88.88,0,0,0-.42-.21c-2.06-.73-4.11-1.51-6.19-2.17a12.37,12.37,0,0,0-2.31-.29c.78-.86,1.61-1.73,3.28-1.39a6.15,6.15,0,0,0,3.1-.57,13.77,13.77,0,0,0,2.37-1.44,1.89,1.89,0,0,0-1.72-1.19c-2.09-.11-4.19-.24-6.27-.41a3.29,3.29,0,0,0-2.65.75A1.58,1.58,0,0,1,372,135a12,12,0,0,1-3.77-2.45c-1.79-2.21-4.16-4-5.1-6.9-.2-.61-.21-1.08.43-1.29a8.39,8.39,0,0,1,2.34-.51,11.94,11.94,0,0,0,6.32-2.3,2.79,2.79,0,0,0,.77-1.17c.45-.91.8-1.87,1.28-2.76.33-.63.06-.88-.46-1a2.73,2.73,0,0,0-.76-.1l-6.14-.19c.42-2.14-1.08-2.42-2.42-2.88-.9-.3-1.78-.63-2.7-1a14,14,0,0,0-.57-5.58l-.31-.06a28.47,28.47,0,0,1-1.7,3.24c-.67,1-.76,2.37-2,3.14-.18-1-.29-1.73-.49-2.49a4,4,0,0,0-.66-1.46,5.61,5.61,0,0,0-1.26-.9,6,6,0,0,0-.63,1.2c-.59,2.3-1.16,4.6-1.67,6.91a3.17,3.17,0,0,0,0,1.78c.68,1.68.38,3.35.19,5a11.63,11.63,0,0,0,.29,4.23,7.19,7.19,0,0,1-.2,2.9,19.41,19.41,0,0,0,0,7.48,14.34,14.34,0,0,1-.64,6.85,28.34,28.34,0,0,1-4.18,8.17c-1.17,1.72-2.08,3.62-3.1,5.43a15.49,15.49,0,0,1-1,1.73,3,3,0,0,1-4.77.35,4.09,4.09,0,0,1-.45-5.67,2.62,2.62,0,0,1,4.12-.27c.11.1.24.26.37.28.52.08,1,.12,1.56.18a4.78,4.78,0,0,0,0-1.42,5,5,0,0,0-4.8-2.89,4.34,4.34,0,0,0-3.15,1.31,9.46,9.46,0,0,0-2.59,5.1c-.21,2-.13,4,1.34,5.65a6.52,6.52,0,0,0,7.56,1.68l.75-.32C343.77,165,343.81,166,343.87,166.92Z" transform="translate(-7 -74.4)"/><path class="cls-8" d="M343.72,164c0,1,.09,2,.15,2.91.15,2.39,1.46,4.31,2.67,6.23a5.94,5.94,0,0,1,.13,6.21,1.28,1.28,0,0,0,.13,1.49,15.93,15.93,0,0,1,2.5,6.8,2.68,2.68,0,0,0,3.38,2.22,2.1,2.1,0,0,1,.66-.08c.69,0,1.39,0,1.8-.74.1-.2.47-.25.91-.47-.75-.66-1.41-1.27-2.11-1.83a.67.67,0,0,0-.6-.06c-.75.42-1.17,0-1.45-.58-1.25-2.55-1.85-5.18-.8-8a.68.68,0,0,1,.09-.17c1.93-2,2.29-4.76,3.33-7.19a2.52,2.52,0,0,1,.24,3.33,1,1,0,0,0-.06,1.49,3.67,3.67,0,0,1,.51,1.32,8.79,8.79,0,0,0,2.46,4.53,3.45,3.45,0,0,0,1.55.74,11.87,11.87,0,0,0,1.69.25c.25,0,.53.16.75.09.6-.19,1.17-.47,1.76-.71-.44-.64-.85-1.29-1.34-1.88-.08-.1-.52.06-.78.13a1.39,1.39,0,0,1-1.86-.77,7,7,0,0,1-.76-5.32,2.75,2.75,0,0,1,.61-1.26,5.18,5.18,0,0,0,1.3-2.7,6.43,6.43,0,0,1,.54-1.62,10.53,10.53,0,0,0,.88-7.14,3.41,3.41,0,0,1,1.37-3.65,21.84,21.84,0,0,0,6-8.38,16.56,16.56,0,0,0,.78-3.32c.06-.27.1-.55.16-.95,2.37.69,4.26-.45,6.16-1.47a2.43,2.43,0,0,1,2.51-.06,4.82,4.82,0,0,0,4,.25c.36-.12.73-.19,1.08-.34a9.41,9.41,0,0,0,1-.53c-.26-.38-.5-.78-.78-1.14a.88.88,0,0,0-.42-.21c-2.06-.73-4.11-1.51-6.19-2.17a12.37,12.37,0,0,0-2.31-.29c.78-.86,1.61-1.73,3.28-1.39a6.15,6.15,0,0,0,3.1-.57,13.77,13.77,0,0,0,2.37-1.44,1.89,1.89,0,0,0-1.72-1.19c-2.09-.11-4.19-.24-6.27-.41a3.29,3.29,0,0,0-2.65.75A1.58,1.58,0,0,1,372,135a12,12,0,0,1-3.77-2.45c-1.79-2.21-4.16-4-5.1-6.9-.2-.61-.21-1.08.43-1.29a8.39,8.39,0,0,1,2.34-.51,11.94,11.94,0,0,0,6.32-2.3,2.79,2.79,0,0,0,.77-1.17c.45-.91.8-1.87,1.28-2.76.33-.63.06-.88-.46-1a2.73,2.73,0,0,0-.76-.1l-6.14-.19c.42-2.14-1.08-2.42-2.42-2.88-.9-.3-1.78-.63-2.7-1a14,14,0,0,0-.57-5.58l-.31-.06a28.47,28.47,0,0,1-1.7,3.24c-.67,1-.76,2.37-2,3.14-.18-1-.29-1.73-.49-2.49a4,4,0,0,0-.66-1.46,5.61,5.61,0,0,0-1.26-.9,6,6,0,0,0-.63,1.2c-.59,2.3-1.16,4.6-1.67,6.91a3.17,3.17,0,0,0,0,1.78c.68,1.68.38,3.35.19,5a11.63,11.63,0,0,0,.29,4.23,7.19,7.19,0,0,1-.2,2.9,19.41,19.41,0,0,0,0,7.48,14.34,14.34,0,0,1-.64,6.85,28.34,28.34,0,0,1-4.18,8.17c-1.17,1.72-2.08,3.62-3.1,5.43a15.49,15.49,0,0,1-1,1.73,3,3,0,0,1-4.77.35,4.09,4.09,0,0,1-.45-5.67,2.62,2.62,0,0,1,4.12-.27c.11.1.24.26.37.28.52.08,1,.12,1.56.18a4.78,4.78,0,0,0,0-1.42,5,5,0,0,0-4.8-2.89,4.34,4.34,0,0,0-3.15,1.31,9.46,9.46,0,0,0-2.59,5.1c-.21,2-.13,4,1.34,5.65a6.52,6.52,0,0,0,7.56,1.68Z" transform="translate(-7 -74.4)"/><path class="cls-12" d="M363.6,126.56l-10.72-.13Z" transform="translate(-7 -74.4)"/><path class="cls-9" d="M364.08,125.58l.78-.44a.94.94,0,0,1,1.39.82v.94a.94.94,0,0,1-1.44.79l-.79-.52a.93.93,0,0,1-.42-.78h0A.91.91,0,0,1,364.08,125.58Z" transform="translate(-7 -74.4)"/><path class="cls-9" d="M363.12,125.58l-.79-.44a.94.94,0,0,0-1.39.82v.94a.94.94,0,0,0,1.45.79l.78-.52a.91.91,0,0,0,.43-.78h0A.93.93,0,0,0,363.12,125.58Z" transform="translate(-7 -74.4)"/><path class="cls-11" d="M351,114a2,2,0,0,1-.25.32,5.63,5.63,0,0,0-1.75,2.12,1,1,0,0,0,.29,1.29,2.4,2.4,0,0,0,.55.34,4.08,4.08,0,0,0,3.3-.08c1.93-.83,3.84-1.71,5.75-2.58a35,35,0,0,1,5.59-2.13c.72-.19,1.44-.39,2.14-.64a2.52,2.52,0,0,0,1.09-.66c.16-.19.05-.62,0-1,0-.56-.12-.69-.7-.71a14.62,14.62,0,0,0-1.87.07c-.2,0-.29,0-.35-.23-.2-.82-.4-1.64-.65-2.44a8.63,8.63,0,0,0-1.48-3,2,2,0,0,0-1.16-.81,10.31,10.31,0,0,0-2.14-.18,12.91,12.91,0,0,0-4.08,1,6.51,6.51,0,0,1-1.05.36c-.76.17-1.53.28-2.3.44a1.28,1.28,0,0,0-.91.71,4.26,4.26,0,0,0-.59,2.44c0,.42.07.84.11,1.26l.42,4Z" transform="translate(-7 -74.4)"/><path class="cls-9" d="M351,114.05v-.84c.64,0,1.29,0,1.93-.12,1.67-.18,3.35-.31,5-.59,2-.32,3.9-.77,5.84-1.17.37-.07.72-.22,1.08-.3a1,1,0,0,1,.38,0v.14c-.46.2-.93.39-1.39.61L359.56,114a2,2,0,0,1-.34.12c-1.93.39-3.87.81-5.81,1.16-.73.13-1.49.12-2.25.18L351,114Z" transform="translate(-7 -74.4)"/><path class="cls-8" d="M388,133.44c0,.13-.07.27-.1.41a3.84,3.84,0,0,1-4.22,3.41,3.9,3.9,0,0,1-3.57-4c0-.15,0-.3,0-.45V100.61a10.53,10.53,0,0,1,6.06,2,7,7,0,0,1,3,5.38,1.41,1.41,0,0,0,.29.07c.58,0,1.28.18,1.69-.09s.29-1,.43-1.48a7.74,7.74,0,0,1,4.18-4.79A11.09,11.09,0,0,1,408,103.25c1.38,1.27,1.9,2,2.32,4.8h2.74c-.1-1.52-.1-3-.3-4.5a28.37,28.37,0,0,0-9.42-17.44A33.43,33.43,0,0,0,387.59,78c-2.22-.48-4.51-.64-6.77-.94-.19,0-.39,0-.69-.06,0-.49,0-1,0-1.43A1.16,1.16,0,0,0,379,74.4a1.15,1.15,0,0,0-1.11,1.18c0,.47,0,1,0,1.42-1.56.19-3.06.32-4.54.55A33.86,33.86,0,0,0,352.9,88.32a27.31,27.31,0,0,0-7.46,19.09c0,.2,0,.39,0,.69,1.12,0,2.22,0,3.32,0,.14,0,.37-.26.39-.41.39-3.63,2.78-5.52,5.93-6.55a10.77,10.77,0,0,1,9.21,1,6.88,6.88,0,0,1,3.66,5.39,1.36,1.36,0,0,0,.06.29c0,.08,0,.15.07.21s.1.06.15.06c.6,0,1.33.2,1.76-.07s.34-1,.48-1.54a7.36,7.36,0,0,1,3.68-4.47,9.38,9.38,0,0,1,4.12-1.3v1q0,15.63,0,31.27a5.77,5.77,0,0,0,3.18,5.55,5.71,5.71,0,0,0,8.28-5.11Z" transform="translate(-7 -74.4)"/><path class="cls-8" d="M389.76,133.44H388c0,.13-.07.27-.1.41a3.84,3.84,0,0,1-4.22,3.41,3.9,3.9,0,0,1-3.57-4c0-.15,0-.3,0-.45V100.61a10.53,10.53,0,0,1,6.06,2,7,7,0,0,1,3,5.38,1.41,1.41,0,0,0,.29.07c.58,0,1.28.18,1.69-.09s.29-1,.43-1.48a7.74,7.74,0,0,1,4.18-4.79A11.09,11.09,0,0,1,408,103.25c1.38,1.27,1.9,2,2.32,4.8h2.74c-.1-1.52-.1-3-.3-4.5a28.37,28.37,0,0,0-9.42-17.44A33.43,33.43,0,0,0,387.59,78c-2.22-.48-4.51-.64-6.77-.94-.19,0-.39,0-.69-.06,0-.49,0-1,0-1.43A1.16,1.16,0,0,0,379,74.4a1.15,1.15,0,0,0-1.11,1.18c0,.47,0,1,0,1.42-1.56.19-3.06.32-4.54.55A33.86,33.86,0,0,0,352.9,88.32a27.31,27.31,0,0,0-7.46,19.09c0,.2,0,.39,0,.69,1.12,0,2.22,0,3.32,0,.14,0,.37-.26.39-.41.39-3.63,2.78-5.52,5.93-6.55a10.77,10.77,0,0,1,9.21,1,6.88,6.88,0,0,1,3.66,5.39,1.36,1.36,0,0,0,.06.29c0,.08,0,.15.07.21s.1.06.15.06c.6,0,1.33.2,1.76-.07s.34-1,.48-1.54a7.36,7.36,0,0,1,3.68-4.47,9.38,9.38,0,0,1,4.12-1.3v1q0,15.63,0,31.27a5.77,5.77,0,0,0,3.18,5.55A5.71,5.71,0,0,0,389.76,133.44Z" transform="translate(-7 -74.4)"/><path class="cls-8" d="M154.91,138.33a11.3,11.3,0,0,1-2.67,3.84,2,2,0,0,1-1.66.67,2.38,2.38,0,0,0-.84.08,2.67,2.67,0,0,1-2.74-1,1.47,1.47,0,0,0-2.45-.12c-.2.24-.42.47-.62.7a2.45,2.45,0,0,0-.74,1.72,3.56,3.56,0,0,1-.45,1.54,4.11,4.11,0,0,0-.19,3c.33,1.24.63,2.49,1,3.72a7.12,7.12,0,0,1-.13,4.56c-.48,1.38-.94,2.78-1.47,4.15-.24.58-.66,1.1-1,1.66a3.77,3.77,0,0,0-.41,1c-.24,1.07-.52,2.15-.66,3.24a68.05,68.05,0,0,0-.9,8.06c0,2.07-.29,4.14-.27,6.2a3.24,3.24,0,0,0,1.66,3.1,2.83,2.83,0,0,1,1,1.05c.22.37.48,1,.31,1.25a2.31,2.31,0,0,1-1.35.82,16.25,16.25,0,0,1-2.52.16,1.79,1.79,0,0,1-1.87-2l.09-1.94c0-.18.06-.4,0-.54-1.09-1.76-.13-3.61-.25-5.42-.2-3-.21-6-.35-9.08a22.12,22.12,0,0,0-.44,2.54c-.11,2.21-.1,4.43-.19,6.65-.05,1.31-.33,2.63-.27,3.94a9.62,9.62,0,0,0,1.72,5.83,5.94,5.94,0,0,1,.8,1.49c.31.77,0,1.14-.81,1.25a4.77,4.77,0,0,1-2.48-.27,5.22,5.22,0,0,0-1.54,0c-.53,0-.75-.39-.77-.9-.06-1.23-.13-2.46-.2-3.69a3.72,3.72,0,0,0-.67-2.68c-.34-.37,0-1.37.06-2.08s0-1.69,0-2.54,0-1.7-.05-2.54c0-1.24-.09-2.48-.18-3.72-.12-1.76-.28-3.51-.42-5.26a1.69,1.69,0,0,0,0-.23c-.26-1.45-.09-1.56-1.57-1.26a9.87,9.87,0,0,1-7.17-1.48c-2.13-1.27-4.22-2.59-6.36-3.84-1.14-.67-2.34-1.24-3.39-1.78-.69,2.14-1.34,4.17-2,6.18a10.51,10.51,0,0,1-4.14,5.55,6.69,6.69,0,0,0-3,5,5.56,5.56,0,0,0,.21,2,19,19,0,0,0,.74,2,2.27,2.27,0,0,0,1.49,1.45,6.43,6.43,0,0,1,1.54.85c.27.19.64.7.57.81a3.35,3.35,0,0,1-1,.95,1.57,1.57,0,0,1-.76.06c-.66,0-1.31,0-2,0a1.42,1.42,0,0,1-1.52-1c-.42-1.15-.84-2.3-1.18-3.48-.67-2.29-1.26-4.6-1.93-6.89a1.24,1.24,0,0,1,.36-1.38c.92-.95,1.83-1.9,2.73-2.87a3.79,3.79,0,0,0,.83-3c-.94,1.51-1.79,3-2.79,4.46-.85,1.23-1.88,2.33-2.78,3.53a9.38,9.38,0,0,0-1.32,9,2.76,2.76,0,0,0,.92,1.18,3.4,3.4,0,0,1,1.38,2.08c0,.2-.17.62-.31.64-.89.14-1.75.7-2.7.25a1.5,1.5,0,0,0-.76,0c-.91.12-1.29-.16-1.39-1.08-.33-2.82-.64-5.63-1-8.44-.09-.79-.23-1.58-.33-2.37a2.23,2.23,0,0,1,.9-2.11,7.23,7.23,0,0,0,2-3.15c1.44-3.57,1.31-7.33,1.48-11.05a27.23,27.23,0,0,0,0-4c-.25-2.34.86-4.07,2.28-5.71.15-.18.31-.34.46-.51-.85-1.38-.65-2.14.84-2.78a7.47,7.47,0,0,1,2.23-.57,79.89,79.89,0,0,1,12.37-.66c2.37.16,4.75.27,7.13.44a2.23,2.23,0,0,0,2.11-.64c.2-.24.68-.22,1-.42a7.67,7.67,0,0,1,3.15-1.47c.28-.06.46-.55.72-.79s.7-.57,1.06-.85a1.37,1.37,0,0,0,.34-.29c1.44-2.09,2.81-4.22,4.31-6.26a27.69,27.69,0,0,1,2.91-3.31,5.4,5.4,0,0,0,2-3.14,2.41,2.41,0,0,1,.43-.9,6.75,6.75,0,0,0,1-3.15,10.65,10.65,0,0,1,.21-1.1l.3-.16,1.19,1.45v-2H142a3.23,3.23,0,0,1,1.8,3.08,9.66,9.66,0,0,0,.09,1.78,1,1,0,0,0,.52.76,12.6,12.6,0,0,1,4.29,2.21c1.18.95,2.42,1.95,1.86,3.8a1.77,1.77,0,0,0,0,.6,8.33,8.33,0,0,1,1.46.18,5.56,5.56,0,0,1,1.75.79c.28.23.3.8.38,1.23.05.24-.11.52,0,.73.21.56.49,1.09.75,1.64Z" transform="translate(-7 -74.4)"/><path class="cls-8" d="M154.91,137.4c-.26-.55-.54-1.08-.75-1.64-.08-.21.08-.49,0-.73-.08-.43-.1-1-.38-1.23a5.56,5.56,0,0,0-1.75-.79,8.33,8.33,0,0,0-1.46-.18,1.77,1.77,0,0,1,0-.6c.56-1.85-.68-2.85-1.86-3.8a12.6,12.6,0,0,0-4.29-2.21,1,1,0,0,1-.52-.76,9.66,9.66,0,0,1-.09-1.78,3.23,3.23,0,0,0-1.8-3.08" transform="translate(-7 -74.4)"/><path class="cls-8" d="M149.78,132.76" transform="translate(-7 -74.4)"/><path class="cls-8" d="M150.32,133.56" transform="translate(-7 -74.4)"/><path class="cls-8" d="M150.32,133" transform="translate(-7 -74.4)"/><path class="cls-11" d="M134.09,127.69a2.3,2.3,0,0,1-.37.33,7.1,7.1,0,0,0-2.61,2.19,1.2,1.2,0,0,0,.08,1.63,2.68,2.68,0,0,0,.58.54,5,5,0,0,0,4,.63c2.53-.58,5.05-1.22,7.57-1.86a43.92,43.92,0,0,1,7.27-1.36c.92-.07,1.84-.14,2.75-.3a3.21,3.21,0,0,0,1.47-.56c.24-.2.2-.75.26-1.15.09-.68,0-.86-.69-1a21.77,21.77,0,0,0-2.29-.33c-.26,0-.36-.07-.38-.35-.06-1-.12-2.09-.25-3.12a10.57,10.57,0,0,0-1.15-3.91,2.39,2.39,0,0,0-1.23-1.25,12.76,12.76,0,0,0-2.56-.69,16.26,16.26,0,0,0-5.2.36,7.89,7.89,0,0,1-1.35.21c-1,0-1.93,0-2.9,0a1.59,1.59,0,0,0-1.26.66,5.15,5.15,0,0,0-1.27,2.85c0,.52-.1,1-.14,1.55-.13,1.65-.25,3.29-.38,4.94Z" transform="translate(-7 -74.4)"/><path class="cls-13" d="M134.08,127.7l.19-1c.79.09,1.58.22,2.37.28,2.08.15,4.16.36,6.24.39,2.45,0,4.91-.07,7.37-.13.46,0,.91-.11,1.37-.13a1.65,1.65,0,0,1,.46.15l0,.17c-.61.14-1.23.27-1.84.44l-5.74,1.62a1.61,1.61,0,0,1-.43.07c-2.44.06-4.89.13-7.33.13-.92,0-1.85-.18-2.78-.27.06-.66.1-1.19.15-1.71Z" transform="translate(-7 -74.4)"/></svg>