<?xml version="1.0" encoding="utf-8"?>
<!-- Generator: Adobe Illustrator 22.1.0, SVG Export Plug-In . SVG Version: 6.00 Build 0)  -->
<svg version="1.1" id="Layer_1" xmlns="http://www.w3.org/2000/svg" xmlns:xlink="http://www.w3.org/1999/xlink" x="0px" y="0px"
	 viewBox="0 0 216 216" style="enable-background:new 0 0 216 216;" xml:space="preserve">
<style type="text/css">
	.st0{fill:#DE8182;}
	.st1{fill:#023955;}
	.st2{fill:#6ACAD2;}
	.st3{fill:none;stroke:#023955;stroke-width:0.25;stroke-miterlimit:10;}
</style>
<g>
	<g>
		<path class="st0" d="M192.9,66.8c-0.2,1.1-0.5,2.2-0.7,3.3c-0.1,0.6-0.2,1.3-0.4,1.9c-0.2,0.7-0.4,1-1.2,1
			c-1.5,0.1-3.1,0.2-4.6,0.2c-3.9,0.2-7.7,0.4-11.6,0.5c-3.7,0.1-7.3,0.6-10.9,1.4c-2.6,0.6-5.2,1.3-7.8,2c-2.7,0.8-5.3,1.6-8,2.4
			c-0.7,0.2-1.4,0.4-2.1,0.7c-0.1,0-0.2,0.1-0.2,0c-0.2,0-0.5,0-0.5,0.2c0,0.2,0,0.4,0.2,0.5c0.1,0.1,0.4,0.1,0.6,0.1
			c0.5-0.2,1-0.4,1.5-0.6c2-0.6,4-1.2,6-1.8c1.9-0.5,3.9-1,5.9-1.5c2.3-0.5,4.7-1,7-1.3c3.2-0.5,6.4-0.6,9.6-0.5
			c2.4,0,4.8,0,7.2,0.1c3.6,0.1,7.2,0.1,10.9,0.2c1.6,0,2.9-0.7,3.5-2.2c0.3-0.8,0.5-1.6,0.6-2.4c0.3-1.2,0.5-2.3,0.7-3.5
			c0-0.1-0.1-0.3-0.1-0.3c-1.7-0.5-3.4-0.8-5.2-0.9c0,0,0,0-0.2,0C193,66.6,192.9,66.6,192.9,66.8z"/>
		<path class="st0" d="M193,66.5c0,0.1-0.1,0.2-0.1,0.3c-0.2,1.1-0.5,2.2-0.7,3.3c-0.1,0.6-0.2,1.3-0.4,1.9c-0.2,0.7-0.4,1-1.2,1
			c-1.5,0.1-3.1,0.2-4.6,0.2c-3.9,0.2-7.7,0.4-11.6,0.5c-3.7,0.1-7.3,0.6-10.9,1.4c-2.6,0.6-5.2,1.3-7.8,2c-2.7,0.8-5.3,1.6-8,2.4
			c-0.7,0.2-1.4,0.4-2.1,0.7c-0.1,0-0.2,0.1-0.2,0c-0.2,0-0.5,0-0.5,0.2c0,0.2,0,0.4,0.2,0.5c0.1,0.1,0.4,0.1,0.6,0.1
			c0.5-0.2,1-0.4,1.5-0.6c2-0.6,4-1.2,6-1.8c1.9-0.5,3.9-1,5.9-1.5c2.3-0.5,4.7-1,7-1.3c3.2-0.5,6.4-0.6,9.6-0.5
			c2.4,0,4.8,0,7.2,0.1c3.6,0.1,7.2,0.1,10.9,0.2c1.6,0,2.9-0.7,3.5-2.2c0.3-0.8,0.5-1.6,0.6-2.4c0.3-1.2,0.5-2.3,0.7-3.5
			c0-0.1-0.1-0.3-0.1-0.3c-1.7-0.5-3.4-0.8-5.2-0.9C193.2,66.5,193.2,66.5,193,66.5z"/>
	</g>
	<g>
		<g>
			<path class="st1" d="M183.2,72.8c-1.4,3.3-3.4,6.3-6.1,8.8c-1.1,1-2.2,1.7-3.8,1.5c-0.6-0.1-1.3,0-1.9,0.2
				c-2.3,0.6-4.9-0.3-6.3-2.2c-1.5-2.1-4-2.2-5.6-0.3c-0.5,0.5-1,1.1-1.4,1.6c-1,1.1-1.7,2.3-1.7,4c0,1.2-0.5,2.4-1,3.5
				c-1.1,2.3-1,4.6-0.4,6.9c0.8,2.8,1.4,5.7,2.3,8.5c1.1,3.5,0.9,7-0.3,10.4c-1.1,3.2-2.2,6.4-3.4,9.5c-0.5,1.3-1.5,2.5-2.2,3.8
				c-0.4,0.7-0.7,1.4-0.9,2.2c-0.6,2.5-1.2,4.9-1.5,7.4c-0.8,6.1-2,12.2-2.1,18.5c-0.1,4.7-0.7,9.5-0.6,14.2c0,2.8,0.8,5.6,3.8,7.1
				c0.9,0.5,1.8,1.5,2.3,2.4c0.5,0.8,1.1,2.3,0.7,2.9c-0.6,0.9-2,1.6-3.1,1.9c-1.9,0.4-3.8,0.3-5.8,0.4c-2.6,0.1-4.4-1.9-4.3-4.7
				c0.1-1.5,0.2-3,0.2-4.4c0-0.4,0.1-0.9-0.1-1.2c-2.5-4-0.3-8.3-0.6-12.4c-0.5-6.9-0.5-13.8-0.8-20.8c-0.3,1.9-0.9,3.9-1,5.8
				c-0.3,5.1-0.2,10.2-0.4,15.2c-0.1,3-0.8,6-0.6,9c0.2,4.7,0.8,9.4,3.9,13.4c0.8,1,1.4,2.2,1.9,3.4c0.7,1.8,0,2.6-1.9,2.9
				c-2,0.3-3.8,0.1-5.7-0.6c-1-0.4-2.3,0-3.5-0.1c-1.2-0.1-1.7-0.9-1.8-2c-0.1-2.8-0.3-5.6-0.4-8.5c-0.1-2.1,0.2-4.2-1.6-6.1
				c-0.8-0.9,0.1-3.1,0.1-4.8c0.1-1.9,0-3.9,0-5.8c0-1.9,0-3.9-0.1-5.8c-0.1-2.8-0.2-5.7-0.4-8.5c-0.3-4-0.6-8-1-12
				c0-0.2,0-0.4,0-0.5c-0.6-3.3-0.2-3.6-3.6-2.9c-5.9,1.2-11.4-0.4-16.4-3.4c-4.9-2.9-9.7-5.9-14.6-8.8c-2.6-1.5-5.4-2.8-7.8-4.1
				c-1.6,4.9-3.1,9.5-4.6,14.2c-1.8,5.3-4.9,9.6-9.5,12.7c-4.1,2.8-6.3,6.7-6.8,11.5c-0.2,1.5,0.1,3.1,0.5,4.5
				c0.4,1.6,1.1,3.1,1.7,4.7c0.6,1.7,1.7,2.7,3.4,3.3c1.3,0.4,2.4,1.2,3.5,1.9c0.6,0.4,1.5,1.6,1.3,1.9c-0.6,0.9-1.5,1.6-2.4,2.2
				c-0.4,0.3-1.2,0.1-1.7,0.1c-1.5,0-3,0-4.5,0c-1.7,0.1-2.9-0.7-3.5-2.2c-1-2.6-1.9-5.3-2.7-8c-1.5-5.2-2.9-10.5-4.4-15.8
				c-0.4-1.4-0.1-2.3,0.8-3.2c2.1-2.2,4.2-4.4,6.3-6.6c1.8-1.9,2-4.3,1.9-6.8c-2.1,3.5-4.1,7-6.4,10.2c-2,2.8-4.3,5.3-6.4,8.1
				c-4.7,6.3-5.4,13.3-3,20.7c0.3,1,1.2,2,2.1,2.7c1.6,1.3,2.9,2.7,3.2,4.7c0.1,0.5-0.4,1.4-0.7,1.5c-2,0.3-4,1.6-6.2,0.6
				c-0.5-0.2-1.2-0.1-1.7,0c-2.1,0.3-2.9-0.4-3.2-2.5c-0.7-6.4-1.5-12.9-2.2-19.3c-0.2-1.8-0.5-3.6-0.8-5.4c-0.3-2,0.5-3.6,2.1-4.8
				c2.3-1.9,3.5-4.4,4.6-7.2c3.3-8.2,3-16.8,3.4-25.3c0.1-3.1,0.3-6.2,0-9.3c-0.6-5.4,2-9.3,5.2-13.1c0.3-0.4,0.7-0.8,1.1-1.2
				c-2-3.2-1.5-4.9,1.9-6.4c1.6-0.7,3.4-1.1,5.1-1.3c9.4-0.9,18.8-2.1,28.3-1.5c5.4,0.4,10.9,0.6,16.3,1c1.8,0.1,3.5,0.1,4.8-1.5
				c0.5-0.5,1.6-0.5,2.2-1c2.2-1.6,4.5-2.8,7.2-3.4c0.6-0.1,1-1.2,1.6-1.8c0.8-0.7,1.6-1.3,2.4-1.9c0.3-0.2,0.6-0.4,0.8-0.7
				c3.3-4.8,6.4-9.7,9.9-14.4c2-2.7,4.3-5.2,6.7-7.6c2.1-2.1,4.1-4.1,4.5-7.2c0.1-0.7,0.6-1.4,1-2.1c1.4-2.2,1.9-4.7,2.2-7.2
				c0.1-0.8,0.3-1.7,0.5-2.5c0.2-0.1,0.4-0.2,0.7-0.4c0.9,1.1,1.8,2.2,2.7,3.3c0-1.5,0-3,0-4.5c0.2,0,0.5,0,0.7,0
				c2.8,1.5,4.2,3.9,4.1,7.1c0,1.4,0,2.7,0.2,4.1c0.1,0.7,0.7,1.6,1.2,1.7c3.6,1.1,6.9,2.8,9.8,5.1c2.7,2.2,5.6,4.5,4.3,8.7
				c-0.1,0.4,0,0.9,0.1,1.4c1.2,0.1,2.3,0.1,3.3,0.4c1.4,0.4,2.9,0.9,4,1.8c0.6,0.5,0.7,1.8,0.9,2.8c0.1,0.5-0.3,1.2-0.1,1.7
				c0.5,1.3,1.1,2.5,1.7,3.7C183.2,71.3,183.2,72,183.2,72.8z"/>
			<path class="st1" d="M183.2,70.6c-0.6-1.2-1.2-2.5-1.7-3.7c-0.2-0.5,0.2-1.1,0.1-1.7c-0.2-1-0.2-2.3-0.9-2.8
				c-1.1-0.9-2.6-1.4-4-1.8c-1-0.3-2.2-0.3-3.3-0.4c0-0.5-0.2-1-0.1-1.4c1.3-4.2-1.5-6.5-4.3-8.7c-2.9-2.3-6.2-4-9.8-5.1
				c-0.5-0.2-1.1-1.1-1.2-1.7c-0.2-1.3-0.2-2.7-0.2-4.1c0-3.2-1.3-5.5-4.1-7.1"/>
		</g>
		<g>
			<path class="st1" d="M171.4,60"/>
		</g>
		<g>
			<path class="st1" d="M172.6,61.8"/>
		</g>
		<g>
			<path class="st1" d="M172.6,60.6"/>
		</g>
	</g>
	<g>
		<path class="st0" d="M168.7,44.3c-1.3-2.9-2.6-5.8-3.9-8.7c-0.4-0.9-0.9-1.8-1.3-2.7c-0.9-1.9-2.4-3.2-4.2-4.3
			c-0.9-0.5-1.8-0.7-2.7-0.4c-1.8,0.6-3.5,1.3-5.3,1.9c-0.8,0.3-1.7,0.4-2.6,0.5c-3.3,0.5-6.6,1.2-9.7,2.8c-1.5,0.8-2.9,1.9-4.2,2.9
			c-0.9,0.7-1.2,1.9-1.4,3.1c-0.4,2.7-0.1,5.3,0.5,7.9c0.4,2,1,3.9,1.6,5.8c0.2,0.5,0,0.7-0.4,0.9c-1.3,0.7-2.7,1.3-3.9,2.1
			c-1.2,0.7-1.2,1.1-0.6,2.3c0.4,0.7,0.7,1.7,1.2,1.9c0.9,0.3,2,0.2,3,0c1.7-0.3,3.5-0.8,5.2-1.3c4.6-1.3,9.3-1.8,14.1-2.3
			c5-0.5,10-1,15-1.6c2.8-0.3,5.2-1.5,6.9-3.8c0.3-0.4,0.5-0.9,0.7-1.4c0.5-1.3,0.2-2.2-0.9-3c-1.8-1.3-4-1.9-6.2-2.3
			C169.3,44.6,169,44.4,168.7,44.3L168.7,44.3z"/>
		<path class="st2" d="M168.7,44.3c-0.3-0.6-0.7-1.1-1-1.7c-1.4,0.7-2.7,1.4-4.1,2.1c-3.7,1.6-7.3,3.4-11,4.8
			c-4.4,1.7-9,3.1-13.5,4.6c-0.8,0.3-1.7,0.4-2.6,0.7c-0.3,0.1-0.5,0.4-0.7,0.6c0,0.1,0.1,0.2,0.1,0.3c1.2-0.1,2.4-0.3,3.6-0.4
			c3.8-0.3,7.7-0.6,11.5-0.8c0.3,0,0.6-0.1,0.8-0.2c4.5-1.5,8.9-3,13.4-4.6c1.7-0.6,3.2-1.5,4.9-2.3
			C169.6,46.2,169.2,45.2,168.7,44.3C168.7,44.3,168.7,44.3,168.7,44.3z"/>
	</g>
	<g>
		<g>
			<path class="st3" d="M193,44.5c0-2.2,0.7-4.1,1.7-4.1c1-0.1,1.8,1.7,1.8,3.9L194.9,55"/>
			<path class="st3" d="M193,44.5c0,1.1,0.4,2.1,0.8,2.1c0.5,0.1,0.9-0.8,0.9-1.9"/>
			<path class="st3" d="M196.7,54.8c0,1.1-0.4,2-0.8,2c-0.5,0-0.9-0.8-0.9-1.9"/>
		</g>
		<g>
			<path class="st3" d="M198,50.1c0-2.2-0.7-4.1-1.7-4.1c-1-0.1-1.8,1.7-1.8,3.9l1.6,10.8"/>
			<path class="st3" d="M198.1,50.1c0,1.1-0.4,2.1-0.8,2.1s-0.9-0.8-0.9-1.9"/>
			<path class="st3" d="M194.4,60.4c0,1.1,0.4,2,0.8,2c0.5,0,0.9-0.8,0.9-1.9"/>
		</g>
	</g>
</g>
</svg>
