<svg id="Layer_1" data-name="Layer 1" xmlns="http://www.w3.org/2000/svg" viewBox="0 0 55.9 81.49"><defs><style>.cls-1{fill:#023955;}.cls-2{fill:#de8082;}.cls-3{fill:#fff;}</style></defs><title>attire</title><path class="cls-1" d="M78.7,55.05l.06.06a27.33,27.33,0,0,0,4.54,3,37.69,37.69,0,0,0,5.59,2.38,40.36,40.36,0,0,0,4.93,1.34A10,10,0,0,0,95,62a.75.75,0,0,0,.7-.36,3.82,3.82,0,0,0,.5-1.26,42.82,42.82,0,0,0,.85-4.63c.13-.91.24-1.83.35-2.75.09-.74.18-1.49.25-2.23s.11-1.63.16-2.44a29.25,29.25,0,0,0-.07-4.08c-.07-.83-.15-1.67-.24-2.5s-.19-1.66-.3-2.49-.23-1.64-.37-2.45c-.17-1-.36-2-.58-3a4.1,4.1,0,0,0-.52-1.43.82.82,0,0,0-.93-.4,5.83,5.83,0,0,0-.7.15,62.73,62.73,0,0,0-6.41,2,40.47,40.47,0,0,0-6.81,3.24c-.75.46-1.46,1-2.21,1.46l.12.09a7,7,0,0,1,.67.66,6.89,6.89,0,0,1,1.22,2.58c.1.36.18.73.28,1.1l.12,0a31.19,31.19,0,0,1,3.66-.94,16.78,16.78,0,0,1,3.08-.33,1,1,0,0,1,1,1,1,1,0,0,1-1,1c-.39,0-.79,0-1.18.07-.77.12-1.54.23-2.29.41-1,.24-2,.56-3,.84-.08,0-.1,0-.09.14,0,.35.07.7.07,1.06,0,.66,0,1.33-.07,2,0,.13,0,.18.15.21,1,.29,2.09.61,3.14.86a13.89,13.89,0,0,0,3.33.43,1.26,1.26,0,0,1,.28,0,1,1,0,0,1-.29,2,15.9,15.9,0,0,1-3.15-.34,27.59,27.59,0,0,1-3.47-.89L81,50.65c-.14.52-.26,1-.42,1.51A5.26,5.26,0,0,1,78.7,55.05ZM67,38.82c-.61-.42-1.19-.82-1.78-1.2A33.32,33.32,0,0,0,61,35.37,49.83,49.83,0,0,0,54.66,33c-1.2-.37-2.4-.69-3.61-1a.88.88,0,0,0-1.14.39,2.58,2.58,0,0,0-.19.37,13.55,13.55,0,0,0-.4,1.38c-.27,1.4-.52,2.8-.73,4.21s-.36,2.63-.5,3.95c-.11,1-.19,2.09-.26,3.13a24.84,24.84,0,0,0,0,3.66c.09,1.2.21,2.39.34,3.59s.25,2.17.41,3.26.4,2.43.64,3.63a10.52,10.52,0,0,0,.51,1.74c.29.73.62.77,1.24.69a20.07,20.07,0,0,0,2-.41,42.1,42.1,0,0,0,7-2.34,30.07,30.07,0,0,0,6.2-3.57l.74-.58a4,4,0,0,1-1.09-1.15,8.7,8.7,0,0,1-1-2.55c-.06-.24-.11-.48-.17-.72l-.58.18a24.62,24.62,0,0,1-5.69,1.12,4.27,4.27,0,0,1-.8,0,1,1,0,0,1-.8-1.12,1,1,0,0,1,1-.86c.31,0,.62,0,.93,0,.66-.09,1.33-.18,2-.31a27.84,27.84,0,0,0,3.58-1,.16.16,0,0,0,.09-.12c0-.15,0-.29,0-.43a13.14,13.14,0,0,1,0-2.66c0-.1,0-.15-.11-.18l-1.17-.36A20.83,20.83,0,0,0,58.3,44a3.94,3.94,0,0,1-.69-.05,1,1,0,0,1,.22-2c.73,0,1.46.09,2.19.19a24.61,24.61,0,0,1,4.06.93l.62.19c0-.21.09-.41.13-.6a9.59,9.59,0,0,1,.88-2.38A4.08,4.08,0,0,1,67,38.82ZM72.84,54h4.39a1.22,1.22,0,0,0,.94-.39,3.59,3.59,0,0,0,.76-1.27,15.17,15.17,0,0,0,.89-4.42,14.57,14.57,0,0,0-.09-2.8,15.54,15.54,0,0,0-.55-2.78,5.54,5.54,0,0,0-.79-1.73,1.35,1.35,0,0,0-1.08-.65H68.38a1.17,1.17,0,0,0-.81.34,3.66,3.66,0,0,0-.9,1.53,15.28,15.28,0,0,0-.82,4.39c0,.62,0,1.26,0,1.88a15.09,15.09,0,0,0,.54,3.27,6,6,0,0,0,.86,2,1.42,1.42,0,0,0,1.27.67C70,53.94,71.41,54,72.84,54Z" transform="translate(-46.15 -31.9)"/><path class="cls-1" d="M78.7,55.05a5.26,5.26,0,0,0,1.88-2.89c.16-.49.28-1,.42-1.51l.26.07a27.59,27.59,0,0,0,3.47.89,15.9,15.9,0,0,0,3.15.34,1,1,0,0,0,.29-2,1.26,1.26,0,0,0-.28,0,13.89,13.89,0,0,1-3.33-.43c-1-.25-2.09-.57-3.14-.86-.12,0-.16-.08-.15-.21,0-.67.06-1.34.07-2,0-.36,0-.71-.07-1.06,0-.09,0-.12.09-.14,1-.28,2-.6,3-.84.75-.18,1.52-.29,2.29-.41.39,0,.79,0,1.18-.07a1,1,0,0,0,1-1,1,1,0,0,0-1-1,16.78,16.78,0,0,0-3.08.33,31.19,31.19,0,0,0-3.66.94l-.12,0c-.1-.37-.18-.74-.28-1.1a6.89,6.89,0,0,0-1.22-2.58,7,7,0,0,0-.67-.66l-.12-.09c.75-.5,1.46-1,2.21-1.46a40.47,40.47,0,0,1,6.81-3.24,62.73,62.73,0,0,1,6.41-2,5.83,5.83,0,0,1,.7-.15.82.82,0,0,1,.93.4,4.1,4.1,0,0,1,.52,1.43c.22,1,.41,2,.58,3,.14.81.26,1.63.37,2.45s.21,1.66.3,2.49.17,1.67.24,2.5a29.25,29.25,0,0,1,.07,4.08c0,.81-.09,1.63-.16,2.44s-.16,1.49-.25,2.23c-.11.92-.22,1.84-.35,2.75a42.82,42.82,0,0,1-.85,4.63,3.82,3.82,0,0,1-.5,1.26A.75.75,0,0,1,95,62a10,10,0,0,1-1.21-.16,40.36,40.36,0,0,1-4.93-1.34,37.69,37.69,0,0,1-5.59-2.38,27.33,27.33,0,0,1-4.54-3Z" transform="translate(-46.15 -31.9)"/><path class="cls-1" d="M67,38.82a4.08,4.08,0,0,0-1.27,1.45,9.59,9.59,0,0,0-.88,2.38c0,.19-.09.39-.13.6l-.62-.19A24.61,24.61,0,0,0,60,42.13c-.73-.1-1.46-.15-2.19-.19a1,1,0,0,0-.22,2,3.94,3.94,0,0,0,.69.05,20.83,20.83,0,0,1,4.83.92l1.17.36c.11,0,.12.08.11.18a13.14,13.14,0,0,0,0,2.66c0,.14,0,.28,0,.43a.16.16,0,0,1-.09.12,27.84,27.84,0,0,1-3.58,1c-.66.13-1.33.22-2,.31-.31,0-.62,0-.93,0a1,1,0,0,0-1,.86,1,1,0,0,0,.8,1.12,4.27,4.27,0,0,0,.8,0,24.62,24.62,0,0,0,5.69-1.12l.58-.18c.06.24.11.48.17.72a8.7,8.7,0,0,0,1,2.55A4,4,0,0,0,67,55.06l-.74.58A30.07,30.07,0,0,1,60,59.21a42.1,42.1,0,0,1-7,2.34A20.07,20.07,0,0,1,51,62c-.62.08-.95,0-1.24-.69a10.52,10.52,0,0,1-.51-1.74c-.24-1.2-.45-2.42-.64-3.63s-.29-2.17-.41-3.26-.25-2.39-.34-3.59a24.84,24.84,0,0,1,0-3.66c.07-1,.15-2.09.26-3.13.14-1.32.3-2.64.5-3.95s.46-2.81.73-4.21a13.55,13.55,0,0,1,.4-1.38,2.58,2.58,0,0,1,.19-.37A.88.88,0,0,1,51.05,32c1.21.33,2.41.65,3.61,1A49.83,49.83,0,0,1,61,35.37a33.32,33.32,0,0,1,4.21,2.25C65.79,38,66.37,38.4,67,38.82Z" transform="translate(-46.15 -31.9)"/><path class="cls-1" d="M72.84,54c-1.43,0-2.86,0-4.29,0a1.42,1.42,0,0,1-1.27-.67,6,6,0,0,1-.86-2,15.09,15.09,0,0,1-.54-3.27c0-.62-.06-1.26,0-1.88a15.28,15.28,0,0,1,.82-4.39,3.66,3.66,0,0,1,.9-1.53,1.17,1.17,0,0,1,.81-.34h8.93a1.35,1.35,0,0,1,1.08.65,5.54,5.54,0,0,1,.79,1.73,15.54,15.54,0,0,1,.55,2.78,14.57,14.57,0,0,1,.09,2.8,15.17,15.17,0,0,1-.89,4.42,3.59,3.59,0,0,1-.76,1.27,1.22,1.22,0,0,1-.94.39Z" transform="translate(-46.15 -31.9)"/><path class="cls-2" d="M92.19,83h.59a19.86,19.86,0,0,1,.3,2c.34,7.82.69,15.64,1,23.46,0,1.16.58,1.48,1.47,1.5s1.15-.5,1.18-1.4c.18-5.51.43-11,.66-16.52a57.34,57.34,0,0,1,4.2-19.75,7.13,7.13,0,0,0,.46-3.51c-.53-4.12-2.38-7.75-4.58-11.21-2-3-2.4-3.07-5-.47a1,1,0,0,1-.34.18c-1-.25-1.39-2.26-2.88-.87C83,62.19,77.76,68.62,74.88,76.75c-1,2.74-2.13,5.41-3.32,8.07-2.71,6.11-9.16,6.45-13.92,4.54a1.8,1.8,0,0,0-1.19-.16c-1.53.57-3.05,1.23-4.55,1.89-1,.46-1,1.07-1,2.14a7.76,7.76,0,0,1-1,3.26c-.17.35-1.06.3-1.59.51s-1.65.47-1.8.93c-1,3.11,0,5.43,2.9,6.91,1.48.75,3.21,1.18,3.68,3.17.09.36.69.68,1.12.89a45.38,45.38,0,0,0,23.57,4.37c3.54-.24,5.84-1.25,7-6.16.78-3.36,1.09-6.83,1.67-10.25.41-2.39.93-4.76,1.4-7.14l.39.09V107H90.1Z" transform="translate(-46.15 -31.9)"/><path class="cls-2" d="M92.19,83,90.1,107H88.23V89.81l-.39-.09c-.47,2.38-1,4.75-1.4,7.14-.58,3.42-.89,6.89-1.67,10.25-1.13,4.91-3.43,5.92-7,6.16a45.38,45.38,0,0,1-23.57-4.37c-.43-.21-1-.53-1.12-.89-.47-2-2.2-2.42-3.68-3.17-2.86-1.48-3.91-3.8-2.9-6.91.15-.46,1.16-.67,1.8-.93s1.42-.16,1.59-.51a7.76,7.76,0,0,0,1-3.26c0-1.07,0-1.68,1-2.14,1.5-.66,3-1.32,4.55-1.89a1.8,1.8,0,0,1,1.19.16c4.76,1.91,11.21,1.57,13.92-4.54,1.19-2.66,2.35-5.33,3.32-8.07,2.88-8.13,8.1-14.56,14.31-20.33,1.49-1.39,1.85.62,2.88.87a1,1,0,0,0,.34-.18c2.61-2.6,3.06-2.58,5,.47,2.2,3.46,4,7.09,4.58,11.21a7.13,7.13,0,0,1-.46,3.51,57.34,57.34,0,0,0-4.2,19.75c-.23,5.51-.48,11-.66,16.52,0,.9-.33,1.42-1.18,1.4s-1.43-.34-1.47-1.5c-.26-7.82-.61-15.64-1-23.46a19.86,19.86,0,0,0-.3-2Zm3-26.92-.33-.25c-.74.69-1.54,1.32-2.2,2.07-3,3.49-6,7.05-9.07,10.52a34.62,34.62,0,0,0-6.43,10.69c-.66,1.75-1.2,3.54-1.89,5.27-1.75,4.38-4.31,7.84-9.55,8.14a3.9,3.9,0,0,0-.81.3c2.59.82,4.9,1.51,7.18,2.28a1.66,1.66,0,0,0,2.26-.74c1.44-2.51,2.94-5,4.21-7.6,1.43-3,2.48-6.11,4-9a15.79,15.79,0,0,1,6.57-6.8,2.66,2.66,0,0,0,1-1.35c1.44-3.73,2.84-7.49,4.24-11.24C94.61,57.57,94.87,56.81,95.14,56.06ZM89.49,71.91l-.5-.34a41.46,41.46,0,0,0-3.47,3.14c-3,3.35-4.51,7.46-6.11,11.58a82.17,82.17,0,0,1-4,7.89c-.15.3-.36.57-.53.84,3.7.29,5.82-1.78,7.32-4.7a71.71,71.71,0,0,0,3.15-6.7C86.84,79.76,88.12,75.82,89.49,71.91ZM53.41,100.22l.43.37c.75-.11,1.49-.23,2.24-.32,2.48-.29,3.21-1.21,2.59-3.63a2.66,2.66,0,0,0-1.4-1.56,1.84,1.84,0,0,0-1.62.69C54.79,97.19,54.14,98.73,53.41,100.22ZM71.78,86.4c-3.33,3.13-3.15,3.72-10,4.71C66.28,92,70.53,90,71.78,86.4Zm1.62-3.76.43.17,3.45-8.42-.55-.22Z" transform="translate(-46.15 -31.9)"/><path class="cls-3" d="M95.14,56.06c-.27.75-.53,1.51-.81,2.26-1.4,3.75-2.8,7.51-4.24,11.24a2.66,2.66,0,0,1-1,1.35,15.79,15.79,0,0,0-6.57,6.8c-1.5,2.92-2.55,6.07-4,9-1.27,2.6-2.77,5.09-4.21,7.6a1.66,1.66,0,0,1-2.26.74c-2.28-.77-4.59-1.46-7.18-2.28a3.9,3.9,0,0,1,.81-.3c5.24-.3,7.8-3.76,9.55-8.14.69-1.73,1.23-3.52,1.89-5.27A34.62,34.62,0,0,1,83.54,68.4c3.06-3.47,6-7,9.07-10.52.66-.75,1.46-1.38,2.2-2.07Z" transform="translate(-46.15 -31.9)"/><path class="cls-3" d="M89.49,71.91c-1.37,3.91-2.65,7.85-4.13,11.71a71.71,71.71,0,0,1-3.15,6.7c-1.5,2.92-3.62,5-7.32,4.7.17-.27.38-.54.53-.84a82.17,82.17,0,0,0,4-7.89c1.6-4.12,3.14-8.23,6.11-11.58A41.46,41.46,0,0,1,89,71.57Z" transform="translate(-46.15 -31.9)"/><path class="cls-3" d="M53.41,100.22c.73-1.49,1.38-3,2.24-4.45a1.84,1.84,0,0,1,1.62-.69,2.66,2.66,0,0,1,1.4,1.56c.62,2.42-.11,3.34-2.59,3.63-.75.09-1.49.21-2.24.32Z" transform="translate(-46.15 -31.9)"/><path class="cls-3" d="M71.78,86.4c-1.25,3.61-5.5,5.62-10,4.71C68.63,90.12,68.45,89.53,71.78,86.4Z" transform="translate(-46.15 -31.9)"/><path class="cls-3" d="M73.4,82.64l3.33-8.47.55.22-3.45,8.42Z" transform="translate(-46.15 -31.9)"/></svg>