<?xml version="1.0" encoding="utf-8"?>
<!-- Generator: Adobe Illustrator 22.1.0, SVG Export Plug-In . SVG Version: 6.00 Build 0)  -->
<svg version="1.1" id="Layer_1" xmlns="http://www.w3.org/2000/svg" xmlns:xlink="http://www.w3.org/1999/xlink" x="0px" y="0px"
	 viewBox="0 0 216 216" style="enable-background:new 0 0 216 216;" xml:space="preserve">
<style type="text/css">
	.st0{fill:#6ACAD2;}
	.st1{fill:#DE8182;}
	.st2{fill:#023955;}
</style>
<g>
	<g>
		<path class="st0" d="M182.3,116.8c2.3,0,3.4-1.1,3.4-3.5c0-5.9,0-11.8,0-17.7c0-0.7-0.2-1.1-0.6-1.6c-1.7-1.8-3.7-2.3-5.9-1.1
			c-1.1,0.6-2.1,1.4-3.1,2.1c-2.3,1.8-4,1.8-6.3,0c-0.6-0.5-1.2-1-1.8-1.5c-2.1-1.9-4.6-2.3-7.2-1.3c-1.3,0.5-2.6,1.3-3.8,2
			c-0.7,0.4-1.3,1-2,1.4c-1.9,1.3-3.9,1.3-5.9,0.1c-1.3-0.8-2.6-1.8-3.9-2.8c-1.9-1.4-4-2.4-6.4-2.5c-2-0.1-3.7,0.7-5.2,2
			c-1.6,1.3-2.5,2.8-2.4,5c0.2,5.2,0.1,10.5,0.1,15.7c0,2.5,1.1,3.5,3.5,3.5c7.9,0,15.8,0,23.6,0
			C166.5,116.8,174.4,116.9,182.3,116.8z M185.7,87.8c-0.1-1.4-1.1-2.3-2.5-2.5c-0.3,0-0.7,0-1,0c-15.7,0-31.3,0-47,0
			c-2.6,0-3.6,1-3.6,3.7c0,0.9,0,1.8,0,2.9c0.6-0.6,1-1,1.4-1.5c3.2-3.4,6.7-3.7,10.8-1.4c1.3,0.7,2.4,1.8,3.7,2.6
			c0.8,0.5,1.6,1.1,2.4,1.5c1.7,0.8,3.4,0.8,5-0.2c1-0.6,2-1.4,3-2.1c2.2-1.5,4.6-2.5,7.3-1.7c1.1,0.3,2.2,1.1,3.2,1.8
			c0.9,0.6,1.7,1.4,2.7,2c1.4,0.9,2.9,0.8,4.3-0.1c0.6-0.4,1.2-0.9,1.8-1.3c0.7-0.5,1.5-1,2.3-1.4c2.2-1.1,4-0.7,5.7,1.1
			c0.2,0.2,0.3,0.4,0.7,0.7C185.7,90.3,185.8,89,185.7,87.8z M178.4,82.2c0-1.1,0-2.2,0-3.3c-1,1-1.3,1-2.3,0.1
			c-0.3-0.3-0.6-0.5-0.8-0.8c-1.3-1.3-2.8-1.5-4.5-0.7c-0.6,0.3-1.2,0.6-1.8,1c-1,0.5-2.1,0.6-3.1,0c-2.1-1.4-4.1-1.2-6.1,0.2
			c-1.2,0.8-2.4,0.7-3.7,0c-0.6-0.4-1.2-0.8-1.8-1.1c-1.8-1.1-3.3-0.9-4.9,0.4c-2,1.7-2.2,1.7-4.4,0.1c-1.6-1.2-2.5-1.2-4.1-0.2
			c-2.1,1.4-2.2,1.6-2,4.1c0,0.1,0.1,0.2,0.1,0.3C152,82.2,165.2,82.2,178.4,82.2z M156.5,39.7c-1.2,1.6-0.9,3.1,0.9,4
			c0.3,0.1,0.5,0.2,0.8,0.3c0,0.6,0,1.2,0,1.8c-0.5,0-1,0.1-1.6,0.1c0,4.7,0,9.3,0,14c-0.5,0-0.8,0-1.2,0c-2.6,0-5.1,0-7.7,0
			c-1.4,0-2.4,0.6-2.9,1.9c0.9-0.1,1.8-0.3,2.6-0.1c1.2,0.2,2.3,0.6,3.4,1.2c1.6,0.8,3,0.9,4.4-0.4c1.9-1.6,4.2-1.8,6.3-0.5
			c1.9,1.1,3.7,1.3,5.8,0.8c1.7-0.5,3.4-0.6,5.1,0.1c0.1-1.7-1.1-2.9-2.9-2.9c-1.9,0-3.8,0-5.6,0c-1.1,0-2.2,0-3.4,0
			c0-4.7,0-9.3,0-14c-0.6,0-1.1,0-1.6,0c0-0.7,0-1.3,0-1.6c0.8-0.7,1.6-1.2,2.2-1.9c0.6-0.7,0.6-1.5,0-2.2c-1.1-1.3-2-2.6-2.4-4.2
			c0,0-0.1,0,0.1,0C158,37.3,157.3,38.6,156.5,39.7z M140.8,74.8c1.6-1,2.5-1,4,0.1c0.3,0.2,0.6,0.4,0.8,0.6
			c1.3,0.9,1.9,0.8,3.1-0.2c2.2-2,3.6-2.1,6-0.5c0.3,0.2,0.5,0.3,0.8,0.5c1.5,1,2.9,1.1,4.4,0.1c1.8-1.2,3.7-1.3,5.5-0.1
			c1.3,0.8,2.5,0.7,3.8,0c0.8-0.5,1.7-0.9,2.6-1.1c1.1-0.3,2.2,0,3.1,0.8c0.4,0.4,0.8,0.8,1.3,1.1c0.4,0.2,1,0.5,1.3,0.4
			c0.4-0.2,0.8-0.8,0.8-1.3c0.2-1.8-1.1-3.2-2.9-3.2c-4.3,0-8.6,0-12.9,0c-6.9,0-13.8,0-20.7,0c-2.3,0-3.5,1.7-3,4
			C139.6,75.6,140.2,75.2,140.8,74.8z M172.6,68.9c0-0.9,0-1.7,0-2.6c0-0.2-0.4-0.5-0.7-0.6c-1.3-0.5-2.6-0.3-3.8-0.1
			c-0.6,0.1-1.2,0.3-1.9,0.4c-1.2,0.2-2.4,0.1-3.4-0.4c-0.5-0.3-1-0.5-1.5-0.7c-2-1-3.8-0.8-5.6,0.4c-0.3,0.2-0.6,0.4-0.8,0.6
			c-0.9,0.8-2,1-3.1,0.4c-0.7-0.3-1.3-0.7-2-1c-1.4-0.6-2.8-0.9-4.3-0.4c-0.3,0.1-0.7,0.5-0.7,0.8c-0.1,1,0,2.1,0,3.2
			C154,68.9,163.2,68.9,172.6,68.9z"/>
		<path class="st1" d="M135,116.8c-2.5,0-3.5-1.1-3.5-3.5c0-5.3,0.1-10.5-0.1-15.7c-0.1-2.3,0.8-3.7,2.4-5c1.5-1.3,3.2-2.1,5.2-2
			c2.4,0.1,4.5,1.1,6.4,2.5c1.3,0.9,2.5,1.9,3.9,2.8c1.9,1.2,3.9,1.1,5.9-0.1c0.7-0.4,1.3-1,2-1.4c1.2-0.7,2.5-1.5,3.8-2
			c2.6-1,5-0.6,7.2,1.3c0.6,0.5,1.2,1,1.8,1.5c2.3,1.8,4,1.8,6.3,0c1-0.8,2-1.5,3.1-2.1c2.2-1.2,4.2-0.8,5.9,1.1
			c0.4,0.5,0.6,1,0.6,1.6c0,5.9,0,11.8,0,17.7c0,2.3-1.1,3.5-3.4,3.5c-7.9,0-15.8,0-23.7,0C150.7,116.8,142.8,116.9,135,116.8z
			 M139.5,99.2c0-0.7-0.4-1-1.1-1.1c-0.6,0-1.1,0.5-1.1,1.1c0,0.6,0.5,1.1,1.2,1.1C139.1,100.3,139.6,99.9,139.5,99.2z M178.8,100.3
			c0.7,0,1.1-0.4,1.1-1.1c0-0.6-0.4-1.1-1.1-1.1c-0.7,0-1,0.5-1.1,1.1C177.7,99.9,178.1,100.3,178.8,100.3z M184.3,99.2
			c0-0.7-0.4-1.1-1.1-1c-0.7,0-1.1,0.4-1,1.1c0,0.7,0.5,1,1.1,1.1C183.9,100.3,184.3,99.9,184.3,99.2z M150.8,99.2
			c0,0.7,0.4,1.1,1,1.1c0.7,0,1.1-0.4,1.1-1c0-0.7-0.4-1-1-1.1C151.3,98.2,150.8,98.5,150.8,99.2z M132.9,99.3
			c0,0.7,0.4,1.1,1.1,1.1c0.7,0,1.1-0.4,1.1-1.1c0-0.7-0.4-1-1-1.1C133.3,98.2,132.9,98.6,132.9,99.3z"/>
		<path class="st0" d="M185.7,91.8c0-1.5,0.1-2.7,0-4c-0.1-1.4-1.1-2.3-2.5-2.5c-0.3,0-0.7,0-1,0c-15.7,0-31.3,0-47,0
			c-2.6,0-3.6,1-3.6,3.7c0,0.9,0,1.8,0,2.9c0.6-0.6,1-1,1.4-1.5c3.2-3.4,6.7-3.7,10.8-1.4c1.3,0.7,2.4,1.8,3.7,2.6
			c0.8,0.5,1.6,1.1,2.4,1.5c1.7,0.8,3.4,0.8,5-0.2c1-0.6,2-1.4,3-2.1c2.2-1.5,4.6-2.5,7.3-1.7c1.1,0.3,2.2,1.1,3.2,1.8
			c0.9,0.6,1.7,1.4,2.7,2c1.4,0.9,2.9,0.8,4.3-0.1c0.6-0.4,1.2-0.9,1.8-1.3c0.7-0.5,1.5-1,2.3-1.4c2.2-1.1,4-0.7,5.7,1.1
			C185.2,91.2,185.4,91.4,185.7,91.8z"/>
		<path class="st2" d="M138.9,82.2c13.1,0,26.3,0,39.5,0c0-1.1,0-2.2,0-3.3c-1,1-1.3,1-2.3,0.1c-0.3-0.3-0.6-0.5-0.8-0.8
			c-1.3-1.3-2.8-1.5-4.5-0.7c-0.6,0.3-1.2,0.6-1.8,1c-1,0.5-2.1,0.6-3.1,0c-2.1-1.4-4.1-1.2-6.1,0.2c-1.2,0.8-2.4,0.7-3.7,0
			c-0.6-0.4-1.2-0.8-1.8-1.1c-1.8-1.1-3.3-0.9-4.9,0.4c-2,1.7-2.2,1.7-4.4,0.1c-1.6-1.2-2.5-1.2-4.1-0.2c-2.1,1.4-2.2,1.6-2,4.1
			C138.8,82,138.9,82.1,138.9,82.2z"/>
		<path class="st2" d="M158.8,36c-0.8,1.3-1.4,2.6-2.3,3.7c-1.2,1.6-0.9,3.1,0.9,4c0.3,0.1,0.5,0.2,0.8,0.3c0,0.6,0,1.2,0,1.8
			c-0.5,0-1,0.1-1.6,0.1c0,4.7,0,9.3,0,14c-0.5,0-0.8,0-1.2,0c-2.6,0-5.1,0-7.7,0c-1.4,0-2.4,0.6-2.9,1.9c0.9-0.1,1.8-0.3,2.6-0.1
			c1.2,0.2,2.3,0.6,3.4,1.2c1.6,0.8,3,0.9,4.4-0.4c1.9-1.6,4.2-1.8,6.3-0.5c1.9,1.1,3.7,1.3,5.8,0.8c1.7-0.5,3.4-0.6,5.1,0.1
			c0.1-1.7-1.1-2.9-2.9-2.9c-1.9,0-3.8,0-5.6,0c-1.1,0-2.2,0-3.4,0c0-4.7,0-9.3,0-14c-0.6,0-1.1,0-1.6,0c0-0.7,0-1.3,0-1.6
			c0.8-0.7,1.6-1.2,2.2-1.9c0.6-0.7,0.6-1.5,0-2.2C160,39,159.1,37.6,158.8,36C158.7,36,158.6,36,158.8,36z"/>
		<path class="st1" d="M138.9,76c0.6-0.4,1.2-0.9,1.9-1.3c1.6-1,2.5-1,4,0.1c0.3,0.2,0.6,0.4,0.8,0.6c1.3,0.9,1.9,0.8,3.1-0.2
			c2.2-2,3.6-2.1,6-0.5c0.3,0.2,0.5,0.3,0.8,0.5c1.5,1,2.9,1.1,4.4,0.1c1.8-1.2,3.7-1.3,5.5-0.1c1.3,0.8,2.5,0.7,3.8,0
			c0.8-0.5,1.7-0.9,2.6-1.1c1.1-0.3,2.2,0,3.1,0.8c0.4,0.4,0.8,0.8,1.3,1.1c0.4,0.2,1,0.5,1.3,0.4c0.4-0.2,0.8-0.8,0.8-1.3
			c0.2-1.8-1.1-3.2-2.9-3.2c-4.3,0-8.6,0-12.9,0c-6.9,0-13.8,0-20.7,0C139.6,72,138.4,73.7,138.9,76z"/>
		<path class="st0" d="M144.6,68.9c9.3,0,18.6,0,27.9,0c0-0.9,0-1.7,0-2.6c0-0.2-0.4-0.5-0.7-0.6c-1.3-0.5-2.6-0.3-3.8-0.1
			c-0.6,0.1-1.2,0.3-1.9,0.4c-1.2,0.2-2.4,0.1-3.4-0.4c-0.5-0.3-1-0.5-1.5-0.7c-2-1-3.8-0.8-5.6,0.4c-0.3,0.2-0.6,0.4-0.8,0.6
			c-0.9,0.8-2,1-3.1,0.4c-0.7-0.3-1.3-0.7-2-1c-1.4-0.6-2.8-0.9-4.3-0.4c-0.3,0.1-0.7,0.5-0.7,0.8C144.6,66.7,144.6,67.8,144.6,68.9
			z"/>
		<path class="st1" d="M138.5,100.3c0.6-0.1,1-0.4,1-1.1c0-0.7-0.4-1-1.1-1.1c-0.6,0-1.1,0.5-1.1,1.1
			C137.4,99.9,137.9,100.4,138.5,100.3z"/>
		<path class="st1" d="M177.6,99.3c0.1,0.7,0.5,1.1,1.1,1.1c0.7,0,1.1-0.4,1.1-1.1c0-0.6-0.4-1.1-1.1-1.1
			C178,98.2,177.7,98.6,177.6,99.3z"/>
		<path class="st1" d="M183.2,100.3c0.7-0.1,1.1-0.5,1.1-1.1c0-0.7-0.4-1.1-1.1-1c-0.7,0-1.1,0.4-1,1.1
			C182.2,100,182.6,100.3,183.2,100.3z"/>
		<path class="st1" d="M152,98.1c-0.7,0.1-1.1,0.4-1.2,1.1c0,0.7,0.4,1.1,1,1.1c0.7,0,1.1-0.4,1.1-1C153,98.6,152.6,98.3,152,98.1z"
			/>
		<path class="st1" d="M134,98.1c-0.7,0.1-1.1,0.4-1.1,1.1c0,0.7,0.4,1.1,1.1,1.1c0.7,0,1.1-0.4,1.1-1.1
			C135.1,98.6,134.6,98.2,134,98.1z"/>
	</g>
	<g>
		<path class="st2" d="M49.7,187.5c-2.5,3.7-2,5.3,2.3,6.2c6.2,1.2,12.4,3,18.6,3.6c1.5,0.1,3.6,0.3,5.2-0.2
			c0.8-0.3,1.7-2.7,1.3-3.8c-0.7-2.5-2.7-3.9-5.4-4c-2-0.1-4,0-6-0.1c-0.8-0.1-1.7-0.6-2.5-0.9c0.1-0.4,0.1-0.8,0.2-1.2
			c1.9,0,3.8-0.2,5.6,0c4.9,0.5,8.2-2,8.8-7.1c3.3,0,6.6,0.1,9.9,0c2.8-0.1,5.6-0.4,8.3-0.8c0.7-0.1,1.7-1,1.8-1.6
			c0.1-0.7-0.6-1.6-1.1-2.3c-0.4-0.5-1.1-0.9-1.6-0.9c-4,0.1-6.5-3-10.2-4.7c3-2.8,5.8-5.4,9.3-8.8c1.9,4.6,3.4,8.3,4.8,12
			c1.2,3.2,1.6,6.8,3.2,9.7c2.5,4.4,4,9.2,5.4,14c0.3,0.9,1.6,2.1,2.4,2.1c3.6,0.1,7.3-0.2,11.6-0.3c-0.9-1.8-1.2-3.1-2-3.7
			c-5.6-4.4-8.3-10.4-9.9-17.2c-1.5-6.5-3.2-12.9-4.6-19.4c-0.3-1.1,0-2.5,0.4-3.6c1.9-4.4,4.1-8.7,6.1-13c0.5-1.2,0.7-2.5,1-3.8
			c0.2-0.1,0.5-0.3,0.6-0.3c5.5,2.8,9.8,0,14-2.9c2.1-1.4,4.1-2.9,5.9-4.6c3.3-3,7-3.3,11.4-3.6c4.7-0.3,9.1,0.9,13.6,0.9
			c1.1,0,2.7-0.5,3.1-1.3c0.4-0.9,0-2.5-0.6-3.5c-2.4-4.1-5.7-6.7-11-6c-3,0.4-6.2-0.7-9,0c-5.1,1.3-9.9,3.5-14.8,5.5
			c-5,2-4.9,2-7.6-2.7c-2.1-3.7-4.2-7.4-6.4-11c-2.2-3.6-1-6.9,2.6-9c3.7-2.2,7.2-4.8,10.6-7.5c3.5-2.7,1-6.2,0.7-9.3
			c-0.1-0.7-2.5-1.4-3.9-1.7c-2.5-0.5-5-0.4-7.4-0.9c-1.1-0.2-2.9-0.9-3.1-1.6c-0.7-3.6-3.7-3.4-6.2-4.2c-1.8-0.5-3.5-1.7-5.2-1.5
			c-2.3,0.2-5.2,0.6-6.7,2.1c-8.3,8.3-14,18-15.1,30c-0.6,7-3.2,13.1-8.1,18.5c-4.6,5.1-8,11.1-11.9,16.8c-1.5,2.2-3.1,4.5-4.1,7
			c-2.5,6.4-4.7,12.9-7,19.3c-0.3,0.8-0.2,1.7-0.1,2.5c0.5,3.9-1.7,6.1-5.6,5.4c-4.2-0.8-8.3-1.9-12.5-2.5c-1.6-0.2-3.4,0.6-5.1,0.9
			c0.8,1.7,1,4.2,2.4,5c7.7,4.7,15.7,7.6,24.5,2.6c0.3-0.2,0.8-0.2,1.1-0.4c0.4,0.2,0.8,0.4,1.1,0.6C52,182.7,51.2,185.3,49.7,187.5
			z"/>
		<path class="st2" d="M53.1,180.3c-1.1,2.4-1.8,5.1-3.3,7.2c-2.5,3.7-2,5.3,2.3,6.2c6.2,1.2,12.4,3,18.6,3.6
			c1.5,0.1,3.6,0.3,5.2-0.2c0.8-0.3,1.7-2.7,1.3-3.8c-0.7-2.5-2.7-3.9-5.4-4c-2-0.1-4,0-6-0.1c-0.8-0.1-1.7-0.6-2.5-0.9
			c0.1-0.4,0.1-0.8,0.2-1.2c1.9,0,3.8-0.2,5.6,0c4.9,0.5,8.2-2,8.8-7.1c3.3,0,6.6,0.1,9.9,0c2.8-0.1,5.6-0.4,8.3-0.8
			c0.7-0.1,1.7-1,1.8-1.6c0.1-0.7-0.6-1.6-1.1-2.3c-0.4-0.5-1.1-0.9-1.6-0.9c-4,0.1-6.5-3-10.2-4.7c3-2.8,5.8-5.4,9.3-8.8
			c1.9,4.6,3.4,8.3,4.8,12c1.2,3.2,1.6,6.8,3.2,9.7c2.5,4.4,4,9.2,5.4,14c0.3,0.9,1.6,2.1,2.4,2.1c3.6,0.1,7.3-0.2,11.6-0.3
			c-0.9-1.8-1.2-3.1-2-3.7c-5.6-4.4-8.3-10.4-9.9-17.2c-1.5-6.5-3.2-12.9-4.6-19.4c-0.3-1.1,0-2.5,0.4-3.6c1.9-4.4,4.1-8.7,6.1-13
			c0.5-1.2,0.7-2.5,1-3.8c0.2-0.1,0.5-0.3,0.6-0.3c5.5,2.8,9.8,0,14-2.9c2.1-1.4,4.1-2.9,5.9-4.6c3.3-3,7-3.3,11.4-3.6
			c4.7-0.3,9.1,0.9,13.6,0.9c1.1,0,2.7-0.5,3.1-1.3c0.4-0.9,0-2.5-0.6-3.5c-2.4-4.1-5.7-6.7-11-6c-3,0.4-6.2-0.7-9,0
			c-5.1,1.3-9.9,3.5-14.8,5.5c-5,2-4.9,2-7.6-2.7c-2.1-3.7-4.2-7.4-6.4-11c-2.2-3.6-1-6.9,2.6-9c3.7-2.2,7.2-4.8,10.6-7.5
			c3.5-2.7,1-6.2,0.7-9.3c-0.1-0.7-2.5-1.4-3.9-1.7c-2.5-0.5-5-0.4-7.4-0.9c-1.1-0.2-2.9-0.9-3.1-1.6c-0.7-3.6-3.7-3.4-6.2-4.2
			c-1.8-0.5-3.5-1.7-5.2-1.5c-2.3,0.2-5.2,0.6-6.7,2.1c-8.3,8.3-14,18-15.1,30c-0.6,7-3.2,13.1-8.1,18.5c-4.6,5.1-8,11.1-11.9,16.8
			c-1.5,2.2-3.1,4.5-4.1,7c-2.5,6.4-4.7,12.9-7,19.3c-0.3,0.8-0.2,1.7-0.1,2.5c0.5,3.9-1.7,6.1-5.6,5.4c-4.2-0.8-8.3-1.9-12.5-2.5
			c-1.6-0.2-3.4,0.6-5.1,0.9c0.8,1.7,1,4.2,2.4,5c7.7,4.7,15.7,7.6,24.5,2.6c0.3-0.2,0.8-0.2,1.1-0.4
			C52.3,179.9,52.7,180.1,53.1,180.3z"/>
	</g>
	<g>
		<path class="st0" d="M110.9,104.3l3.1-1.7c2.5-1.4,5.5,0.4,5.5,3.2v3.7c0,2.9-3.2,4.7-5.7,3.1l-3.1-2c-1-0.7-1.7-1.8-1.7-3.1v0
			C109,106.2,109.7,105,110.9,104.3z"/>
		<path class="st0" d="M107.1,104.3l-3.1-1.7c-2.5-1.4-5.5,0.4-5.5,3.2v3.7c0,2.9,3.2,4.7,5.7,3.1l3.1-2c1-0.7,1.7-1.8,1.7-3.1v0
			C109,106.2,108.3,105,107.1,104.3z"/>
	</g>
	<g>
		<path class="st1" d="M84.1,78c-0.2,0.2-0.3,0.5-0.5,0.6c-1.4,1.2-2.7,2.5-3.5,4.2c-0.5,1-0.3,1.8,0.6,2.5c0.3,0.3,0.7,0.5,1.1,0.7
			c2.2,1,4.4,0.7,6.5-0.2c3.8-1.6,7.6-3.4,11.4-5.1c3.6-1.6,7.2-3.2,11-4.2c1.4-0.4,2.9-0.8,4.2-1.3c0.8-0.3,1.6-0.7,2.1-1.3
			c0.3-0.4,0.1-1.2,0.1-1.9c0-1.1-0.2-1.4-1.4-1.4c-1.2-0.1-2.5,0.1-3.7,0.1c-0.4,0-0.6,0-0.7-0.5c-0.4-1.6-0.8-3.2-1.3-4.8
			c-0.7-2.1-1.5-4.1-2.9-5.8c-0.6-0.7-1.3-1.5-2.3-1.6c-1.4-0.2-2.8-0.4-4.2-0.3c-2.8,0.2-5.5,1-8.1,2c-0.7,0.3-1.4,0.6-2.1,0.7
			c-1.5,0.3-3,0.5-4.5,0.9c-0.8,0.2-1.4,0.7-1.8,1.4c-0.8,1.5-1.4,3.1-1.2,4.8c0.1,0.8,0.1,1.7,0.2,2.5C83.5,72.8,83.8,75.4,84.1,78
			L84.1,78z"/>
		<path class="st0" d="M84.1,78.1c0-0.5,0-1.1,0-1.7c1.3-0.1,2.5-0.1,3.8-0.2c3.3-0.4,6.6-0.6,9.9-1.2c3.9-0.6,7.7-1.5,11.5-2.3
			c0.7-0.1,1.4-0.4,2.1-0.6c0.2-0.1,0.5,0.1,0.8,0.1c0,0.1,0,0.2,0,0.3c-0.9,0.4-1.9,0.8-2.8,1.2c-2.9,1.4-5.7,2.8-8.5,4.2
			c-0.2,0.1-0.4,0.2-0.7,0.2c-3.8,0.8-7.6,1.6-11.5,2.3c-1.5,0.3-3,0.2-4.4,0.4C84.2,79.7,84.2,78.9,84.1,78.1
			C84.1,78,84.1,78.1,84.1,78.1z"/>
	</g>
</g>
</svg>
