<svg id="Layer_1" data-name="Layer 1" xmlns="http://www.w3.org/2000/svg" viewBox="0 0 162.27 245.32"><defs><style>.cls-1{fill:#023955;}.cls-2{fill:#de8082;}</style></defs><title>campaign</title><path class="cls-1" d="M65.47,237.5h-41V226.67H41V80.75H26.49V72.53H41c1.9-37,29.45-62.13,61.94-64a62.83,62.83,0,0,1,42.84,13.13c16.67,12.73,25,29.94,26.15,51.09h13.34v8.18H172.17V226.76h14.6v10.7h-4.7c-32.5,0-65,.25-97.5-.19M59.85,81V134.5c8.52,0,16.76-.65,24.86.2,6.59.68,9.83-4.48,15.44-5.89L97,125.17l.48-.5,7.07,4.69V81Zm48.59,9v39c7.57-.08,10.19-3.89,8.62-10.53-.91-3.86-.44-8.09-.24-12.13.11-2.12,1-4.2,1.51-6.31l-1.14-.42c2.1-1.9,4.79-3.53,6.61-.43,2.86,4.87,5.31,10.14,2.54,16.08-.66,1.41-1,3-1.75,5.12l16.85-4.77c-4.15-3.26-2.07-7.17-1.1-11,.15-.59,1-1.42,1.51-1.38s1.22.86,1.51,1.48c1.54,3.33,3,6.7,4.48,10.08,4.32-.24,6.42-2.33,5.73-6.9a27.48,27.48,0,0,1,0-4.16c0-8.28,0-8.32-8-10.72-10.19-3-20.3-3.62-29.53.86Zm-4.87-37.74V29A46.4,46.4,0,0,0,74.34,41.73L90.68,58.19ZM109.2,29c0,7.71-.07,14.75.08,21.78a3.66,3.66,0,0,0,1.93,2.49c3.78,1.82,7.68,3.41,11.07,4.88l16.55-16.23C130.78,34.18,121.12,29.91,109.2,29Zm7.47,98.76c-2,2.49-7.64.89-8.6,6.74,14.82,0,28.81,0,42.79-.1.9,0,2.51-1.39,2.54-2.18.22-5.61.12-11.23.12-17.41-3,1.51-7.47.44-6,5.75.07.25-.88,1.07-1,1-.65-.35-1.59-.85-1.69-1.42-.43-2.56-1.76-2.67-3.88-2-3.34,1.08-6.77,1.89-10.14,2.9-2.72.82-5.59,1.45-8,2.81-1.13.62-1.52,2.74-2.06,4.26-.62,1.74-1,3.55-1.55,5.33ZM86.55,64,69.73,46.75a44.75,44.75,0,0,0-9.88,25.74H83.27Zm43.22,8.47h23.38a42.78,42.78,0,0,0-10-25.8L126.25,63.3ZM153.35,81H108.63c-1.46,7.94-.06,10,7.65,9.77,5.63-.15,11.24-1.22,16.87-1.8a11.31,11.31,0,0,1,3.81.11c5.42,1.32,10.8,2.78,16.39,4.25Zm-29.7-8.49c-1.81-9.64-10-15.33-19.68-14.22-7.5.85-14.39,7.73-14.1,14.22Zm-29,60,.33,1.93c2.62,0,5.24.14,7.84-.09.7-.07,1.31-1.24,2-1.91-.61-.56-1.29-1.65-1.81-1.58C100.17,131.27,97.41,132,94.64,132.53Z" transform="translate(-24.5 -8.4)"/><path class="cls-2" d="M59.85,81h44.7v48.39l-7.07-4.69-.48.5,3.15,3.64c-5.61,1.41-8.85,6.57-15.44,5.89-8.1-.85-16.34-.2-24.86-.2Z" transform="translate(-24.5 -8.4)"/><path class="cls-2" d="M108.44,90,116,93.83C125.2,89.35,135.31,90,145.5,93c8.06,2.4,8.05,2.44,8,10.72a27.48,27.48,0,0,0,0,4.16c.69,4.57-1.41,6.66-5.73,6.9-1.49-3.38-2.94-6.75-4.48-10.08-.29-.62-1-1.43-1.51-1.48s-1.36.79-1.51,1.38c-1,3.8-3.05,7.71,1.1,11l-16.85,4.77c.73-2.16,1.09-3.71,1.75-5.12,2.77-5.94.32-11.21-2.54-16.08-1.82-3.1-4.51-1.47-6.61.43l1.14.42c-.53,2.11-1.4,4.19-1.51,6.31-.2,4-.67,8.27.24,12.13,1.57,6.64-1,10.45-8.62,10.53Z" transform="translate(-24.5 -8.4)"/><path class="cls-2" d="M103.57,52.21l-12.89,6L74.34,41.73A46.4,46.4,0,0,1,103.57,29Z" transform="translate(-24.5 -8.4)"/><path class="cls-2" d="M109.2,29c11.92.91,21.58,5.18,29.63,12.92L122.28,58.15c-3.39-1.47-7.29-3.06-11.07-4.88a3.66,3.66,0,0,1-1.93-2.49C109.13,43.75,109.2,36.71,109.2,29Z" transform="translate(-24.5 -8.4)"/><path class="cls-2" d="M116.67,127.76l2.45,5.69c.51-1.78.93-3.59,1.55-5.33.54-1.52.93-3.64,2.06-4.26,2.45-1.36,5.32-2,8-2.81,3.37-1,6.8-1.82,10.14-2.9,2.12-.68,3.45-.57,3.88,2,.1.57,1,1.07,1.69,1.42.12.07,1.07-.75,1-1-1.43-5.31,3-4.24,6-5.75,0,6.18.1,11.8-.12,17.41,0,.79-1.64,2.17-2.54,2.18-14,.14-28,.1-42.79.1C109,128.65,114.66,130.25,116.67,127.76Z" transform="translate(-24.5 -8.4)"/><path class="cls-2" d="M86.55,64l-3.28,8.49H59.85a44.75,44.75,0,0,1,9.88-25.74Z" transform="translate(-24.5 -8.4)"/><path class="cls-2" d="M129.77,72.47l-3.52-9.17,16.86-16.63a42.78,42.78,0,0,1,10,25.8Z" transform="translate(-24.5 -8.4)"/><path class="cls-2" d="M153.35,81V93.34c-5.59-1.47-11-2.93-16.39-4.25a11.31,11.31,0,0,0-3.81-.11c-5.63.58-11.24,1.65-16.87,1.8-7.71.2-9.11-1.83-7.65-9.77Z" transform="translate(-24.5 -8.4)"/><path class="cls-2" d="M123.65,72.52H89.87C89.58,66,96.47,59.15,104,58.3,113.69,57.19,121.84,62.88,123.65,72.52Z" transform="translate(-24.5 -8.4)"/><path class="cls-2" d="M94.64,132.53c2.77-.58,5.53-1.26,8.32-1.65.52-.07,1.2,1,1.81,1.58-.65.67-1.26,1.84-2,1.91-2.6.23-5.22.09-7.84.09Z" transform="translate(-24.5 -8.4)"/><rect class="cls-2" x="35.35" y="129.57" width="44.92" height="53.79"/><rect class="cls-2" x="84.11" y="129.57" width="44.92" height="53.79"/><rect class="cls-2" x="83.77" y="186.6" width="44.92" height="35.07"/><rect class="cls-2" x="35.35" y="186.6" width="44.92" height="35.07"/><path class="cls-1" d="M119.59,153.67l-.51-.06c-.33,1.54-.67,3.08-1,4.62-.42,2-1.46,2.33-3,1s-2.77-2.57-4.23-3.75a9.31,9.31,0,0,0-2.07-1,8,8,0,0,0-.86,2.35,33.24,33.24,0,0,0,.38,4.55c.38,3.08,1,6.15,1.16,9.24.17,3.66-.17,7.34-.11,11,0,2.17-.44,3.88-2.53,4.88-3.56,1.68-7,3.58-10.66,5.06-17.66,7.18-29.27,26.37-28.11,45,.15,2.39.37,4.77.56,7.09-3,.78-5.73,1.74-8.53,2.17-8,1.24-15.84,1.39-22.54-4.63A15.87,15.87,0,0,1,32.89,224a12.66,12.66,0,0,0,.92-2.51c.1-.76,0-2.05-.41-2.26a3.78,3.78,0,0,0-2.67,0c-.58.2-1,1-1.38,1.58-4.35,6.48-2.93,17.08,3,23.35A26.15,26.15,0,0,0,53,252.88c7.93-.26,15.84-1.06,23.76-1.59a63.06,63.06,0,0,0,6.61-.31c2.63-.44,5.17-1.37,7.78-2a3,3,0,0,1,2.28.27c2.59,2.46,5.85,2.37,9,2.75q5.41.66,10.78,1.58c2.88.49,6.27-.83,6.63-2.76s-1.57-3.47-5.07-4.1a4.88,4.88,0,0,0-1.06-.17c-4.59.28-8.25-2.82-12.72-3.14.32-1.26.59-2.2.79-3.16.64-3.13,1.65-6.25,1.77-9.4.15-3.8,1.07-5.73,4.84-7.24.59,3.62,1.06,7.26,1.79,10.84.93,4.52,2.17,9,6.56,11.52,1.79,1,3.83,1.35,5.28-.7,1-1.36-.27-3.28-2.43-4.69a6.22,6.22,0,0,1-2.33-2.89c-1.79-5.19-.52-10.19,1.17-15.18.7-2.09,1.75-2.25,3.63-1.69,5.47,1.63,10.92,3.5,16.52,4.47a8.37,8.37,0,0,1,5.53,3.56,15.73,15.73,0,0,1,1,2.16,4.06,4.06,0,0,0,5.07,1.87c.58-.17,1.2-2.28.87-3.15-1.58-4.13-3-8.54-7.57-10.53-2.79-1.2-5.61-2.34-8.44-3.46-4.48-1.78-7-7.14-6.4-11.91.82-6,1.75-12.12,1.33-18.1-.43-6.13-.25-11.4,4.57-15.92a5.19,5.19,0,0,0-.36-7.54c-1.17-.91-3.4-.54-4.41-1.52-2.53-2.45-5.46-2.16-8.69-2Q120.3,156.21,119.59,153.67Z" transform="translate(-24.5 -8.4)"/><path class="cls-1" d="M119.59,153.67q.7,2.55,1.44,5.11c3.23-.15,6.16-.44,8.69,2,1,1,3.24.61,4.41,1.52a5.19,5.19,0,0,1,.36,7.54c-4.82,4.52-5,9.79-4.57,15.92.42,6-.51,12.1-1.33,18.1-.64,4.77,1.92,10.13,6.4,11.91,2.83,1.12,5.65,2.26,8.44,3.46,4.6,2,6,6.4,7.57,10.53.33.87-.29,3-.87,3.15a4.06,4.06,0,0,1-5.07-1.87,15.73,15.73,0,0,0-1-2.16,8.37,8.37,0,0,0-5.53-3.56c-5.6-1-11-2.84-16.52-4.47-1.88-.56-2.93-.4-3.63,1.69-1.69,5-3,10-1.17,15.18a6.22,6.22,0,0,0,2.33,2.89c2.16,1.41,3.4,3.33,2.43,4.69-1.45,2.05-3.49,1.73-5.28.7-4.39-2.53-5.63-7-6.56-11.52-.73-3.58-1.2-7.22-1.79-10.84-3.77,1.51-4.69,3.44-4.84,7.24-.12,3.15-1.13,6.27-1.77,9.4-.2,1-.47,1.9-.79,3.16,4.47.32,8.13,3.42,12.72,3.14a4.88,4.88,0,0,1,1.06.17c3.5.63,5.43,2.19,5.07,4.1s-3.75,3.25-6.63,2.76q-5.35-.93-10.78-1.58c-3.18-.38-6.44-.29-9-2.75A3,3,0,0,0,91.1,249c-2.61.59-5.15,1.52-7.78,2a63.06,63.06,0,0,1-6.61.31c-7.92.53-15.83,1.33-23.76,1.59a26.15,26.15,0,0,1-20.63-8.7c-5.9-6.27-7.32-16.87-3-23.35.4-.59.8-1.38,1.38-1.58a3.78,3.78,0,0,1,2.67,0c.42.21.51,1.5.41,2.26a12.66,12.66,0,0,1-.92,2.51,15.87,15.87,0,0,0,4.67,17.23c6.7,6,14.5,5.87,22.54,4.63,2.8-.43,5.52-1.39,8.53-2.17-.19-2.32-.41-4.7-.56-7.09-1.16-18.59,10.45-37.78,28.11-45,3.64-1.48,7.1-3.38,10.66-5.06,2.09-1,2.56-2.71,2.53-4.88-.06-3.66.28-7.34.11-11-.14-3.09-.78-6.16-1.16-9.24a33.24,33.24,0,0,1-.38-4.55,8,8,0,0,1,.86-2.35,9.31,9.31,0,0,1,2.07,1c1.46,1.18,2.8,2.52,4.23,3.75s2.56,1,3-1c.33-1.54.67-3.08,1-4.62Z" transform="translate(-24.5 -8.4)"/></svg>