<svg id="Layer_1" data-name="Layer 1" xmlns="http://www.w3.org/2000/svg" viewBox="0 0 503.78 259.08"><defs><style>.cls-1{fill:#023955;}.cls-2{fill:#6bcad2;}</style></defs><title>cats</title><path class="cls-1" d="M136.7,90.12a36.56,36.56,0,0,0,13.72-21.47C148,77.2,143.19,84.17,136.7,90.12Z" transform="translate(-0.19 -22.02)"/><path class="cls-1" d="M114.06,240.19a58.68,58.68,0,0,1-3.85-5.34c-5.85-10.19-9.23-21.1-9.26-32.95,0-1.52-.28-3-.43-4.56l-.55-.08a8.33,8.33,0,0,0-.83,1.59c-1.5,5.05-3,10.09-4.39,15.18-2,7.36-3.93,14.72-5.69,22.14-1.36,5.71-2.16,11.56-3.64,17.24-1.31,5-3.21,9.85-4.88,14.76a6.13,6.13,0,0,1-1,1.84c.73-2.28,1.48-4.56,2.21-6.85,1.18-3.74,2.53-7.43,3.48-11.22a105.43,105.43,0,0,0,2.33-12.05,153.36,153.36,0,0,1,4.52-21.32c1.58-5.75,3.24-11.48,4.9-17.21.59-2.05,1.3-4.06,1.91-6.11.39-1.32.07-1.69-1.23-2.24-2.77-1.16-5.54-2.32-8.22-3.66-1.72-.86-3.46-.7-5.24-.73-.71,0-1.62.32-1.88-.83,0-.08-.38-.13-.58-.1a71.15,71.15,0,0,1-7.09.89c-2.94.08-4.18,2.43-6.13,3.89a9.58,9.58,0,0,0-3.93,7.23c-1.43-.36-2.3.32-2.61,1.88-.65,3.3.32,6.26,1.76,9.16,2.64,5.29,5.22,10.59,7.91,16-1.33,0-1.36.1-1.05.81.09.21-.16.54-.14.8.36,3.68-1.59,6.81-2.4,10.21-.47,2-.66,4.11-1,6.17-2.8,1.12-3.09,3.81-3.7,6.22a2,2,0,0,1-1.21,1.64,4.81,4.81,0,0,0-2.48,4.42c0,1.52.15,3.05.14,4.57,0,.42-.39.82-.5,1.26a3.31,3.31,0,0,0-.17,1.51c1,4,2.09,8.07,3.17,12.17-1.44.52-.08,1.74-.38,2.64H.19V73a41.66,41.66,0,0,1,4.65-2.28c1.83-.66,3.78-1,5.67-1.52a19.36,19.36,0,0,0,2.93-1.06c1.14-.54,1.13-.92.05-1.67a2.35,2.35,0,0,0-.49-.17l.21-.33c1.42,0,2.85.1,4.25,0,3.33-.3,6.67-.6,10-1.08,2.76-.4,4.08-2.62,5.3-4.8.22-.39,0-1-.09-1.74a11.52,11.52,0,0,0,1.74-.45,60.39,60.39,0,0,0,5.73-2.43c1.7-.89,1.63-1,.8-3,5.91.7,10.65-2,15.55-4.61L56,46.86a51.85,51.85,0,0,0,4.88-2.48q9.08-5.84,18-11.83c3.88-2.58,7.66-5.32,11.55-7.88a27.78,27.78,0,0,1,4.65-2.35c2.14-.87,3.77.2,4.26,2.55.55,2.63-.22,5.1-.76,7.61a2.25,2.25,0,0,0,.4,1.46c-1.82,2-3.42,4.14-3.28,7.21l1.23.24c-1,1.2-2,2.24-2.87,3.37a11.14,11.14,0,0,0-1.66,2.76c-.22.56.1,1.33.18,2-1.18,2.34-2.42,4.83-3.72,7.41l.6.43a39.9,39.9,0,0,0-1.38,4.82c-.35,2.3.64,3.33,2.91,2.81,4.19-1,8.46-1.73,12.06-4.39a24.33,24.33,0,0,1,4.21-2.34c.47-.22,1.43-.22,1.65.07a2.45,2.45,0,0,1,.16,1.79,20.32,20.32,0,0,1-1,3c-.12.29-.5.46-.74.7-1,1-2,2-3,3-.18.19-.45.5-.4.65.5,1.42-.72,1.69-1.46,2.29a4.17,4.17,0,0,0-1.6,4.16c0,.23-.23.53-.39.76-1.48,2.1-1.39,3.78.37,5.61a17.94,17.94,0,0,0,2.92,2.8,46.41,46.41,0,0,1,7.35,6.2c.28.27,1,.15,1.43.21,1.13,1.41,2.28,2.93,3.54,4.36a5.33,5.33,0,0,0,1.82,1.23c1.9.82,2.77.44,3.58-1.44C124,88,126.32,82.22,130,77.15c1.92-2.63,3.77-5.46,6.23-7.5,3.39-2.81,7.32-5,11-7.37A24.84,24.84,0,0,1,149.93,61l.17.29c-1.62,1-3.23,1.93-4.85,2.88A46.48,46.48,0,0,0,131.71,76a61,61,0,0,0-8.37,15.76,28.78,28.78,0,0,0-1.33,5,2.81,2.81,0,0,0,.61,2c.18.24,1.2.07,1.65-.22,1.86-1.18,3.64-2.48,5.45-3.73a2.06,2.06,0,0,1,1.2-.44c-2,1.51-3.94,3.06-6,4.53a1.79,1.79,0,0,0-.73,2.36,13.16,13.16,0,0,0,1.11,1.75c2.83-1.23,5.53-2.5,8.31-3.58,8-3.16,16.33-4.59,25-3.23a9.3,9.3,0,0,1,1.25.35c.11,0,.19.16.57.51-.77-.06-1.24,0-1.7-.13-6.42-1.31-12.66,0-18.9,1.32a43.63,43.63,0,0,0-11.73,4.3c-1.62.87-2.14,2.25-1.37,3.38.54.81,1,.87,1.93.35,3-1.77,6.13-3.42,9.21-5.11l.17.27-2,1.21-6.63,4.15a1.8,1.8,0,0,0-.39.34c-.62.7-1.3,1.48-.52,2.4s1.61.68,2.57.15a34.09,34.09,0,0,1,5.18-2.28,58.29,58.29,0,0,0-5.12,3.48,3.62,3.62,0,0,0-1.06,2.5c0,1.81.39,3.62.51,5.44.08,1.23.72,1.78,1.83,1.67a31,31,0,0,0,3.56-.67,12.18,12.18,0,0,0,1.33-.44l.23.35c-1.72,1.19-3.36,2.49-5.16,3.54s-1.91,1.06-1.82,3.14c.11,2.3.3,4.62.21,6.92a18.25,18.25,0,0,0,2.69,9.68c2.23,4,4.18,8.22,6.43,12.24,2,3.5,1.28,6.85-.86,9.69a31.93,31.93,0,0,0-4.32,9,14.69,14.69,0,0,1-5.23,7.34,26,26,0,0,1-5.35,2.37c-1.8.73-2.18,1.35-1.66,3.18A40,40,0,0,0,130,201.07l.81,1a16.86,16.86,0,0,1-5.37-6.29c-1.26-2.48-2.5-5-3.65-7.52a2.37,2.37,0,0,0-2.17-1.36,1.39,1.39,0,0,0-1.11.77,10.85,10.85,0,0,0-.47,3.55c.46,4.18,2.25,7.94,4,11.68a35.3,35.3,0,0,0,5.63,9.07,8.43,8.43,0,0,1,.63.93l-.28.23c-.93-1.1-2-2.13-2.77-3.31a56.89,56.89,0,0,1-7.68-15.37,15.79,15.79,0,0,0-.86-2.19,1.33,1.33,0,0,0-2.13-.6,19.7,19.7,0,0,0-3.23,3,2.67,2.67,0,0,0-.35,2.08,35.69,35.69,0,0,0,2.18,7.22c3.13,6.27,6.47,12.44,9.89,18.56,1.91,3.41,4.13,6.66,6.24,10a4.11,4.11,0,0,0,1.09,1.07,16.69,16.69,0,0,1,2.69,2.1l-2.75-1.54,3,6.24-.22.12c-1-1.56-2-3.07-2.87-4.69a12.74,12.74,0,0,0-4.5-4.58,47.71,47.71,0,0,1-18.51-23.06c-1.21-3.24-1.7-6.74-2.61-10.1a11,11,0,0,0-1.2-2.24l-.71.11a39.7,39.7,0,0,0-.94,6.06c0,6.83.51,13.59,3.24,20,1.83,4.28,3.61,8.59,5.58,12.8a53.34,53.34,0,0,0,3.34,5.42Zm12.88-8.87.21-.21c-.12-.21-.24-.42-.37-.63-2.6-4.17-5.43-8.23-7.76-12.55-3-5.67-5.73-11.54-8.53-17.34-.55-1.13-.81-2.4-1.41-3.5-.4-.75-1-1.66-2.1-1.4a1.89,1.89,0,0,0-1.51,2.38,33,33,0,0,0,.78,4,65.11,65.11,0,0,0,2.59,8.31,44.79,44.79,0,0,0,12,15.82C122.84,227.9,124.9,229.6,126.94,231.32Z" transform="translate(-0.19 -22.02)"/><path class="cls-1" d="M136.7,90.12c6.49-6,11.34-12.92,13.72-21.47A36.56,36.56,0,0,1,136.7,90.12Z" transform="translate(-0.19 -22.02)"/><path class="cls-1" d="M114,240.21l4.46,4.21a11.36,11.36,0,0,1-4.44-4.23Z" transform="translate(-0.19 -22.02)"/><path class="cls-1" d="M126.94,231.32c-2-1.72-4.1-3.42-6.12-5.16a44.79,44.79,0,0,1-12-15.82,65.11,65.11,0,0,1-2.59-8.31,33,33,0,0,1-.78-4,1.89,1.89,0,0,1,1.51-2.38c1.14-.26,1.7.65,2.1,1.4.6,1.1.86,2.37,1.41,3.5,2.8,5.8,5.48,11.67,8.53,17.34,2.33,4.32,5.16,8.38,7.76,12.55.13.21.25.42.37.63Z" transform="translate(-0.19 -22.02)"/><path class="cls-1" d="M504,267.5q0-88.45-.14-176.91c0-3.59-1.85-7.25-3.2-10.73-1.2-3.08-3.86-5.84-4.25-8.94C494.61,57,484.75,47.19,478.92,35.38c-2.37-4.8-6.6-6.82-12.52-4.34-9.51,4-13.89,12.05-17.93,20.57-1.42,3-2.7,6.06-4,9.1-2,4.65-5.17,7.42-10.33,8.92-4.62,1.34-9,4.14-12.94,7.07-14.76,11-31.25,18.88-48.34,25-8.88,3.18-18.73.35-27.87-2.82-10.64-3.69-21.39-6.76-32.94-5.27-8.49,1.09-11.08,5.39-6.7,12.68,7.65,12.75,15.36,25.48,23.46,38,4.31,6.63,9.49,12.7,14.27,19a4.21,4.21,0,0,1,.93,1.56c1.38,7.5,3.4,15,3.9,22.54.74,11.24,3.64,20.71,13.24,27.85,5.35,4,9.4,9.71,14.07,14.62a4.84,4.84,0,0,0,2,1.46c18.46,4.77,30.27,21.16,47.52,27.6,14.42,5.38,29.67,6.72,44.31-.25,3.23-1.53,4.73-1.6,7.72,1C485.1,267,494.18,273.5,504,281.09Z" transform="translate(-0.19 -22.02)"/><path class="cls-1" d="M476.75,259.67c-3-2.62-4.49-2.55-7.72-1-14.64,7-29.89,5.63-44.31.25-17.25-6.44-29.06-22.83-47.52-27.6a4.84,4.84,0,0,1-2-1.46c-4.67-4.91-8.72-10.64-14.07-14.62-9.6-7.14-12.5-16.61-13.24-27.85-.5-7.57-2.52-15-3.9-22.54a4.21,4.21,0,0,0-.93-1.56c-4.78-6.33-10-12.4-14.27-19-8.1-12.47-15.81-25.2-23.46-37.95C301,99,303.54,94.7,312,93.61c11.55-1.49,22.3,1.58,32.94,5.27,9.14,3.17,19,6,27.87,2.82,17.09-6.12,33.58-14,48.34-25,3.92-2.93,8.32-5.73,12.94-7.07,5.16-1.5,8.32-4.27,10.33-8.92,1.32-3,2.6-6.1,4-9.1,4-8.52,8.42-16.58,17.93-20.57,5.92-2.48,10.15-.46,12.52,4.34,5.83,11.81,15.69,21.63,17.45,35.54.39,3.1,3.05,5.86,4.25,8.94,1.35,3.48,3.19,7.14,3.2,10.73q.29,88.46.14,176.91v13.59C494.18,273.5,485.1,267,476.75,259.67ZM394.8,191.28c-.88-2.38.94-7.18-3.76-5.78-3,.88-6.43,4.3-7.19,7.22-1.3,5.06,3.88,11.34,9.69,13.81,5.53,2.35,12.63,1.43,15.8-3.36,2-3,3.35-7.79,2.5-11.15-1.3-5.13-7.81-7.29-13.67-6.21,1.17,4,2.36,8.13,3.56,12.21l-2.83,1C397.5,196.47,395.79,194,394.8,191.28Zm77.78-18.8-3.07,1.41-6.43-10.64c-4.81,1.63-8.71,8-7,12.41,2.41,6.17,11.15,8.72,18.24,5.33,6.07-2.91,9.6-13.49,6.51-19.5-2.4-4.67-6.88-5.38-12.34-2.16Z" transform="translate(-0.19 -22.02)"/><path class="cls-2" d="M398.9,199.05c-1.4-2.58-3.11-5-4.1-7.77-.88-2.38.94-7.18-3.76-5.78-3,.88-6.43,4.3-7.19,7.22-1.3,5.06,3.88,11.34,9.69,13.81,5.53,2.35,12.63,1.43,15.8-3.36,2-3,3.35-7.79,2.5-11.15-1.3-5.13-7.81-7.29-13.67-6.21,1.17,4,2.36,8.13,3.56,12.21Z" transform="translate(-0.19 -22.02)"/><path class="cls-2" d="M468.5,159.33l4.08,13.15-3.07,1.41-6.43-10.64c-4.81,1.63-8.71,8-7,12.41,2.41,6.17,11.15,8.72,18.24,5.33,6.07-2.91,9.6-13.49,6.51-19.5C478.44,156.82,474,156.11,468.5,159.33Z" transform="translate(-0.19 -22.02)"/></svg>