<svg id="Layer_1" data-name="Layer 1" xmlns="http://www.w3.org/2000/svg" viewBox="0 0 175.26 258.5"><defs><style>.cls-1{fill:#023955;}.cls-2{fill:#6bcad2;}</style></defs><title>check</title><path class="cls-1" d="M65.47,237.5h-41V226.67H41V80.75H26.49V72.53H41c1.9-37,29.45-62.13,61.94-64a62.83,62.83,0,0,1,42.84,13.13c16.67,12.73,25,29.94,26.15,51.09h13.34v8.18H172.17V226.76h14.6v10.7h-4.7c-32.5,0-65,.25-97.5-.19M59.85,81V134.5c8.52,0,16.76-.65,24.86.2,6.59.68,9.83-4.48,15.44-5.89L97,125.17l.48-.5,7.07,4.69V81Zm48.59,9v39c7.57-.08,10.19-3.89,8.62-10.53-.91-3.86-.44-8.09-.24-12.13.11-2.12,1-4.2,1.51-6.31l-1.14-.42c2.1-1.9,4.79-3.53,6.61-.43,2.86,4.87,5.31,10.14,2.54,16.08-.66,1.41-1,3-1.75,5.12l16.85-4.77c-4.15-3.26-2.07-7.17-1.1-11,.15-.59,1-1.42,1.51-1.38s1.22.86,1.51,1.48c1.54,3.33,3,6.7,4.48,10.08,4.32-.24,6.42-2.33,5.73-6.9a27.48,27.48,0,0,1,0-4.16c0-8.28,0-8.32-8-10.72-10.19-3-20.3-3.62-29.53.86Zm-4.87-37.74V29A46.4,46.4,0,0,0,74.34,41.73L90.68,58.19ZM109.2,29c0,7.71-.07,14.75.08,21.78a3.66,3.66,0,0,0,1.93,2.49c3.78,1.82,7.68,3.41,11.07,4.88l16.55-16.23C130.78,34.18,121.12,29.91,109.2,29Zm7.47,98.76c-2,2.49-7.64.89-8.6,6.74,14.82,0,28.81,0,42.79-.1.9,0,2.51-1.39,2.54-2.18.22-5.61.12-11.23.12-17.41-3,1.51-7.47.44-6,5.75.07.25-.88,1.07-1,1-.65-.35-1.59-.85-1.69-1.42-.43-2.56-1.76-2.67-3.88-2-3.34,1.08-6.77,1.89-10.14,2.9-2.72.82-5.59,1.45-8,2.81-1.13.62-1.52,2.74-2.06,4.26-.62,1.74-1,3.55-1.55,5.33ZM86.55,64,69.73,46.75a44.75,44.75,0,0,0-9.88,25.74H83.27Zm43.22,8.47h23.38a42.78,42.78,0,0,0-10-25.8L126.25,63.3ZM153.35,81H108.63c-1.46,7.94-.06,10,7.65,9.77,5.63-.15,11.24-1.22,16.87-1.8a11.31,11.31,0,0,1,3.81.11c5.42,1.32,10.8,2.78,16.39,4.25Zm-29.7-8.49c-1.81-9.64-10-15.33-19.68-14.22-7.5.85-14.39,7.73-14.1,14.22Zm-29,60,.33,1.93c2.62,0,5.24.14,7.84-.09.7-.07,1.31-1.24,2-1.91-.61-.56-1.29-1.65-1.81-1.58C100.17,131.27,97.41,132,94.64,132.53Z" transform="translate(-11.51 -8.4)"/><path class="cls-2" d="M59.85,81h44.7v48.39l-7.07-4.69-.48.5,3.15,3.64c-5.61,1.41-8.85,6.57-15.44,5.89-8.1-.85-16.34-.2-24.86-.2Z" transform="translate(-11.51 -8.4)"/><path class="cls-2" d="M108.44,90,116,93.83C125.2,89.35,135.31,90,145.5,93c8.06,2.4,8.05,2.44,8,10.72a27.48,27.48,0,0,0,0,4.16c.69,4.57-1.41,6.66-5.73,6.9-1.49-3.38-2.94-6.75-4.48-10.08-.29-.62-1-1.43-1.51-1.48s-1.36.79-1.51,1.38c-1,3.8-3.05,7.71,1.1,11l-16.85,4.77c.73-2.16,1.09-3.71,1.75-5.12,2.77-5.94.32-11.21-2.54-16.08-1.82-3.1-4.51-1.47-6.61.43l1.14.42c-.53,2.11-1.4,4.19-1.51,6.31-.2,4-.67,8.27.24,12.13,1.57,6.64-1,10.45-8.62,10.53Z" transform="translate(-11.51 -8.4)"/><path class="cls-2" d="M103.57,52.21l-12.89,6L74.34,41.73A46.4,46.4,0,0,1,103.57,29Z" transform="translate(-11.51 -8.4)"/><path class="cls-2" d="M109.2,29c11.92.91,21.58,5.18,29.63,12.92L122.28,58.15c-3.39-1.47-7.29-3.06-11.07-4.88a3.66,3.66,0,0,1-1.93-2.49C109.13,43.75,109.2,36.71,109.2,29Z" transform="translate(-11.51 -8.4)"/><path class="cls-2" d="M116.67,127.76l2.45,5.69c.51-1.78.93-3.59,1.55-5.33.54-1.52.93-3.64,2.06-4.26,2.45-1.36,5.32-2,8-2.81,3.37-1,6.8-1.82,10.14-2.9,2.12-.68,3.45-.57,3.88,2,.1.57,1,1.07,1.69,1.42.12.07,1.07-.75,1-1-1.43-5.31,3-4.24,6-5.75,0,6.18.1,11.8-.12,17.41,0,.79-1.64,2.17-2.54,2.18-14,.14-28,.1-42.79.1C109,128.65,114.66,130.25,116.67,127.76Z" transform="translate(-11.51 -8.4)"/><path class="cls-2" d="M86.55,64l-3.28,8.49H59.85a44.75,44.75,0,0,1,9.88-25.74Z" transform="translate(-11.51 -8.4)"/><path class="cls-2" d="M129.77,72.47l-3.52-9.17,16.86-16.63a42.78,42.78,0,0,1,10,25.8Z" transform="translate(-11.51 -8.4)"/><path class="cls-2" d="M153.35,81V93.34c-5.59-1.47-11-2.93-16.39-4.25a11.31,11.31,0,0,0-3.81-.11c-5.63.58-11.24,1.65-16.87,1.8-7.71.2-9.11-1.83-7.65-9.77Z" transform="translate(-11.51 -8.4)"/><path class="cls-2" d="M123.65,72.52H89.87C89.58,66,96.47,59.15,104,58.3,113.69,57.19,121.84,62.88,123.65,72.52Z" transform="translate(-11.51 -8.4)"/><path class="cls-2" d="M94.64,132.53c2.77-.58,5.53-1.26,8.32-1.65.52-.07,1.2,1,1.81,1.58-.65.67-1.26,1.84-2,1.91-2.6.23-5.22.09-7.84.09Z" transform="translate(-11.51 -8.4)"/><rect class="cls-2" x="48.34" y="129.57" width="44.92" height="53.79"/><rect class="cls-2" x="97.1" y="129.57" width="44.92" height="53.79"/><rect class="cls-2" x="96.76" y="186.6" width="44.92" height="35.07"/><rect class="cls-2" x="48.34" y="186.6" width="44.92" height="35.07"/><path class="cls-1" d="M104.48,180.58c-1.29-1.2-2.59-2.48-4-3.67-.38-.32-1.24-.64-1.5-.45a2.18,2.18,0,0,0-.68,1.59,20.06,20.06,0,0,0,.35,3.27c.43,2.73,1.14,5.44,1.3,8.18.22,4,.49,7.81,2.84,11.24,1.32,1.94,1,4.12.24,6.21a1.89,1.89,0,0,1-1,1c-5.65,1.93-9.69,5.85-13.28,10.42a44,44,0,0,1-9.32,8.84A25.48,25.48,0,0,0,71,236.81c-1.51,3.12-2.48,6.51-3.76,9.76a4.85,4.85,0,0,1-1.2,1.59,26.26,26.26,0,0,0-3,2.77,11.11,11.11,0,0,1-7.93,4.58c-6.39.82-12.66-.11-18.82-1.74-3.84-1-6.74-3.69-9.81-6.08-3.64-2.84-8-3.57-12.46-3.17a3.29,3.29,0,0,0-2.43,1.79,4.9,4.9,0,0,0,.86,3.27,5.23,5.23,0,0,0,2.28,1.58,39.93,39.93,0,0,0,4.1,1.59,11.94,11.94,0,0,1,5.06,3,17.44,17.44,0,0,0,3.21,2.51,38.62,38.62,0,0,0,18.48,6c6.21.4,12.51.47,18.1-2.66,3.15-1.77,5.6-1.63,8.31.46a2.2,2.2,0,0,1,1.13,1.82c.1,2.22.84,2.81,3.07,2.84,3.52,0,7,.11,10.54.12,2,0,4,.25,5.65-1.31.22-.21.8-.07,1.21-.07a38.13,38.13,0,0,0,5-.08,3.29,3.29,0,0,0,2.12-1.56c.21-.38-.61-1.34-1-2-.12-.19-.44-.25-.68-.38a4.69,4.69,0,0,1,.57-.72,25.83,25.83,0,0,0,8.29-11.61,13.65,13.65,0,0,1,1.87-3.24c.91-1.24,2.07-2.3,3-3.55,1.28-1.82,2.58-2,3.79-.14s2.51,4,3.64,6c1.33,2.44,2.54,4.93,3.79,7.41.55,1.11,1.09,2.23,1.58,3.37s.87,2.17,1.42,3.54a6.93,6.93,0,0,0-.46,1.06c-.61,1.89-.24,2.54,1.71,2.7s3.87.16,5.81.18a1.8,1.8,0,0,0,2-2.25,4.76,4.76,0,0,0-.62-1.76,52.2,52.2,0,0,1-6.15-17,30.38,30.38,0,0,0-1.48-4.3,8.45,8.45,0,0,1-.66-2.82,30,30,0,0,1,.72-5.75,5,5,0,0,1,1.72-2.44,30.7,30.7,0,0,1,2.89-1.56,13,13,0,0,0,3.13-2.49c3.18-4,5.06-8.66,6.65-13.45s2.54-9.55,5.68-13.52a21.14,21.14,0,0,1,3-2.81c.84-.72,2.5-1,1.3-2.67-.09-.12.07-.52.23-.69a1.48,1.48,0,0,0-.26-2.31,10,10,0,0,0-1.73-1.1,3.88,3.88,0,0,0-4.7.91,66.45,66.45,0,0,0-10,15.71,23.26,23.26,0,0,1-1.43,2.47c-.57-.85-.93-1.42-1.33-2-2.13-2.91-4.25-5.83-6.43-8.71-1.25-1.65-2.64-3.2-3.9-4.85s-1.08-3.32-.19-5.25a23.32,23.32,0,0,0,1.48-6.08c.09-.58-.51-1.31-.9-1.9-.28-.43-.89-.67-1.09-1.11-.73-1.6-1.89-1.48-3.29-1.11a4.89,4.89,0,0,1-2.71.18c-2.3-.88-4.44-1.32-6.44.67l-1.86-2.39-.47.1-.22,2.92Z" transform="translate(-11.51 -8.4)"/><path class="cls-1" d="M104.48,180.58l2.47-1.37.22-2.92.47-.1,1.86,2.39c2-2,4.14-1.55,6.44-.67a4.89,4.89,0,0,0,2.71-.18c1.4-.37,2.56-.49,3.29,1.11.2.44.81.68,1.09,1.11.39.59,1,1.32.9,1.9a23.32,23.32,0,0,1-1.48,6.08c-.89,1.93-1.1,3.57.19,5.25s2.65,3.2,3.9,4.85c2.18,2.88,4.3,5.8,6.43,8.71.4.54.76,1.11,1.33,2a23.26,23.26,0,0,0,1.43-2.47,66.45,66.45,0,0,1,10-15.71,3.88,3.88,0,0,1,4.7-.91,10,10,0,0,1,1.73,1.1,1.48,1.48,0,0,1,.26,2.31c-.16.17-.32.57-.23.69,1.2,1.71-.46,1.95-1.3,2.67a21.14,21.14,0,0,0-3,2.81c-3.14,4-4.13,8.86-5.68,13.52s-3.47,9.47-6.65,13.45a13,13,0,0,1-3.13,2.49,30.7,30.7,0,0,0-2.89,1.56,5,5,0,0,0-1.72,2.44,30,30,0,0,0-.72,5.75,8.45,8.45,0,0,0,.66,2.82,30.38,30.38,0,0,1,1.48,4.3,52.2,52.2,0,0,0,6.15,17,4.76,4.76,0,0,1,.62,1.76,1.8,1.8,0,0,1-2,2.25c-1.94,0-3.89,0-5.81-.18s-2.32-.81-1.71-2.7a6.93,6.93,0,0,1,.46-1.06c-.55-1.37-1-2.47-1.42-3.54s-1-2.26-1.58-3.37c-1.25-2.48-2.46-5-3.79-7.41-1.13-2.06-2.34-4.09-3.64-6s-2.51-1.68-3.79.14c-.89,1.25-2,2.31-3,3.55a13.65,13.65,0,0,0-1.87,3.24,25.83,25.83,0,0,1-8.29,11.61,4.69,4.69,0,0,0-.57.72c.24.13.56.19.68.38.41.67,1.23,1.63,1,2a3.29,3.29,0,0,1-2.12,1.56,38.13,38.13,0,0,1-5,.08c-.41,0-1-.14-1.21.07-1.65,1.56-3.68,1.31-5.65,1.31-3.51,0-7-.08-10.54-.12-2.23,0-3-.62-3.07-2.84A2.2,2.2,0,0,0,72,262.1c-2.71-2.09-5.16-2.23-8.31-.46-5.59,3.13-11.89,3.06-18.1,2.66a38.62,38.62,0,0,1-18.48-6,17.44,17.44,0,0,1-3.21-2.51,11.94,11.94,0,0,0-5.06-3,39.93,39.93,0,0,1-4.1-1.59,5.23,5.23,0,0,1-2.28-1.58,4.9,4.9,0,0,1-.86-3.27A3.29,3.29,0,0,1,14,244.52c4.48-.4,8.82.33,12.46,3.17,3.07,2.39,6,5.07,9.81,6.08,6.16,1.63,12.43,2.56,18.82,1.74A11.11,11.11,0,0,0,63,250.93a26.26,26.26,0,0,1,3-2.77,4.85,4.85,0,0,0,1.2-1.59c1.28-3.25,2.25-6.64,3.76-9.76a25.48,25.48,0,0,1,8.46-9.57,44,44,0,0,0,9.32-8.84c3.59-4.57,7.63-8.49,13.28-10.42a1.89,1.89,0,0,0,1-1c.74-2.09,1.08-4.27-.24-6.21-2.35-3.43-2.62-7.28-2.84-11.24-.16-2.74-.87-5.45-1.3-8.18a20.06,20.06,0,0,1-.35-3.27,2.18,2.18,0,0,1,.68-1.59c.26-.19,1.12.13,1.5.45C101.89,178.1,103.19,179.38,104.48,180.58Z" transform="translate(-11.51 -8.4)"/></svg>