<svg id="Layer_1" data-name="Layer 1" xmlns="http://www.w3.org/2000/svg" viewBox="0 0 217.59 216.46"><defs><style>.cls-1{fill:#023955;}.cls-2{fill:#fff;}</style></defs><title>chef_1</title><path class="cls-1" d="M291.47,256.69H74.67c-.1-1.19-.24-2.09-.24-3,.06-12.63.17-25.26.2-37.88q.08-21.73,0-43.45c0-8.53-.23-17.06-.26-25.59-.05-12.82,0-25.65,0-38.47,0-7-.21-14-.23-20.94,0-8.21.11-16.42.08-24.63,0-5.91-.17-11.82-.31-17.73-.09-3.48.45-4.07,3.79-4.07q17,0,33.93,0c9.07,0,18.14.11,27.22.06,5.79,0,11.58-.38,17.38-.4,8.51,0,17,.14,25.54.14,7.58,0,15.16-.19,22.74-.2,4.75,0,9.5.28,14.26.27,5.66,0,11.33-.19,17-.29,7-.11,14-.29,21-.28,3.91,0,7.82.4,11.73.5,5.67.15,11.34.19,17,.27h1.38c4.31.08,4.58.32,4.55,4.56-.06,9.21-.24,18.42-.22,27.63,0,16.68.23,33.36.27,50,0,21.15,0,42.3,0,63.45v55.64C291.46,247,291.47,251.66,291.47,256.69ZM178.36,62.19C127.92,64,88.66,109.3,95.58,161a87.23,87.23,0,1,0,82.78-98.85Z" transform="translate(-73.9 -40.23)"/><path class="cls-2" d="M148.72,133.72c-1.07,2.91-2.35,5.77-3.18,8.74-2,7.26-.79,14.2,2.46,20.87.29.61.49,1.27.73,1.9C142.59,156.47,142.59,142.32,148.72,133.72Z" transform="translate(-73.9 -40.23)"/><path class="cls-2" d="M162.09,176.73a31.33,31.33,0,0,0,24.9.41,5,5,0,0,1,1.12-.18c-4.86,2.86-10.2,3.44-15.63,3A50.85,50.85,0,0,1,164,178,7.42,7.42,0,0,1,162.09,176.73Z" transform="translate(-73.9 -40.23)"/><path class="cls-1" d="M210.09,163.14c1.46.32,2.71.69,4,.86,3.59.49,7.1.36,10.14-2,4.43-3.4,5.83-10.37,3.16-15.63-1.6-3.14-4.08-5.23-7.62-5.61a17.1,17.1,0,0,0-5.71.28c-3.67.85-7.28,2-10.88,3.11-2.83.9-5.59,2-8.6,2.13a2.08,2.08,0,0,1-2.14-1.15c-5-8-11-15-19.38-19.77-7.51-4.24-15.47-6-24-3.83-9.23,2.31-15,8.47-18.09,17.22a12.26,12.26,0,0,0-.57,4.56c.2,4.34,2.39,7.8,5.34,10.8a46,46,0,0,0,16.4,10.36,2.17,2.17,0,0,1,1.7,2.08c.31,3.41.74,6.82,0,10.22-.32,1.55-.13,2.22,1.36,2.79a49.18,49.18,0,0,0,6.34,2.13,84.58,84.58,0,0,0,17.45,1.86,111.15,111.15,0,0,0,24.1-1.61,42.51,42.51,0,0,0,5.53-1.47c1.85-.63,2.54-2,1.93-3.61C208.91,172.4,209.63,167.84,210.09,163.14Z" transform="translate(-73.9 -40.23)"/><path class="cls-1" d="M210.09,163.14c-.46,4.7-1.18,9.26.52,13.75.61,1.61-.08,3-1.93,3.61a42.51,42.51,0,0,1-5.53,1.47,111.15,111.15,0,0,1-24.1,1.61,84.58,84.58,0,0,1-17.45-1.86,49.18,49.18,0,0,1-6.34-2.13c-1.49-.57-1.68-1.24-1.36-2.79.7-3.4.27-6.81,0-10.22a2.17,2.17,0,0,0-1.7-2.08,46,46,0,0,1-16.4-10.36c-2.95-3-5.14-6.46-5.34-10.8a12.26,12.26,0,0,1,.57-4.56c3.12-8.75,8.86-14.91,18.09-17.22,8.5-2.12,16.46-.41,24,3.83,8.35,4.72,14.39,11.75,19.38,19.77a2.08,2.08,0,0,0,2.14,1.15c3-.16,5.77-1.23,8.6-2.13,3.6-1.15,7.21-2.26,10.88-3.11a17.1,17.1,0,0,1,5.71-.28c3.54.38,6,2.47,7.62,5.61,2.67,5.26,1.27,12.23-3.16,15.63-3,2.33-6.55,2.46-10.14,2C212.8,163.83,211.55,163.46,210.09,163.14Zm-14-11.36-.23.17a5.32,5.32,0,0,1-.37-.46c-2.68-3.69-5.16-7.53-8.05-11-5-6-10.79-11.1-18.12-14.15-6.63-2.76-13.46-4.12-20.62-2.52-7.77,1.75-13.54,6-16.39,13.65a10.89,10.89,0,0,0,.27,8.44,23.56,23.56,0,0,0,5.2,7.18c4.56,4.56,9.94,8,15.48,11.22a.94.94,0,0,0,.35,0c.06-.43.12-.83.18-1.23s.1-.86.14-1.25c-5.72-2-10.42-4.88-12-11.11,3.48,5.73,7.47,8.53,12.72,8.84l1.73-3.17c-4.14-3.32-7.09-7.3-6.87-12.91.77,5.27,4,8.63,8.44,11.11l3.14-2.5a12.08,12.08,0,0,1-1-8A12,12,0,0,0,163,151c2.33-.53,4.56-1.15,6.82-1.53,4.49-.74,8.66.51,12.56,2.56,3.3,1.74,6.37,3.91,9.63,5.72,6,3.31,12,3.47,18,.08.32-.18.68-.33,1.22-.59a18.87,18.87,0,0,0-.49,2.36c0,.34.19.93.44,1,2.94,1.06,5.95,1.75,9.08,1,5.42-1.31,8.75-7.5,7.12-13.09-1.14-4-4.81-7.06-9.35-6.12-2.15.44-4.29.91-6.43,1.39-6,1.31-11.62,4.29-18.12,3.06Zm-39.22,23.16c8-3,16.5-3.23,25-3.32s17,.28,25.11,2.58c.19-4.14.38-8.3.57-12.51l-1.45.36a18.43,18.43,0,0,1-12.43-.86,90.75,90.75,0,0,1-9-5.08c-3.15-1.91-6.36-3.72-10-4.19-5.72-.72-10.94.63-15.11,4.79a11.3,11.3,0,0,0-3.36,8.88C156.36,168.71,156.66,171.83,156.91,174.94Zm51.38,2.6c-.86-.38-1.49-.72-2.16-.94a52.44,52.44,0,0,0-12.85-2.16,119.55,119.55,0,0,0-20.64,0c-4.15.39-8.27,1.22-12.39,1.94a15,15,0,0,0-2.81,1.15,11,11,0,0,0,1.12.64,13.34,13.34,0,0,0,1.59.61,62.06,62.06,0,0,0,14.7,2.13c9.34.47,18.66.37,27.89-1.4A13.49,13.49,0,0,0,208.29,177.54Z" transform="translate(-73.9 -40.23)"/><path class="cls-1" d="M196.13,151.78l-2.61-5c6.5,1.23,12.16-1.75,18.12-3.06,2.14-.48,4.28-.95,6.43-1.39,4.54-.94,8.21,2.17,9.35,6.12,1.63,5.59-1.7,11.78-7.12,13.09-3.13.75-6.14.06-9.08-1-.25-.09-.46-.68-.44-1a18.87,18.87,0,0,1,.49-2.36c-.54.26-.9.41-1.22.59-6,3.39-12.07,3.23-18-.08-3.26-1.81-6.33-4-9.63-5.72-3.9-2.05-8.07-3.3-12.56-2.56-2.26.38-4.49,1-6.82,1.53a12,12,0,0,1-2.85-6.91,12.08,12.08,0,0,0,1,8L158,154.6c-4.41-2.48-7.67-5.84-8.44-11.11-.22,5.61,2.73,9.59,6.87,12.91l-1.73,3.17c-5.25-.31-9.24-3.11-12.72-8.84,1.55,6.23,6.25,9.12,12,11.11,0,.39-.09.82-.14,1.25s-.12.8-.18,1.23a.94.94,0,0,1-.35,0c-5.54-3.22-10.92-6.66-15.48-11.22a23.56,23.56,0,0,1-5.2-7.18,10.89,10.89,0,0,1-.27-8.44c2.85-7.68,8.62-11.9,16.39-13.65,7.16-1.6,14-.24,20.62,2.52,7.33,3.05,13.14,8.12,18.12,14.15,2.89,3.5,5.37,7.34,8.05,11a5.32,5.32,0,0,0,.37.46Z" transform="translate(-73.9 -40.23)"/><path class="cls-1" d="M156.91,174.94c-.25-3.11-.55-6.23-.72-9.35a11.3,11.3,0,0,1,3.36-8.88c4.17-4.16,9.39-5.51,15.11-4.79,3.67.47,6.88,2.28,10,4.19a90.75,90.75,0,0,0,9,5.08,18.43,18.43,0,0,0,12.43.86l1.45-.36c-.19,4.21-.38,8.37-.57,12.51-8.09-2.3-16.59-2.68-25.11-2.58S164.89,171.93,156.91,174.94Z" transform="translate(-73.9 -40.23)"/><path class="cls-1" d="M208.29,177.54a13.49,13.49,0,0,1-5.55,2c-9.23,1.77-18.55,1.87-27.89,1.4a62.06,62.06,0,0,1-14.7-2.13,13.34,13.34,0,0,1-1.59-.61,11,11,0,0,1-1.12-.64,15,15,0,0,1,2.81-1.15c4.12-.72,8.24-1.55,12.39-1.94a119.55,119.55,0,0,1,20.64,0,52.44,52.44,0,0,1,12.85,2.16C206.8,176.82,207.43,177.16,208.29,177.54Z" transform="translate(-73.9 -40.23)"/></svg>