<svg id="Layer_1" data-name="Layer 1" xmlns="http://www.w3.org/2000/svg" viewBox="0 0 217.59 216.46"><defs><style>.cls-1{fill:#023955;}.cls-2{fill:#fff;}</style></defs><title>chef</title><path class="cls-1" d="M291.47,262.21H74.67c-.1-1.19-.24-2.09-.24-3,.06-12.62.17-25.25.2-37.87q.08-21.74,0-43.45c0-8.53-.23-17.06-.26-25.59-.05-12.83,0-25.65,0-38.47,0-7-.21-14-.23-20.94,0-8.21.11-16.42.08-24.63,0-5.91-.17-11.82-.31-17.73-.09-3.48.45-4.08,3.79-4.07q17,0,33.93,0c9.07,0,18.14.11,27.22.06,5.79,0,11.58-.38,17.38-.4,8.51,0,17,.14,25.54.13,7.58,0,15.16-.18,22.74-.19,4.75,0,9.5.28,14.26.27,5.66,0,11.33-.19,17-.29,7-.11,14-.29,21-.28,3.91,0,7.82.4,11.73.5,5.67.15,11.34.19,17,.27.46,0,.92,0,1.38,0,4.31.08,4.58.32,4.55,4.56-.06,9.21-.24,18.42-.22,27.63,0,16.68.23,33.36.27,50,0,21.15,0,42.3,0,63.45v55.64C291.46,252.51,291.47,257.18,291.47,262.21ZM178.36,67.71c-50.44,1.78-89.7,47.11-82.78,98.85a87.23,87.23,0,1,0,82.78-98.85Z" transform="translate(-73.9 -45.75)"/><path class="cls-1" d="M219.93,154.05c.25,24-20.09,44.54-44.65,44.51-25.36,0-44.19-19.5-44.31-42.93-.13-24.94,19.6-43.62,42.72-44.74C200.31,109.61,220.15,130.47,219.93,154.05Zm-28-25.63a5.37,5.37,0,0,0-.88-.71,31.11,31.11,0,0,0-26.58-1.79,9.71,9.71,0,0,0-2,1.36c-1.22.6-2.49,1.12-3.66,1.81-4.25,2.52-7.31,6.23-10.17,10.15-6.13,8.6-6.13,22.75,0,31.51,3.44,5,7.53,9.26,13.36,11.5a7.42,7.42,0,0,0,1.95,1.31,50.85,50.85,0,0,0,8.44,1.89c5.43.47,10.77-.11,15.63-3a73.2,73.2,0,0,0,7.77-5.16c2.24-1.9,4-4.36,6-6.57a43.24,43.24,0,0,0,2.43-4.42c3.85-9.49,3.52-18.72-2-27.55A32.51,32.51,0,0,0,192,128.42Z" transform="translate(-73.9 -45.75)"/><path class="cls-1" d="M243.42,190.82c1.1-14.47.41-28.92-.55-43.36a7.06,7.06,0,0,0-1.62-3.84c-5-5.78-5.53-15.74-1-21.93,2.84-3.92,6.65-4,9.72-.09,5,6.38,4.5,16-.08,21.92a5.33,5.33,0,0,0-1.2,3q.34,19.14.91,38.27c.07,2.3.61,4.58.77,6.88.23,3.17-.72,4.36-3.27,4.41-2.74.05-3.65-1-3.64-4.36Z" transform="translate(-73.9 -45.75)"/><path class="cls-1" d="M233.67,137.5c-.64,11-1.45,22-1.86,32.95-.22,6.22.21,12.46.35,18.69,0,1.15.18,2.3.15,3.45-.06,2.8-1.07,3.88-3.48,3.83-2.72,0-3.87-1.19-3.65-4.1.3-4.06,1-8.1,1.21-12.16.47-10.59,1.2-21.15-1-31.71a60.64,60.64,0,0,1,1.53-30.13,18.31,18.31,0,0,1,2.16-4.56c1-1.51,2.12-1.39,2.58.32a31.92,31.92,0,0,1,1.24,7.23c.18,5.39.06,10.78.06,16.17Z" transform="translate(-73.9 -45.75)"/><path class="cls-1" d="M125.12,139.89V122.41l.88-.16a6.11,6.11,0,0,1,.88,2c.21,6.45.47,12.89.39,19.34,0,2.38-.52,4.92-3.21,6.23-.45.22-.66,1.34-.66,2.05,0,11.15-.53,22.32,1.19,33.41a15.8,15.8,0,0,1,.1,3c-.1,2-1.13,3-3.23,3s-3.26-.84-3.38-2.89c-.08-1.45.09-2.91.09-4.36q0-15.91-.1-31.83a2.62,2.62,0,0,0-1.73-2.85,4.08,4.08,0,0,1-1.84-2.5c-2.23-7.63-1.67-15.38-.84-23.13,0-.38.42-.72,1.14-1q.74,8.59,1.48,17.2h1V121.67l1.17,0c1.73,5.94,1,12.21,2,18.28,1.09-6.06-.24-12.34,1.21-18.36h1c.24,3.1.47,6.19.7,9.29l.72,9.12Z" transform="translate(-73.9 -45.75)"/><path class="cls-1" d="M201.87,170.75c-2,2.21-3.75,4.67-6,6.57a73.2,73.2,0,0,1-7.77,5.16,5,5,0,0,0-1.12.18,31.33,31.33,0,0,1-24.9-.41c-5.83-2.24-9.92-6.49-13.36-11.5-.24-.64-.44-1.29-.73-1.9-3.25-6.67-4.5-13.61-2.46-20.87.83-3,2.11-5.83,3.18-8.74,2.86-3.92,5.92-7.63,10.17-10.15,1.17-.69,2.44-1.21,3.66-1.81,6.58-2.88,13.37-4,20.4-2.1,3.07.84,6,2.15,9,3.24a32.51,32.51,0,0,1,10.35,10.36,9.31,9.31,0,0,0,.5,1.49,29.37,29.37,0,0,1,2.27,22.21A87.78,87.78,0,0,1,201.87,170.75Z" transform="translate(-73.9 -45.75)"/><path class="cls-2" d="M201.87,170.75a87.78,87.78,0,0,0,3.22-8.27,29.37,29.37,0,0,0-2.27-22.21,9.31,9.31,0,0,1-.5-1.49c5.5,8.83,5.83,18.06,2,27.55A43.24,43.24,0,0,1,201.87,170.75Z" transform="translate(-73.9 -45.75)"/><path class="cls-2" d="M148.72,139.24c-1.07,2.91-2.35,5.77-3.18,8.74-2,7.26-.79,14.2,2.46,20.87.29.61.49,1.26.73,1.9C142.59,162,142.59,147.84,148.72,139.24Z" transform="translate(-73.9 -45.75)"/><path class="cls-2" d="M192,128.42c-3-1.09-5.95-2.4-9-3.24-7-1.9-13.82-.78-20.4,2.1a9.71,9.71,0,0,1,2-1.36,31.11,31.11,0,0,1,26.58,1.79A5.37,5.37,0,0,1,192,128.42Z" transform="translate(-73.9 -45.75)"/><path class="cls-2" d="M162.09,182.25a31.33,31.33,0,0,0,24.9.41,5,5,0,0,1,1.12-.18c-4.86,2.86-10.2,3.44-15.63,3a50.85,50.85,0,0,1-8.44-1.89A7.42,7.42,0,0,1,162.09,182.25Z" transform="translate(-73.9 -45.75)"/></svg>