<svg id="Layer_1" data-name="Layer 1" xmlns="http://www.w3.org/2000/svg" viewBox="0 0 217.59 216.46"><defs><style>.cls-1{fill:#023955;}</style></defs><title>chef_2</title><path class="cls-1" d="M291.47,256.69H74.67c-.1-1.19-.24-2.09-.24-3,.06-12.63.17-25.26.2-37.88q.08-21.73,0-43.45c0-8.53-.23-17.06-.26-25.59-.05-12.82,0-25.65,0-38.47,0-7-.21-14-.23-20.94,0-8.21.11-16.42.08-24.63,0-5.91-.17-11.82-.31-17.73-.09-3.48.45-4.07,3.79-4.07q17,0,33.93,0c9.07,0,18.14.11,27.22.06,5.79,0,11.58-.38,17.38-.4,8.51,0,17,.14,25.54.14,7.58,0,15.16-.19,22.74-.2,4.75,0,9.5.28,14.26.27,5.66,0,11.33-.19,17-.29,7-.11,14-.29,21-.28,3.91,0,7.82.4,11.73.5,5.67.15,11.34.19,17,.27h1.38c4.31.08,4.58.32,4.55,4.56-.06,9.21-.24,18.42-.22,27.63,0,16.68.23,33.36.27,50,0,21.15,0,42.3,0,63.45v55.64C291.46,247,291.47,251.66,291.47,256.69ZM178.36,62.19C127.92,64,88.66,109.3,95.58,161a87.23,87.23,0,1,0,82.78-98.85Z" transform="translate(-73.9 -40.23)"/><path class="cls-1" d="M197.79,180.65h-.24c0,.89,0,1.79.16,2.68a2.84,2.84,0,0,0,2.84,2.77,11.91,11.91,0,0,0,1.34.06c2.54,0,3.7-.92,3.71-3.42,0-2.75-.29-5.5-.45-8.25-.34-5.81-.85-11.62-1-17.44-.2-9.74-.14-19.49-.16-29.23a1.53,1.53,0,0,1,.45-1c5.45-4.49,7.52-10.41,6.89-17.22A17.63,17.63,0,0,0,204.92,97a4.69,4.69,0,0,0-6.35-.11,16.86,16.86,0,0,0-5.31,7.47c-3.25,7.93-.49,17.71,5.5,22.28a1.75,1.75,0,0,1,.52,1.26c0,9.52.13,19.05-.12,28.56C198.94,164.56,198.27,172.6,197.79,180.65Zm-39.47-52.74c.12,1.61.33,3.2.35,4.8.07,7.43.22,14.86.08,22.29-.1,5.85-.56,11.7-.9,17.55-.16,2.64-.56,5.27-.64,7.91-.11,3.68,1.15,4.84,4.81,4.77.33,0,.66-.06,1-.1a2.51,2.51,0,0,0,2.43-2.12,22.34,22.34,0,0,0,.32-4.76c-.33-5.52-1-11-1.14-16.53-.21-7.16-.14-14.34-.08-21.5,0-3.73.31-7.46.47-11.19a1.23,1.23,0,0,1,1-1.32,3.18,3.18,0,0,0,1.76-1.4,22.44,22.44,0,0,0,1.69-4.82,61.57,61.57,0,0,0,.9-14.28c-.15-4.51-.4-9-.7-13.53,0-.64-.65-1.23-1-1.84-.3.58-.62,1.15-.91,1.74-.05.09,0,.22,0,.33-.1,5.9-.16,11.8-.3,17.7,0,1.75-.26,3.5-.4,5.25l-.45,0a9.78,9.78,0,0,1-.62-1.82,49.67,49.67,0,0,1-.49-5c-.2-5.41-.31-10.83-.51-16.24a23,23,0,0,0-.49-3l-.59,0c-.16,1.23-.4,2.45-.47,3.68-.34,6.23-.62,12.46-1,18.68-.07,1.24-.31,2.47-.48,3.7h-.34a6.78,6.78,0,0,1-.25-1.06c-.2-2.42-.42-4.83-.55-7.25-.27-4.85-.47-9.7-.75-14.54a29.46,29.46,0,0,0-.54-3.21h-.42a8.13,8.13,0,0,0-.39,1.31c-.13,1.15-.25,2.31-.28,3.46-.16,5.75-.28,11.5-.47,17.25a39.4,39.4,0,0,1-.5,4h-.37a8.31,8.31,0,0,1-.37-1.36c-.23-2.15-.53-4.3-.62-6.45-.22-5.08-.33-10.15-.52-15.23a11.5,11.5,0,0,0-.41-1.88h-.55a11,11,0,0,0-.65,2,123.69,123.69,0,0,0-.83,21.68,29.78,29.78,0,0,0,1.6,9.11C155.38,126.36,156.24,127.73,158.32,127.91Zm27.36-45-.36-.08-.7,1a36.34,36.34,0,0,0-5.32,11.88c-3.19,12.16-2.9,24.46-1.4,36.81.32,2.62,1,5.21,1.15,7.84.3,5.07.52,10.15.48,15.22-.05,6.27-.34,12.53-.62,18.8-.13,2.71-.59,5.41-.7,8.13-.15,4,1,5,4.93,4.86,2.13-.06,3.26-1.06,3.38-3.22a35,35,0,0,0-.07-4.58c-.32-4.5-.92-9-1-13.49-.12-7.5,0-15,.17-22.51.06-2.6.6-5.19.62-7.79q.12-15.51.05-31c0-6.2-.13-12.4-.24-18.59A31.71,31.71,0,0,0,185.68,82.9Z" transform="translate(-73.9 -40.23)"/><path class="cls-1" d="M197.79,180.65c.48-8.05,1.15-16.09,1.37-24.15.25-9.51.12-19,.12-28.56a1.75,1.75,0,0,0-.52-1.26c-6-4.57-8.75-14.35-5.5-22.28a16.86,16.86,0,0,1,5.31-7.47,4.69,4.69,0,0,1,6.35.11,17.63,17.63,0,0,1,6.45,12.5c.63,6.81-1.44,12.73-6.89,17.22a1.53,1.53,0,0,0-.45,1c0,9.74,0,19.49.16,29.23.11,5.82.62,11.63,1,17.44.16,2.75.48,5.5.45,8.25,0,2.5-1.17,3.41-3.71,3.42a11.91,11.91,0,0,1-1.34-.06,2.84,2.84,0,0,1-2.84-2.77c-.11-.89-.11-1.79-.16-2.68Z" transform="translate(-73.9 -40.23)"/><path class="cls-1" d="M158.32,127.91c-2.08-.18-2.94-1.55-3.54-3.15a29.78,29.78,0,0,1-1.6-9.11A123.69,123.69,0,0,1,154,94a11,11,0,0,1,.65-2h.55a11.5,11.5,0,0,1,.41,1.88c.19,5.08.3,10.15.52,15.23.09,2.15.39,4.3.62,6.45a8.31,8.31,0,0,0,.37,1.36h.37a39.4,39.4,0,0,0,.5-4c.19-5.75.31-11.5.47-17.25,0-1.15.15-2.31.28-3.46a8.13,8.13,0,0,1,.39-1.31h.42A29.46,29.46,0,0,1,160.1,94c.28,4.84.48,9.69.75,14.54.13,2.42.35,4.83.55,7.25a6.78,6.78,0,0,0,.25,1.06H162c.17-1.23.41-2.46.48-3.7.35-6.22.63-12.45,1-18.68.07-1.23.31-2.45.47-3.68l.59,0a23,23,0,0,1,.49,3c.2,5.41.31,10.83.51,16.24a49.67,49.67,0,0,0,.49,5,9.78,9.78,0,0,0,.62,1.82l.45,0c.14-1.75.36-3.5.4-5.25.14-5.9.2-11.8.3-17.7,0-.11,0-.24,0-.33.29-.59.61-1.16.91-1.74.35.61,1,1.2,1,1.84.3,4.5.55,9,.7,13.53a61.57,61.57,0,0,1-.9,14.28,22.44,22.44,0,0,1-1.69,4.82,3.18,3.18,0,0,1-1.76,1.4,1.23,1.23,0,0,0-1,1.32c-.16,3.73-.44,7.46-.47,11.19-.06,7.16-.13,14.34.08,21.5.17,5.52.81,11,1.14,16.53a22.34,22.34,0,0,1-.32,4.76,2.51,2.51,0,0,1-2.43,2.12c-.34,0-.67.09-1,.1-3.66.07-4.92-1.09-4.81-4.77.08-2.64.48-5.27.64-7.91.34-5.85.8-11.7.9-17.55.14-7.43,0-14.86-.08-22.29C158.65,131.11,158.44,129.52,158.32,127.91Z" transform="translate(-73.9 -40.23)"/><path class="cls-1" d="M185.68,82.9a31.71,31.71,0,0,1,.38,3.2c.11,6.19.22,12.39.24,18.59q0,15.51-.05,31c0,2.6-.56,5.19-.62,7.79-.14,7.5-.29,15-.17,22.51.07,4.5.67,9,1,13.49a35,35,0,0,1,.07,4.58c-.12,2.16-1.25,3.16-3.38,3.22-4,.12-5.08-.89-4.93-4.86.11-2.72.57-5.42.7-8.13.28-6.27.57-12.53.62-18.8,0-5.07-.18-10.15-.48-15.22-.16-2.63-.83-5.22-1.15-7.84-1.5-12.35-1.79-24.65,1.4-36.81a36.34,36.34,0,0,1,5.32-11.88l.7-1Z" transform="translate(-73.9 -40.23)"/><polyline class="cls-1" points="72.59 78.62 72.59 182.3 139.46 182.3"/><polyline class="cls-1" points="141.56 78.62 141.56 182.3 74.69 182.3"/></svg>