<svg id="Layer_1" data-name="Layer 1" xmlns="http://www.w3.org/2000/svg" viewBox="0 0 504.44 244.34"><defs><style>.cls-1{fill:#023955;}</style></defs><title>dogs_2</title><path class="cls-1" d="M-.44,279.48A7.84,7.84,0,0,1,.78,278c9.76-7.69,12.92-18.82,15.69-30.13,2.58-10.53,7.54-20,13.47-28.91,1-1.49,2.63-2.56,4.06-3.72,5-4.08,8.33-9,8.65-15.71a10.36,10.36,0,0,1,1.1-4c5.25-10.34,6.2-21.68,8-32.85a141.09,141.09,0,0,1,4.67-18.47c1.59-5.11,3.89-10,5.75-15a5.21,5.21,0,0,0-.1-2.76C60.8,120.72,59.59,115,58,109.46c-1.3-4.55-3.25-8.9-4.58-13.44q-2.87-9.73-5.17-19.64a45.11,45.11,0,0,1-.61-8.08,51.11,51.11,0,0,0-7-23.67c4.09-2.14,10.6-.61,13.39,2.65,1.88,2.2,4.29,3.94,6.27,6.06,4.18,4.48,8.24,9.08,12.34,13.63,6.94,7.72,14.39,14.47,25.84,13.67q9.39-.65,18.78-1.23c2.17-.14,3.08-1.44,3.83-3.36,1.44-3.7,3-7.36,4.83-10.9,3.64-7.16,7-14.42,7.3-22.61a55.08,55.08,0,0,0-.61-7.17c2.65.56,4,2,4.59,4.66,1.65,7.5-.31,14.56-1.91,21.75-1.25,5.59-2.21,11.39,1,16.71a8.8,8.8,0,0,0,3.88,3.42c6.57,2.74,13.46,4.76,19.83,7.87,5.74,2.8,9.32,7.76,10.49,14.35s4.27,11.69,11.31,14c9.93,3.25,19.63,7.19,29.48,10.66,8.59,3,11.07,6.33,9.76,15.22-1.36,9.26-3.17,18.45-5.08,27.61-1.47,7-5.63,12.6-10.87,17.34-3.57,3.24-7.87,2.13-11.74,1-2.87-.82-5.08-.68-7.16,1.28-3.82,3.6-8.39,4.77-13.47,4.25a6.49,6.49,0,0,0-5.93,2.52c-5.13,5.76-11.17,6.15-17.2,1.33-1.85-1.49-3.56-3.17-5.44-4.63-3-2.34-6.15-1.66-7.06,1.92-2.56,10.09-6.35,19.8-6.42,30.6A46.21,46.21,0,0,0,136.46,250c4.93,9.41,8.32,19.62,12.37,29.48Z" transform="translate(0.44 -35.37)"/><path class="cls-1" d="M504,112.28c-5.22-10.72-14.7-18.07-21.78-27.32-3.05-4-7-7.26-10.54-10.88-3-3.08-5.62-6.58-8.93-9.23-6.38-5.1-14.19-5.94-22-5.94-11,0-21.42,3-31.61,6.82-1.23.47-2.46.93-3.71,1.3-3.41,1-6.63,2-9.13,5-1.79,2.13-4.71,3.28-6.86,5.17-5,4.39-9.49,9.24-12.32,15.41a8.32,8.32,0,0,1-2.38,3c-4.38,3.36-5.13,7.73-3.6,12.65s-.15,8.92-3.54,11.91c-4.89,4.31-10.32,8-15.57,11.91q-7.32,5.43-14.76,10.71c-1.66,1.19-3.46,2.2-5.17,3.34-2.59,1.72-3.41,3.75-2.58,6.76,1.19,4.37,2,8.92,6,11.95a3.38,3.38,0,0,1,.87,2c.64,4.08,3.21,6.5,6.47,8.8a44.68,44.68,0,0,0,23.06,8.1c4.05.31,8.16.26,12.15.93a36.63,36.63,0,0,1,10.09,3.07c5.45,2.69,9.7,1.11,13.34-2.94,3.49-3.89,7.74-4.84,12.63-4.19,1.37,5.91,0,11.7-1,17.46-1,6.19-2.43,12.31-3.61,18.47a38.21,38.21,0,0,0-.64,5.21c-.26,5-.39,10-.63,15-.45,8.87,1.71,17.21,5,25.36,1.93,4.87,4.89,9.45,4.52,15.05,0,.79.75,1.63,1.17,2.45H504Z" transform="translate(0.44 -35.37)"/></svg>