<svg id="Layer_1" data-name="Layer 1" xmlns="http://www.w3.org/2000/svg" viewBox="0 0 258.14 214.97"><defs><style>.cls-1{fill:#023955;}.cls-2{fill:#2c2c2c;}</style></defs><title>donate</title><path class="cls-1" d="M0,222.8c.21-1.93.45-3.85.6-5.78a10.44,10.44,0,0,1,.45-3.18l1.1,8.85h.57l.8-5.93.47-.08.85,3.81L6,214.25c.79,1.27,1.51,2.41,2.36,3.75l2.19-1.86c3.23.77,3.23,3.67,4.28,6l.63-5.4,2.31,2.16L20,217.22l.34,2.4.19,0,.17-3,.43-.06,1.1,3.77h.6l.83-3.73,2.54,2.13.44-2.13.7-.07L29,223.67l.4,0-.71-7.52,2.17,3.77,1-1.26,1.4,1.71L36.37,216l1.76,1.48c.06-.38.18-.62.13-.81-.74-2.42-.91-4.36,2.37-5.15a4.81,4.81,0,0,0,3.73-4.6c.12-2.73-.19-5.49-.1-8.22.2-6.33.35-12.68.87-19,.4-4.89,1.31-9.74,2-14.61a9.88,9.88,0,0,1,.69-3c.9-1.81,1.42-3.43.13-5.35-.42-.62,0-1.8,0-2.72,0-.6,0-1.6-.24-1.74-2.26-1.05-1.38-2.36-.72-4a5.82,5.82,0,0,0-.07-3.45c-1.72-6.23-3.58-12.43-5.32-18.66a24.61,24.61,0,0,1-.28-3.12c-.29-2.2-2.37-2.87-4.32-1.36L34,119.2c2.21-2.16,2.18-3.82.25-6.3-.75-1-1.72-2.64-1.37-3.47,2-4.62,0-10,2.86-14.4.87-1.37.75-2.62-1-3.75-2.22-1.43-2-5.26.38-5.85,2.88-.72,3.38-2.86,3.9-5a8.27,8.27,0,0,1,7.77-6.18c2,.05,3.93,0,6.44,0a28.25,28.25,0,0,0-.79-4c-1.52-4.23-.52-8.06,1.68-11.74,2.84-4.75,5.47-9.62,11.1-11.83,3.92-1.54,7.57-3.13,12-1.49,3.79,1.38,8,1.69,11.93,2.6,5,1.15,6.9,4.3,5.61,9.35a15.65,15.65,0,0,1-1.37,4,10.6,10.6,0,0,0-.32,10.65,10.61,10.61,0,0,1,.55,2.37c-4.47,1.49-4.4,5.66-5.58,8.82-1.06,2.84-1.38,3.56-4.22,3-6.19-1.22-8.28.11-9.88,6.17-.6,2.26-1.63,4.36,1.06,6.21.8.54.68,2.36,1.07,3.56,1,3,1.48,6.34,3.17,8.88,2.78,4.17,6.35,7.82,9.69,11.8a11.66,11.66,0,0,0,1.48-1.8,19.24,19.24,0,0,1,8.19-7.77,5.16,5.16,0,0,0,2.9-4.54c.26-2.79,1.1-3.32,3.74-2.36,1.42.52,2.69,1.47,4.12,2a33.61,33.61,0,0,1,8.32,4.22c2.59,1.81,6.11,2.25,8.85,3.89a76,76,0,0,1,8.74,6.72c2.18,1.78,4.24,3.72,6.47,5.7,1.25-1.86,2.14-3.32,3.16-4.69,2.66-3.56,5.38-7.09,8.08-10.63a4.47,4.47,0,0,0-2.79-6.94,15.58,15.58,0,0,1-3.56-1.57,32.75,32.75,0,0,0-3.67-2,10.89,10.89,0,0,1-7.58-10.24c0-.2,0-.39,0-.58-.24-5.1-.25-5.14,5-6.41,2.59-.62,5.23-1.05,7.85-1.57,1.87-.38,3.33-1.12,3.94-3.23a3.87,3.87,0,0,1,2.14-2,22,22,0,0,1,27.61,9.32c5.31,9.1,6,18.9,8,28.65,1.61,8.11,3.49,16.2,5.74,24.15,3.2,11.25,7.16,22.29,10.2,33.58,2.36,8.71,3.89,17.66,5.63,26.53.52,2.69.47,5.49.78,8.23a4,4,0,0,0,6.18,2.89c1.27-.83,2.34-2,3.59-2.84a31.15,31.15,0,0,1,5.54-3.45c1.1-.46,3.41-.35,3.75.28a5.19,5.19,0,0,1,0,4.21,23.34,23.34,0,0,1-4.47,6.58c-2.26,2.14-1.7,4.34-1.33,7.22l2.7-5.8.65.24v3.84l1.47-.59v5.3l1,.09c1.08-3.61-.17-7.91,3-11.36.27,1.84.48,3.29.81,5.58.6-2,1-3.16,1.46-4.8l.55,2.08.68-1.33.48.06v7.94h.34c.49-2.09,1-4.19,1.46-6.29l2.4,1c0,.49-.12,1.54-.21,2.6l.55.15c.39-1.06.78-2.12,1.25-3.43l1.69,4.77c.58-1.83,1.11-3.47,1.71-5.32.51,1.44,1,2.76,1.6,4.47l1.42-3.42,3.28,1.11.51-3,.57-.07,1,6.85h.62v-6.45l.59,0c.34.92.67,1.84,1,2.75v38.44H0ZM102.08,120.86a5.11,5.11,0,0,0-3.92,2c-4.22,6.69-8.24,13.52-12.2,20.37a7.09,7.09,0,0,0-.29,7.32,3.9,3.9,0,0,1,0,2,8.4,8.4,0,0,0-.33,2.21c.57,3,1.52,5.87,1.89,8.85.39,3.28,1.89,4.74,5.14,4.35a74.38,74.38,0,0,1,40.69,6.71c3.31,1.52,5.94,3.86,6.86,7.59,1,3.95-2.9,10.92-7.36,12.32-5.56,1.74-11.32,2.85-17.11,4.26.46.4,1,.94,1.67,1.46,3.3,2.75,6.83,5.27,9.84,8.3,3.85,3.89,8.22,7.57,9,13.56,0,.1.24.16.78.49.32-2.3.61-4.4.91-6.51l4.35,2.51.92-2.95,1,7.08.88-.07,1.7-5.09c1.06,2,2.83,3.67,2.73,6.19l.76-3.65.55,0v5.64c2.85-3.3,2.3-6.49.42-10.3l2.12,1.42.44-1.83H154c.17,1.33.34,2.67.53,4.14l1.3-1.86.33,5.27c.89-5.17-1.53-11.72,6.36-13.18-.06-5.38-5.19-4.53-8.3-7.6,2.25-.4,3.94-.68,5.62-1,1-.19,2.16-.24,2.76-.84.4-.4.08-1.73-.2-2.54-.94-2.64-2.12-5.2-3-7.87-1.22-3.69-2.08-7.51-3.38-11.17-2.71-7.63-5.65-15.17-8.43-22.77-.68-1.87-4.43-4.84-6.41-5.25a5.73,5.73,0,0,1-3.27-1.75c-4-5.42-8.71-10.58-11.52-16.6" transform="translate(0 -44.54)"/><path class="cls-2" d="M158.55,222c-.48-3.32-3.5-5.4-1.13-8.42C160.05,214,160.8,217.58,158.55,222Z" transform="translate(0 -44.54)"/><path class="cls-2" d="M162.74,218.26l-.41-4.16,1-.51c.75,1,1.51,2.07,2.27,3.1l-.9.7-.95-1.18" transform="translate(0 -44.54)"/></svg>