<?xml version="1.0" encoding="utf-8"?>
<!-- Generator: Adobe Illustrator 22.1.0, SVG Export Plug-In . SVG Version: 6.00 Build 0)  -->
<svg version="1.1" id="Layer_1" xmlns="http://www.w3.org/2000/svg" xmlns:xlink="http://www.w3.org/1999/xlink" x="0px" y="0px"
	 viewBox="0 0 216 216" style="enable-background:new 0 0 216 216;" xml:space="preserve">
<style type="text/css">
	.st0{fill:#023955;}
	.st1{fill:none;stroke:#6ACAD2;stroke-width:0.6108;stroke-miterlimit:10;}
	.st2{fill:#6ACAD2;}
	.st3{fill:#DE8182;}
</style>
<path class="st0" d="M46.5,166c0.2,3.8,2.3,6.8,4.2,9.9c2.1,3.3,1.8,6.5,0.2,9.8c-0.4,0.9-0.4,1.6,0.2,2.4c2.4,3.2,3.2,7,4,10.8
	c0.5,2.5,2.9,4.3,5.3,3.5c0.3-0.1,0.7-0.1,1-0.1c1.1,0,2.2,0.1,2.9-1.2c0.2-0.3,0.8-0.4,1.4-0.7c-1.2-1.1-2.2-2-3.3-2.9
	c-0.2-0.2-0.7-0.2-1-0.1c-1.2,0.7-1.9,0-2.3-0.9c-2-4-2.9-8.2-1.3-12.6c0-0.1,0.1-0.2,0.1-0.3c3-3.2,3.6-7.5,5.3-11.4
	c1.4,1.3,1.7,3.8,0.4,5.3c-0.8,0.9-0.7,1.5-0.1,2.4c0.4,0.6,0.7,1.4,0.8,2.1c0.5,2.9,2,5.1,3.9,7.2c0.6,0.6,1.6,0.9,2.5,1.2
	c0.9,0.3,1.8,0.3,2.7,0.4c0.4,0.1,0.8,0.3,1.2,0.2c1-0.3,1.9-0.7,2.8-1.1c-0.7-1-1.3-2-2.1-3c-0.1-0.2-0.8,0.1-1.2,0.2
	c-1.3,0.4-2.2,0.1-3-1.2c-1.5-2.7-1.9-5.5-1.2-8.4c0.2-0.7,0.5-1.5,1-2c1.2-1.2,1.7-2.7,2.1-4.3c0.2-0.9,0.4-1.8,0.9-2.6
	c1.9-3.6,2.1-7.4,1.4-11.3c-0.5-2.5,0.3-4.2,2.2-5.8c4.4-3.5,7.2-8.2,9.4-13.3c0.7-1.6,0.9-3.5,1.2-5.3c0.1-0.4,0.1-0.9,0.2-1.5
	c3.8,1.1,6.7-0.7,9.7-2.3c1.4-0.7,2.6-0.9,4-0.1c2,1.1,4.1,1.1,6.3,0.4c0.6-0.2,1.2-0.3,1.7-0.5c0.5-0.2,1-0.6,1.6-0.8
	c-0.4-0.6-0.8-1.2-1.2-1.8c-0.1-0.2-0.4-0.2-0.7-0.3c-3.3-1.2-6.5-2.4-9.8-3.4c-1.2-0.4-2.5-0.3-3.7-0.5c1.2-1.4,2.6-2.7,5.2-2.2
	c1.5,0.3,3.3-0.3,4.9-0.9c1.3-0.5,2.5-1.5,3.7-2.3c-0.6-1.2-1.4-1.8-2.7-1.9c-3.3-0.2-6.6-0.4-9.9-0.6c-1.6-0.1-2.9,0.1-4.2,1.2
	c-0.5,0.4-1.7,0.7-2.3,0.4c-2.1-1.1-4.5-2.1-6-3.9c-2.8-3.5-6.6-6.4-8.1-10.9c-0.3-1-0.3-1.7,0.7-2c1.2-0.4,2.5-0.8,3.7-0.8
	c3.8-0.1,7-1.7,10-3.6c0.6-0.4,0.9-1.2,1.2-1.9c0.7-1.4,1.3-3,2-4.4c0.5-1,0.1-1.4-0.7-1.7c-0.4-0.1-0.8-0.1-1.2-0.2
	C89.5,86,86.4,86,83,85.8c0.7-3.4-1.7-3.8-3.8-4.6c-1.4-0.5-2.8-1-4.3-1.5c0.2-3,0.1-6-0.9-8.8c-0.2,0-0.3-0.1-0.5-0.1
	c-0.9,1.7-1.6,3.5-2.7,5.1c-1.1,1.6-1.2,3.7-3.1,5c-0.3-1.5-0.4-2.7-0.8-3.9c-0.2-0.8-0.5-1.7-1-2.3c-0.5-0.6-1.3-1-2-1.4
	c-0.3,0.6-0.8,1.2-1,1.9c-0.9,3.6-1.8,7.3-2.7,10.9c-0.2,0.9-0.3,2,0,2.8c1.1,2.7,0.6,5.3,0.3,8c-0.3,2.3-0.1,4.5,0.5,6.7
	c0.4,1.4,0,3.1-0.3,4.6c-0.7,4-0.9,7.9-0.1,11.8c0.8,3.7,0,7.3-1,10.8c-1.3,4.7-3.9,8.9-6.6,12.9c-1.9,2.7-3.3,5.7-4.9,8.6
	c-0.5,0.9-0.9,1.9-1.6,2.7c-2,2.7-5.1,2.9-7.6,0.6c-2.6-2.4-2.9-6.2-0.7-9c1.8-2.3,4.4-2.4,6.5-0.4c0.2,0.2,0.4,0.4,0.6,0.5
	c0.8,0.1,1.6,0.2,2.5,0.3c0-0.8,0.2-1.6-0.1-2.2c-1-2.7-4.7-4.9-7.6-4.6c-1.9,0.2-3.7,0.5-5,2.1c-2,2.4-3.8,4.9-4.1,8.1
	c-0.3,3.2-0.2,6.3,2.1,9c3,3.4,7.4,4.4,12,2.7c0.4-0.1,0.7-0.3,1.2-0.5C46.4,163,46.5,164.5,46.5,166z"/>
<path class="st0" d="M46.3,161.4c0.1,1.6,0.1,3.1,0.2,4.6c0.2,3.8,2.3,6.8,4.2,9.9c2.1,3.3,1.8,6.5,0.2,9.8
	c-0.4,0.9-0.4,1.6,0.2,2.4c2.4,3.2,3.2,7,4,10.8c0.5,2.5,2.9,4.3,5.3,3.5c0.3-0.1,0.7-0.1,1-0.1c1.1,0,2.2,0.1,2.9-1.2
	c0.2-0.3,0.8-0.4,1.4-0.7c-1.2-1.1-2.2-2-3.3-2.9c-0.2-0.2-0.7-0.2-1-0.1c-1.2,0.7-1.9,0-2.3-0.9c-2-4-2.9-8.2-1.3-12.6
	c0-0.1,0.1-0.2,0.1-0.3c3-3.2,3.6-7.5,5.3-11.4c1.4,1.3,1.7,3.8,0.4,5.3c-0.8,0.9-0.7,1.5-0.1,2.4c0.4,0.6,0.7,1.4,0.8,2.1
	c0.5,2.9,2,5.1,3.9,7.2c0.6,0.6,1.6,0.9,2.5,1.2c0.9,0.3,1.8,0.3,2.7,0.4c0.4,0.1,0.8,0.3,1.2,0.2c1-0.3,1.9-0.7,2.8-1.1
	c-0.7-1-1.3-2-2.1-3c-0.1-0.2-0.8,0.1-1.2,0.2c-1.3,0.4-2.2,0.1-3-1.2c-1.5-2.7-1.9-5.5-1.2-8.4c0.2-0.7,0.5-1.5,1-2
	c1.2-1.2,1.7-2.7,2.1-4.3c0.2-0.9,0.4-1.8,0.9-2.6c1.9-3.6,2.1-7.4,1.4-11.3c-0.5-2.5,0.3-4.2,2.2-5.8c4.4-3.5,7.2-8.2,9.4-13.3
	c0.7-1.6,0.9-3.5,1.2-5.3c0.1-0.4,0.1-0.9,0.2-1.5c3.8,1.1,6.7-0.7,9.7-2.3c1.4-0.7,2.6-0.9,4-0.1c2,1.1,4.1,1.1,6.3,0.4
	c0.6-0.2,1.2-0.3,1.7-0.5c0.5-0.2,1-0.6,1.6-0.8c-0.4-0.6-0.8-1.2-1.2-1.8c-0.1-0.2-0.4-0.2-0.7-0.3c-3.3-1.2-6.5-2.4-9.8-3.4
	c-1.2-0.4-2.5-0.3-3.7-0.5c1.2-1.4,2.6-2.7,5.2-2.2c1.5,0.3,3.3-0.3,4.9-0.9c1.3-0.5,2.5-1.5,3.7-2.3c-0.6-1.2-1.4-1.8-2.7-1.9
	c-3.3-0.2-6.6-0.4-9.9-0.6c-1.6-0.1-2.9,0.1-4.2,1.2c-0.5,0.4-1.7,0.7-2.3,0.4c-2.1-1.1-4.5-2.1-6-3.9c-2.8-3.5-6.6-6.4-8.1-10.9
	c-0.3-1-0.3-1.7,0.7-2c1.2-0.4,2.5-0.8,3.7-0.8c3.8-0.1,7-1.7,10-3.6c0.6-0.4,0.9-1.2,1.2-1.9c0.7-1.4,1.3-3,2-4.4
	c0.5-1,0.1-1.4-0.7-1.7c-0.4-0.1-0.8-0.1-1.2-0.2C89.5,86,86.4,86,83,85.8c0.7-3.4-1.7-3.8-3.8-4.6c-1.4-0.5-2.8-1-4.3-1.5
	c0.2-3,0.1-6-0.9-8.8c-0.2,0-0.3-0.1-0.5-0.1c-0.9,1.7-1.6,3.5-2.7,5.1c-1.1,1.6-1.2,3.7-3.1,5c-0.3-1.5-0.4-2.7-0.8-3.9
	c-0.2-0.8-0.5-1.7-1-2.3c-0.5-0.6-1.3-1-2-1.4c-0.3,0.6-0.8,1.2-1,1.9c-0.9,3.6-1.8,7.3-2.7,10.9c-0.2,0.9-0.3,2,0,2.8
	c1.1,2.7,0.6,5.3,0.3,8c-0.3,2.3-0.1,4.5,0.5,6.7c0.4,1.4,0,3.1-0.3,4.6c-0.7,4-0.9,7.9-0.1,11.8c0.8,3.7,0,7.3-1,10.8
	c-1.3,4.7-3.9,8.9-6.6,12.9c-1.9,2.7-3.3,5.7-4.9,8.6c-0.5,0.9-0.9,1.9-1.6,2.7c-2,2.7-5.1,2.9-7.6,0.6c-2.6-2.4-2.9-6.2-0.7-9
	c1.8-2.3,4.4-2.4,6.5-0.4c0.2,0.2,0.4,0.4,0.6,0.5c0.8,0.1,1.6,0.2,2.5,0.3c0-0.8,0.2-1.6-0.1-2.2c-1-2.7-4.7-4.9-7.6-4.6
	c-1.9,0.2-3.7,0.5-5,2.1c-2,2.4-3.8,4.9-4.1,8.1c-0.3,3.2-0.2,6.3,2.1,9c3,3.4,7.4,4.4,12,2.7C45.5,161.8,45.8,161.6,46.3,161.4z"/>
<path class="st1" d="M77.8,102.1l-17-0.2L77.8,102.1z"/>
<path class="st2" d="M78.5,100.6l1.2-0.7c1-0.5,2.2,0.2,2.2,1.3v1.5c0,1.2-1.3,1.9-2.3,1.2l-1.2-0.8c-0.4-0.3-0.7-0.7-0.7-1.2v0
	C77.8,101.3,78.1,100.8,78.5,100.6z"/>
<path class="st2" d="M77,100.6l-1.2-0.7c-1-0.5-2.2,0.2-2.2,1.3v1.5c0,1.2,1.3,1.9,2.3,1.2l1.2-0.8c0.4-0.3,0.7-0.7,0.7-1.2v0
	C77.8,101.3,77.5,100.8,77,100.6z"/>
<path class="st3" d="M57.9,82.3c-0.1,0.2-0.2,0.4-0.4,0.5c-1.2,0.9-2.2,2-2.8,3.4c-0.4,0.8-0.2,1.4,0.5,2c0.3,0.2,0.6,0.4,0.9,0.5
	c1.8,0.8,3.5,0.6,5.2-0.1c3.1-1.3,6.1-2.7,9.1-4.1c2.9-1.3,5.8-2.6,8.8-3.4c1.1-0.3,2.3-0.6,3.4-1c0.6-0.2,1.3-0.6,1.7-1
	c0.3-0.3,0.1-1,0.1-1.5c0-0.9-0.2-1.1-1.1-1.1c-1,0-2,0-3,0.1c-0.3,0-0.5,0-0.6-0.4c-0.3-1.3-0.6-2.6-1-3.9
	c-0.5-1.7-1.2-3.3-2.3-4.7c-0.5-0.6-1-1.2-1.8-1.3c-1.1-0.2-2.3-0.3-3.4-0.3c-2.2,0.1-4.4,0.8-6.5,1.6c-0.5,0.2-1.1,0.5-1.7,0.6
	c-1.2,0.3-2.4,0.4-3.6,0.7c-0.6,0.1-1.1,0.5-1.4,1.1c-0.6,1.2-1.1,2.5-0.9,3.9c0.1,0.7,0.1,1.3,0.2,2C57.4,78.1,57.7,80.2,57.9,82.3
	L57.9,82.3z"/>
<path class="st2" d="M57.9,82.3c0-0.4,0-0.9,0-1.3c1-0.1,2-0.1,3.1-0.2c2.6-0.3,5.3-0.5,7.9-0.9c3.1-0.5,6.2-1.2,9.2-1.9
	c0.6-0.1,1.1-0.3,1.7-0.5c0.2,0,0.4,0,0.6,0.1c0,0.1,0,0.1,0,0.2c-0.7,0.3-1.5,0.6-2.2,1c-2.3,1.1-4.6,2.2-6.9,3.4
	c-0.2,0.1-0.3,0.2-0.5,0.2c-3.1,0.6-6.1,1.3-9.2,1.8c-1.2,0.2-2.4,0.2-3.6,0.3C58,83.7,57.9,83,57.9,82.3
	C57.9,82.3,57.9,82.3,57.9,82.3z"/>
<path class="st0" d="M111.4,109.9c-0.1,0.2-0.1,0.4-0.2,0.6c-0.7,3.6-3.2,5.6-6.7,5.4c-3.2-0.2-5.5-2.8-5.6-6.3c0-0.2,0-0.5,0-0.7
	c0-16.6,0-33.2,0-49.7c0-0.4,0-0.8,0-1.3c3.6,0.1,6.8,1.1,9.6,3.2c2.8,2.1,4.5,5,4.7,8.5c0.2,0.1,0.3,0.1,0.5,0.1
	c0.9,0,2,0.3,2.7-0.1c0.5-0.3,0.5-1.5,0.7-2.4c1-3.6,3.5-5.9,6.6-7.6c6.1-3.2,14.3-2.2,19.4,2.4c2.2,2,3,3.2,3.7,7.6
	c1.3,0,2.7,0,4.3,0c-0.2-2.4-0.2-4.8-0.5-7.1c-1.5-11.1-6.8-20.2-14.9-27.6c-7.1-6.5-15.5-10.8-24.9-12.8c-3.5-0.8-7.1-1-10.7-1.5
	c-0.3,0-0.6-0.1-1.1-0.1c0-0.8,0-1.5,0-2.3c-0.1-1.2-0.8-1.9-1.8-1.9c-1,0-1.7,0.8-1.8,1.9c0,0.7,0,1.5,0,2.2
	c-2.5,0.3-4.8,0.5-7.2,0.9c-12.7,2-23.7,7.5-32.3,17.1C48.1,47,43.9,57.1,44,68.7c0,0.3,0,0.6,0.1,1.1c1.8,0,3.5,0,5.2,0
	c0.2,0,0.6-0.4,0.6-0.7c0.6-5.7,4.4-8.7,9.4-10.4c5-1.6,10-1.2,14.6,1.6c3.2,1.9,5.4,4.6,5.8,8.5c0,0.2,0.1,0.3,0.1,0.5
	c0,0.1,0.1,0.2,0.1,0.3c0.1,0,0.2,0.1,0.2,0.1c1,0,2.1,0.3,2.8-0.1c0.5-0.3,0.5-1.6,0.8-2.4c0.9-3.2,3-5.5,5.8-7.1
	c2-1.1,4.1-1.9,6.5-2c0,0.6,0,1.1,0,1.6c0,16.5,0,33,0,49.5c0,3.9,1.5,6.9,5,8.8c5.9,3.1,13.1-1.3,13.1-8.1
	C113.2,109.9,112.3,109.9,111.4,109.9z"/>
</svg>
