<svg id="Layer_1" data-name="Layer 1" xmlns="http://www.w3.org/2000/svg" viewBox="0 0 144 87.65"><defs><style>.cls-1{fill:#023955;}</style></defs><title>getinformed</title><path class="cls-1" d="M93,44.16a12.45,12.45,0,0,0,4.66,7.29A15.43,15.43,0,0,1,93,44.16Z" transform="translate(0 -28.32)"/><path class="cls-1" d="M105.33,102.43a19.4,19.4,0,0,0,1.14-1.84c.67-1.43,1.27-2.89,1.89-4.35a16.56,16.56,0,0,0,1.1-6.78,13.16,13.16,0,0,0-.32-2.06l-.24,0a4,4,0,0,0-.41.76c-.31,1.14-.47,2.33-.88,3.43a16.21,16.21,0,0,1-6.29,7.83,4.4,4.4,0,0,0-1.53,1.56c-.29.55-.65,1.06-1,1.59l-.08,0,1-2.12-.93.53a5.14,5.14,0,0,1,.91-.72,1.41,1.41,0,0,0,.37-.36c.72-1.12,1.47-2.22,2.12-3.38,1.16-2.08,2.3-4.18,3.36-6.31a11.78,11.78,0,0,0,.74-2.45.89.89,0,0,0-.12-.7,6.63,6.63,0,0,0-1.09-1,.46.46,0,0,0-.73.2,4.85,4.85,0,0,0-.29.75,19.34,19.34,0,0,1-2.61,5.22,14.28,14.28,0,0,1-.94,1.12l-.1-.08a2.18,2.18,0,0,1,.22-.31,12.11,12.11,0,0,0,1.91-3.08,12.82,12.82,0,0,0,1.37-4,3.92,3.92,0,0,0-.16-1.21.5.5,0,0,0-.38-.26.83.83,0,0,0-.74.46c-.39.87-.81,1.71-1.23,2.56a5.74,5.74,0,0,1-1.83,2.13l.28-.34a13.72,13.72,0,0,0,2.56-4.83c.18-.62.05-.83-.56-1.08a9,9,0,0,1-1.82-.8,5.07,5.07,0,0,1-1.78-2.5,10.84,10.84,0,0,0-1.46-3.05,2.83,2.83,0,0,1-.29-3.29c.76-1.36,1.42-2.78,2.18-4.16a6.13,6.13,0,0,0,.91-3.28c0-.78,0-1.57.07-2.35s0-.71-.62-1.07-1.16-.8-1.75-1.2l.08-.12c.15.05.3.11.45.15.4.08.81.19,1.21.23s.6-.15.62-.57c0-.62.18-1.23.18-1.85a1.29,1.29,0,0,0-.36-.85c-.54-.44-1.16-.79-1.74-1.18a12.39,12.39,0,0,1,1.75.77c.33.18.63.25.88,0s0-.57-.18-.81a.49.49,0,0,0-.13-.12l-2.25-1.41-.67-.41.06-.09c1,.58,2.09,1.14,3.12,1.74.3.17.47.15.66-.12s.08-.86-.47-1.15a14.66,14.66,0,0,0-4-1.46,15.64,15.64,0,0,0-6.42-.45,4.14,4.14,0,0,1-.58,0c.13-.11.16-.16.19-.17l.43-.12a16.09,16.09,0,0,1,8.48,1.1c.94.37,1.86.8,2.82,1.21a3.7,3.7,0,0,0,.38-.59.6.6,0,0,0-.25-.8c-.68-.5-1.35-1-2-1.54a.65.65,0,0,1,.4.15c.62.42,1.23.87,1.86,1.27.15.09.49.15.56.07a.92.92,0,0,0,.2-.67,9.16,9.16,0,0,0-.45-1.71,20.51,20.51,0,0,0-2.84-5.35,15.76,15.76,0,0,0-4.6-4l-1.65-1,.06-.1A8.23,8.23,0,0,1,94,42a38.32,38.32,0,0,1,3.76,2.5,13.77,13.77,0,0,1,2.11,2.55,28.25,28.25,0,0,1,2.89,5.63c.28.64.57.77,1.22.49a1.79,1.79,0,0,0,.62-.42c.43-.48.82-1,1.2-1.48.16,0,.39,0,.48-.07a16.24,16.24,0,0,1,2.5-2.11,5.55,5.55,0,0,0,1-1,1.3,1.3,0,0,0,.13-1.9c-.06-.08-.14-.18-.13-.26a1.42,1.42,0,0,0-.55-1.41c-.25-.21-.66-.3-.49-.78,0,0-.08-.16-.14-.22-.33-.35-.68-.69-1-1-.08-.08-.21-.14-.25-.23a6.54,6.54,0,0,1-.34-1,.79.79,0,0,1,0-.61c.07-.1.4-.1.56,0a8.66,8.66,0,0,1,1.43.79,10.25,10.25,0,0,0,4.1,1.49c.77.18,1.1-.17,1-1a12.75,12.75,0,0,0-.46-1.64l.2-.14-1.26-2.52c0-.23.13-.49.06-.69a4.08,4.08,0,0,0-.57-.93c-.29-.39-.62-.74-1-1.15l.42-.08a3.35,3.35,0,0,0-1.12-2.45.74.74,0,0,0,.14-.49,6,6,0,0,1-.26-2.59c.17-.8.72-1.16,1.45-.86a9.32,9.32,0,0,1,1.58.79c1.32.87,2.6,1.8,3.92,2.68q3,2,6.12,4a18.42,18.42,0,0,0,1.66.84l-.15.31c1.66.87,3.27,1.8,5.28,1.57-.28.68-.31.72.27,1a21.08,21.08,0,0,0,1.95.82,3.65,3.65,0,0,0,.59.15c0,.24-.11.46,0,.59.41.74.86,1.5,1.8,1.64,1.12.16,2.25.26,3.38.36.48,0,1,0,1.45,0l.07.11a.85.85,0,0,0-.17.06c-.36.25-.37.38,0,.57a8.49,8.49,0,0,0,1,.36c.63.18,1.3.29,1.92.51a15.36,15.36,0,0,1,1.58.77v70.06H123c-.1-.31.36-.72-.13-.9.37-1.39.73-2.76,1.08-4.13a1.18,1.18,0,0,0-.06-.52c0-.14-.17-.28-.17-.42,0-.52.06-1,.05-1.56a1.66,1.66,0,0,0-.84-1.5.7.7,0,0,1-.42-.55c-.2-.82-.3-1.74-1.25-2.12-.11-.7-.17-1.41-.33-2.09-.28-1.16-.94-2.22-.82-3.47,0-.09-.08-.2,0-.27.11-.24.1-.27-.35-.28l2.68-5.45a4.7,4.7,0,0,0,.6-3.11c-.1-.53-.4-.76-.89-.64a3.19,3.19,0,0,0-1.33-2.45c-.66-.5-1.08-1.3-2.08-1.32-.81,0-1.61-.2-2.41-.31-.07,0-.19,0-.2,0-.08.39-.39.27-.64.28a3.86,3.86,0,0,0-1.77.25c-.91.45-1.86.85-2.79,1.24-.45.19-.56.31-.42.76.2.7.44,1.38.65,2.08.56,1.94,1.12,3.89,1.66,5.84a53.87,53.87,0,0,1,1.54,7.24,33.18,33.18,0,0,0,.79,4.09c.32,1.29.78,2.55,1.18,3.82l.75,2.32a1.8,1.8,0,0,1-.34-.62c-.57-1.67-1.21-3.32-1.66-5-.5-1.92-.77-3.91-1.23-5.85-.6-2.52-1.27-5-1.94-7.52-.46-1.73-1-3.44-1.49-5.16a2.53,2.53,0,0,0-.28-.54l-.19,0c0,.52-.14,1-.14,1.55a22.28,22.28,0,0,1-3.15,11.19,20.77,20.77,0,0,1-1.31,1.81ZM103,97.66a15.41,15.41,0,0,0,4.07-5.37,22.64,22.64,0,0,0,.88-2.83,12.19,12.19,0,0,0,.26-1.34.65.65,0,0,0-.51-.81c-.39-.09-.58.22-.72.48s-.29.8-.47,1.18c-1,2-1.86,4-2.9,5.89-.79,1.47-1.75,2.85-2.64,4.27l-.12.21.07.07Z" transform="translate(0 -28.32)"/><path class="cls-1" d="M97.63,51.45A15.43,15.43,0,0,1,93,44.16,12.45,12.45,0,0,0,97.63,51.45Z" transform="translate(0 -28.32)"/><path class="cls-1" d="M105.33,102.43l-1.51,1.43a3.78,3.78,0,0,0,1.5-1.44Z" transform="translate(0 -28.32)"/><path class="cls-1" d="M101,99.41,103,97.66a15.41,15.41,0,0,0,4.07-5.37,22.64,22.64,0,0,0,.88-2.83,12.19,12.19,0,0,0,.26-1.34.65.65,0,0,0-.51-.81c-.39-.09-.58.22-.72.48s-.29.8-.47,1.18c-1,2-1.86,4-2.9,5.89-.79,1.47-1.75,2.85-2.64,4.27l-.12.21Z" transform="translate(0 -28.32)"/><path class="cls-1" d="M0,51.34c2-4.14,5.67-7,8.41-10.55a48.79,48.79,0,0,1,4.07-4.2A40,40,0,0,1,15.92,33c2.47-2,5.48-2.3,8.51-2.3a34.68,34.68,0,0,1,12.21,2.64c.47.18.94.36,1.43.5a6.54,6.54,0,0,1,3.52,1.94,23.49,23.49,0,0,0,2.65,2,18.11,18.11,0,0,1,4.76,6,3.1,3.1,0,0,0,.92,1.17,4.11,4.11,0,0,1,1.39,4.89,4.17,4.17,0,0,0,1.36,4.59c1.89,1.67,4,3.1,6,4.6s3.79,2.77,5.7,4.13c.64.46,1.34.86,2,1.29a2.11,2.11,0,0,1,1,2.61c-.46,1.69-.78,3.45-2.31,4.62a1.31,1.31,0,0,0-.34.78,5.12,5.12,0,0,1-2.49,3.4A17.28,17.28,0,0,1,53.33,79c-1.57.12-3.16.1-4.7.36a14.13,14.13,0,0,0-3.89,1.18c-2.1,1.05-3.75.44-5.15-1.13a5.16,5.16,0,0,0-4.88-1.62c-.53,2.28,0,4.52.38,6.74.39,2.39.94,4.76,1.39,7.13a15.27,15.27,0,0,1,.25,2c.1,1.93.15,3.86.24,5.8a23.22,23.22,0,0,1-1.91,9.79c-.75,1.88-1.89,3.64-1.75,5.81,0,.3-.29.63-.45.94H0Z" transform="translate(0 -28.32)"/></svg>