<?xml version="1.0" encoding="utf-8"?>
<!-- Generator: Adobe Illustrator 22.1.0, SVG Export Plug-In . SVG Version: 6.00 Build 0)  -->
<svg version="1.1" xmlns="http://www.w3.org/2000/svg" xmlns:xlink="http://www.w3.org/1999/xlink" x="0px" y="0px"
	 viewBox="0 0 504 360" style="enable-background:new 0 0 504 360;" xml:space="preserve">
<style type="text/css">
	.st0{fill:url(#SVGID_1_);}
	.st1{opacity:0.5;}
	.st2{fill:#023955;stroke:#023955;stroke-width:0.4144;stroke-miterlimit:10;}
	.st3{fill:#6ACAD2;}
	.st4{fill:#DE8182;stroke:#DE8182;stroke-width:0.3681;stroke-miterlimit:10;}
	.st5{fill:#DE8182;stroke:#DE8182;stroke-width:0.3257;stroke-miterlimit:10;}
	.st6{fill:#023955;stroke:#023955;stroke-width:0.4472;stroke-miterlimit:10;}
	.st7{fill:none;stroke:#6ACAD2;stroke-width:0.6768;stroke-miterlimit:10;}
	.st8{fill:#023955;stroke:#023955;stroke-width:0.3415;stroke-miterlimit:10;}
	.st9{fill:#023955;stroke:#023955;stroke-width:0.293;stroke-miterlimit:10;}
	.st10{fill:#023955;}
	.st11{fill:url(#SVGID_2_);}
	.st12{fill:#DE8182;}
	.st13{fill:none;stroke:#DE8082;stroke-width:0.4107;stroke-miterlimit:10;}
	.st14{fill:#DE8182;stroke:#DE8182;stroke-width:0.5475;stroke-miterlimit:10;}
	.st15{fill:none;}
	.st16{font-family:'Baskerville';}
	.st17{font-size:5.4754px;}
	.st18{fill:#DE8182;stroke:#DE8182;stroke-width:0.7554;stroke-miterlimit:10;}
	.st19{fill:none;stroke:#023955;stroke-width:0.5665;stroke-miterlimit:10;}
	.st20{fill:#DE8182;stroke:#DE8182;stroke-width:0.5978;stroke-miterlimit:10;}
	.st21{fill:none;stroke:#023955;stroke-width:0.5289;stroke-miterlimit:10;}
	.st22{fill:none;stroke:#023955;stroke-width:0.7052;stroke-miterlimit:10;}
	.st23{fill:#023955;stroke:#023955;stroke-width:0.4595;stroke-miterlimit:10;}
	.st24{fill:#FFFFFF;}
	.st25{opacity:0.78;}
	.st26{fill:none;stroke:#023955;stroke-width:0.65;stroke-miterlimit:10;}
	.st27{fill:#FFFFFF;stroke:#010101;stroke-width:0.1625;stroke-miterlimit:10;}
	.st28{fill:none;stroke:#023955;stroke-width:0.5978;stroke-miterlimit:10;}
	.st29{font-family:'VictoriandecoRegular';}
	.st30{font-size:13.7505px;}
	.st31{letter-spacing:1;}
	.st32{font-size:19.1311px;}
	.st33{fill:#023955;stroke:#023955;stroke-width:0.5978;stroke-miterlimit:10;}
	.st34{fill:none;stroke:#6ACAD2;stroke-width:0.5978;stroke-miterlimit:10;}
	.st35{font-family:'AlwaysHere';}
	.st36{font-size:37px;}
	.st37{font-size:20px;}
	.st38{letter-spacing:1.1;}
	.st39{font-size:16px;}
	.st40{font-size:10px;}
	.st41{font-size:32px;}
	.st42{font-family:'AlwaysHereToo';}
	.st43{font-size:30px;}
	.st44{font-size:18px;}
	.st45{font-size:14px;}
	.st46{font-size:11px;}
</style>
<g id="Layer_1">
</g>
<g id="Layer_2">
	<linearGradient id="SVGID_1_" gradientUnits="userSpaceOnUse" x1="250.8242" y1="331.0916" x2="253.3295" y2="9.1634">
		<stop  offset="0" style="stop-color:#6BCAD2"/>
		<stop  offset="0.9869" style="stop-color:#023955"/>
	</linearGradient>
	<rect class="st0" width="504" height="360"/>
	<g class="st1">
		<rect x="321.2" y="186.9" class="st2" width="120" height="30"/>
		<rect x="321.3" y="180.9" class="st3" width="120" height="6.1"/>
		<g>
			<rect x="277.7" y="168" class="st3" width="42.6" height="24.4"/>
			<rect x="277.7" y="168" class="st2" width="42.6" height="6.1"/>
		</g>
		<path class="st4" d="M285,152.3l-0.3-0.7c-0.2-0.5-0.4-0.9-0.6-1.3l-3.4-7.5l-3.4,7.5c-0.3,0.4-0.5,0.9-0.6,1.3l-0.3,0.7h0.1
			c-0.2,1-0.2,2.1,0.2,3.3c0.7,2.1,2.2,3.5,4,3.6c2.4,0.1,4.4-2.4,4.4-5.5c0-0.5-0.1-0.9-0.1-1.4H285z"/>
		<polygon class="st4" points="280.7,159.1 276.3,171.4 276.3,192.4 285,192.4 285,170.8 		"/>
		<polygon class="st5" points="298.6,163.1 294.8,174 294.8,192.5 302.5,192.5 302.5,173.4 		"/>
		<polygon class="st2" points="280.7,175.7 278.2,182.8 278.2,194.8 283.2,194.8 283.2,182.4 		"/>
		<g>
			<path class="st4" d="M320.9,152.3l-0.3-0.7c-0.2-0.5-0.4-0.9-0.6-1.3l-3.4-7.5l-3.4,7.5c-0.3,0.4-0.5,0.9-0.6,1.3l-0.3,0.7h0.1
				c-0.2,1-0.2,2.1,0.2,3.3c0.7,2.1,2.2,3.5,4,3.6c2.4,0.1,4.4-2.4,4.4-5.5c0-0.5-0.1-0.9-0.1-1.4H320.9z"/>
			<polygon class="st4" points="316.5,159.1 312.2,171.4 312.2,192.4 320.9,192.4 320.9,170.8 			"/>
		</g>
		<polygon class="st2" points="316.5,175.7 314.1,182.8 314.1,194.8 319,194.8 319,182.4 		"/>
		<polygon class="st2" points="298.6,175.7 296.1,182.8 296.1,194.8 301.1,194.8 301.1,182.4 		"/>
		<g>
			<polygon class="st5" points="334.1,186.9 330.2,197.8 330.2,216.3 337.9,216.3 337.9,197.2 			"/>
			<polygon class="st2" points="334.1,199.5 331.6,206.6 331.6,218.6 336.6,218.6 336.6,206.2 			"/>
		</g>
		<g>
			<polygon class="st5" points="355.5,186.9 351.7,197.8 351.7,216.3 359.4,216.3 359.4,197.2 			"/>
			<polygon class="st2" points="355.5,199.5 353,206.6 353,218.6 358,218.6 358,206.2 			"/>
		</g>
		<g>
			<polygon class="st5" points="381.3,186.9 377.4,197.8 377.4,216.3 385.1,216.3 385.1,197.2 			"/>
			<polygon class="st2" points="381.3,199.5 378.8,206.6 378.8,218.6 383.8,218.6 383.8,206.2 			"/>
		</g>
		<g>
			<polygon class="st5" points="405.1,185.7 401.3,196.6 401.3,215.1 409,215.1 409,196 			"/>
			<polygon class="st2" points="405.1,198.4 402.6,205.4 402.6,217.5 407.6,217.5 407.6,205.1 			"/>
		</g>
		<g>
			<polygon class="st5" points="429.6,186.9 425.8,197.8 425.8,216.3 433.4,216.3 433.4,197.2 			"/>
			<polygon class="st2" points="429.6,199.5 427.1,206.6 427.1,218.6 432.1,218.6 432.1,206.2 			"/>
		</g>
		<rect x="276.3" y="198.5" class="st3" width="44.6" height="124.5"/>
		<rect x="320.6" y="217.3" class="st2" width="121.1" height="106.1"/>
		<g>
			<g>
				<rect x="283.2" y="216.9" class="st6" width="8.9" height="106.9"/>
				<ellipse class="st6" cx="287.8" cy="216.9" rx="4.3" ry="4.8"/>
			</g>
			<line class="st7" x1="287.8" y1="212.1" x2="287.8" y2="323.8"/>
			<line class="st7" x1="283.2" y1="231.7" x2="292.1" y2="231.7"/>
			<line class="st7" x1="283.2" y1="261.5" x2="292.1" y2="261.5"/>
			<line class="st7" x1="283.2" y1="294" x2="292.1" y2="294"/>
		</g>
		<g>
			<g>
				<rect x="302.5" y="216.1" class="st6" width="8.9" height="106.9"/>
				<ellipse class="st6" cx="307" cy="216.1" rx="4.3" ry="4.8"/>
			</g>
			<line class="st7" x1="307" y1="211.3" x2="307" y2="323"/>
			<line class="st7" x1="302.5" y1="230.9" x2="311.4" y2="230.9"/>
			<line class="st7" x1="302.5" y1="260.7" x2="311.4" y2="260.7"/>
			<line class="st7" x1="302.5" y1="293.2" x2="311.4" y2="293.2"/>
		</g>
		<g>
			<g>
				<rect x="334.1" y="234.9" class="st3" width="7.4" height="88.1"/>
				<ellipse class="st3" cx="337.9" cy="234.9" rx="3.6" ry="4"/>
			</g>
			<line class="st8" x1="337.9" y1="230.9" x2="337.9" y2="323"/>
			<line class="st8" x1="334.1" y1="247.1" x2="341.4" y2="247.1"/>
			<line class="st8" x1="334.1" y1="271.7" x2="341.4" y2="271.7"/>
			<line class="st8" x1="334.1" y1="298.4" x2="341.4" y2="298.4"/>
		</g>
		<g>
			<g>
				<rect x="355.3" y="234.9" class="st3" width="7.4" height="88.1"/>
				<ellipse class="st3" cx="359.1" cy="234.9" rx="3.6" ry="4"/>
			</g>
			<line class="st8" x1="359.1" y1="230.9" x2="359.1" y2="323"/>
			<line class="st8" x1="355.3" y1="247.1" x2="362.7" y2="247.1"/>
			<line class="st8" x1="355.3" y1="271.7" x2="362.7" y2="271.7"/>
			<line class="st8" x1="355.3" y1="298.4" x2="362.7" y2="298.4"/>
		</g>
		<g>
			<g>
				<rect x="377.5" y="234.9" class="st3" width="7.4" height="88.1"/>
				<ellipse class="st3" cx="381.3" cy="234.9" rx="3.6" ry="4"/>
			</g>
			<line class="st8" x1="381.3" y1="230.9" x2="381.3" y2="323"/>
			<line class="st8" x1="377.5" y1="247.1" x2="384.8" y2="247.1"/>
			<line class="st8" x1="377.5" y1="271.7" x2="384.8" y2="271.7"/>
			<line class="st8" x1="377.5" y1="298.4" x2="384.8" y2="298.4"/>
		</g>
		<g>
			<g>
				<rect x="401.4" y="234.9" class="st3" width="7.4" height="88.1"/>
				<ellipse class="st3" cx="405.1" cy="234.9" rx="3.6" ry="4"/>
			</g>
			<line class="st8" x1="405.1" y1="230.9" x2="405.1" y2="323"/>
			<line class="st8" x1="401.4" y1="247.1" x2="408.7" y2="247.1"/>
			<line class="st8" x1="401.4" y1="271.7" x2="408.7" y2="271.7"/>
			<line class="st8" x1="401.4" y1="298.4" x2="408.7" y2="298.4"/>
		</g>
		<g>
			<g>
				<rect x="425.9" y="234.9" class="st3" width="7.4" height="88.1"/>
				<ellipse class="st3" cx="429.7" cy="234.9" rx="3.6" ry="4"/>
			</g>
			<line class="st8" x1="429.7" y1="230.9" x2="429.7" y2="323"/>
			<line class="st8" x1="425.9" y1="247.1" x2="433.3" y2="247.1"/>
			<line class="st8" x1="425.9" y1="271.7" x2="433.3" y2="271.7"/>
			<line class="st8" x1="425.9" y1="298.4" x2="433.3" y2="298.4"/>
		</g>
		<rect x="276.3" y="192.4" class="st2" width="44.6" height="6.1"/>
		<rect x="320.4" y="216.9" class="st3" width="121.6" height="5.9"/>
		<rect x="276.7" y="246.8" class="st9" width="44.6" height="3"/>
		<rect x="321.1" y="260.4" class="st3" width="120.2" height="2.2"/>
		<rect x="321.1" y="304.4" class="st3" width="120.2" height="2.2"/>
		<rect x="276.3" y="282.9" class="st9" width="44.6" height="3"/>
	</g>
	<path class="st3" d="M44.1,42.6c-0.2-0.2-0.4-0.4-0.7-0.6c2,5,1,10.8-3,14.9C35.2,62,27,62.3,21.6,57.5c0.7,1.7,1.7,3.3,3.1,4.6
		c5.4,5.4,14.1,5.3,19.5-0.1S49.5,48,44.1,42.6z"/>
	<g>
		<path class="st10" d="M141,322.2H95.7c-2.2,0-3.9-1.8-3.9-3.9V196H145v122.3C145,320.5,143.2,322.2,141,322.2z"/>
		<linearGradient id="SVGID_2_" gradientUnits="userSpaceOnUse" x1="118.3831" y1="148.7808" x2="118.3831" y2="285.6754">
			<stop  offset="0" style="stop-color:#6BCAD2"/>
			<stop  offset="0.9869" style="stop-color:#023955"/>
		</linearGradient>
		<rect x="95.7" y="205.7" class="st11" width="45.4" height="107.9"/>
		<path class="st12" d="M88.1,324.6L88.1,324.6c-2,0-3.7-1.7-3.7-3.7V196h7.4v124.9C91.8,322.9,90.1,324.6,88.1,324.6z"/>
		<path class="st12" d="M148.7,324.6L148.7,324.6c-2,0-3.7-1.7-3.7-3.7V196h7.4v124.9C152.3,322.9,150.7,324.6,148.7,324.6z"/>
		<rect x="87.1" y="188.5" class="st12" width="62.5" height="7.4"/>
		<rect x="100" y="208.5" class="st13" width="11" height="11"/>
		<rect x="112.4" y="208.5" class="st13" width="11" height="11"/>
		<rect x="124.7" y="208.5" class="st13" width="11" height="11"/>
		<rect x="100" y="220.5" class="st13" width="11" height="11"/>
		<rect x="112.4" y="220.5" class="st13" width="11" height="11"/>
		<rect x="124.7" y="220.5" class="st13" width="11" height="11"/>
		<rect x="100" y="233.7" class="st13" width="11" height="11"/>
		<rect x="112.4" y="233.7" class="st13" width="11" height="11"/>
		<rect x="124.7" y="233.7" class="st13" width="11" height="11"/>
		<rect x="100" y="246.8" class="st13" width="11" height="11"/>
		<rect x="112.4" y="246.8" class="st13" width="11" height="11"/>
		<rect x="124.7" y="246.8" class="st13" width="11" height="11"/>
		<rect x="100" y="259.9" class="st13" width="11" height="11"/>
		<rect x="112.4" y="259.9" class="st13" width="11" height="11"/>
		<rect x="124.7" y="259.9" class="st13" width="11" height="11"/>
		<rect x="100" y="273.1" class="st13" width="11" height="11"/>
		<rect x="112.4" y="273.1" class="st13" width="11" height="11"/>
		<rect x="124.7" y="273.1" class="st13" width="11" height="11"/>
		<rect x="100" y="286.2" class="st13" width="11" height="11"/>
		<rect x="112.4" y="286.2" class="st13" width="11" height="11"/>
		<rect x="124.7" y="286.2" class="st13" width="11" height="11"/>
		<rect x="100" y="299.4" class="st13" width="11" height="11"/>
		<rect x="112.4" y="299.4" class="st13" width="11" height="11"/>
		<rect x="124.7" y="299.4" class="st13" width="11" height="11"/>
		<rect x="84.4" y="185.5" class="st10" width="67.9" height="3.3"/>
		<path class="st14" d="M152.4,185.5c0-5.2-15.2-9.5-34-9.5s-34,4.2-34,9.5"/>
		<rect x="94.1" y="190.8" class="st3" width="47.5" height="8.8"/>
		<rect x="100.6" y="193.4" class="st15" width="37.8" height="7.1"/>
		<text transform="matrix(1 0 0 1 100.6167 197.126)" class="st10 st16 st17">TELEPHONE</text>
	</g>
	<path class="st18" d="M42.5,115.9l-1.5,3.7c-0.1,0.3,0.1,0.7,0.5,0.7h2c0.4,0,0.6-0.4,0.5-0.7L42.5,115.9z"/>
	<ellipse class="st19" cx="38.8" cy="173.8" rx="1.5" ry="2.1"/>
	<polygon class="st3" points="42.5,125.8 32.7,141.1 52.4,141.1 	"/>
	<polyline class="st19" points="27.4,138.1 31.3,143.7 54.1,143.7 57.5,138.1 	"/>
	<ellipse class="st19" cx="57.5" cy="138.1" rx="1.5" ry="2.1"/>
	<ellipse class="st18" cx="42.5" cy="123" rx="2.2" ry="1.6"/>
	<polyline class="st20" points="33.5,146.6 40,166.3 46.3,166.3 52.1,147.5 	"/>
	<ellipse class="st19" cx="48.5" cy="173.8" rx="1.5" ry="2.1"/>
	<ellipse class="st21" cx="27.4" cy="138.1" rx="1.5" ry="1.8"/>
	<rect x="42.5" y="166.3" class="st19" width="1.6" height="8.9"/>
	<line class="st19" x1="38.8" y1="175.2" x2="48.2" y2="175.2"/>
	<rect x="41.6" y="176.3" class="st3" width="3.1" height="12.5"/>
	<rect x="41.9" y="190.3" class="st10" width="2.2" height="115.3"/>
	<g>
		<g>
			<path class="st22" d="M44.8,192.3c0.5,2.5,2.5,4,4.6,3.4s3.3-3.1,2.8-5.6l-6.1-10.9"/>
			<path class="st22" d="M48.5,191.1c-0.2-1.3-1.3-2-2.3-1.8s-1.7,1.5-1.4,2.8"/>
			<path class="st22" d="M48.4,191.1c0.1,0.6-0.2,1.3-0.7,1.4c-0.5,0.2-1-0.2-1.2-0.8"/>
		</g>
		<g>
			<path class="st22" d="M49.8,178.5c-0.2-1.2-1.2-2-2.2-1.7c-1,0.3-1.6,1.5-1.4,2.7"/>
			<path class="st22" d="M48.1,179.1c0.1,0.6,0.6,1,1.1,0.9c0.5-0.1,0.8-0.7,0.7-1.4"/>
			<path class="st22" d="M48.1,179.1c-0.1-0.3,0.1-0.6,0.3-0.7s0.5,0.1,0.6,0.4"/>
		</g>
	</g>
	<g>
		<g>
			<path class="st22" d="M40.8,191.7c-0.5,2.5-2.5,4-4.6,3.4c-2-0.6-3.3-3.1-2.8-5.6l6.1-10.9"/>
			<path class="st22" d="M37.1,190.4c0.2-1.3,1.3-2,2.3-1.8s1.7,1.5,1.4,2.8"/>
			<path class="st22" d="M37.2,190.4c-0.1,0.6,0.2,1.3,0.7,1.4c0.5,0.2,1-0.2,1.2-0.8"/>
		</g>
		<g>
			<path class="st22" d="M35.8,177.8c0.2-1.2,1.2-2,2.2-1.7c1,0.3,1.6,1.5,1.4,2.7"/>
			<path class="st22" d="M37.6,178.4c-0.1,0.6-0.6,1-1.1,0.9c-0.5-0.1-0.8-0.7-0.7-1.4"/>
			<path class="st22" d="M37.5,178.4c0.1-0.3-0.1-0.6-0.3-0.7s-0.5,0.1-0.6,0.4"/>
		</g>
	</g>
	<path class="st23" d="M53.8,321.7l-5.2-7.1c-3.3,0.1-7.9,0.2-11,0.1l-5.1,6.9H53.8z"/>
	<polygon class="st23" points="43.1,305.6 37.8,312.8 48.5,312.8 	"/>
	<rect x="46.5" y="323.2" class="st23" width="25.8" height="0.8"/>
	<g>
		<g>
			<path class="st24" d="M121.5,89.9c0.5,0,0.5-0.7,0-0.7C121,89.2,121,89.9,121.5,89.9L121.5,89.9z"/>
		</g>
	</g>
	<g>
		<g>
			<path class="st24" d="M122,119.6c0.5,0,0.5-0.7,0-0.7C121.5,118.9,121.5,119.6,122,119.6L122,119.6z"/>
		</g>
	</g>
	<g>
		<g>
			<path class="st24" d="M411.6,41.7c0.3,0,0.3-0.4,0-0.4C411.3,41.3,411.3,41.7,411.6,41.7L411.6,41.7z"/>
		</g>
	</g>
	<g>
		<g>
			<path class="st24" d="M412.8,70c0.3,0,0.3-0.4,0-0.4C412.6,69.6,412.6,70,412.8,70L412.8,70z"/>
		</g>
	</g>
	<g>
		<g>
			<path class="st24" d="M376.7,53.3c0.3,0,0.3-0.4,0-0.4C376.5,52.9,376.5,53.3,376.7,53.3L376.7,53.3z"/>
		</g>
	</g>
	<g>
		<g>
			<path class="st24" d="M420.1,91.3c0.3,0,0.3-0.4,0-0.4C419.8,90.9,419.8,91.3,420.1,91.3L420.1,91.3z"/>
		</g>
	</g>
	<g>
		<g>
			<path class="st24" d="M267.7,46c0.3,0,0.3-0.4,0-0.4C267.4,45.5,267.4,46,267.7,46L267.7,46z"/>
		</g>
	</g>
	<g>
		<g>
			<path class="st24" d="M31.2,105.3c0.5,0,0.5-0.7,0-0.7C30.7,104.5,30.7,105.3,31.2,105.3L31.2,105.3z"/>
		</g>
	</g>
	<g>
		<g>
			<path class="st24" d="M28.9,14.1c0.5,0,0.5-0.7,0-0.7C28.4,13.3,28.4,14.1,28.9,14.1L28.9,14.1z"/>
		</g>
	</g>
	<g>
		<g>
			<path class="st24" d="M28.6,66.2c0.5,0,0.5-0.7,0-0.7C28.1,65.5,28.1,66.2,28.6,66.2L28.6,66.2z"/>
		</g>
	</g>
	<g>
		<g>
			<path class="st24" d="M84.3,84.2c0.5,0,0.5-0.7,0-0.7C83.8,83.4,83.8,84.2,84.3,84.2L84.3,84.2z"/>
		</g>
	</g>
	<g>
		<g>
			<path class="st24" d="M48.5,94.1c0.5,0,0.5-0.7,0-0.7C48,93.4,48,94.1,48.5,94.1L48.5,94.1z"/>
		</g>
	</g>
	<g>
		<g>
			<path class="st24" d="M116.7,29.1c0.5,0,0.5-0.7,0-0.7C116.2,28.4,116.2,29.1,116.7,29.1L116.7,29.1z"/>
		</g>
	</g>
	<g>
		<g>
			<path class="st24" d="M313.4,125.6c0.5,0,0.5-0.7,0-0.7C312.9,124.9,312.9,125.6,313.4,125.6L313.4,125.6z"/>
		</g>
	</g>
	<g>
		<g>
			<path class="st24" d="M316.6,114c0.5,0,0.5-0.7,0-0.7C316.2,113.3,316.2,114,316.6,114L316.6,114z"/>
		</g>
	</g>
	<g>
		<g>
			<path class="st24" d="M459.4,26.2c0.5,0,0.5-0.7,0-0.7C458.9,25.4,458.9,26.2,459.4,26.2L459.4,26.2z"/>
		</g>
	</g>
	<g>
		<g>
			<path class="st24" d="M342.9,19.8c0.5,0,0.5-0.7,0-0.7C342.4,19,342.4,19.8,342.9,19.8L342.9,19.8z"/>
		</g>
	</g>
	<g>
		<g>
			<path class="st24" d="M336.9,74.4c0.3,0,0.3-0.4,0-0.4C336.6,73.9,336.6,74.4,336.9,74.4L336.9,74.4z"/>
		</g>
	</g>
	<g>
		<g>
			<path class="st24" d="M374.5,106.7c0.3,0,0.3-0.4,0-0.4C374.2,106.2,374.2,106.7,374.5,106.7L374.5,106.7z"/>
		</g>
	</g>
	<g>
		<g>
			<path class="st24" d="M330.2,114c0.3,0,0.3-0.4,0-0.4C329.9,113.6,329.9,114,330.2,114L330.2,114z"/>
		</g>
	</g>
	<g>
		<g>
			<path class="st24" d="M208.7,91.7c0.3,0,0.3-0.4,0-0.4C208.5,91.2,208.5,91.7,208.7,91.7L208.7,91.7z"/>
		</g>
	</g>
	<g>
		<g>
			<path class="st24" d="M330.2,93.4c0.3,0,0.3-0.4,0-0.4C329.9,92.9,329.9,93.4,330.2,93.4L330.2,93.4z"/>
		</g>
	</g>
	<g>
		<g>
			<path class="st24" d="M385.6,85.6c0.3,0,0.3-0.4,0-0.4C385.3,85.1,385.3,85.6,385.6,85.6L385.6,85.6z"/>
		</g>
	</g>
	<g>
		<g>
			<path class="st24" d="M481.1,13.9c0.3,0,0.3-0.4,0-0.4C480.8,13.5,480.8,13.9,481.1,13.9L481.1,13.9z"/>
		</g>
	</g>
	<g>
		<g>
			<path class="st24" d="M443.8,6.5c0.3,0,0.3-0.4,0-0.4C443.5,6.1,443.5,6.5,443.8,6.5L443.8,6.5z"/>
		</g>
	</g>
	<g>
		<g>
			<path class="st24" d="M420.5,13.9c0.3,0,0.3-0.4,0-0.4C420.2,13.5,420.2,13.9,420.5,13.9L420.5,13.9z"/>
		</g>
	</g>
	<g>
		<g>
			<path class="st24" d="M382.7,25.3c0.3,0,0.3-0.4,0-0.4C382.4,24.9,382.4,25.3,382.7,25.3L382.7,25.3z"/>
		</g>
	</g>
	<g>
		<g>
			<path class="st24" d="M241.2,2.9c0.3,0,0.3-0.4,0-0.4C240.9,2.5,240.9,2.9,241.2,2.9L241.2,2.9z"/>
		</g>
	</g>
	<g>
		<g>
			<path class="st24" d="M133.6,0.2c0.3,0,0.3-0.4,0-0.4C133.3-0.2,133.3,0.2,133.6,0.2L133.6,0.2z"/>
		</g>
	</g>
	<g>
		<g>
			<path class="st24" d="M84.2,13.9c0.3,0,0.3-0.4,0-0.4C83.9,13.5,83.9,13.9,84.2,13.9L84.2,13.9z"/>
		</g>
	</g>
	<g>
		<g>
			<path class="st24" d="M225.9,41.9c0.5,0,0.5-0.7,0-0.7C225.4,41.1,225.4,41.9,225.9,41.9L225.9,41.9z"/>
		</g>
	</g>
	<g>
		<g>
			<path class="st24" d="M309.8,80.3c0.5,0,0.5-0.7,0-0.7C309.3,79.6,309.3,80.3,309.8,80.3L309.8,80.3z"/>
		</g>
	</g>
	<g>
		<g>
			<path class="st24" d="M328.7,86.2c0.5,0,0.5-0.7,0-0.7C328.2,85.4,328.2,86.2,328.7,86.2L328.7,86.2z"/>
		</g>
	</g>
	<g>
		<g>
			<path class="st24" d="M181.1,4.9c0.5,0,0.5-0.7,0-0.7C180.6,4.1,180.6,4.9,181.1,4.9L181.1,4.9z"/>
		</g>
	</g>
	<rect y="323.7" class="st10" width="504" height="36.7"/>
	<g class="st25">
		<path class="st3" d="M463.5,60.8L458.6,73h17.6l-4.9-12.2C468.7,60.8,466,60.8,463.5,60.8z"/>
		<path class="st3" d="M468.9,53.1c-0.9,0-2,0-2.9,0c0,0.1-0.1,0.2-0.1,0.3l-2.5,6.3h8.2l-2.5-6.3C469,53.3,468.9,53.2,468.9,53.1z"
			/>
		<polygon class="st3" points="459,74 452.7,89.6 482.1,89.6 475.9,74 		"/>
		<rect x="451.3" y="106.7" class="st10" width="33.2" height="1.7"/>
		<rect x="447" y="110.3" class="st12" width="41.9" height="7"/>
		<rect x="451.3" y="91.5" class="st3" width="33.2" height="1.7"/>
		<rect x="448.8" y="196.7" class="st10" width="40.3" height="2.9"/>
		<line class="st3" x1="467.4" y1="45.9" x2="467.4" y2="53.1"/>
		<rect x="452.7" y="95.1" class="st3" width="1.9" height="9.8"/>
		<rect x="447" y="119.2" class="st3" width="1.9" height="9.8"/>
		<rect x="451.4" y="119.2" class="st3" width="1.9" height="9.8"/>
		<rect x="455.8" y="119.2" class="st3" width="1.9" height="9.8"/>
		<rect x="460.2" y="119.2" class="st3" width="1.9" height="9.8"/>
		<rect x="464.6" y="119.2" class="st3" width="1.9" height="9.8"/>
		<rect x="469" y="119.2" class="st3" width="1.9" height="9.8"/>
		<rect x="473.4" y="119.2" class="st3" width="1.9" height="9.8"/>
		<rect x="477.8" y="119.2" class="st3" width="1.9" height="9.8"/>
		<rect x="475.5" y="95.1" class="st3" width="1.9" height="9.8"/>
		<rect x="469.8" y="95.1" class="st3" width="1.9" height="9.8"/>
		<rect x="464.1" y="95.1" class="st3" width="1.9" height="9.8"/>
		<rect x="458.4" y="95.1" class="st3" width="1.9" height="9.8"/>
		<rect x="481.2" y="95.1" class="st3" width="1.9" height="9.8"/>
		<rect x="482.2" y="119.2" class="st3" width="1.9" height="9.8"/>
		<rect x="486.6" y="119.2" class="st3" width="1.9" height="9.8"/>
		<rect x="445.5" y="132.3" class="st12" width="46.4" height="41.9"/>
		<circle class="st3" cx="469" cy="153.3" r="15.1"/>
		<polyline class="st26" points="469,141.3 469,155 477.4,155 		"/>
		<line class="st10" x1="451.3" y1="141.3" x2="451.4" y2="165.3"/>
		<line class="st10" x1="486.6" y1="141.3" x2="486.6" y2="165.3"/>
		<line class="st27" x1="481.4" y1="135.2" x2="457.4" y2="135"/>
		<line class="st27" x1="480" y1="170.7" x2="455.9" y2="170.5"/>
		<line class="st26" x1="448.8" y1="195.9" x2="448.8" y2="177.3"/>
		<line class="st26" x1="488.5" y1="177.3" x2="488.5" y2="195.9"/>
		<rect x="452.3" y="178.5" class="st3" width="32.2" height="16.1"/>
		<rect x="455.8" y="181.7" class="st10" width="1.9" height="9.8"/>
		<rect x="460.2" y="181.7" class="st10" width="1.9" height="9.8"/>
		<rect x="464.6" y="181.7" class="st10" width="1.9" height="9.8"/>
		<rect x="469" y="181.7" class="st10" width="1.9" height="9.8"/>
		<rect x="473.4" y="181.7" class="st10" width="1.9" height="9.8"/>
		<rect x="478.5" y="181.7" class="st10" width="1.9" height="9.8"/>
		<rect x="448.8" y="221" class="st10" width="40.3" height="2.9"/>
		<rect x="449.3" y="246.5" class="st3" width="40.3" height="2.9"/>
		<rect x="444" y="310.1" class="st10" width="51.5" height="2.9"/>
		<rect x="441.1" y="318.6" class="st10" width="61.2" height="6"/>
		<line class="st26" x1="449.3" y1="243.8" x2="449.3" y2="225.2"/>
		<line class="st26" x1="488.9" y1="225.2" x2="488.9" y2="243.8"/>
		<rect x="452.8" y="226.4" class="st3" width="32.2" height="16.1"/>
		<rect x="455.8" y="230.3" class="st10" width="1.9" height="9.8"/>
		<rect x="460.2" y="230.3" class="st10" width="1.9" height="9.8"/>
		<rect x="464.6" y="230.3" class="st10" width="1.9" height="9.8"/>
		<rect x="469" y="230.3" class="st10" width="1.9" height="9.8"/>
		<rect x="473.4" y="230.3" class="st10" width="1.9" height="9.8"/>
		<rect x="478.6" y="230.3" class="st10" width="1.9" height="9.8"/>
		<rect x="449" y="273.3" class="st3" width="40.3" height="2.9"/>
		<line class="st26" x1="449.5" y1="270.6" x2="449.5" y2="252"/>
		<line class="st26" x1="489.1" y1="252" x2="489.1" y2="270.6"/>
		<rect x="453" y="253.2" class="st10" width="32.2" height="16.1"/>
		<rect x="456.5" y="256.4" class="st3" width="1.9" height="9.8"/>
		<rect x="460.9" y="256.4" class="st3" width="1.9" height="9.8"/>
		<rect x="465.3" y="256.4" class="st3" width="1.9" height="9.8"/>
		<rect x="469.7" y="256.4" class="st3" width="1.9" height="9.8"/>
		<rect x="474.1" y="256.4" class="st3" width="1.9" height="9.8"/>
		<rect x="479.2" y="256.4" class="st3" width="1.9" height="9.8"/>
		<line class="st26" x1="488.3" y1="201" x2="488.3" y2="219.6"/>
		<rect x="452.1" y="202.2" class="st10" width="32.2" height="16.1"/>
		<rect x="455.6" y="205.4" class="st3" width="1.9" height="9.8"/>
		<rect x="460" y="205.4" class="st3" width="1.9" height="9.8"/>
		<rect x="464.4" y="205.4" class="st3" width="1.9" height="9.8"/>
		<rect x="468.8" y="205.4" class="st3" width="1.9" height="9.8"/>
		<rect x="473.2" y="205.4" class="st3" width="1.9" height="9.8"/>
		<rect x="478.3" y="205.4" class="st3" width="1.9" height="9.8"/>
		<line class="st26" x1="453.2" y1="281.2" x2="445.4" y2="305.2"/>
		<line class="st26" x1="461.3" y1="305.1" x2="453.6" y2="281.1"/>
		<line class="st26" x1="469.7" y1="281.1" x2="461.9" y2="305.2"/>
		<line class="st26" x1="470.1" y1="281" x2="477.9" y2="305.1"/>
		<line class="st26" x1="486.4" y1="281.2" x2="478.6" y2="305.3"/>
		<line class="st26" x1="486.7" y1="281.1" x2="494.5" y2="305.2"/>
		<polyline class="st3" points="456.2,281 461.9,298.4 466,281 		"/>
		<polyline class="st3" points="448,305.6 453.7,288.2 457.8,305.6 		"/>
		<polyline class="st3" points="480.6,305.6 486.2,288.2 490.3,305.6 		"/>
		<polyline class="st3" points="464.3,302.5 469.9,285.1 474,302.5 		"/>
		<polyline class="st3" points="472.9,281 478.5,298.4 482.6,281 		"/>
		<line class="st26" x1="448.8" y1="220.1" x2="448.8" y2="201.5"/>
	</g>
	<line class="st28" x1="15.5" y1="273.1" x2="15.5" y2="321.5"/>
	<line class="st28" x1="33.3" y1="273.1" x2="33.3" y2="321.5"/>
	<line class="st28" x1="24.4" y1="273.1" x2="24.4" y2="321.5"/>
	<line class="st28" x1="42.2" y1="273.1" x2="42.2" y2="321.5"/>
	<line class="st28" x1="51.1" y1="273.1" x2="51.1" y2="321.5"/>
	<line class="st28" x1="60" y1="273.1" x2="60" y2="321.5"/>
	<line class="st28" x1="68.9" y1="273.1" x2="68.9" y2="321.5"/>
	<line class="st28" x1="77.8" y1="273.1" x2="77.8" y2="321.5"/>
	<line class="st28" x1="8.3" y1="254.3" x2="8.3" y2="326"/>
	<path class="st10" d="M8.3,246.8l-2.9,5c-0.3,0.6,0.1,1.4,0.8,1.4h4.2c0.7,0,1.1-0.8,0.8-1.4L8.3,246.8z"/>
	<rect x="8" y="252.5" class="st28" width="0.8" height="2.8"/>
	<g>
		<path class="st10" d="M87.2,244.7l-2.9,5c-0.3,0.6,0.1,1.4,0.8,1.4h4.2c0.7,0,1.1-0.8,0.8-1.4L87.2,244.7z"/>
		<rect x="86.8" y="250.4" class="st10" width="0.8" height="2.8"/>
	</g>
	<line class="st28" x1="87.2" y1="253.1" x2="87.2" y2="324.8"/>
	<path class="st28" d="M15.5,267.3l-2.1,3.7c-0.3,0.4,0.1,1,0.6,1h3.1c0.5,0,0.8-0.6,0.6-1L15.5,267.3z"/>
	<rect x="15.2" y="271.5" class="st28" width="0.6" height="2.1"/>
	<path class="st28" d="M24.4,267.9l-2.1,3.7c-0.3,0.4,0.1,1,0.6,1h3.1c0.5,0,0.8-0.6,0.6-1L24.4,267.9z"/>
	<rect x="24.1" y="272.1" class="st28" width="0.6" height="2.1"/>
	<path class="st28" d="M33.3,267.1l-2.1,3.7c-0.3,0.4,0.1,1,0.6,1h3.1c0.5,0,0.8-0.6,0.6-1L33.3,267.1z"/>
	<rect x="33" y="271.3" class="st28" width="0.6" height="2.1"/>
	<path class="st28" d="M42.2,267.9l-2.1,3.7c-0.3,0.4,0.1,1,0.6,1h3.1c0.5,0,0.8-0.6,0.6-1L42.2,267.9z"/>
	<rect x="41.9" y="272.1" class="st28" width="0.6" height="2.1"/>
	<g>
		<path class="st28" d="M51.2,266.9l-2.3,3.7c-0.3,0.4,0,1,0.6,1l3.1,0.1c0.5,0,0.9-0.5,0.6-1L51.2,266.9z"/>
		
			<rect x="50.7" y="271.1" transform="matrix(0.9996 2.938829e-02 -2.938829e-02 0.9996 8.0206 -1.3816)" class="st28" width="0.6" height="2.1"/>
	</g>
	<g>
		<path class="st28" d="M60,266.9l-2.1,3.7c-0.3,0.4,0.1,1,0.6,1h3.1c0.5,0,0.8-0.6,0.6-1L60,266.9z"/>
		<rect x="59.7" y="271.1" class="st28" width="0.6" height="2.1"/>
	</g>
	<g>
		<path class="st28" d="M68.9,267.4l-2.1,3.7c-0.3,0.4,0.1,1,0.6,1h3.1c0.5,0,0.8-0.6,0.6-1L68.9,267.4z"/>
		<rect x="68.6" y="271.6" class="st28" width="0.6" height="2.1"/>
	</g>
	<g>
		<path class="st28" d="M77.8,267.4l-2.1,3.7c-0.3,0.4,0.1,1,0.6,1h3.1c0.5,0,0.8-0.6,0.6-1L77.8,267.4z"/>
		<rect x="77.5" y="271.6" class="st28" width="0.6" height="2.1"/>
	</g>
	<line class="st28" x1="8.3" y1="277" x2="87.9" y2="277"/>
	<line class="st28" x1="8.3" y1="285.4" x2="87.9" y2="285.4"/>
	<line class="st28" x1="12.5" y1="297" x2="12.5" y2="316.7"/>
	<line class="st28" x1="19.9" y1="297.6" x2="19.9" y2="317.3"/>
	<line class="st28" x1="28.8" y1="297" x2="28.8" y2="316.7"/>
	<line class="st28" x1="37.7" y1="297.5" x2="37.7" y2="317.3"/>
	<line class="st28" x1="46.6" y1="297.5" x2="46.6" y2="317.3"/>
	<line class="st28" x1="55.5" y1="297.2" x2="55.5" y2="316.9"/>
	<line class="st28" x1="64.4" y1="297.5" x2="64.4" y2="317.3"/>
	<line class="st28" x1="73.3" y1="297.5" x2="73.3" y2="317.3"/>
	<line class="st28" x1="82.5" y1="296.9" x2="82.5" y2="316.7"/>
	<line class="st28" x1="7.7" y1="297.3" x2="87.9" y2="297"/>
	<rect x="42.4" y="52.9" class="st15" width="88.8" height="25.1"/>
	<text transform="matrix(1 0 0 1 42.4493 74.4487)"><tspan x="0" y="0" class="st12 st29 st30">Tails of Myst</tspan><tspan x="61.3" y="0" class="st12 st29 st30 st31">e</tspan><tspan x="67.2" y="0" class="st12 st29 st32">ry</tspan></text>
	<g>
		<g>
			<path class="st12" d="M209.5,225.7c-0.1,0-0.1,0-0.1,0.1c-1.2,0.7-2.3,1.4-3.3,2.4c0,0,0,0.2,0,0.3c0.6,0.7,1.1,1.5,1.7,2.2
				c0.4,0.5,0.8,1,1.3,1.4c0.9,0.8,2,0.9,3.1,0.3c2.5-1.3,4.9-2.6,7.4-3.9c1.6-0.9,3.3-1.7,4.9-2.6c2.2-1.2,4.4-2.2,6.8-2.9
				c1.7-0.6,3.5-1.1,5.3-1.5c1.5-0.4,3-0.7,4.5-1c1.6-0.3,3.2-0.6,4.7-0.9c0.4-0.1,0.8-0.1,1.3-0.1c0.1,0,0.3-0.1,0.4-0.3
				c0-0.1,0-0.3-0.1-0.4c-0.1-0.1-0.3-0.1-0.4,0c0,0-0.1,0-0.2,0.1c-0.5,0.1-1.1,0.2-1.6,0.3c-2.1,0.4-4.2,0.7-6.3,1.1
				c-2,0.4-4.1,0.8-6.1,1.3c-2.7,0.7-5.4,1.6-8,2.8c-2.7,1.3-5.4,2.5-8.1,3.7c-1.1,0.5-2.2,1-3.3,1.4c-0.6,0.2-0.8,0.2-1.2-0.3
				c-0.3-0.4-0.6-0.8-0.9-1.2c-0.5-0.7-1.1-1.3-1.6-2C209.6,225.8,209.5,225.8,209.5,225.7z"/>
			<path class="st12" d="M209.5,225.7c0,0,0.1,0.1,0.2,0.1c0.5,0.7,1.1,1.3,1.6,2c0.3,0.4,0.6,0.8,0.9,1.2c0.4,0.4,0.6,0.5,1.2,0.3
				c1.1-0.5,2.2-1,3.3-1.4c2.7-1.2,5.4-2.4,8.1-3.7c2.6-1.2,5.2-2.1,8-2.8c2-0.5,4-0.9,6.1-1.3c2.1-0.4,4.2-0.7,6.3-1.1
				c0.5-0.1,1.1-0.2,1.6-0.3c0.1,0,0.1,0,0.2-0.1c0.2-0.1,0.3-0.1,0.4,0c0.1,0.1,0.1,0.3,0.1,0.4c0,0.1-0.2,0.2-0.4,0.3
				c-0.4,0.1-0.8,0.1-1.3,0.1c-1.6,0.3-3.2,0.5-4.7,0.9c-1.5,0.3-3,0.6-4.5,1c-1.8,0.5-3.5,1-5.3,1.5c-2.3,0.8-4.6,1.8-6.8,2.9
				c-1.6,0.9-3.3,1.7-4.9,2.6c-2.5,1.3-4.9,2.6-7.4,3.9c-1.1,0.6-2.3,0.5-3.1-0.3c-0.5-0.4-0.9-0.9-1.3-1.4
				c-0.6-0.7-1.1-1.4-1.7-2.2c0-0.1,0-0.2,0-0.3c1-1,2.1-1.7,3.3-2.4C209.4,225.8,209.4,225.8,209.5,225.7z"/>
		</g>
		<g id="_x30_003052_x5F_dog-48-farm-animal-silhouette-decals_x5F_550_2_">
			<g>
				<path class="st10" d="M271.1,290.5c0.3,0,0.5-0.1,0.6-0.1c4,0,7.9-0.5,11.8-1.3c0.5-0.1,1.1-0.3,1.5-0.5
					c0.8-0.5,0.7-1.1-0.1-1.4c-0.6-0.2-1.3-0.2-2-0.1c-4,0.5-8,1.2-12.1,0.4c-0.9-0.2-1.6-0.3-1.5-1.4c0-0.3,0-0.7,0.1-1
					c0.2-0.8,0.5-1.6,0.5-2.4c0-2.2-0.1-4.3-0.4-6.5c-0.1-1-0.5-2.1-1.2-2.8c-1.5-1.5-2.2-3.3-2.9-5.3c-0.2-0.7-0.9-1.3-1.4-1.9
					c-0.5-0.6-1.1-1.1-1.4-1.8c-1-2-1.2-4.1-1.2-6.3c0-2.2-0.7-4.3-2-6.1c-1.3-1.7-2.5-3.5-3.9-5.1c-1.3-1.5-2.3-3-2.8-4.9
					c-0.7-2.6-2.6-4.7-3.7-7.1c-0.2-0.4-0.6-0.7-0.9-1c-1.3-1.3-1.9-2.9-2.2-4.6c-0.2-1.4,0.1-2.9,0.2-4.4c0.2,0.9,0.2,1.7,0.4,2.6
					c0.3,1.2,0.6,2.4,1.1,3.5c0.3,0.6,1,1.1,1.7,0.8c0.3-0.2,0.6-1,0.5-1.4c-0.3-1.4,0.3-2.4,1.4-3.3c0.9-0.8,1.1-1.8,0.9-2.9
					c-0.3-1.4-0.6-2.7-0.9-4.1c-0.2-1.1-0.7-2.1-1.6-2.9c-0.3-0.3-0.5-0.7-0.7-1.1c-0.4-1-0.7-2-1.2-3c-0.3-0.5-0.7-1-1.1-1.5
					c-0.4-0.5-0.9-0.9-1.3-1.4c-1.2-1.6-2.8-2.7-4.8-2.9c-1-0.1-1.9-0.1-2.9-0.1c-3.3-0.1-5.8,1.6-7,4.6c-0.2,0.5-0.4,1-0.7,1.3
					c-2,2.5-3.2,5.3-3.7,8.4c-0.4,2.3,0.3,4.6,1.1,6.7c0.5,1.2,0.8,2.4,0.6,3.7c0,0.3,0.1,0.6,0.1,0.9c0.1,0,0.2,0.1,0.4,0.1
					c0.4-1.9,1.7-3.1,3.1-4.4c0.3,2.1,0.5,4.1,0.8,6.1c0,0.2-0.1,0.4-0.2,0.5c-2.3,3.7-4.2,7.6-5.2,12c-0.9,4-1.5,7.9,0.4,11.8
					c0.7,1.4,1.2,2.7,0.6,4.2c-0.1,0.3-0.1,0.7,0,1.1c0.1,2.4,0.2,4.8,0.5,7.2c0.7,6.3,0.7,12.5,0.1,18.8c-0.3,2.9-1.2,5.5-3.2,7.7
					c-0.6,0.7-0.6,2-0.8,3.1c0,0.1,0.2,0.4,0.3,0.5c1.2,0.4,2.3,0.8,3.6,0.4c0.5-0.1,1-0.2,1.5-0.3c1.4,0,1.9-0.5,1.9-2
					c0-0.2,0.1-0.3,0.1-0.5c0.2-0.9,0.4-1.7,0.5-2.6c0.2-1.8,0.2-3.7,0.6-5.5c0.3-1.1,0.6-2.2,0.4-3.4c-0.3-1.8-0.6-3.6-0.4-5.5
					c0.4-4.1,0.8-8.3,1-12.5c0.1-1.5-0.2-3.1-0.4-4.6c-0.1-1.1-0.2-2.3-0.3-3.5c0.3,0.1,0.4,0.1,0.5,0.1c0.6,0.8,1.3,1.6,1.9,2.5
					c1,1.6,1.7,3.4,2.9,4.8c1,1.2,1,2.2,0.5,3.5c-0.1,0.3-0.2,0.7-0.4,1c-0.8,1.4-0.8,2.8-0.3,4.2c0.3,0.9,0.7,1.8,1.1,2.6
					c0.9,1.9,1.8,3.8,2.6,5.7c0.8,2,0.1,3.7-1.9,4.4c-0.8,0.3-1.6,0.5-2.4,0.5c-1.9,0-3.4,0.6-4.4,2.3c-0.5,0.8-0.4,2.1,0.4,2.3
					c0.9,0.2,1.9,0.2,2.9,0.2c0.2,0,0.5-0.1,0.7-0.1c0.7-0.2,1.4-0.2,2-0.5c0.9-0.4,1.8-0.9,2.7-1.3c1.3-0.6,2.6-1,3.9-1.5
					c1.1-0.5,1.4-0.9,1.1-2.1c-0.1-0.3,0-0.6-0.1-1.1c0.5,0.5,0.9,0.9,1.3,1.2c0.7,0.4,0.8,0.9,0.6,1.5c-0.4,1.7-0.8,3.4-1.2,5.1
					c-0.1,0.4-0.4,0.8-0.7,1.1c-0.6,0.8-1.4,1.6-1.9,2.5c-0.3,0.5-0.3,1.5,0,1.8c0.4,0.5,1.3,0.6,2,0.7c1,0.1,2.1,0,3.1-0.1
					c0.5,0,0.9-0.2,1.4-0.2c1.3,0,1.9-0.7,1.7-1.9c-0.4-2.8,0-5.5,0.7-8.2c4-0.2,7.9,0.3,11.7-1.2c-0.9,0.7-1.9,1.1-2.9,1.6
					c-1.2,0.5-1.8,2.4-1.1,3.5c0.2,0.2,0.4,0.5,0.6,0.6c0.6,0.2,1.3,0.5,1.9,0.5c0.5,0.1,1.1-0.1,1.6-0.2c0.3-0.1,0.5-0.3,0.8-0.3
					c0.9,0,1.3-0.6,1.7-1.2c0.5-0.7,0.9-1.5,1.6-2C270.6,293.1,271.5,292.2,271.1,290.5z"/>
				<path class="st10" d="M271.1,290.5c0.4,1.7-0.5,2.6-1.6,3.5c-0.6,0.6-1.1,1.3-1.6,2c-0.4,0.7-0.8,1.2-1.7,1.2
					c-0.3,0-0.5,0.2-0.8,0.3c-0.5,0.1-1.1,0.2-1.6,0.2c-0.7-0.1-1.3-0.3-1.9-0.5c-0.3-0.1-0.5-0.3-0.6-0.6c-0.8-1.1-0.2-2.9,1.1-3.5
					c1-0.4,2-0.9,2.9-1.6c-3.8,1.5-7.8,1-11.7,1.2c-0.7,2.7-1.1,5.4-0.7,8.2c0.2,1.3-0.4,2-1.7,1.9c-0.5,0-0.9,0.2-1.4,0.2
					c-1,0.1-2.1,0.2-3.1,0.1c-0.7-0.1-1.5-0.2-2-0.7c-0.3-0.3-0.3-1.3,0-1.8c0.5-0.9,1.3-1.6,1.9-2.5c0.3-0.4,0.6-0.7,0.7-1.1
					c0.5-1.7,0.8-3.4,1.2-5.1c0.2-0.7,0.1-1.2-0.6-1.5c-0.4-0.2-0.8-0.7-1.3-1.2c0,0.4,0,0.7,0.1,1.1c0.2,1.2,0,1.6-1.1,2.1
					c-1.3,0.5-2.6,1-3.9,1.5c-0.9,0.4-1.8,1-2.7,1.3c-0.6,0.3-1.3,0.4-2,0.5c-0.2,0.1-0.5,0.1-0.7,0.1c-1,0-2,0-2.9-0.2
					c-0.8-0.2-0.9-1.6-0.4-2.3c1-1.7,2.5-2.2,4.4-2.3c0.8,0,1.6-0.2,2.4-0.5c2-0.7,2.7-2.4,1.9-4.4c-0.8-1.9-1.8-3.8-2.6-5.7
					c-0.4-0.9-0.8-1.7-1.1-2.6c-0.5-1.4-0.5-2.9,0.3-4.2c0.2-0.3,0.3-0.6,0.4-1c0.5-1.3,0.5-2.3-0.5-3.5c-1.2-1.4-1.9-3.2-2.9-4.8
					c-0.5-0.9-1.2-1.7-1.9-2.5c-0.1-0.1-0.2-0.1-0.5-0.1c0.1,1.2,0.2,2.4,0.3,3.5c0.1,1.5,0.5,3.1,0.4,4.6c-0.2,4.2-0.6,8.3-1,12.5
					c-0.2,1.9,0.1,3.7,0.4,5.5c0.2,1.2-0.1,2.3-0.4,3.4c-0.4,1.8-0.4,3.6-0.6,5.5c-0.1,0.9-0.3,1.7-0.5,2.6c0,0.2-0.1,0.3-0.1,0.5
					c0,1.5-0.5,1.9-1.9,2c-0.5,0-1,0.1-1.5,0.3c-1.3,0.4-2.4-0.1-3.6-0.4c-0.1,0-0.3-0.3-0.3-0.5c0.2-1.1,0.1-2.4,0.8-3.1
					c2.1-2.2,3-4.7,3.2-7.7c0.6-6.3,0.6-12.5-0.1-18.8c-0.3-2.4-0.3-4.8-0.5-7.2c0-0.4-0.1-0.8,0-1.1c0.6-1.5,0.1-2.9-0.6-4.2
					c-1.9-3.8-1.3-7.8-0.4-11.8c1-4.3,2.8-8.2,5.2-12c0.1-0.2,0.2-0.4,0.2-0.5c-0.2-2-0.5-4-0.8-6.1c-1.4,1.2-2.7,2.4-3.1,4.4
					c-0.1,0-0.2-0.1-0.4-0.1c0-0.3-0.1-0.6-0.1-0.9c0.2-1.3-0.2-2.5-0.6-3.7c-0.9-2.2-1.5-4.4-1.1-6.7c0.5-3.1,1.7-5.9,3.7-8.4
					c0.3-0.4,0.5-0.9,0.7-1.3c1.2-3,3.8-4.7,7-4.6c1,0,1.9,0,2.9,0.1c2.1,0.2,3.6,1.2,4.8,2.9c0.4,0.5,0.9,0.9,1.3,1.4
					c0.4,0.5,0.8,0.9,1.1,1.5c0.5,1,0.8,2,1.2,3c0.2,0.4,0.4,0.9,0.7,1.1c1,0.7,1.4,1.7,1.6,2.9c0.3,1.4,0.6,2.7,0.9,4.1
					c0.3,1.1,0.1,2.1-0.9,2.9c-1.1,0.9-1.6,1.9-1.4,3.3c0.1,0.4-0.2,1.2-0.5,1.4c-0.7,0.3-1.4-0.1-1.7-0.8c-0.5-1.1-0.8-2.3-1.1-3.5
					c-0.2-0.8-0.1-1.7-0.4-2.6c-0.1,1.5-0.4,3-0.2,4.4c0.3,1.7,0.9,3.4,2.2,4.6c0.3,0.3,0.7,0.6,0.9,1c1.2,2.4,3,4.5,3.7,7.1
					c0.5,1.9,1.6,3.4,2.8,4.9c1.4,1.6,2.6,3.4,3.9,5.1c1.4,1.8,2,3.8,2,6.1c0,2.2,0.2,4.3,1.2,6.3c0.3,0.7,0.9,1.2,1.4,1.8
					c0.5,0.6,1.2,1.2,1.4,1.9c0.7,1.9,1.4,3.8,2.9,5.3c0.7,0.7,1.1,1.8,1.2,2.8c0.3,2.1,0.4,4.3,0.4,6.5c0,0.8-0.4,1.6-0.5,2.4
					c-0.1,0.3-0.1,0.6-0.1,1c-0.1,1.1,0.6,1.2,1.5,1.4c4.1,0.7,8.1,0,12.1-0.4c0.7-0.1,1.4-0.1,2,0.1c0.9,0.3,0.9,0.9,0.1,1.4
					c-0.5,0.3-1,0.4-1.5,0.5c-3.9,0.8-7.8,1.4-11.8,1.3C271.6,290.5,271.5,290.5,271.1,290.5z"/>
			</g>
		</g>
		<g>
			<path class="st3" d="M227.2,213.1c-0.1,0.1-0.3,0.3-0.4,0.4c-1.2,0.6-2.2,1.4-3,2.5c-0.5,0.7-0.4,1.2,0.1,1.9
				c0.2,0.2,0.4,0.4,0.7,0.6c1.4,0.9,3,1.1,4.6,0.7c2.9-0.7,5.7-1.4,8.6-2.1c2.7-0.7,5.4-1.3,8.3-1.5c1-0.1,2.1-0.2,3.1-0.3
				c0.6-0.1,1.2-0.3,1.7-0.6c0.3-0.2,0.2-0.9,0.3-1.3c0.1-0.8,0-1-0.8-1.2c-0.9-0.2-1.7-0.3-2.6-0.4c-0.3,0-0.4-0.1-0.4-0.4
				c-0.1-1.2-0.1-2.4-0.3-3.5c-0.2-1.5-0.5-3.1-1.3-4.4c-0.3-0.6-0.7-1.2-1.4-1.4c-1-0.3-1.9-0.7-2.9-0.8c-2-0.2-3.9,0-5.9,0.4
				c-0.5,0.1-1,0.2-1.5,0.2c-1.1,0-2.2,0-3.3,0c-0.6,0-1.1,0.3-1.4,0.7c-0.8,1-1.3,2-1.4,3.2c0,0.6-0.1,1.2-0.2,1.8
				C227.4,209.4,227.3,211.2,227.2,213.1L227.2,213.1z"/>
			<path class="st12" d="M227.1,213.1c0.1-0.4,0.1-0.8,0.2-1.2c0.9,0.1,1.8,0.3,2.7,0.3c2.4,0.2,4.7,0.4,7.1,0.4
				c2.8,0,5.6-0.1,8.4-0.1c0.5,0,1-0.1,1.6-0.1c0.2,0,0.3,0.1,0.5,0.2c0,0.1,0,0.1,0,0.2c-0.7,0.2-1.4,0.3-2.1,0.5
				c-2.2,0.6-4.3,1.2-6.5,1.8c-0.2,0-0.3,0.1-0.5,0.1c-2.8,0.1-5.5,0.1-8.3,0.1c-1,0-2.1-0.2-3.2-0.3
				C227,214.3,227.1,213.7,227.1,213.1C227.2,213.1,227.1,213.1,227.1,213.1z"/>
		</g>
	</g>
	<rect x="209.7" y="267.5" class="st10" width="71" height="10.8"/>
	<rect x="201.3" y="293.2" class="st10" width="87.8" height="12.7"/>
	<rect x="209.7" y="281.9" class="st10" width="71" height="5.1"/>
	<rect x="217.8" y="274.7" class="st10" width="5.4" height="49.7"/>
	<rect x="266.1" y="274.5" class="st10" width="5.4" height="49.7"/>
	<g>
		<line class="st33" x1="344.5" y1="272.2" x2="344.5" y2="320.6"/>
		<line class="st33" x1="362.3" y1="272.2" x2="362.3" y2="320.6"/>
		<line class="st33" x1="353.4" y1="272.2" x2="353.4" y2="320.6"/>
		<line class="st33" x1="371.2" y1="272.2" x2="371.2" y2="320.6"/>
		<line class="st33" x1="380.1" y1="272.2" x2="380.1" y2="320.6"/>
		<line class="st33" x1="389" y1="272.2" x2="389" y2="320.6"/>
		<line class="st33" x1="397.9" y1="272.2" x2="397.9" y2="320.6"/>
		<line class="st33" x1="406.8" y1="272.2" x2="406.8" y2="320.6"/>
		<line class="st33" x1="337.4" y1="253.4" x2="337.4" y2="325.1"/>
		<path class="st33" d="M337.4,245.9l-2.9,5c-0.3,0.6,0.1,1.4,0.8,1.4h4.2c0.7,0,1.1-0.8,0.8-1.4L337.4,245.9z"/>
		<rect x="337" y="251.6" class="st33" width="0.8" height="2.8"/>
		<g>
			<path class="st33" d="M416.3,243.8l-2.9,5c-0.3,0.6,0.1,1.4,0.8,1.4h4.2c0.7,0,1.1-0.8,0.8-1.4L416.3,243.8z"/>
			<rect x="415.9" y="249.5" class="st33" width="0.8" height="2.8"/>
		</g>
		<line class="st33" x1="416.3" y1="252.2" x2="416.3" y2="323.9"/>
		<path class="st33" d="M344.5,266.4l-2.1,3.7c-0.3,0.4,0.1,1,0.6,1h3.1c0.5,0,0.8-0.6,0.6-1L344.5,266.4z"/>
		<rect x="344.2" y="270.6" class="st33" width="0.6" height="2.1"/>
		<path class="st33" d="M353.4,267l-2.1,3.7c-0.3,0.4,0.1,1,0.6,1h3.1c0.5,0,0.8-0.6,0.6-1L353.4,267z"/>
		<rect x="353.1" y="271.2" class="st33" width="0.6" height="2.1"/>
		<path class="st33" d="M362.3,266.2l-2.1,3.7c-0.3,0.4,0.1,1,0.6,1h3.1c0.5,0,0.8-0.6,0.6-1L362.3,266.2z"/>
		<rect x="362" y="270.4" class="st33" width="0.6" height="2.1"/>
		<path class="st33" d="M371.2,267l-2.1,3.7c-0.3,0.4,0.1,1,0.6,1h3.1c0.5,0,0.8-0.6,0.6-1L371.2,267z"/>
		<rect x="370.9" y="271.2" class="st33" width="0.6" height="2.1"/>
		<g>
			<path class="st33" d="M380.2,266l-2.3,3.7c-0.3,0.4,0,1,0.6,1l3.1,0.1c0.5,0,0.9-0.5,0.6-1L380.2,266z"/>
			
				<rect x="379.7" y="270.2" transform="matrix(0.9996 2.938829e-02 -2.938829e-02 0.9996 8.1363 -11.052)" class="st33" width="0.6" height="2.1"/>
		</g>
		<g>
			<path class="st33" d="M389,266l-2.1,3.7c-0.3,0.4,0.1,1,0.6,1h3.1c0.5,0,0.8-0.6,0.6-1L389,266z"/>
			<rect x="388.7" y="270.2" class="st33" width="0.6" height="2.1"/>
		</g>
		<g>
			<path class="st33" d="M397.9,266.5l-2.1,3.7c-0.3,0.4,0.1,1,0.6,1h3.1c0.5,0,0.8-0.6,0.6-1L397.9,266.5z"/>
			<rect x="397.6" y="270.7" class="st33" width="0.6" height="2.1"/>
		</g>
		<g>
			<path class="st33" d="M406.8,266.5l-2.1,3.7c-0.3,0.4,0.1,1,0.6,1h3.1c0.5,0,0.8-0.6,0.6-1L406.8,266.5z"/>
			<rect x="406.5" y="270.7" class="st33" width="0.6" height="2.1"/>
		</g>
		<line class="st33" x1="337.4" y1="276.1" x2="416.9" y2="276.1"/>
		<line class="st33" x1="337.4" y1="284.5" x2="416.9" y2="284.5"/>
		<line class="st33" x1="337.4" y1="313.2" x2="416.9" y2="313.2"/>
		<line class="st33" x1="341.6" y1="296.1" x2="341.6" y2="315.9"/>
		<line class="st33" x1="349" y1="296.7" x2="349" y2="316.4"/>
		<line class="st33" x1="357.9" y1="296.1" x2="357.9" y2="315.9"/>
		<line class="st33" x1="366.8" y1="296.6" x2="366.8" y2="316.4"/>
		<line class="st33" x1="375.7" y1="296.6" x2="375.7" y2="316.4"/>
		<line class="st33" x1="384.6" y1="296.3" x2="384.6" y2="316"/>
		<line class="st33" x1="393.5" y1="296.6" x2="393.5" y2="316.4"/>
		<line class="st33" x1="402.4" y1="296.6" x2="402.4" y2="316.4"/>
		<line class="st33" x1="411.6" y1="296" x2="411.6" y2="315.8"/>
		<line class="st33" x1="336.7" y1="296.4" x2="416.9" y2="296.1"/>
	</g>
	<g>
		<g>
			<g>
				<path class="st3" d="M200.6,192.3c0-1.3,0.1-2.7,0.5-4c0.2-0.6,0.4-1.3,0.8-1.8c0.4-0.5,0.8-1.1,1.5-1.3
					c0.7-0.1,1.4,0.3,1.8,0.9c0.4,0.5,0.7,1.2,0.9,1.8c0.4,1.3,0.6,2.6,0.7,3.9l0,0l0,0l-1.3,9.2l-0.7,4.6c-0.2,1.5-0.5,3-0.8,4.6
					l0,0c0.2-1.5,0.4-3.1,0.6-4.6l0.6-4.6l1.4-9.1l0,0c0-1.3-0.2-2.6-0.6-3.9c-0.2-0.6-0.5-1.2-0.9-1.7c-0.4-0.5-1-0.9-1.6-0.8
					c-0.6,0.1-1.1,0.6-1.5,1.2c-0.4,0.6-0.6,1.2-0.8,1.8C200.8,189.7,200.6,191,200.6,192.3L200.6,192.3z"/>
			</g>
			<g>
				<path class="st3" d="M200.6,192.3c0,0.7,0.1,1.3,0.3,2c0.2,0.6,0.5,1.3,1.1,1.5c0.3,0.1,0.5-0.1,0.7-0.4
					c0.2-0.2,0.3-0.5,0.4-0.8c0.2-0.6,0.4-1.3,0.5-1.9l0,0c0.1,0.7,0,1.4-0.2,2c-0.1,0.3-0.3,0.6-0.5,0.9c-0.2,0.3-0.6,0.5-1,0.4
					c-0.4-0.1-0.6-0.4-0.8-0.7c-0.2-0.3-0.3-0.6-0.4-1C200.6,193.7,200.6,193,200.6,192.3L200.6,192.3z"/>
			</g>
			<g>
				<path class="st3" d="M206.8,209.8c0,0.6,0,1.3-0.2,1.9c-0.1,0.3-0.2,0.6-0.4,0.9c-0.2,0.3-0.4,0.6-0.8,0.7
					c-0.4,0.1-0.8-0.2-1-0.4c-0.2-0.3-0.4-0.6-0.5-0.9c-0.2-0.6-0.3-1.3-0.2-2l0,0c0.1,0.6,0.2,1.3,0.4,1.9c0.1,0.3,0.2,0.6,0.4,0.8
					c0.2,0.2,0.4,0.4,0.7,0.4c0.6-0.1,0.9-0.8,1.1-1.4C206.7,211.1,206.8,210.4,206.8,209.8L206.8,209.8z"/>
			</g>
		</g>
		<g>
			<g>
				<path class="st3" d="M209.1,201.8c0-1.3-0.1-2.7-0.5-3.9c-0.2-0.6-0.4-1.3-0.8-1.8c-0.4-0.5-0.8-1.1-1.5-1.2
					c-0.6-0.1-1.2,0.3-1.6,0.8c-0.4,0.5-0.7,1.1-0.9,1.7c-0.4,1.2-0.6,2.6-0.6,3.9l0,0l1.4,9.1l0.6,4.6c0.2,1.5,0.4,3.1,0.6,4.6l0,0
					c-0.3-1.5-0.5-3-0.8-4.6l-0.7-4.6l-1.3-9.2l0,0l0,0c0-1.3,0.2-2.7,0.7-3.9c0.2-0.6,0.5-1.3,0.9-1.8c0.4-0.5,1.1-1,1.8-0.9
					c0.7,0.1,1.2,0.7,1.5,1.3c0.4,0.6,0.6,1.2,0.8,1.8C209.1,199.1,209.2,200.5,209.1,201.8L209.1,201.8z"/>
			</g>
			<g>
				<path class="st3" d="M209.2,201.8c0,0.7,0,1.3-0.2,2c-0.1,0.3-0.2,0.7-0.4,1c-0.2,0.3-0.4,0.6-0.8,0.7c-0.4,0.1-0.8-0.1-1-0.4
					c-0.2-0.3-0.4-0.6-0.5-0.9c-0.2-0.7-0.3-1.3-0.2-2l0,0c0.1,0.7,0.2,1.3,0.5,1.9c0.1,0.3,0.2,0.6,0.4,0.8
					c0.2,0.2,0.4,0.4,0.7,0.4c0.6-0.2,0.9-0.9,1.1-1.5C209,203.1,209.1,202.4,209.2,201.8L209.2,201.8z"/>
			</g>
			<g>
				<path class="st3" d="M203,219.2c0,0.6,0.1,1.3,0.3,1.9c0.2,0.6,0.5,1.3,1.1,1.4c0.3,0,0.5-0.1,0.7-0.4c0.2-0.2,0.3-0.5,0.4-0.8
					c0.2-0.6,0.3-1.2,0.4-1.9l0,0c0.1,0.7,0,1.3-0.2,2c-0.1,0.3-0.3,0.6-0.5,0.9c-0.2,0.3-0.6,0.5-1,0.4c-0.4-0.1-0.6-0.4-0.8-0.7
					c-0.2-0.3-0.3-0.6-0.4-0.9C203,220.6,202.9,219.9,203,219.2L203,219.2z"/>
			</g>
		</g>
	</g>
	<g>
		<g>
			<path class="st3" d="M131.7,77.1c-1.7,2.8-4.6,4.9-7.8,5.7c-3.2,0.8-6.8,0.3-9.6-1.5c-2.9-1.7-5-4.6-5.8-7.9
				c-0.8-3.3-0.2-6.8,1.5-9.7c1.7-2.9,4.7-5,8-5.8c3.3-0.8,6.9-0.2,9.8,1.6c2.9,1.8,5,4.8,5.7,8C134.1,70.8,133.5,74.3,131.7,77.1z
				 M131.7,77.1c1.7-2.8,2.2-6.3,1.4-9.5c-0.8-3.2-2.9-6-5.7-7.6c-2.7-1.7-6.2-2.3-9.3-1.5c-3.2,0.7-6,2.7-7.7,5.5
				c-1.7,2.7-2.3,6.2-1.6,9.4c0.7,3.2,2.8,6,5.5,7.7c2.8,1.8,6.2,2.3,9.4,1.6C127,81.9,129.9,79.9,131.7,77.1z"/>
		</g>
		<line class="st34" x1="131.7" y1="77.1" x2="139.1" y2="81.2"/>
		<path class="st12" d="M151.8,90.3l-15-8.7c-0.8-0.4-1-1.4-0.6-2.1l0,0c0.4-0.8,1.4-1,2.1-0.6l15,8.7c0.8,0.4,1,1.4,0.6,2.1l0,0
			C153.5,90.5,152.6,90.7,151.8,90.3z"/>
	</g>
</g>
<g id="Layer_3">
	<g>
		<g>
			<path class="st24" d="M311,95.5c0.5,0,0.5-0.7,0-0.7C310.5,94.7,310.5,95.5,311,95.5L311,95.5z"/>
		</g>
	</g>
	<g>
		<g>
			<path class="st24" d="M332.4,99.6c0.3,0,0.3-0.4,0-0.4C332.1,99.1,332.1,99.6,332.4,99.6L332.4,99.6z"/>
		</g>
	</g>
	<rect x="323.5" y="85" class="st15" width="36" height="49.9"/>
	<text transform="matrix(1 0 0 1.59 323.5214 125.2767)" class="st12 st35 st36">8</text>
	<rect x="303.9" y="81" class="st15" width="31.7" height="27.4"/>
	<text transform="matrix(0.94 0 0 1 303.9095 103.4722)" class="st3 st29 st37 st38">Oct</text>
	<rect x="303.6" y="102.7" class="st15" width="26.2" height="21"/>
	<text transform="matrix(0.94 0 0 1 303.6389 120.7046)" class="st3 st29 st39">Sat</text>
	<rect x="327.1" y="108.5" class="st15" width="23.6" height="30.8"/>
	<text transform="matrix(0.94 0 0 1 327.0938 119.7223)" class="st3 st29 st40">th</text>
</g>
<g id="Layer_4">
</g>
<g id="Layer_5">
	<rect x="408.8" y="77.3" class="st15" width="24.1" height="43.5"/>
	<text transform="matrix(1.06 0 0 1.59 408.7542 114.0541)" class="st12 st35 st41">6</text>
	<rect x="395.9" y="94.5" class="st15" width="23.8" height="29.2"/>
	<text transform="matrix(1 0 0 1 395.8803 123.2271)" class="st12 st42 st43">11</text>
	<rect x="375.7" y="84.8" class="st15" width="55.3" height="28.7"/>
	<text transform="matrix(0.94 0 0 1 375.7307 105.007)" class="st3 st29 st44 st38">From</text>
	<rect x="381" y="104.7" class="st15" width="16.5" height="21"/>
	<text transform="matrix(0.94 0 0 1 381.0238 120.4346)" class="st3 st29 st45">to</text>
	<rect x="412.4" y="92.4" class="st15" width="23.1" height="24"/>
	<text transform="matrix(0.94 0 0 1 412.4163 104.7966)" class="st3 st29 st46">PM</text>
</g>
</svg>
