<svg id="Layer_1" data-name="Layer 1" xmlns="http://www.w3.org/2000/svg" viewBox="0 0 97.48 97.56"><defs><style>.cls-1{fill:#de8082;}.cls-2{fill:#023955;}.cls-3{fill:#6bcad2;}</style></defs><title>location</title><ellipse class="cls-1" cx="48.74" cy="90.09" rx="48.74" ry="7.47"/><path class="cls-2" d="M72,109c.25-.22.41-.35.54-.49A121.79,121.79,0,0,0,82.66,96.7c1.51-2.06,3.18-4,4.66-6.08,2.84-4,5.67-8,8.37-12.12a66.06,66.06,0,0,0,7.43-15.22,29.06,29.06,0,0,0,1.81-10.83,44.31,44.31,0,0,0-1.11-7.85,32.73,32.73,0,0,0-8.66-15.54,25.28,25.28,0,0,0-4.07-3.45,43.09,43.09,0,0,0-6.94-4,31.11,31.11,0,0,0-14.62-2.2,31.92,31.92,0,0,0-19.27,8.32,34.64,34.64,0,0,0-5.78,6.82A32.58,32.58,0,0,0,39.1,53.05a39.16,39.16,0,0,0,3.68,15.52,93.52,93.52,0,0,0,7.27,13.1c1.63,2.5,3.4,4.92,5.17,7.32,1.27,1.7,2.67,3.3,4,5,1.45,1.85,2.77,3.8,4.29,5.58,1.79,2.1,3.74,4.07,5.6,6.11C70.05,106.72,71,107.81,72,109Z" transform="translate(-23.08 -19.33)"/><path class="cls-2" d="M72,109c-1-1.14-2-2.23-2.92-3.29-1.86-2-3.81-4-5.6-6.11C62,97.77,60.64,95.82,59.19,94c-1.3-1.68-2.7-3.28-4-5-1.77-2.4-3.54-4.82-5.17-7.32a93.52,93.52,0,0,1-7.27-13.1A39.16,39.16,0,0,1,39.1,53.05a32.58,32.58,0,0,1,5.38-18.46,34.64,34.64,0,0,1,5.78-6.82,31.92,31.92,0,0,1,19.27-8.32,31.11,31.11,0,0,1,14.62,2.2,43.09,43.09,0,0,1,6.94,4,25.28,25.28,0,0,1,4.07,3.45,32.73,32.73,0,0,1,8.66,15.54,44.31,44.31,0,0,1,1.11,7.85,29.06,29.06,0,0,1-1.81,10.83A66.06,66.06,0,0,1,95.69,78.5c-2.7,4.1-5.53,8.12-8.37,12.12-1.48,2.08-3.15,4-4.66,6.08a121.79,121.79,0,0,1-10.12,11.76C72.41,108.6,72.25,108.73,72,109ZM72,61.7a9.49,9.49,0,1,0-9.47-9.6A9.32,9.32,0,0,0,72,61.7Z" transform="translate(-23.08 -19.33)"/><path class="cls-3" d="M72,61.7a9.49,9.49,0,1,1,9.53-9.5A9.25,9.25,0,0,1,72,61.7Z" transform="translate(-23.08 -19.33)"/></svg>