<svg xmlns="http://www.w3.org/2000/svg" viewBox="0 0 341.2 271.8"><defs><style>.cls-1,.cls-5{fill:none;stroke-miterlimit:10;}.cls-1{stroke:#023955;stroke-width:0.5px;}.cls-2,.cls-7{font-size:11px;}.cls-10,.cls-19,.cls-2,.cls-3,.cls-6,.cls-7,.cls-8,.cls-9{fill:#de8182;}.cls-19,.cls-2,.cls-3{font-family:AlwaysHere, AlwaysHere;}.cls-3,.cls-8{font-size:9px;}.cls-4{fill:#6acad2;}.cls-5{stroke:#6acad2;stroke-width:0.48px;}.cls-7,.cls-8,.cls-9{font-family:AlwaysHereToo, AlwaysHereToo;}.cls-9{font-size:13px;}.cls-10,.cls-19{font-size:10px;}.cls-10{font-family:VictoriandecoRegular, Victoriandeco Regular;}.cls-11{letter-spacing:-0.04em;}.cls-12{letter-spacing:0.01em;}.cls-13{letter-spacing:-0.02em;}.cls-14{letter-spacing:0.04em;}.cls-15{letter-spacing:0.03em;}.cls-16{letter-spacing:0.02em;}.cls-17{letter-spacing:-0.06em;}.cls-18{letter-spacing:0em;}</style></defs><title>map</title><g id="Layer_3" data-name="Layer 3"><path class="cls-1" d="M193,13c-7,3.33-7,2-15,7.33S168.67,25.68,161.34,31s-4.67,6-11.33,8.67-12.67,10-16.67,14.66-4,5.34-12.67,17.34-14,20-19.33,27.33,2,0-8.67,13.33S82,129.68,74,137s-6.67,6.67-13.34,15.33S53.34,159.68,49.34,171s-4.67-1.33-4,20-1.12,30-.23,48-.25,40-.25,40" transform="translate(-29.39 -7.22)"/><line class="cls-1" x1="103.95" y1="57.12" x2="270.62" y2="13.79"/><line class="cls-1" x1="107.95" y1="73.79" x2="315.29" y2="16.45"/><line class="cls-1" x1="153.61" y1="75.79" x2="309.28" y2="32.45"/><line class="cls-1" x1="163.62" y1="88.45" x2="315.29" y2="45.12"/><polyline class="cls-1" points="19.95 163.78 65.28 160.78 113.95 95.12 103.95 47.12 59.02 17.94 52.62 13.79"/><line class="cls-1" x1="47.95" y1="35.45" x2="91.29" y2="64.45"/><line class="cls-1" x1="44.62" y1="88.46" x2="65.96" y2="101.79"/><polyline class="cls-1" points="1.96 117.79 19.48 117.79 44.62 129.79"/><polyline class="cls-1" points="44.62 129.78 85.28 163.78 97.95 195.12"/><line class="cls-1" x1="15.47" y1="221.79" x2="315.29" y2="133.12"/><polyline class="cls-1" points="297.95 5.12 297.95 19.58 315.29 84.45 264.62 97.78"/><line class="cls-1" x1="195.25" y1="33.38" x2="216.62" y2="111.79"/><line class="cls-1" x1="239.45" y1="8.79" x2="289.95" y2="192.12"/><line class="cls-1" x1="303.53" y1="136.6" x2="294.62" y2="111.79"/><polyline class="cls-1" points="248.95 6.45 207.62 19.79 178.95 19.79 139.62 30.45 166.28 123.78 128.28 133.78 102.95 164.45 88.54 172.45"/><path class="cls-1" d="M168.67,38h-14" transform="translate(-29.39 -7.22)"/><line class="cls-1" x1="216.62" y1="5.79" x2="220.56" y2="15.61"/><line class="cls-1" x1="262.62" y1="91.79" x2="195.95" y2="111.79"/><text class="cls-2" transform="translate(9.77 268.78) rotate(-90)">Morena Blv</text><text class="cls-2" transform="matrix(0.59, -0.81, 0.81, 0.59, 66.66, 118.39)">linda vista rd</text><text class="cls-3" transform="matrix(0.59, -0.81, 0.81, 0.59, 94.39, 136.45)">mollie st</text><path class="cls-4" d="M71.59,188a10.23,10.23,0,0,1-6.34,4.61A10.33,10.33,0,0,1,54,177.2,10.31,10.31,0,0,1,73,180.28,10.29,10.29,0,0,1,71.59,188Zm0,0a10.13,10.13,0,0,0,1.14-7.67,10.06,10.06,0,1,0-15.1,10.9,10.08,10.08,0,0,0,14-3.23Z" transform="translate(-29.39 -7.22)"/><line class="cls-5" x1="42.19" y1="180.8" x2="48.23" y2="184.16"/><rect class="cls-6" x="74.15" y="192.85" width="16.56" height="2.54" rx="1.27" ry="1.27" transform="translate(78.72 -22.43) rotate(30)"/><path class="cls-4" d="M192.13,210.36A10.34,10.34,0,0,1,178,213.77a10.41,10.41,0,1,1,14.13-3.41Zm0,0a10.13,10.13,0,0,0,1.14-7.67,10.09,10.09,0,0,0-18.33-2.94,10.11,10.11,0,0,0,10.87,15.15A10.23,10.23,0,0,0,192.09,210.33Z" transform="translate(-29.39 -7.22)"/><line class="cls-5" x1="162.72" y1="203.12" x2="168.77" y2="206.48"/><rect class="cls-6" x="194.69" y="215.18" width="16.56" height="2.54" rx="1.27" ry="1.27" transform="translate(106.03 -79.71) rotate(30)"/><text class="cls-7" transform="translate(27.29 180.41)">ST</text><text class="cls-3" transform="translate(43.95 178.84)">arbucks</text><text class="cls-8" transform="translate(141.23 28.31) rotate(-17.89)">mildred street</text><text class="cls-7" transform="translate(145.49 178.98) rotate(-17.89)"><tspan xml:space="preserve">friars  rd</tspan></text><text class="cls-7" transform="translate(128.42 145) rotate(-13.32)">gaines st</text><text class="cls-8" transform="translate(166.72 198.56) rotate(-17.89)">ssion valley ymca</text><text class="cls-9" transform="translate(152.93 203.54) rotate(-17.89)">mi</text><path class="cls-4" d="M172.89,119.81a10.31,10.31,0,0,1-18.8-3,10.35,10.35,0,1,1,20.15-4.77A10.3,10.3,0,0,1,172.89,119.81Zm0,0a10.17,10.17,0,0,0,1.14-7.67A10.07,10.07,0,1,0,158.88,123a10.09,10.09,0,0,0,14-3.24Z" transform="translate(-29.39 -7.22)"/><line class="cls-5" x1="143.48" y1="112.57" x2="149.53" y2="115.93"/><rect class="cls-6" x="175.45" y="124.63" width="16.56" height="2.54" rx="1.27" ry="1.27" transform="translate(58.18 -82.22) rotate(30)"/><text class="cls-10" transform="translate(148.94 112.52) rotate(-17.89)"><tspan class="cls-11">h</tspan><tspan x="3.59" y="0">u</tspan><tspan class="cls-12" x="7.78" y="0">m</tspan><tspan x="13.91" y="0">a</tspan><tspan class="cls-13" x="17.48" y="0">n</tspan><tspan x="21.52" y="0">e </tspan><tspan class="cls-14" x="28.33" y="0">s</tspan><tspan class="cls-15" x="31.97" y="0">o</tspan><tspan x="35.29" y="0">c</tspan><tspan class="cls-16" x="38.25" y="0">i</tspan><tspan x="40.81" y="0">e</tspan><tspan class="cls-17" x="43.76" y="0">t</tspan><tspan class="cls-18" x="46.49" y="0">y</tspan></text><text class="cls-9" transform="translate(128.93 114.52) rotate(-17.89)">SD</text><text class="cls-8" transform="translate(212.94 52.41) rotate(-14.07)">lauretta st</text><text class="cls-8" transform="translate(258.57 68.8) rotate(-14.07)">Riley st</text><text class="cls-8" transform="matrix(0.85, 0.52, -0.52, 0.85, 37.97, 139.83)">napa st</text><text class="cls-19" transform="matrix(0.28, 0.96, -0.96, 0.28, 192.69, 59.12)">benicia st</text></g></svg>