<svg id="Layer_1" data-name="Layer 1" xmlns="http://www.w3.org/2000/svg" viewBox="0 0 504.13 237.96"><defs><style>.cls-1{fill:#023955;}</style></defs><title>other_animal</title><path class="cls-1" d="M125.43,249.91c2.21,6.28,4.32,12.66,6.7,18.93,2,5.25,5.32,9.43,11.39,9.89a113.77,113.77,0,0,0,13.57,0c4.56-.2,6.49-3.65,4.85-7.95-1.53-4-4.86-5.57-8.59-6.64-3.48-1-3.95-1.5-3.32-5.11a120.27,120.27,0,0,0,1.89-24.77,2.91,2.91,0,0,1,1-2.17,69.94,69.94,0,0,0,14-12.49,61.75,61.75,0,0,0,12.35-20.46,36.26,36.26,0,0,0,1-19.92c-1-4.54-.14-8.68,3.86-11.51a34.55,34.55,0,0,1,6.56-3.47c3.74-1.59,6.54-3.92,7.61-8a25.58,25.58,0,0,1,1.74-4.63c1.17-2.43,1.75-4.52-.22-7.07-4.7-6.07-9.09-12.38-13.57-18.62a30.8,30.8,0,0,0-10-9.5,45,45,0,0,0-14.2-5.13,2.48,2.48,0,0,1-1.55-1.59c-.94-4.2-1.65-8.46-2.58-12.66a35.62,35.62,0,0,0-8.47-15.88c-8.26-9.44-18-17.29-27.35-25.51a22.61,22.61,0,0,0-3-2.43c-1.58-1-2.7-.38-3,1.44-1.51,7.81-.57,15.44,1.71,23a86.3,86.3,0,0,0,11,23.29c3.35,5,6.53,10,9.85,15.17-.74.67-1.58,1.34-2.33,2.11a2.45,2.45,0,0,1-3.34.58c-3.32-1.78-6.89-3.14-10.09-5.1a24.91,24.91,0,0,0-15.21-3.86c-6.17.47-12.3,1.33-18.43,2.17-4.47.61-8.89,1.76-13.37,2.1-3.45.26-7-.44-10.46-.57a4.32,4.32,0,0,0-2.51.88,1.83,1.83,0,0,0-.12,1.79c2.22,2.6,4.18,5.66,6.93,7.51a52.17,52.17,0,0,0,16.55,7.84c2.87.72,5.8,1.26,8.61,2.16,9.12,2.93,18.38,4.72,28,4.15.1,0,.21.13.48.31-.15,2.25-.26,4.59-.47,6.93a20.42,20.42,0,0,1-.58,3.38c-1.26,4.81-4.58,7.12-9.5,6.33-7.65-1.24-15.28-2.61-22.9-4-14.46-2.68-28.59-2.32-42.09,4.33-7.72,3.8-14.28,9.16-20.54,15a55.26,55.26,0,0,0-11,13.9,79.48,79.48,0,0,0-9.61,28.57A67.64,67.64,0,0,0,8.19,236c.89,3.91,2.14,7.74,3.26,11.75-1.22.56-2.46,1.08-3.65,1.7-2.5,1.31-5,2.57-6.44,5.28-2.53,4.7-1.36,9.14,1,13.28,4.65,8.22,13.58,12,22.92,10.56,5.33-.83,10-3.1,14.73-5.41a3,3,0,0,1,1.83-.4c4.52,1.31,9,2.89,13.51,4a64.5,64.5,0,0,0,12.9,2.32c7.14.26,14.3-.31,21.45-.37,11.33-.11,22.66,0,34-.15a28.85,28.85,0,0,0,6-.72,3,3,0,0,0,2.52-3.44c-.31-3-1-6.19-3.6-7.84a34.2,34.2,0,0,0-10.33-4.76c-5.56-1.23-11.34-1.48-17-2.14l-2.17-.26A97.14,97.14,0,0,0,125.43,249.91Z" transform="translate(0.06 -41.64)"/><path class="cls-1" d="M125.43,249.91a97.14,97.14,0,0,1-26.36,9.55l2.17.26c5.68.66,11.46.91,17,2.14a34.2,34.2,0,0,1,10.33,4.76c2.64,1.65,3.29,4.84,3.6,7.84a3,3,0,0,1-2.52,3.44,28.85,28.85,0,0,1-6,.72c-11.34.1-22.67,0-34,.15-7.15.06-14.31.63-21.45.37a64.5,64.5,0,0,1-12.9-2.32c-4.56-1.13-9-2.71-13.51-4a3,3,0,0,0-1.83.4c-4.73,2.31-9.4,4.58-14.73,5.41C15.92,280.08,7,276.27,2.34,268.05c-2.34-4.14-3.51-8.58-1-13.28,1.46-2.71,3.94-4,6.44-5.28,1.19-.62,2.43-1.14,3.65-1.7-1.12-4-2.37-7.84-3.26-11.75a67.64,67.64,0,0,1-1.42-23.51A79.48,79.48,0,0,1,16.38,184a55.26,55.26,0,0,1,11-13.9c6.26-5.81,12.82-11.17,20.54-15,13.5-6.65,27.63-7,42.09-4.33,7.62,1.41,15.25,2.78,22.9,4,4.92.79,8.24-1.52,9.5-6.33a20.42,20.42,0,0,0,.58-3.38c.21-2.34.32-4.68.47-6.93-.27-.18-.38-.32-.48-.31-9.63.57-18.89-1.22-28-4.15-2.81-.9-5.74-1.44-8.61-2.16a52.17,52.17,0,0,1-16.55-7.84c-2.75-1.85-4.71-4.91-6.93-7.51a1.83,1.83,0,0,1,.12-1.79,4.32,4.32,0,0,1,2.51-.88c3.49.13,7,.83,10.46.57,4.48-.34,8.9-1.49,13.37-2.1,6.13-.84,12.26-1.7,18.43-2.17A24.91,24.91,0,0,1,123,113.66c3.2,2,6.77,3.32,10.09,5.1a2.45,2.45,0,0,0,3.34-.58c.75-.77,1.59-1.44,2.33-2.11-3.32-5.13-6.5-10.2-9.85-15.17a86.3,86.3,0,0,1-11-23.29c-2.28-7.52-3.22-15.15-1.71-23,.35-1.82,1.47-2.42,3-1.44a22.61,22.61,0,0,1,3,2.43c9.38,8.22,19.09,16.07,27.35,25.51A35.62,35.62,0,0,1,158,97c.93,4.2,1.64,8.46,2.58,12.66a2.48,2.48,0,0,0,1.55,1.59,45,45,0,0,1,14.2,5.13,30.8,30.8,0,0,1,10,9.5c4.48,6.24,8.87,12.55,13.57,18.62,2,2.55,1.39,4.64.22,7.07a25.58,25.58,0,0,0-1.74,4.63c-1.07,4.1-3.87,6.43-7.61,8a34.55,34.55,0,0,0-6.56,3.47c-4,2.83-4.82,7-3.86,11.51a36.26,36.26,0,0,1-1,19.92A61.75,61.75,0,0,1,167,219.61a69.94,69.94,0,0,1-14,12.49,2.91,2.91,0,0,0-1,2.17A120.27,120.27,0,0,1,150,259c-.63,3.61-.16,4.11,3.32,5.11,3.73,1.07,7.06,2.62,8.59,6.64,1.64,4.3-.29,7.75-4.85,7.95a113.77,113.77,0,0,1-13.57,0c-6.07-.46-9.39-4.64-11.39-9.89C129.75,262.57,127.64,256.19,125.43,249.91Z" transform="translate(0.06 -41.64)"/><path class="cls-1" d="M298.73,166.59v-10a3.3,3.3,0,0,0,.32-.69c.81-4.08,1.4-8.21,2.45-12.22,1-3.82,1.3-8.06,4.89-10.76.16-.12.14-.48.23-.72a19.42,19.42,0,0,1,1.54-4.42,108.84,108.84,0,0,1,7.94-11.59c9-10.91,19.67-19.46,34.42-21a55.13,55.13,0,0,1,10.67-.11c1.76.15,4,1,5,2.33,1.33,1.78,1.65,4.32,2.5,6.82a41.52,41.52,0,0,1,4.11-3.3,8.43,8.43,0,0,0,3.34-3.74c.91-1.91,2.4-3.47,5.05-2.72a18.57,18.57,0,0,0,3.86.22c-1.38-1.71-.41-2.56.49-3.59s2.22-2.29,2.3-3.52a39.48,39.48,0,0,0-.34-9.41c-1.18-6.84-.79-13.4,2.06-19.8a9.73,9.73,0,0,0,.68-3.64c.1-3.18,1.21-5.65,4.33-6.91a2.79,2.79,0,0,0,1.14-.71c1.53-1.8,3-3.64,4.5-5.47H401c1.7,1.51,3.4,3,5.08,4.53A11.08,11.08,0,0,0,408,48a7.61,7.61,0,0,1,4.15,6.11,36.43,36.43,0,0,0,1,5.42c1.28,4.26,2.35,8.51,1.78,13-.35,2.85-.24,5.76-.5,8.62-.19,2.09-.64,4.15-1.06,6.75l4.5,5.16.67-.6c-.43.63-.86,1.25-1.51,2.22a27.25,27.25,0,0,1,3.08-.41c1,0,2.37-.22,3,.32,1.63,1.45,3.14,1.93,5.09.78a6.32,6.32,0,0,1,1.71-.44,34.33,34.33,0,0,1,15.52-.37c3.35.74,6.88.9,10.07,2,9,3.21,16.51,8.82,23.65,15,1.41,1.22,2.05,3.51,4.52,3.33.17,0,.36.36.55.53,2.91,2.57,5.06,5.84,7.34,8.88,4.94,6.56,7.5,14.25,8.7,21.89.77,1.11,1.61,1.84,1.83,2.72.77,3.06,1.32,6.17,2,9.26V167l-.69,4.27c-1.4-.55-3-.76-4-1.63-2.47-2.16-4.68-4.62-7-6.95a4.26,4.26,0,0,0-1.36-1.13c-2.45-.89-3.89-2.75-5.23-4.85a34.7,34.7,0,0,0-3.2-3.79c-1.79-2.07-4-3.88-4.55-6.77a1.91,1.91,0,0,0-.8-1,26.62,26.62,0,0,1-2.95-1.84c-2.23-2-4.3-4.25-6.53-6.28-1.81-1.64-3.71-3.2-5.67-4.65-1.45-1.09-3.07-2-4.62-2.92L457,130c2.35,4.33,3,9.2,4.38,13.83,1.6,5.3,2.12,10.95,2.88,16.48a67.94,67.94,0,0,1,.27,8.33c0,2.4.59,5.07-2.33,5.83.51.65,1.2,1.13,1.29,1.7a15.94,15.94,0,0,1,.31,4.9c-.58,3.64-1.39,7.26-2.28,10.85a20,20,0,0,1-1.74,3.65c1.72,1.42,1.09,3.43.41,5.37-.8,2.3-1.85,4.52-2.59,6.84-.65,2-1.22,3.89-4.06,3.49,2,.54,1.32,1.8,1,2.78a46.71,46.71,0,0,1-7.79,14.55,9.65,9.65,0,0,0-.84,1.8l1.35-.43c.34,1.46.68,2.87,1,4.28,2.34,10.48,4,21,3.78,31.84-.09,5.35-2.93,8.84-6.72,11.94a1.92,1.92,0,0,1-1.11.23c-3.15,0-6-.66-8-3.45l-2.37-3.35a1.82,1.82,0,0,1-3.11,1.13,9,9,0,0,1-2.06-4.68c-.16-1.14-.22-1.8-1.28-2.45a3.44,3.44,0,0,1-1.25-2.33,18.4,18.4,0,0,1,.29-3.75c.35-3.28,1.35-6.58-.25-10-2.81,1.41-5.22,4.3-8.29,3.09a20.5,20.5,0,0,1-3.15,3.21c-2.18,1.38-4.53,2.47-6.8,3.69-.4.22-1,.48-1.07.83-.67,2.36-1.38,4.72-1.81,7.13-.74,4.22-1.59,8.4-3.58,12.25h-.8a21.75,21.75,0,0,1-1.28-2.67c-1.63-5-3.21-10.06-4.79-15.1-.13-.42,0-.92-.2-1.33-.25-.62-.49-1.44-1-1.73-1.89-1.07-3.91-1.89-5.82-2.92s-2.89-3.1-5.41-2.89c-.7.06-1.45-.84-2.22-1.23-1.48-.77-3-1.49-5-2.46.44,4.14.72,7.69,1.21,11.21a2.44,2.44,0,0,1-1,2.72,3.29,3.29,0,0,0-1.47,3.31A9.09,9.09,0,0,1,372,271.1c-.33.55-1.64.54-2.51.75-1.77.41-3.79.35-4.73,2.37-1.07,2.29-3.08,2.86-5.34,3-.89.05-2.06.38-2.64,0-3.93-2.82-7.61-5.88-7-11.5,0-.2,0-.4,0-.6a153.87,153.87,0,0,1,4.25-36.58,4,4,0,0,0-.44-2.48c-2.7-5.23-5.65-10.32-8.18-15.63A100.88,100.88,0,0,1,341.65,200c-.23-.67-.55-1.59-.28-2.1,1.05-2-.25-3.51-.62-5.27-.92-4.32-1.65-8.69-2.17-13.08-.39-3.36-.19-3.37,3.17-4.18a8.21,8.21,0,0,0,1.15-.53c-.83-.17-1.26-.28-1.7-.33-2-.24-3.29-1.11-3.22-3.39.14-5.14.08-10.28.38-15.4a37.7,37.7,0,0,1,1.45-7.78c.52-1.91-.06-4.17,2-5.73.64-.49.21-2.21.51-3.31,1-3.85,2.18-7.67,3.37-11.79-1.18.17-2.19,0-2.82.45a84.41,84.41,0,0,0-8.48,6.15c-4.18,3.66-8.11,7.61-12.14,11.45a4.65,4.65,0,0,0-.72.92c-2.27,3.56-4.41,7.2-6.85,10.63a9.37,9.37,0,0,1-3.63,2.54c-.88.42-1.65.53-1.63,1.78a3.31,3.31,0,0,1-.74,2c-2.21,2.64-4.51,5.21-6.78,7.8a1.05,1.05,0,0,1-.34.2c-1.4.78-2.08.47-2.35-1.09C299,168.81,298.88,167.7,298.73,166.59Z" transform="translate(0.06 -41.64)"/></svg>