<svg id="Layer_1" data-name="Layer 1" xmlns="http://www.w3.org/2000/svg" viewBox="0 0 162.27 248.12"><defs><style>.cls-1{fill:#023955;}.cls-2{fill:#fff;}</style></defs><title>project</title><path class="cls-1" d="M24.5,237.5V226.67H41V80.75H26.49V72.53H41c1.9-37,29.45-62.13,61.94-64a62.83,62.83,0,0,1,42.84,13.13c16.67,12.73,25,29.94,26.15,51.09h13.34v8.18H172.17V226.76h14.6v10.7h-4.7c-32.5,0-65,.25-97.5-.19-7.29-.1-11.2,3.74-15.06,8.45-.81,1-1,3.59-.29,4.46.9,1.11,3,1.55,4.64,1.62,1.27.06,2.54-1.07,3.88-1.33a26.37,26.37,0,0,1,4.42-.05c-3.3,5.48-9.08,7.49-14.08,5.11a11.13,11.13,0,0,1-4.4-4.16c-2.91-4.75-.44-9.24,1.79-13.87ZM59.85,81V134.5c8.52,0,16.76-.65,24.86.2,6.59.68,9.83-4.48,15.44-5.89L97,125.17l.48-.5,7.07,4.69V81ZM153.3,185.23H108.45v41H153.3Zm-93.63-3.89c9.42,1.29,12.36-.35,12.68-8.22.25-6.17-1-12.4,1.84-18.32a4.15,4.15,0,0,0-.18-2.46c-1.06-4.05-2.18-8.08-3.66-13.49,5.21,4,10.13,2.76,15.26,2.57,3.71-.13,7.36.74,11.28-1.28-.25,2.47-1.19,4.53-1.57,6.68a63.9,63.9,0,0,0-1.38,11.57c0,4.08,1.1,8.13,1.39,12.22.25,3.63,0,7.28,0,10.93h9.1v-43.2H59.67ZM108.44,90v39c7.57-.08,10.19-3.89,8.62-10.53-.91-3.86-.44-8.09-.24-12.13.11-2.12,1-4.2,1.51-6.31l-1.14-.42c2.1-1.9,4.79-3.53,6.61-.43,2.86,4.87,5.31,10.14,2.54,16.08-.66,1.41-1,3-1.75,5.12l16.85-4.77c-4.15-3.26-2.07-7.17-1.1-11,.15-.59,1-1.42,1.51-1.38s1.22.86,1.51,1.48c1.54,3.33,3,6.7,4.48,10.08,4.32-.24,6.42-2.33,5.73-6.9a27.48,27.48,0,0,1,0-4.16c0-8.28,0-8.32-8-10.72-10.19-3-20.3-3.62-29.53.86Zm-4.87-37.74V29A46.4,46.4,0,0,0,74.34,41.73L90.68,58.19ZM109.2,29c0,7.71-.07,14.75.08,21.78a3.66,3.66,0,0,0,1.93,2.49c3.78,1.82,7.68,3.41,11.07,4.88l16.55-16.23C130.78,34.18,121.12,29.91,109.2,29Zm7.47,98.76c-2,2.49-7.64.89-8.6,6.74,14.82,0,28.81,0,42.79-.1.9,0,2.51-1.39,2.54-2.18.22-5.61.12-11.23.12-17.41-3,1.51-7.47.44-6,5.75.07.25-.88,1.07-1,1-.65-.35-1.59-.85-1.69-1.42-.43-2.56-1.76-2.67-3.88-2-3.34,1.08-6.77,1.89-10.14,2.9-2.72.82-5.59,1.45-8,2.81-1.13.62-1.52,2.74-2.06,4.26-.62,1.74-1,3.55-1.55,5.33ZM86.55,64,69.73,46.75a44.75,44.75,0,0,0-9.88,25.74H83.27Zm43.22,8.47h23.38a42.78,42.78,0,0,0-10-25.8L126.25,63.3ZM153.35,81H108.63c-1.46,7.94-.06,10,7.65,9.77,5.63-.15,11.24-1.22,16.87-1.8a11.31,11.31,0,0,1,3.81.11c5.42,1.32,10.8,2.78,16.39,4.25Zm-29.7-8.49c-1.81-9.64-10-15.33-19.68-14.22-7.5.85-14.39,7.73-14.1,14.22Zm-52.74,154c-9.58-13.4-12.22-26.84-2.31-41.11H59.74v41.11ZM96.8,185.28c8.41,14.65,5.46,28.12-2.75,41.1h10.49v-41.1Zm-2.16-52.75.33,1.93c2.62,0,5.24.14,7.84-.09.7-.07,1.31-1.24,2-1.91-.61-.56-1.29-1.65-1.81-1.58C100.17,131.27,97.41,132,94.64,132.53Z" transform="translate(-24.5 -8.4)"/><path class="cls-2" d="M59.85,81h44.7v48.39l-7.07-4.69-.48.5,3.15,3.64c-5.61,1.41-8.85,6.57-15.44,5.89-8.1-.85-16.34-.2-24.86-.2Z" transform="translate(-24.5 -8.4)"/><path class="cls-2" d="M153.3,185.23v41H108.45v-41Z" transform="translate(-24.5 -8.4)"/><path class="cls-2" d="M154,138.34v42.22H109.18V138.34Z" transform="translate(-24.5 -8.4)"/><path class="cls-2" d="M59.67,181.34v-43h44.81v43.2h-9.1c0-3.65.2-7.3,0-10.93-.29-4.09-1.36-8.14-1.39-12.22a63.9,63.9,0,0,1,1.38-11.57c.38-2.15,1.32-4.21,1.57-6.68-3.92,2-7.57,1.15-11.28,1.28-5.13.19-10,1.43-15.26-2.57,1.48,5.41,2.6,9.44,3.66,13.49a4.15,4.15,0,0,1,.18,2.46c-2.86,5.92-1.59,12.15-1.84,18.32C72,181,69.09,182.63,59.67,181.34Z" transform="translate(-24.5 -8.4)"/><path class="cls-2" d="M108.44,90,116,93.83C125.2,89.35,135.31,90,145.5,93c8.06,2.4,8.05,2.44,8,10.72a27.48,27.48,0,0,0,0,4.16c.69,4.57-1.41,6.66-5.73,6.9-1.49-3.38-2.94-6.75-4.48-10.08-.29-.62-1-1.43-1.51-1.48s-1.36.79-1.51,1.38c-1,3.8-3.05,7.71,1.1,11l-16.85,4.77c.73-2.16,1.09-3.71,1.75-5.12,2.77-5.94.32-11.21-2.54-16.08-1.82-3.1-4.51-1.47-6.61.43l1.14.42c-.53,2.11-1.4,4.19-1.51,6.31-.2,4-.67,8.27.24,12.13,1.57,6.64-1,10.45-8.62,10.53Z" transform="translate(-24.5 -8.4)"/><path class="cls-2" d="M103.57,52.21l-12.89,6L74.34,41.73A46.4,46.4,0,0,1,103.57,29Z" transform="translate(-24.5 -8.4)"/><path class="cls-2" d="M109.2,29c11.92.91,21.58,5.18,29.63,12.92L122.28,58.15c-3.39-1.47-7.29-3.06-11.07-4.88a3.66,3.66,0,0,1-1.93-2.49C109.13,43.75,109.2,36.71,109.2,29Z" transform="translate(-24.5 -8.4)"/><path class="cls-2" d="M116.67,127.76l2.45,5.69c.51-1.78.93-3.59,1.55-5.33.54-1.52.93-3.64,2.06-4.26,2.45-1.36,5.32-2,8-2.81,3.37-1,6.8-1.82,10.14-2.9,2.12-.68,3.45-.57,3.88,2,.1.57,1,1.07,1.69,1.42.12.07,1.07-.75,1-1-1.43-5.31,3-4.24,6-5.75,0,6.18.1,11.8-.12,17.41,0,.79-1.64,2.17-2.54,2.18-14,.14-28,.1-42.79.1C109,128.65,114.66,130.25,116.67,127.76Z" transform="translate(-24.5 -8.4)"/><path class="cls-2" d="M86.55,64l-3.28,8.49H59.85a44.75,44.75,0,0,1,9.88-25.74Z" transform="translate(-24.5 -8.4)"/><path class="cls-2" d="M129.77,72.47l-3.52-9.17,16.86-16.63a42.78,42.78,0,0,1,10,25.8Z" transform="translate(-24.5 -8.4)"/><path class="cls-2" d="M153.35,81V93.34c-5.59-1.47-11-2.93-16.39-4.25a11.31,11.31,0,0,0-3.81-.11c-5.63.58-11.24,1.65-16.87,1.8-7.71.2-9.11-1.83-7.65-9.77Z" transform="translate(-24.5 -8.4)"/><path class="cls-2" d="M123.65,72.52H89.87C89.58,66,96.47,59.15,104,58.3,113.69,57.19,121.84,62.88,123.65,72.52Z" transform="translate(-24.5 -8.4)"/><path class="cls-2" d="M70.91,226.47H59.74V185.36H68.6C58.69,199.63,61.33,213.07,70.91,226.47Z" transform="translate(-24.5 -8.4)"/><path class="cls-2" d="M96.8,185.28h7.74v41.1H94.05C102.26,213.4,105.21,199.93,96.8,185.28Z" transform="translate(-24.5 -8.4)"/><path class="cls-2" d="M94.64,132.53c2.77-.58,5.53-1.26,8.32-1.65.52-.07,1.2,1,1.81,1.58-.65.67-1.26,1.84-2,1.91-2.6.23-5.22.09-7.84.09Z" transform="translate(-24.5 -8.4)"/></svg>