<svg id="Layer_1" data-name="Layer 1" xmlns="http://www.w3.org/2000/svg" viewBox="0 0 73.09 250.12"><defs><style>.cls-1{fill:#023955;}.cls-2{fill:#df8081;}.cls-3,.cls-7{fill:#6acad1;}.cls-4,.cls-5{fill:#013955;}.cls-5{stroke:#013955;}.cls-5,.cls-6{stroke-miterlimit:10;stroke-width:0.43px;}.cls-6{fill:none;stroke:#023955;}.cls-7{font-size:16.31px;font-family:VictoriandecoRegular, Victoriandeco Regular;}.cls-8{letter-spacing:0.02em;}</style></defs><title>rsvp_web</title><path class="cls-1" d="M97.15,83.55l-45.81,1-.16,0c0,.57,0,1.16-.83,1.13-.48,0-.62-.27-.69-1.13h-1.3v1.95h-1v1.81a.76.76,0,0,1,.63.78.64.64,0,0,1-.42.67c-.23.08-.24.22-.24.41V100.4c0,2.62,0,5.25,0,7.88H42.73v-18a.81.81,0,0,0-.19-.64.77.77,0,0,1,0-.95.94.94,0,0,0,.16-.45c0-.53,0-1,0-1.62h-1v-2h-1a7.15,7.15,0,0,1-.47,1c-.07.11-.33.14-.5.13-.47,0-.63-.31-.69-1.17H30.27a.61.61,0,0,0-.55.24,2.11,2.11,0,1,1,0-2.69.68.68,0,0,0,.63.31c2.74,0,5.48,0,8.22,0H39c.14-.78.34-1,.81-1s.65.23.78,1H41.7V80.14h1v-.39c0-1,0-1.91,0-2.86a1.15,1.15,0,0,0-.17-.49.73.73,0,0,1-.06-.89c.37-.42.18-.87.24-1.3-.77-.14-1-.36-1-.84s.29-.68,1-.75a2.28,2.28,0,0,0,0-.27,3.55,3.55,0,0,0,0-.36h-.84a.91.91,0,1,1,0-1.82h.84c0-.52,0-1,0-1.49,0-.07-.11-.15-.18-.19a1.82,1.82,0,0,1-.74-.88.64.64,0,0,0-.33-.32c-.81-.36-1.65-.64-2.43-1.06a3.83,3.83,0,0,1-1.16-1A2.46,2.46,0,0,1,38,61.83a6.21,6.21,0,0,1,2.44-1.57l.24-.09.09-.08-.34,0H37.11c-.54,0-.81-.23-.84-.66a.72.72,0,0,1,.75-.84c.37,0,.75,0,1.18,0-.12-.53-.23-1-.35-1.52Q35.93,48.84,34,40.62c-.27-1.13-.53-2.26-.79-3.39a.55.55,0,0,0-.37-.47,1,1,0,0,1-.4-1.46.57.57,0,0,0,.06-.56c-.22-.85-.43-1.7-.64-2.55a2.22,2.22,0,0,1,0-.46,2.34,2.34,0,0,1,.41.24c.79.75,1.58,1.48,2.34,2.26a1.56,1.56,0,0,0,1.93.54,9.71,9.71,0,0,0,2.91-1.42,2.28,2.28,0,0,0,.9-1.21c.28-.79.63-1.55.95-2.32l.11,0-.22-.16a1.32,1.32,0,0,1,.66-2.44H42c.28,0,.64.06.81-.09A3.8,3.8,0,0,0,43.77,26c.12-.29-.05-.7-.09-1.06s-.14-.5-.53-.53a.94.94,0,0,1-.76-1,1,1,0,0,1,.93-.92c.45,0,.57-.21.75-.55a4.13,4.13,0,0,0,.48-2.36c0-.35,0-.7,0-1.07h.82c0,.56,0,1.12,0,1.67a5.05,5.05,0,0,0,.74,2.18c0,.06.16.1.25.1s.44,0,.66,0a1,1,0,0,1,1,1,1,1,0,0,1-1,1c-.63.06-.63.06-.8.66a1.89,1.89,0,0,0,1,2.11.66.66,0,0,0,.28,0h.81a1.3,1.3,0,0,1,1.17,1A1.34,1.34,0,0,1,49,29.66l-.2.12c.37.93.69,1.85,1.11,2.74a2.22,2.22,0,0,0,.84.88,18.38,18.38,0,0,0,2.79,1.35,1.5,1.5,0,0,0,1.95-.52c.74-.77,1.52-1.49,2.29-2.22a2.49,2.49,0,0,1,.38-.25l.11,0a6.66,6.66,0,0,1-.12.76c-.22.75-.47,1.49-.68,2.24a.55.55,0,0,0,0,.42A1.06,1.06,0,0,1,57,36.8a.9.9,0,0,0-.29.49c-.49,2.08-1,4.16-1.46,6.23q-1.48,6.34-3,12.69c-.18.77-.35,1.54-.54,2.35.38,0,.72,0,1.06,0,.54,0,.84.28.84.76s-.29.74-.84.74H49.17a18,18,0,0,1,1.7.87A5.08,5.08,0,0,1,52.07,62a2.45,2.45,0,0,1-.14,3.39,6.54,6.54,0,0,1-3.11,1.78.84.84,0,0,0-.61.52,3.28,3.28,0,0,1-.64.77c-.08.09-.2.19-.2.3,0,.44,0,.9,0,1.4h1c.59,0,1,.35,1,.85a.86.86,0,0,1-1,1h-1v.62c.7.12,1,.33,1,.79s-.24.66-1,.78a7,7,0,0,0,0,.79c0,.09.13.18.22.23a.73.73,0,0,1,.45.73.7.7,0,0,1-.47.67c-.08,0-.19.14-.19.21,0,1.09,0,2.17,0,3.3h1v2.3h1.28c.16-.75.36-1,.82-1s.64.24.76,1h.35m-7-23.89V56.28l-.2,0c-.4,0-.63-.28-.6-.63s.25-.53.66-.53h.81a.59.59,0,0,1,.65.42.59.59,0,0,1-.3.68c-.07.05-.17.13-.17.2,0,.71,0,1.43,0,2.14h5L54.7,40.2H35.26c.39,1.62.76,3.2,1.14,4.77q1,4.13,2,8.23c.4,1.69.81,3.39,1.22,5.08,0,.11.17.27.25.27ZM34.47,36.87c.2.86.4,1.67.58,2.49.05.26.17.32.42.31h18.7a2.44,2.44,0,0,0,.47,0,.32.32,0,0,0,.23-.17c.21-.86.41-1.73.62-2.62ZM48.14,66.29a9.77,9.77,0,0,0,1-.93,2.52,2.52,0,0,0,.42-2.86,4.69,4.69,0,0,0-4.15-2.3v5.3C46.33,65.63,47.4,65.21,48.14,66.29Zm-3.61-6.1a5,5,0,0,0-3.92,1.94A2.84,2.84,0,0,0,42,66.26a1.53,1.53,0,0,1,1.14-.71c.47,0,.94,0,1.43,0Zm-3.47,6.3a4,4,0,0,1-1.34-2.89,3.88,3.88,0,0,1,1.36-2.85,3.83,3.83,0,0,0-.7.23,4.47,4.47,0,0,0-2.15,1.63,1.83,1.83,0,0,0,.1,2.15,4.71,4.71,0,0,0,2.1,1.5Zm7.8-5.74a3.83,3.83,0,0,1,1.38,2.85,3.89,3.89,0,0,1-1.36,2.86,5.26,5.26,0,0,0,2.62-1.54,1.87,1.87,0,0,0,0-2.57A5.28,5.28,0,0,0,48.86,60.75Z" transform="translate(-26 -18.46)"/><path class="cls-2" d="M44.53,58.56h-4.7c-.08,0-.22-.16-.25-.27-.41-1.69-.82-3.39-1.22-5.08q-1-4.11-2-8.23c-.38-1.57-.75-3.15-1.14-4.77H54.7L50.33,58.53h-5c0-.71,0-1.43,0-2.14,0-.07.1-.15.17-.2a.59.59,0,0,0,.3-.68.59.59,0,0,0-.65-.42h-.81c-.41,0-.64.18-.66.53s.2.58.6.63l.2,0Z" transform="translate(-26 -18.46)"/><path class="cls-3" d="M34.47,36.87h21c-.21.89-.41,1.76-.62,2.62a.32.32,0,0,1-.23.17,2.44,2.44,0,0,1-.47,0H35.47c-.25,0-.37-.05-.42-.31C34.87,38.54,34.67,37.73,34.47,36.87Z" transform="translate(-26 -18.46)"/><rect class="cls-1" x="16.96" y="65.09" width="4.87" height="99.78"/><rect class="cls-1" x="15.42" y="155.1" width="8.73" height="56.42" rx="4.01" ry="4.01"/><polygon class="cls-1" points="21.8 193.46 17.77 193.46 13.35 201.76 13.35 237.1 26.22 237.1 26.22 201.76 21.8 193.46"/><circle class="cls-4" cx="71.15" cy="65.09" r="1.93"/><rect class="cls-1" x="26.04" y="72.94" width="41.84" height="26.35"/><rect class="cls-5" x="60.21" y="65.31" height="13.83"/><rect class="cls-5" x="35.58" y="64.45" height="13.83"/><path class="cls-6" d="M60.72,81.59A3.91,3.91,0,1,1,61,73.77l10.27,4.34" transform="translate(-26 -18.46)"/><path class="cls-6" d="M61,77.69a2,2,0,1,1-.09,3.93" transform="translate(-26 -18.46)"/><path class="cls-6" d="M61,77.79a1,1,0,0,0-.09,2" transform="translate(-26 -18.46)"/><path class="cls-6" d="M71.12,74.19A1.91,1.91,0,0,1,71,78" transform="translate(-26 -18.46)"/><path class="cls-6" d="M71,76.1a1,1,0,0,1-.93-1,1,1,0,0,1,1-.94" transform="translate(-26 -18.46)"/><path class="cls-6" d="M71,76.05a.48.48,0,0,0,0-1" transform="translate(-26 -18.46)"/><path class="cls-6" d="M85.19,81.58a3.91,3.91,0,1,0-.28-7.82L74.64,78.09" transform="translate(-26 -18.46)"/><path class="cls-6" d="M84.92,77.67A2,2,0,1,0,85,81.6" transform="translate(-26 -18.46)"/><path class="cls-6" d="M84.92,77.78a1,1,0,1,1,.09,2" transform="translate(-26 -18.46)"/><path class="cls-6" d="M74.8,74.18A1.91,1.91,0,0,0,74.93,78" transform="translate(-26 -18.46)"/><path class="cls-6" d="M74.93,76.09a1,1,0,0,0,.94-1,1,1,0,0,0-1-.93" transform="translate(-26 -18.46)"/><path class="cls-6" d="M74.93,76a.48.48,0,1,1-.05-1" transform="translate(-26 -18.46)"/><text class="cls-7" transform="translate(34.32 91.29)"><tspan class="cls-8">rs</tspan><tspan x="11.59" y="0">vp</tspan></text><path class="cls-1" d="M47.13,243.73a1.56,1.56,0,0,0-2.7,0l-7.38,12.78H54.51Z" transform="translate(-26 -18.46)"/><path class="cls-1" d="M54.51,257.28H37.05l-5.17,9a1.56,1.56,0,0,0,1.35,2.34h25.1a1.56,1.56,0,0,0,1.35-2.34Z" transform="translate(-26 -18.46)"/></svg>