<svg id="Layer_1" data-name="Layer 1" xmlns="http://www.w3.org/2000/svg" viewBox="0 0 223.14 300.73"><defs><style>.cls-1{fill:#023955;}</style></defs><title>sponsorship_1</title><path class="cls-1" d="M232.83,73.78c1.92,3.81,6.91,4.57,4.87,9-3.39,7.44-2.26,15-1.12,22.57.77,5.12,2.58,10,7.16,13.23s5.15,5.44,2.57,10.13c-1.38,2.5-2.42,5.32-4.29,7.38-1.5,1.64-4,2.55-6.13,3.39-2.75,1.06-5.66,1.7-8.49,2.55-1.49.45-2.94,1.29-4.44,1.37-2.34.13-4.78-.65-7.06-.3s-4.41,1.6-6.6,2.46l.49,1.22,4.2,1-.15.82-31.22,5.52-.36-1.4a13,13,0,0,1,11.22-4.58c3.69.3,5.56-1.53,6.67-4.39.45-1.16-.23-2.75-.4-4.15a28.57,28.57,0,0,0-4.26.61c-2.85.84-5.64,1.89-8.46,2.85-2,.69-4.25,1.08-6.07,2.16-2.49,1.48-4.58,3.62-7,5.22-4.83,3.18-9.68.39-14.67,0,0-1.24-.4-3,.06-3.3,3.84-2.21,2.13-5.1.85-8.48,8.93-3.23,10.45-9.77,7.56-18.47-2.18.71-4.34,1.52-6.56,2.11a27.54,27.54,0,0,1-4.46.64c-4.59.42-9.42,0-13.71,1.36-5.46,1.71-9.38,7.1-8.88,12,.53,5.19-2.26,8.81-2.73,13.27-.15,1.52-.44,3-.53,4.56-.52,8.95,1.46,17.43,4.87,25.63,2.93,7,1.53,13.12-4.19,18.16-5.15,4.53-9.32,9.89-16.19,12.7-12.35,5.06-24.58,7.94-37.76,4a12.81,12.81,0,0,0-5-.46,18,18,0,0,0-4.22,1.54c1.15,1,2.14,2.4,3.47,3,14.43,6.29,29.2,7.72,44.35,2.8,5-1.6,9-.91,11.75,4.06.57,1,1.89,1.62,2.71,2.56,2.72,3.12,5.8,6,7.92,9.53,2.27,3.72,3.16,7.91-.31,11.84a7.92,7.92,0,0,0-1.49,8.53c2,5.46,3.7,11.06,5.93,16.42a5.08,5.08,0,0,0,4.06,2.56c2.12-.26,4.1-1.74,6.13-2.7-.82-1.64-1.58-3.32-2.51-4.9a4.27,4.27,0,0,0-1.62-1.26c-3.72-2.08-5.33-6-4.23-10.62.29.35.49.78.81.94,1.44.71,3,2.06,4.33,1.83,1.66-.28,3.09-1.86,4.62-2.88a29.22,29.22,0,0,0-3.63-3.89c-2.06-1.54-1.44-2.72-.3-4.51,2-3.11,4.44-6.3,5.1-9.75,1.06-5.54.72-11.32,1.16-17a13.35,13.35,0,0,1,1.44-5.79,146.88,146.88,0,0,1,10-14.72c6.35-8,8.07-17.14,8.47-26.93a14.2,14.2,0,0,1,2.58-7.66c5.52-7.23,14-8.5,22.23-9.73,1.14-.16,2.42,1,3.69,1.32,4.46,1.27,8.92,3.21,13.43,3.35,2.22.07,4.63-3.15,6.8-5,1.25-1.09,2.16-2.56,3.32-3.76.55-.58,1.79-1.47,1.95-1.34,2.72,2.37,4.09-.63,6-1.38,2.41-.93,4.87-1.75,7.9-2.83.49,4.94-.1,8.69-2.35,12.54q-13.23,22.72-25.94,45.76c-4.11,7.43-2.84,14.54,2.67,20.87,1.83,2.1,4,3.92,5.82,6,8,9,14.4,19.14,16.43,30.93,2,11.61,1.95,23.58,2.78,35.4.16,2.19.28,4.09-2.21,5.66s-2.28,6.07,0,6.86c4.71,1.68,5.62,4.74,1.56,7.47a48.19,48.19,0,0,1-12.8,5.65c-6.14,1.87-6.92,2.65-5.63,9.41,10.05-1.27,20.62.38,29.87-5.63.45-.29,1.24-.69,1.52-.5,4.09,2.72,8-.11,11.91-.44,2.61-.22,6.25-.28,7.44-1.89s.05-5.09-.09-7.75c0-.41-.18-.82-.17-1.23.13-3.78.13-7.57.53-11.32a5.55,5.55,0,0,1,2-3.65c3.71-2.43,7.58-4.63,11.51-6.7,3-1.56,2.56-3.36,1.11-5.74a28.68,28.68,0,0,1-2.77-5.94c-.84-2.54-.82-5.49-2.06-7.78q-9.57-17.58-19.68-34.89c-2.45-4.2-2.93-8.11-.89-12.61,1.43-3.14,2.14-6.6,3.19-9.91,2.55-8.07,4.7-16.3,7.76-24.17,3.72-9.55,7.88-19,12.49-28.12,2.86-5.67,3.29-11.32,3-17.4-.65-12.49-1.36-25-1.43-37.48-.07-16-6.15-29.87-14.94-42.69-6.14-9-15.91-12.13-26.54-9.08.18-1.53.34-2.84.54-4.49-4.5-.64-5.9-4-7.26-7.7A26,26,0,0,0,238,40.37c-3.55-4.53-8.68-7.52-14.14-6.51-6.38,1.18-13.28,3-16.46,10-1.36,3-2.48,6.11-3.74,9.16a6.22,6.22,0,0,0,3,8.14c4.89,2.64,8.58,5.78,9.13,11.41,1.57.07,3-.28,3.84.25a30.69,30.69,0,0,1,5.9,4.54c1.72,1.74,3.06,1.66,4.53,0C230.86,76.47,231.49,75.55,232.83,73.78Z" transform="translate(-68.43 -33.67)"/><path class="cls-1" d="M232.83,73.78c-1.34,1.77-2,2.69-2.7,3.53-1.47,1.7-2.81,1.78-4.53,0a30.69,30.69,0,0,0-5.9-4.54c-.87-.53-2.27-.18-3.84-.25-.55-5.63-4.24-8.77-9.13-11.41a6.22,6.22,0,0,1-3-8.14c1.26-3,2.38-6.16,3.74-9.16,3.18-7,10.08-8.81,16.46-10,5.46-1,10.59,2,14.14,6.51a26,26,0,0,1,3.82,6.92c1.36,3.66,2.76,7.06,7.26,7.7-.2,1.65-.36,3-.54,4.49,10.63-3,20.4.1,26.54,9.08,8.79,12.82,14.87,26.65,14.94,42.69.07,12.5.78,25,1.43,37.48.31,6.08-.12,11.73-3,17.4-4.61,9.15-8.77,18.57-12.49,28.12-3.06,7.87-5.21,16.1-7.76,24.17-1.05,3.31-1.76,6.77-3.19,9.91-2,4.5-1.56,8.41.89,12.61q10.1,17.31,19.68,34.89c1.24,2.29,1.22,5.24,2.06,7.78a28.68,28.68,0,0,0,2.77,5.94c1.45,2.38,1.85,4.18-1.11,5.74-3.93,2.07-7.8,4.27-11.51,6.7a5.55,5.55,0,0,0-2,3.65c-.4,3.75-.4,7.54-.53,11.32,0,.41.15.82.17,1.23.14,2.66,1.32,6.1.09,7.75s-4.83,1.67-7.44,1.89c-3.94.33-7.82,3.16-11.91.44-.28-.19-1.07.21-1.52.5-9.25,6-19.82,4.36-29.87,5.63-1.29-6.76-.51-7.54,5.63-9.41a48.19,48.19,0,0,0,12.8-5.65c4.06-2.73,3.15-5.79-1.56-7.47-2.24-.79-2.55-5.23,0-6.86s2.37-3.47,2.21-5.66c-.83-11.82-.79-23.79-2.78-35.4-2-11.79-8.42-22-16.43-30.93-1.85-2.07-4-3.89-5.82-6-5.51-6.33-6.78-13.44-2.67-20.87q12.72-23,25.94-45.76c2.25-3.85,2.84-7.6,2.35-12.54-3,1.08-5.49,1.9-7.9,2.83-1.93.75-3.3,3.75-6,1.38-.16-.13-1.4.76-1.95,1.34-1.16,1.2-2.07,2.67-3.32,3.76-2.17,1.89-4.58,5.11-6.8,5-4.51-.14-9-2.08-13.43-3.35-1.27-.36-2.55-1.48-3.69-1.32-8.27,1.23-16.71,2.5-22.23,9.73a14.2,14.2,0,0,0-2.58,7.66c-.4,9.79-2.12,19-8.47,26.93a146.88,146.88,0,0,0-10,14.72,13.35,13.35,0,0,0-1.44,5.79c-.44,5.67-.1,11.45-1.16,17-.66,3.45-3.12,6.64-5.1,9.75-1.14,1.79-1.76,3,.3,4.51a29.22,29.22,0,0,1,3.63,3.89c-1.53,1-3,2.6-4.62,2.88-1.3.23-2.89-1.12-4.33-1.83-.32-.16-.52-.59-.81-.94-1.1,4.6.51,8.54,4.23,10.62a4.27,4.27,0,0,1,1.62,1.26c.93,1.58,1.69,3.26,2.51,4.9-2,1-4,2.44-6.13,2.7a5.08,5.08,0,0,1-4.06-2.56c-2.23-5.36-3.9-11-5.93-16.42a7.92,7.92,0,0,1,1.49-8.53c3.47-3.93,2.58-8.12.31-11.84-2.12-3.49-5.2-6.41-7.92-9.53-.82-.94-2.14-1.53-2.71-2.56-2.73-5-6.8-5.66-11.75-4.06-15.15,4.92-29.92,3.49-44.35-2.8-1.33-.59-2.32-2-3.47-3a18,18,0,0,1,4.22-1.54,12.81,12.81,0,0,1,5,.46c13.18,3.89,25.41,1,37.76-4,6.87-2.81,11-8.17,16.19-12.7,5.72-5,7.12-11.12,4.19-18.16-3.41-8.2-5.39-16.68-4.87-25.63.09-1.52.38-3,.53-4.56.47-4.46,3.26-8.08,2.73-13.27-.5-4.94,3.42-10.33,8.88-12,4.29-1.33,9.12-.94,13.71-1.36a27.54,27.54,0,0,0,4.46-.64c2.22-.59,4.38-1.4,6.56-2.11,2.89,8.7,1.37,15.24-7.56,18.47,1.28,3.38,3,6.27-.85,8.48-.46.27-.06,2.06-.06,3.3,5,.41,9.84,3.2,14.67,0,2.43-1.6,4.52-3.74,7-5.22,1.82-1.08,4-1.47,6.07-2.16,2.82-1,5.61-2,8.46-2.85a28.57,28.57,0,0,1,4.26-.61c.17,1.4.85,3,.4,4.15-1.11,2.86-3,4.69-6.67,4.39a13,13,0,0,0-11.22,4.58l.36,1.4,31.22-5.52.15-.82-4.2-1-.49-1.22c2.19-.86,4.33-2.11,6.6-2.46s4.72.43,7.06.3c1.5-.08,2.95-.92,4.44-1.37,2.83-.85,5.74-1.49,8.49-2.55,2.18-.84,4.63-1.75,6.13-3.39,1.87-2.06,2.91-4.88,4.29-7.38,2.58-4.69,1.93-7-2.57-10.13s-6.39-8.11-7.16-13.23c-1.14-7.53-2.27-15.13,1.12-22.57C239.74,78.35,234.75,77.59,232.83,73.78Z" transform="translate(-68.43 -33.67)"/></svg>