<?xml version="1.0" encoding="utf-8"?>
<!-- Generator: Adobe Illustrator 22.1.0, SVG Export Plug-In . SVG Version: 6.00 Build 0)  -->
<svg version="1.1" xmlns="http://www.w3.org/2000/svg" xmlns:xlink="http://www.w3.org/1999/xlink" x="0px" y="0px"
	 viewBox="0 0 504 360" style="enable-background:new 0 0 504 360;" xml:space="preserve">
<style type="text/css">
	.st0{fill:#023955;stroke:#6ACAD2;stroke-width:0.25;stroke-miterlimit:10;}
	.st1{fill:#023955;}
	.st2{fill:#6ACAD2;}
	.st3{fill:#023955;stroke:#023955;stroke-width:0.4359;stroke-miterlimit:10;}
	.st4{fill:url(#SVGID_1_);}
	.st5{display:none;fill:url(#SVGID_2_);}
	.st6{fill:url(#SVGID_3_);}
	.st7{fill:url(#SVGID_4_);}
	.st8{fill:url(#SVGID_5_);}
	.st9{fill:url(#SVGID_6_);}
	.st10{fill:url(#SVGID_7_);}
	.st11{fill:url(#SVGID_8_);}
	.st12{fill:url(#SVGID_9_);}
	.st13{fill:#DE8182;stroke:#DE8182;stroke-width:0.889;stroke-miterlimit:10;}
	.st14{fill:none;stroke:#023955;stroke-width:0.6668;stroke-miterlimit:10;}
	.st15{fill:#023955;stroke:#023955;stroke-width:0.2675;stroke-miterlimit:10;}
	.st16{fill:none;stroke:#023955;stroke-width:0.6225;stroke-miterlimit:10;}
	.st17{fill:none;stroke:#023955;stroke-width:0.83;stroke-miterlimit:10;}
	.st18{fill:#DE8182;stroke:#DE8182;stroke-width:0.7036;stroke-miterlimit:10;}
	.st19{fill:#DE8182;stroke:#DE8182;stroke-width:0.607;stroke-miterlimit:10;}
	.st20{fill:none;stroke:#023955;stroke-width:0.4552;stroke-miterlimit:10;}
	.st21{fill:#DE8182;stroke:#DE8182;stroke-width:0.4804;stroke-miterlimit:10;}
	.st22{fill:none;stroke:#023955;stroke-width:0.425;stroke-miterlimit:10;}
	.st23{fill:none;stroke:#023955;stroke-width:0.5667;stroke-miterlimit:10;}
	.st24{fill:#023955;stroke:#023955;stroke-width:0.6828;stroke-miterlimit:10;}
	.st25{fill:#023955;stroke:#023955;stroke-width:0.3195;stroke-miterlimit:10;}
	.st26{fill:#DE8182;stroke:#DE8182;stroke-width:0.4046;stroke-miterlimit:10;}
	.st27{fill:none;stroke:#023955;stroke-width:0.3035;stroke-miterlimit:10;}
	.st28{fill:none;stroke:#023955;stroke-width:0.2833;stroke-miterlimit:10;}
	.st29{fill:none;stroke:#023955;stroke-width:0.3778;stroke-miterlimit:10;}
	.st30{fill:#023955;stroke:#023955;stroke-width:0.3591;stroke-miterlimit:10;}
	.st31{opacity:0.12;}
	.st32{fill:#023955;stroke:#023955;stroke-width:0.2695;stroke-miterlimit:10;}
	.st33{fill:#DE8182;stroke:#DE8182;stroke-width:0.3334;stroke-miterlimit:10;}
	.st34{fill:#023955;stroke:#023955;stroke-width:0.3897;stroke-miterlimit:10;}
	.st35{fill:#DE8182;stroke:#DE8182;stroke-width:0.4586;stroke-miterlimit:10;}
	.st36{fill:#DE8182;stroke:#DE8182;stroke-width:0.3897;stroke-miterlimit:10;}
	.st37{fill:#DE8182;stroke:#DE8182;stroke-width:0.334;stroke-miterlimit:10;}
	.st38{fill:#DE8182;stroke:#DE8182;stroke-width:0.4009;stroke-miterlimit:10;}
	.st39{fill:#023955;stroke:#023955;stroke-width:0.2552;stroke-miterlimit:10;}
	.st40{opacity:0.64;fill:#6ACAD2;}
	.st41{fill:#DE8182;}
	.st42{fill:none;}
	.st43{font-family:'GaramondPremrPro-Disp';}
	.st44{font-size:8px;}
	.st45{font-size:7px;}
	.st46{opacity:0.7;fill:#6ACAD2;}
	.st47{fill:#6ACAD1;}
	.st48{font-size:9px;}
	.st49{fill:none;stroke:#023955;stroke-width:0.3703;stroke-miterlimit:10;}
	.st50{fill:#023955;stroke:#023955;stroke-width:0.4679;stroke-miterlimit:10;}
	.st51{fill:none;stroke:#6ACAD2;stroke-width:0.7193;stroke-miterlimit:10;}
	.st52{fill:none;stroke:#6ACAD2;stroke-width:0.408;stroke-miterlimit:10;}
	.st53{display:none;}
	.st54{display:inline;}
	.st55{display:none;opacity:0.75;}
	.st56{fill:url(#SVGID_10_);}
	.st57{fill:url(#SVGID_11_);}
	.st58{fill:#6BCAD2;}
	.st59{fill:url(#SVGID_12_);}
	.st60{fill:url(#SVGID_13_);}
	.st61{font-family:'VictoriandecoRegular';}
	.st62{font-size:10px;}
</style>
<g id="Layer_1">
</g>
<g id="Layer_2">
</g>
<g id="Layer_3">
	<line class="st0" x1="474" y1="150.9" x2="473.4" y2="159"/>
	<g>
		<line class="st1" x1="446" y1="152.7" x2="446.6" y2="160.8"/>
		<path class="st2" d="M446,152.7l0.4,4c0.1,1.3,0.2,2.7,0.2,4l0,0c-0.2-1.3-0.3-2.7-0.4-4L446,152.7L446,152.7z"/>
	</g>
	<g>
		<line class="st3" x1="41.7" y1="142" x2="41.7" y2="177.3"/>
		<line class="st3" x1="54.7" y1="142" x2="54.7" y2="177.3"/>
		<line class="st3" x1="48.2" y1="142" x2="48.2" y2="177.3"/>
		<line class="st3" x1="61.2" y1="142" x2="61.2" y2="177.3"/>
		<line class="st3" x1="67.7" y1="142" x2="67.7" y2="177.3"/>
		<line class="st3" x1="74.2" y1="142" x2="74.2" y2="177.3"/>
		<line class="st3" x1="80.6" y1="142" x2="80.6" y2="177.3"/>
		<line class="st3" x1="87.1" y1="142" x2="87.1" y2="177.3"/>
		<line class="st3" x1="36.5" y1="128.2" x2="36.5" y2="180.5"/>
		<path class="st3" d="M36.5,122.8l-2.1,3.6c-0.3,0.4,0.1,1,0.6,1H38c0.5,0,0.8-0.5,0.6-1L36.5,122.8z"/>
		<rect x="36.3" y="126.9" class="st3" width="0.6" height="2"/>
		<g>
			<path class="st3" d="M94,121.3l-2.1,3.6c-0.3,0.4,0.1,1,0.6,1h3.1c0.5,0,0.8-0.5,0.6-1L94,121.3z"/>
			<rect x="93.7" y="125.4" class="st3" width="0.6" height="2"/>
		</g>
		<line class="st3" x1="94" y1="127.4" x2="94" y2="179.7"/>
		<path class="st3" d="M41.7,137.7l-1.6,2.7c-0.2,0.3,0,0.7,0.4,0.7h2.3c0.4,0,0.6-0.4,0.4-0.7L41.7,137.7z"/>
		<rect x="41.5" y="140.8" class="st3" width="0.4" height="1.5"/>
		<path class="st3" d="M48.2,138.1l-1.6,2.7c-0.2,0.3,0,0.7,0.4,0.7h2.3c0.4,0,0.6-0.4,0.4-0.7L48.2,138.1z"/>
		<rect x="48" y="141.2" class="st3" width="0.4" height="1.5"/>
		<path class="st3" d="M54.7,137.6l-1.6,2.7c-0.2,0.3,0,0.7,0.4,0.7h2.3c0.4,0,0.6-0.4,0.4-0.7L54.7,137.6z"/>
		<rect x="54.5" y="140.7" class="st3" width="0.4" height="1.5"/>
		<path class="st3" d="M61.2,138.1l-1.6,2.7c-0.2,0.3,0,0.7,0.4,0.7h2.3c0.4,0,0.6-0.4,0.4-0.7L61.2,138.1z"/>
		<rect x="61" y="141.2" class="st3" width="0.4" height="1.5"/>
		<g>
			<path class="st3" d="M67.7,137.5l-1.6,2.7c-0.2,0.3,0,0.7,0.4,0.7l2.3,0.1c0.4,0,0.6-0.4,0.4-0.7L67.7,137.5z"/>
			
				<rect x="67.4" y="140.5" transform="matrix(0.9996 2.938829e-02 -2.938829e-02 0.9996 4.1812 -1.9262)" class="st3" width="0.4" height="1.5"/>
		</g>
		<g>
			<path class="st3" d="M74.2,137.4l-1.6,2.7c-0.2,0.3,0,0.7,0.4,0.7h2.3c0.4,0,0.6-0.4,0.4-0.7L74.2,137.4z"/>
			<rect x="73.9" y="140.5" class="st3" width="0.4" height="1.5"/>
		</g>
		<g>
			<path class="st3" d="M80.6,137.8l-1.6,2.7c-0.2,0.3,0,0.7,0.4,0.7h2.3c0.4,0,0.6-0.4,0.4-0.7L80.6,137.8z"/>
			<rect x="80.4" y="140.9" class="st3" width="0.4" height="1.5"/>
		</g>
		<g>
			<path class="st3" d="M87.1,137.8l-1.6,2.7c-0.2,0.3,0,0.7,0.4,0.7h2.3c0.4,0,0.6-0.4,0.4-0.7L87.1,137.8z"/>
			<rect x="86.9" y="140.9" class="st3" width="0.4" height="1.5"/>
		</g>
		<line class="st3" x1="36.5" y1="144.8" x2="94.5" y2="144.8"/>
		<line class="st3" x1="36.5" y1="150.9" x2="94.5" y2="150.9"/>
		<line class="st3" x1="36.5" y1="171.8" x2="94.5" y2="171.8"/>
		<line class="st3" x1="39.6" y1="159.4" x2="39.6" y2="173.8"/>
		<line class="st3" x1="45" y1="159.8" x2="45" y2="174.2"/>
		<line class="st3" x1="51.4" y1="159.4" x2="51.4" y2="173.8"/>
		<line class="st3" x1="57.9" y1="159.8" x2="57.9" y2="174.2"/>
		<line class="st3" x1="64.4" y1="159.8" x2="64.4" y2="174.2"/>
		<line class="st3" x1="70.9" y1="159.5" x2="70.9" y2="173.9"/>
		<line class="st3" x1="77.4" y1="159.8" x2="77.4" y2="174.2"/>
		<line class="st3" x1="83.9" y1="159.8" x2="83.9" y2="174.2"/>
		<line class="st3" x1="90.6" y1="159.3" x2="90.6" y2="173.7"/>
		<line class="st3" x1="36" y1="159.6" x2="94.5" y2="159.4"/>
	</g>
	<g>
		<line class="st3" x1="384.9" y1="144.1" x2="384.9" y2="179.4"/>
		<line class="st3" x1="397.9" y1="144.1" x2="397.9" y2="179.4"/>
		<line class="st3" x1="391.4" y1="144.1" x2="391.4" y2="179.4"/>
		<line class="st3" x1="404.3" y1="144.1" x2="404.3" y2="179.4"/>
		<line class="st3" x1="410.8" y1="144.1" x2="410.8" y2="179.4"/>
		<line class="st3" x1="417.3" y1="144.1" x2="417.3" y2="179.4"/>
		<line class="st3" x1="423.8" y1="144.1" x2="423.8" y2="179.4"/>
		<line class="st3" x1="430.3" y1="144.1" x2="430.3" y2="179.4"/>
		<line class="st3" x1="379.7" y1="130.4" x2="379.7" y2="182.7"/>
		<path class="st3" d="M379.7,125l-2.1,3.6c-0.3,0.4,0.1,1,0.6,1h3.1c0.5,0,0.8-0.5,0.6-1L379.7,125z"/>
		<rect x="379.4" y="129.1" class="st3" width="0.6" height="2"/>
		<g>
			<path class="st3" d="M437.2,123.4l-2.1,3.6c-0.3,0.4,0.1,1,0.6,1h3.1c0.5,0,0.8-0.5,0.6-1L437.2,123.4z"/>
			<rect x="436.9" y="127.5" class="st3" width="0.6" height="2"/>
		</g>
		<line class="st3" x1="437.2" y1="129.5" x2="437.2" y2="181.8"/>
		<path class="st3" d="M384.9,139.9l-1.6,2.7c-0.2,0.3,0,0.7,0.4,0.7h2.3c0.4,0,0.6-0.4,0.4-0.7L384.9,139.9z"/>
		<rect x="384.7" y="142.9" class="st3" width="0.4" height="1.5"/>
		<path class="st3" d="M391.4,140.3l-1.6,2.7c-0.2,0.3,0,0.7,0.4,0.7h2.3c0.4,0,0.6-0.4,0.4-0.7L391.4,140.3z"/>
		<rect x="391.2" y="143.4" class="st3" width="0.4" height="1.5"/>
		<path class="st3" d="M397.9,139.7l-1.6,2.7c-0.2,0.3,0,0.7,0.4,0.7h2.3c0.4,0,0.6-0.4,0.4-0.7L397.9,139.7z"/>
		<rect x="397.6" y="142.8" class="st3" width="0.4" height="1.5"/>
		<path class="st3" d="M404.3,140.3l-1.6,2.7c-0.2,0.3,0,0.7,0.4,0.7h2.3c0.4,0,0.6-0.4,0.4-0.7L404.3,140.3z"/>
		<rect x="404.1" y="143.4" class="st3" width="0.4" height="1.5"/>
		<g>
			<path class="st3" d="M410.9,139.6l-1.6,2.7c-0.2,0.3,0,0.7,0.4,0.7l2.3,0.1c0.4,0,0.6-0.4,0.4-0.7L410.9,139.6z"/>
			
				<rect x="410.6" y="142.7" transform="matrix(0.9996 2.938829e-02 -2.938829e-02 0.9996 4.3925 -12.0105)" class="st3" width="0.4" height="1.5"/>
		</g>
		<g>
			<path class="st3" d="M417.3,139.6l-1.6,2.7c-0.2,0.3,0,0.7,0.4,0.7h2.3c0.4,0,0.6-0.4,0.4-0.7L417.3,139.6z"/>
			<rect x="417.1" y="142.7" class="st3" width="0.4" height="1.5"/>
		</g>
		<g>
			<path class="st3" d="M423.8,139.9l-1.6,2.7c-0.2,0.3,0,0.7,0.4,0.7h2.3c0.4,0,0.6-0.4,0.4-0.7L423.8,139.9z"/>
			<rect x="423.6" y="143" class="st3" width="0.4" height="1.5"/>
		</g>
		<g>
			<path class="st3" d="M430.3,139.9l-1.6,2.7c-0.2,0.3,0,0.7,0.4,0.7h2.3c0.4,0,0.6-0.4,0.4-0.7L430.3,139.9z"/>
			<rect x="430.1" y="143" class="st3" width="0.4" height="1.5"/>
		</g>
		<line class="st3" x1="379.7" y1="146.9" x2="437.7" y2="146.9"/>
		<line class="st3" x1="379.7" y1="153" x2="437.7" y2="153"/>
		<line class="st3" x1="379.7" y1="174" x2="437.7" y2="174"/>
		<line class="st3" x1="382.7" y1="161.5" x2="382.7" y2="175.9"/>
		<line class="st3" x1="388.1" y1="162" x2="388.1" y2="176.4"/>
		<line class="st3" x1="394.6" y1="161.5" x2="394.6" y2="175.9"/>
		<line class="st3" x1="401.1" y1="161.9" x2="401.1" y2="176.3"/>
		<line class="st3" x1="407.6" y1="161.9" x2="407.6" y2="176.3"/>
		<line class="st3" x1="414.1" y1="161.7" x2="414.1" y2="176"/>
		<line class="st3" x1="420.6" y1="161.9" x2="420.6" y2="176.3"/>
		<line class="st3" x1="427.1" y1="161.9" x2="427.1" y2="176.3"/>
		<line class="st3" x1="433.8" y1="161.5" x2="433.8" y2="175.9"/>
		<line class="st3" x1="379.2" y1="161.8" x2="437.7" y2="161.5"/>
	</g>
	<path class="st2" d="M212.9,182.3"/>
	<path class="st2" d="M0,169.2h127.5c0,0-127.9,185.2-127.5,186.9"/>
	<path class="st2" d="M470.2,359.6C470.2,359.6,470.2,359.6,470.2,359.6c0.4-1.7-127.5-186.9-127.5-186.9H504v186.9"/>
	<g>
		<polyline class="st1" points="-2.3,364.3 66.1,260.8 125.5,170.9 		"/>
		<polygon class="st1" points="-9.8,359.4 125.5,170.9 5.1,369.2 		"/>
	</g>
	<g>
		<polyline class="st1" points="469.5,365.3 401.1,261.8 341.7,171.9 		"/>
		<polygon class="st1" points="462.1,370.2 341.7,171.9 477,360.4 		"/>
	</g>
	<linearGradient id="SVGID_1_" gradientUnits="userSpaceOnUse" x1="232.9564" y1="291.3328" x2="233.9368" y2="59.6677">
		<stop  offset="0" style="stop-color:#6BCAD2"/>
		<stop  offset="0.9869" style="stop-color:#023955"/>
	</linearGradient>
	<path class="st4" d="M121.7,177c2,0.7,225.4,3,225.4,3l109.3,179.6L9,360L121.7,177z"/>
	<linearGradient id="SVGID_2_" gradientUnits="userSpaceOnUse" x1="346.4009" y1="389.4852" x2="348.9062" y2="67.557">
		<stop  offset="0" style="stop-color:#6BCAD2"/>
		<stop  offset="0.9869" style="stop-color:#023955"/>
	</linearGradient>
	<rect x="96" y="4" class="st5" width="504" height="360"/>
	<g>
		<linearGradient id="SVGID_3_" gradientUnits="userSpaceOnUse" x1="102.1459" y1="361.4529" x2="102.7831" y2="210.9014">
			<stop  offset="0" style="stop-color:#6BCAD2"/>
			<stop  offset="0.9869" style="stop-color:#023955"/>
		</linearGradient>
		<polygon class="st6" points="81.3,406.5 47.3,406.5 139.6,287.7 157.2,287.7 		"/>
		<linearGradient id="SVGID_4_" gradientUnits="userSpaceOnUse" x1="48.9124" y1="361.4703" x2="49.5503" y2="210.7365">
			<stop  offset="0" style="stop-color:#6BCAD2"/>
			<stop  offset="0.9869" style="stop-color:#023955"/>
		</linearGradient>
		<polygon class="st7" points="11,406.5 -23,406.5 103.5,287.7 121,287.7 		"/>
		<linearGradient id="SVGID_5_" gradientUnits="userSpaceOnUse" x1="162.2483" y1="361.4333" x2="162.8846" y2="211.0875">
			<stop  offset="0" style="stop-color:#6BCAD2"/>
			<stop  offset="0.9869" style="stop-color:#023955"/>
		</linearGradient>
		<polygon class="st8" points="160.6,406.5 126.6,406.5 180.5,287.7 198,287.7 		"/>
		<linearGradient id="SVGID_6_" gradientUnits="userSpaceOnUse" x1="235.5179" y1="361.4267" x2="236.1531" y2="211.3187">
			<stop  offset="0" style="stop-color:#6BCAD2"/>
			<stop  offset="0.9869" style="stop-color:#023955"/>
		</linearGradient>
		<polygon class="st9" points="252.3,406.5 218.3,406.5 227.7,287.7 245.2,287.7 		"/>
		<linearGradient id="SVGID_7_" gradientUnits="userSpaceOnUse" x1="302.6347" y1="361.425" x2="303.2691" y2="211.5316">
			<stop  offset="0" style="stop-color:#6BCAD2"/>
			<stop  offset="0.9869" style="stop-color:#023955"/>
		</linearGradient>
		<polygon class="st10" points="335.1,406.5 301.1,406.5 270.3,287.7 287.8,287.7 		"/>
		<linearGradient id="SVGID_8_" gradientUnits="userSpaceOnUse" x1="373.0404" y1="361.402" x2="373.6737" y2="211.7496">
			<stop  offset="0" style="stop-color:#6BCAD2"/>
			<stop  offset="0.9869" style="stop-color:#023955"/>
		</linearGradient>
		<polygon class="st11" points="428,406.5 394,406.5 318.2,287.7 335.7,287.7 		"/>
		<linearGradient id="SVGID_9_" gradientUnits="userSpaceOnUse" x1="426.2739" y1="361.3846" x2="426.9065" y2="211.9145">
			<stop  offset="0" style="stop-color:#6BCAD2"/>
			<stop  offset="0.9869" style="stop-color:#023955"/>
		</linearGradient>
		<polygon class="st12" points="498.3,406.5 464.3,406.5 354.3,287.7 371.8,287.7 		"/>
	</g>
	<path class="st13" d="M22.5,84.1l-1.8,4.3c-0.2,0.4,0.1,0.9,0.6,0.9h2.4c0.4,0,0.7-0.4,0.6-0.9L22.5,84.1z"/>
	<ellipse class="st14" cx="18.1" cy="152.2" rx="1.7" ry="2.4"/>
	<polygon class="st2" points="22.6,95.7 11,113.8 34.2,113.8 	"/>
	<polyline class="st14" points="4.8,110.2 9.4,116.7 36.2,116.7 40.3,110.2 	"/>
	<ellipse class="st14" cx="40.3" cy="110.2" rx="1.7" ry="2.4"/>
	<ellipse class="st13" cx="22.5" cy="92.5" rx="2.6" ry="1.8"/>
	<polyline class="st15" points="12,120.2 19.6,143.3 27,143.3 33.9,121.3 	"/>
	<ellipse class="st14" cx="29.6" cy="152.2" rx="1.7" ry="2.4"/>
	<ellipse class="st16" cx="4.8" cy="110.2" rx="1.7" ry="2.1"/>
	<rect x="22.5" y="143.3" class="st14" width="1.9" height="10.5"/>
	<line class="st14" x1="18.1" y1="153.9" x2="29.3" y2="153.9"/>
	<rect x="21.4" y="155.2" class="st2" width="3.7" height="14.7"/>
	<g>
		<g>
			<path class="st17" d="M25.3,174c0.6,2.9,3,4.7,5.4,4c2.4-0.7,3.9-3.7,3.3-6.6l-7.1-12.9"/>
			<path class="st17" d="M29.6,172.6c-0.3-1.5-1.5-2.4-2.7-2.1c-1.2,0.3-2,1.8-1.7,3.3"/>
			<path class="st17" d="M29.5,172.6c0.2,0.7-0.2,1.5-0.8,1.7s-1.2-0.3-1.4-1"/>
		</g>
		<g>
			<path class="st17" d="M31.2,157.8c-0.3-1.4-1.5-2.3-2.6-2s-1.9,1.8-1.6,3.2"/>
			<path class="st17" d="M29.1,158.5c0.1,0.7,0.7,1.2,1.3,1c0.6-0.2,1-0.9,0.8-1.6"/>
			<path class="st17" d="M29.2,158.5c-0.1-0.4,0.1-0.7,0.4-0.8s0.6,0.1,0.7,0.5"/>
		</g>
	</g>
	<g>
		<g>
			<path class="st17" d="M20.5,173.2c-0.6,2.9-3,4.7-5.4,4c-2.4-0.7-3.9-3.7-3.3-6.6l7.1-12.9"/>
			<path class="st17" d="M16.3,171.8c0.3-1.5,1.5-2.4,2.7-2.1c1.2,0.3,2,1.8,1.7,3.3"/>
			<path class="st17" d="M16.4,171.8c-0.2,0.7,0.2,1.5,0.8,1.7c0.6,0.2,1.2-0.3,1.4-1"/>
		</g>
		<g>
			<path class="st17" d="M14.6,157c0.3-1.4,1.5-2.3,2.6-2c1.2,0.3,1.9,1.8,1.6,3.2"/>
			<path class="st17" d="M16.7,157.7c-0.1,0.7-0.7,1.2-1.3,1c-0.6-0.2-1-0.9-0.8-1.6"/>
			<path class="st17" d="M16.7,157.7c0.1-0.4-0.1-0.7-0.4-0.8s-0.6,0.1-0.7,0.5"/>
		</g>
	</g>
	<g>
		<rect x="21.8" y="171.6" class="st18" width="2.6" height="135.7"/>
		<rect x="19.1" y="282.3" class="st18" width="7.1" height="34"/>
	</g>
	<path class="st13" d="M439.9,82.1l-1.8,4.3c-0.2,0.4,0.1,0.9,0.6,0.9h2.4c0.4,0,0.7-0.4,0.6-0.9L439.9,82.1z"/>
	<polygon class="st2" points="439.9,93.7 428.3,111.8 451.6,111.8 	"/>
	<polyline class="st14" points="422.2,108.3 426.8,114.8 453.5,114.8 457.6,108.3 	"/>
	<ellipse class="st14" cx="457.6" cy="108.3" rx="1.7" ry="2.4"/>
	<ellipse class="st13" cx="439.9" cy="90.5" rx="2.6" ry="1.8"/>
	<polyline class="st15" points="429.3,118.3 437,141.4 444.3,141.4 451.2,119.3 	"/>
	<ellipse class="st16" cx="422.2" cy="108.3" rx="1.7" ry="2.1"/>
	<rect x="439.9" y="141.4" class="st14" width="1.9" height="10.5"/>
	<rect x="438.8" y="153.2" class="st2" width="3.7" height="14.7"/>
	<g>
		<rect x="439.2" y="169.7" class="st18" width="2.6" height="135.7"/>
		<rect x="436.5" y="280.4" class="st18" width="7.1" height="34"/>
	</g>
	<g>
		<path class="st19" d="M398.7,91.6l-1.2,2.9c-0.1,0.3,0.1,0.6,0.4,0.6h1.6c0.3,0,0.5-0.3,0.4-0.6L398.7,91.6z"/>
		<ellipse class="st20" cx="395.7" cy="138.2" rx="1.2" ry="1.7"/>
		<polygon class="st2" points="398.7,99.6 390.8,111.9 406.6,111.9 		"/>
		<polyline class="st20" points="386.6,109.5 389.7,114 408,114 410.8,109.5 		"/>
		<ellipse class="st20" cx="410.8" cy="109.5" rx="1.2" ry="1.7"/>
		<ellipse class="st19" cx="398.7" cy="97.4" rx="1.8" ry="1.2"/>
		<polyline class="st21" points="391.5,116.3 396.7,132.1 401.7,132.1 406.4,117 		"/>
		<ellipse class="st20" cx="403.5" cy="138.2" rx="1.2" ry="1.7"/>
		<ellipse class="st22" cx="386.6" cy="109.5" rx="1.2" ry="1.5"/>
		<rect x="398.7" y="132.1" class="st20" width="1.3" height="7.2"/>
		<line class="st20" x1="395.7" y1="139.3" x2="403.3" y2="139.3"/>
		<rect x="397.9" y="140.2" class="st2" width="2.5" height="10"/>
		<g>
			<g>
				<path class="st23" d="M400.6,153.1c0.4,2,2,3.2,3.7,2.8c1.6-0.5,2.6-2.5,2.2-4.5l-4.9-8.8"/>
				<path class="st23" d="M403.5,152.1c-0.2-1-1-1.6-1.8-1.4c-0.8,0.2-1.3,1.2-1.2,2.2"/>
				<path class="st23" d="M403.4,152.1c0.1,0.5-0.1,1-0.6,1.1c-0.4,0.1-0.8-0.2-0.9-0.7"/>
			</g>
			<g>
				<path class="st23" d="M404.6,142c-0.2-1-1-1.6-1.8-1.3c-0.8,0.2-1.3,1.2-1.1,2.2"/>
				<path class="st23" d="M403.2,142.4c0.1,0.5,0.5,0.8,0.9,0.7c0.4-0.1,0.7-0.6,0.6-1.1"/>
				<path class="st23" d="M403.2,142.4c-0.1-0.2,0.1-0.5,0.3-0.6c0.2-0.1,0.4,0.1,0.5,0.3"/>
			</g>
		</g>
		<g>
			<g>
				<path class="st23" d="M397.3,152.5c-0.4,2-2,3.2-3.7,2.8c-1.6-0.5-2.6-2.5-2.2-4.5l4.9-8.8"/>
				<path class="st23" d="M394.4,151.5c0.2-1,1-1.6,1.8-1.4c0.8,0.2,1.3,1.2,1.2,2.2"/>
				<path class="st23" d="M394.5,151.5c-0.1,0.5,0.1,1,0.6,1.1c0.4,0.1,0.8-0.2,0.9-0.7"/>
			</g>
			<g>
				<path class="st23" d="M393.3,141.4c0.2-1,1-1.6,1.8-1.3c0.8,0.2,1.3,1.2,1.1,2.2"/>
				<path class="st23" d="M394.7,141.9c-0.1,0.5-0.5,0.8-0.9,0.7c-0.4-0.1-0.7-0.6-0.6-1.1"/>
				<path class="st23" d="M394.7,141.9c0.1-0.2-0.1-0.5-0.3-0.6c-0.2-0.1-0.4,0.1-0.5,0.3"/>
			</g>
		</g>
		<g>
			<rect x="398.2" y="151.4" class="st24" width="1.8" height="92.7"/>
			<rect x="396.4" y="227" class="st25" width="4.9" height="23.2"/>
		</g>
	</g>
	<g id="Layer_4">
	</g>
	<path class="st26" d="M365.8,98.8l0.8,2c0.1,0.2-0.1,0.4-0.3,0.4h-1.1c-0.2,0-0.3-0.2-0.3-0.4L365.8,98.8z"/>
	<ellipse class="st27" cx="367.7" cy="129.8" rx="0.8" ry="1.1"/>
	<polygon class="st2" points="365.7,104.1 371,112.3 360.4,112.3 	"/>
	<polyline class="st27" points="373.8,110.7 371.7,113.7 359.5,113.7 357.7,110.7 	"/>
	<ellipse class="st27" cx="357.7" cy="110.7" rx="0.8" ry="1.1"/>
	<ellipse class="st26" cx="365.8" cy="102.6" rx="1.2" ry="0.8"/>
	<polyline class="st15" points="370.6,115.2 367.1,125.8 363.7,125.8 360.6,115.7 	"/>
	<ellipse class="st27" cx="362.5" cy="129.8" rx="0.8" ry="1.1"/>
	<ellipse class="st28" cx="373.8" cy="110.7" rx="0.8" ry="1"/>
	
		<rect x="364.9" y="125.8" transform="matrix(-1 -4.538160e-11 4.538160e-11 -1 730.6384 256.3447)" class="st27" width="0.9" height="4.8"/>
	<line class="st27" x1="367.7" y1="130.6" x2="362.7" y2="130.6"/>
	
		<rect x="364.6" y="131.2" transform="matrix(-1 -4.502011e-11 4.502011e-11 -1 730.8234 269.0161)" class="st2" width="1.7" height="6.7"/>
	<g>
		<g>
			<path class="st29" d="M364.5,139.7c-0.3,1.3-1.4,2.2-2.4,1.8s-1.8-1.7-1.5-3l3.3-5.8"/>
			<path class="st29" d="M362.5,139.1c0.1-0.7,0.7-1.1,1.2-0.9c0.5,0.2,0.9,0.8,0.8,1.5"/>
			<path class="st29" d="M362.6,139.1c-0.1,0.3,0.1,0.7,0.4,0.8s0.5-0.1,0.6-0.5"/>
		</g>
		<g>
			<path class="st29" d="M361.8,132.3c0.1-0.7,0.7-1.1,1.2-0.9c0.5,0.2,0.9,0.8,0.7,1.5"/>
			<path class="st29" d="M362.8,132.7c-0.1,0.3-0.3,0.5-0.6,0.5c-0.3-0.1-0.4-0.4-0.4-0.7"/>
			<path class="st29" d="M362.7,132.7c0-0.2,0-0.3-0.2-0.4c-0.1,0-0.3,0.1-0.3,0.2"/>
		</g>
	</g>
	<g>
		<g>
			<path class="st29" d="M366.7,139.4c0.3,1.3,1.4,2.2,2.4,1.8c1.1-0.3,1.8-1.7,1.5-3l-3.3-5.8"/>
			<path class="st29" d="M368.6,138.7c-0.1-0.7-0.7-1.1-1.2-0.9c-0.5,0.2-0.9,0.8-0.8,1.5"/>
			<path class="st29" d="M368.6,138.7c0.1,0.3-0.1,0.7-0.4,0.8c-0.3,0.1-0.5-0.1-0.6-0.5"/>
		</g>
		<g>
			<path class="st29" d="M369.3,132c-0.1-0.7-0.7-1.1-1.2-0.9c-0.5,0.2-0.9,0.8-0.7,1.5"/>
			<path class="st29" d="M368.4,132.3c0.1,0.3,0.3,0.5,0.6,0.5c0.3-0.1,0.4-0.4,0.4-0.7"/>
			<path class="st29" d="M368.4,132.3c0-0.2,0-0.3,0.2-0.4s0.3,0.1,0.3,0.2"/>
		</g>
	</g>
	<g>
		
			<rect x="364.9" y="138.7" transform="matrix(-1 -4.348800e-11 4.348800e-11 -1 731.0005 339.0695)" class="st18" width="1.2" height="61.8"/>
		
			<rect x="364" y="189" transform="matrix(-1 -4.478252e-11 4.478252e-11 -1 731.3369 393.5535)" class="st18" width="3.2" height="15.5"/>
	</g>
	<g>
		<rect x="193.3" y="228.8" class="st30" width="87.2" height="3.4"/>
		<path class="st30" d="M193.9,242.4h-1.2c-2.6,0-4.7-2.1-4.7-4.7v-18c0-2.6,2.1-4.7,4.7-4.7h1.2c2.6,0,4.7,2.1,4.7,4.7v18
			C198.5,240.3,196.5,242.4,193.9,242.4z"/>
		<path class="st30" d="M281.1,242.4h-1.2c-2.6,0-4.7-2.1-4.7-4.7v-18c0-2.6,2.1-4.7,4.7-4.7h1.2c2.6,0,4.7,2.1,4.7,4.7v18
			C285.7,240.3,283.6,242.4,281.1,242.4z"/>
	</g>
	<g class="st31">
		<rect x="193.3" y="245.9" class="st30" width="87.2" height="3.4"/>
		<path class="st30" d="M193.9,259.5h-1.2c-2.6,0-4.7-2.1-4.7-4.7v-18c0-2.6,2.1-4.7,4.7-4.7h1.2c2.6,0,4.7,2.1,4.7,4.7v18
			C198.5,257.5,196.5,259.5,193.9,259.5z"/>
		<path class="st30" d="M281.1,259.5h-1.2c-2.6,0-4.7-2.1-4.7-4.7v-18c0-2.6,2.1-4.7,4.7-4.7h1.2c2.6,0,4.7,2.1,4.7,4.7v18
			C285.7,257.5,283.6,259.5,281.1,259.5z"/>
	</g>
	<g>
		<path class="st32" d="M284.6,123.9c1.1-17.3-0.6-40.8-0.6-40.8l-96.2,1.2"/>
		<path class="st15" d="M188.6,83.7c-1.4,17.1,0,40.2,0,40.2h96.2"/>
	</g>
	<path class="st33" d="M275.6,42.4c0-3.3-4-6-8.9-6h-61c-4.9,0-8.9,2.7-8.9,6v5.1h78.7V42.4z"/>
	<path class="st34" d="M276.1,51.7h-81.5c-1,0-1.7-0.8-1.7-1.7v0c0-1,0.8-1.7,1.7-1.7h81.5c1,0,1.7,0.8,1.7,1.7v0
		C277.9,50.9,277.1,51.7,276.1,51.7z"/>
	<polygon class="st35" points="194.7,52.7 190.1,84.1 281.8,84.1 276,52.7 	"/>
	<path class="st2" d="M223.7,78.7h-20.8c-4,0-7.3-3.3-7.3-7.3V62c0-4,3.3-7.3,7.3-7.3h20.8c4,0,7.3,3.3,7.3,7.3v9.4
		C231.1,75.4,227.8,78.7,223.7,78.7z"/>
	<path class="st2" d="M265.4,78.5h-20.8c-4,0-7.3-3.3-7.3-7.3v-9.4c0-4,3.3-7.3,7.3-7.3h20.8c4,0,7.3,3.3,7.3,7.3v9.4
		C272.7,75.2,269.4,78.5,265.4,78.5z"/>
	<path class="st36" d="M200.3,37.4c0,0,23.1-6.4,33.7-6.4s37.3,6.4,37.3,6.4"/>
	<polygon class="st37" points="188.5,85.4 188.5,91.4 206.7,91.4 206.7,117.7 188.5,117.7 188.5,123.9 210,123.9 210,85.4 	"/>
	<polygon class="st37" points="284.5,85.4 284.5,91.4 266.2,91.4 266.2,117.7 284.5,117.7 284.5,123.9 262.9,123.9 262.9,85.4 	"/>
	<g>
		<path class="st2" d="M285.5,125.3H187c-0.4,0-0.7-0.3-0.7-0.7l0,0c0-0.4,0.3-0.7,0.7-0.7h98.4c0.4,0,0.7,0.3,0.7,0.7l0,0
			C286.2,125,285.9,125.3,285.5,125.3z"/>
		<path class="st2" d="M285.5,134.9H187c-0.4,0-0.7-0.3-0.7-0.7l0,0c0-0.4,0.3-0.7,0.7-0.7h98.4c0.4,0,0.7,0.3,0.7,0.7l0,0
			C286.2,134.5,285.9,134.9,285.5,134.9z"/>
		<rect x="191.6" y="125.6" class="st15" width="87.8" height="7.8"/>
	</g>
	<rect x="215.7" y="85" class="st38" width="41.7" height="48.4"/>
	<path class="st38" d="M286.1,134.9c0.2,36.6-1.1,37.2,0.8,44.1c1.9,7,0,36,0,36s3.4,1.3-6.5,5.6c-9.9,4.3-14.4,3.1-17.2,7.8
		c-2.8,4.7-2.8,4.7-2.8,4.7h-7.6h-32.3h-7.6c0,0,0,0-2.8-4.7c-2.8-4.7-7.3-3.5-17.2-7.8c-9.9-4.3-6.5-5.6-6.5-5.6s-1.9-29.1,0-36
		c1.9-7,0.6-7.6,0.8-44.1"/>
	<rect x="214.3" y="192.7" class="st2" width="44.3" height="40.7"/>
	<polyline class="st15" points="231.6,179 186.3,179 214.3,192.7 257.3,193.4 285.3,179.7 231.6,179 	"/>
	<path class="st39" d="M278.9,170.7h-47.3v9.3h53.1v-3.6C284.7,173.3,282.1,170.7,278.9,170.7z"/>
	<path class="st15" d="M285.3,179.7l-28,13.7L285.3,179.7z"/>
	<path class="st40" d="M225.9,178.5h-29.3c-3.7,0-6.6-3-6.6-6.6V146c0-3.7,3-6.6,6.6-6.6h29.3c3.7,0,6.6,3,6.6,6.6v25.9
		C232.5,175.5,229.6,178.5,225.9,178.5z"/>
	<rect x="225.5" y="231.2" class="st15" width="24.7" height="9.6"/>
	<rect x="218.5" y="119.7" class="st15" width="38.4" height="9.8"/>
	<rect x="218.5" y="89.5" class="st15" width="35.4" height="19.7"/>
	<g>
		<g>
			<path class="st41" d="M188.7,135.6c-1.3,1.1-2.6,2.3-3.9,3.3c-1.2,1.2-2.6,2.3-3.5,3.7c-1,1.4-1.4,3-1.8,4.6
				c-0.3,1.6-0.4,3.3-0.3,5l-0.1,0c-0.7-1.6-0.9-3.5-0.6-5.2c0.2-1.8,1-3.5,2.1-4.9c0.5-0.7,1.2-1.3,1.9-1.9l2-1.7
				C186,137.6,187.3,136.5,188.7,135.6L188.7,135.6z"/>
		</g>
		<polygon class="st34" points="185.8,157.5 179,158.9 176.1,147.3 182.9,145.8 		"/>
	</g>
	<g>
		<g>
			<path class="st41" d="M284.5,134.8c1.4,1,2.7,2.1,4.2,3l2,1.7c0.6,0.6,1.3,1.2,1.9,1.9c1.1,1.4,1.9,3.1,2.1,4.9
				c0.2,1.8,0,3.6-0.6,5.2l-0.1,0c0.1-1.7,0-3.4-0.3-5c-0.3-1.6-0.8-3.2-1.8-4.6c-0.9-1.4-2.3-2.5-3.5-3.7
				C287,137.2,285.7,136,284.5,134.8L284.5,134.8z"/>
		</g>
		<polygon class="st34" points="287.4,156.8 294.1,158.3 297.1,146.6 290.3,145.2 		"/>
	</g>
	<path class="st15" d="M231.6,179"/>
	<rect x="222.4" y="120.9" class="st42" width="30.8" height="9.3"/>
	<text transform="matrix(1 0 0 1 222.429 126.4631)" class="st41 st43 st44">Tower Hill</text>
	<rect x="230.3" y="108.7" class="st2" width="14" height="12.9"/>
	<rect x="233.9" y="111.1" class="st42" width="10.5" height="8.7"/>
	<text transform="matrix(1 0 0 1 233.9372 116.6)" class="st1 st43 st44">15</text>
	<rect x="215.3" y="92.6" class="st42" width="41.3" height="18.6"/>
	<text transform="matrix(1 0 0 1 222.3553 97.4078)"><tspan x="0" y="0" class="st2 st43 st45">Aldwych to</tspan><tspan x="-3.9" y="8.4" class="st2 st43 st45">Hammersmith</tspan></text>
	<g>
		<path class="st41" d="M195.8,160.6c0,0,0.1,0,0.1,0.1c0.3,0.3,0.6,0.7,0.8,1c0.2,0.2,0.3,0.4,0.5,0.6c0.2,0.2,0.3,0.3,0.6,0.1
			c0.6-0.2,1.1-0.5,1.7-0.7c1.4-0.6,2.8-1.3,4.2-1.9c1.3-0.6,2.7-1.1,4.2-1.5c1-0.3,2.1-0.5,3.2-0.7c1.1-0.2,2.2-0.4,3.3-0.6
			c0.3,0,0.6-0.1,0.9-0.1c0,0,0.1,0,0.1,0c0.1-0.1,0.2-0.1,0.2,0c0,0.1,0.1,0.2,0,0.2c0,0.1-0.1,0.1-0.2,0.1c-0.2,0-0.4,0-0.7,0.1
			c-0.8,0.1-1.6,0.3-2.5,0.4c-0.8,0.2-1.6,0.3-2.4,0.5c-0.9,0.2-1.8,0.5-2.8,0.8c-1.2,0.4-2.4,0.9-3.5,1.5c-0.9,0.5-1.7,0.9-2.6,1.3
			c-1.3,0.7-2.6,1.4-3.9,2c-0.6,0.3-1.2,0.3-1.6-0.2c-0.2-0.2-0.5-0.5-0.7-0.7c-0.3-0.4-0.6-0.7-0.9-1.1c0,0,0-0.1,0-0.1
			C194.5,161.4,195.1,161,195.8,160.6C195.7,160.7,195.7,160.7,195.8,160.6z"/>
		<path class="st41" d="M203.8,159.8c-1.4,0.7-2.8,1.3-4.2,1.9c-0.6,0.3-1.1,0.5-1.7,0.7c-0.3,0.1-0.4,0.1-0.6-0.1
			c-0.2-0.2-0.3-0.4-0.5-0.6c-0.3-0.4-0.6-0.7-0.8-1c0,0-0.1-0.1-0.1-0.1c0,0-0.1,0-0.1,0c-0.6,0.4-1.2,0.7-1.7,1.2c0,0,0,0.1,0,0.1
			c0.3,0.4,0.6,0.8,0.9,1.1c0.2,0.3,0.4,0.5,0.7,0.7c0.5,0.4,1.1,0.5,1.6,0.2c1.3-0.7,2.6-1.4,3.9-2c0.9-0.4,1.7-0.9,2.6-1.3
			c0.3-0.1,0.6-0.3,0.8-0.4c0-0.2-0.1-0.5-0.1-0.7C204.2,159.7,204,159.8,203.8,159.8z"/>
		<path class="st1" d="M222.9,177.6c0-1.2-0.3-2.2-1-3.2c-0.7-0.9-1.3-1.8-2-2.6c-0.7-0.8-1.2-1.6-1.5-2.5c-0.4-1.4-1.3-2.4-1.9-3.7
			c-0.1-0.2-0.3-0.4-0.5-0.5c-0.7-0.7-1-1.5-1.1-2.4c-0.1-0.7,0.1-1.5,0.1-2.3c0.1,0.4,0.1,0.9,0.2,1.3c0.1,0.6,0.3,1.2,0.6,1.8
			c0.1,0.3,0.5,0.6,0.9,0.4c0.2-0.1,0.3-0.5,0.3-0.7c-0.1-0.7,0.2-1.3,0.7-1.7c0.5-0.4,0.6-0.9,0.4-1.5c-0.2-0.7-0.3-1.4-0.5-2.1
			c-0.1-0.6-0.3-1.1-0.9-1.5c-0.2-0.1-0.3-0.4-0.4-0.6c-0.1-0.2-0.1-0.4-0.2-0.6c-0.4,0.1-0.9,0.1-1.3,0.1c-1.5,0.1-2.9,0.4-4.3,0.8
			c-1.5,0.4-3,0.8-4.5,1.1c-0.4,0.1-0.9,0.1-1.3,0.1c-0.1,0.4-0.2,0.9-0.3,1.3c-0.1,0.3-0.1,0.7,0,1c1.1-0.5,2.3-0.9,3.5-1.2
			c1-0.3,2.1-0.5,3.2-0.7c1.1-0.2,2.2-0.4,3.3-0.6c0.3,0,0.6-0.1,0.9-0.1c0,0,0.1,0,0.1,0c0.1-0.1,0.2-0.1,0.2,0
			c0,0.1,0.1,0.2,0,0.2c0,0.1-0.1,0.1-0.2,0.1c-0.2,0-0.4,0-0.7,0.1c-0.8,0.1-1.6,0.3-2.5,0.4c-0.8,0.2-1.6,0.3-2.4,0.5
			c-0.9,0.2-1.8,0.5-2.8,0.8c-0.9,0.3-1.8,0.7-2.7,1.1c0.1,0.6,0.3,1.2,0.6,1.8c0.3,0.6,0.4,1.2,0.3,1.9c0,0.2,0,0.3,0,0.5
			c0.1,0,0.1,0,0.2,0.1c0.2-1,0.9-1.6,1.6-2.3c0.1,1.1,0.3,2.1,0.4,3.2c0,0.1-0.1,0.2-0.1,0.3c-1.2,1.9-2.2,4-2.7,6.2
			c-0.5,2.1-0.8,4.1,0.2,6.1c0.2,0.4,0.4,0.9,0.4,1.3h17.7C223,178.8,222.9,178.2,222.9,177.6z"/>
		<path class="st1" d="M209.9,158.4c0.8-0.2,1.6-0.4,2.4-0.5c0.8-0.2,1.6-0.3,2.5-0.4c0.2,0,0.4,0,0.7-0.1c0.1,0,0.2-0.1,0.2-0.1
			c0-0.1,0-0.2,0-0.2c-0.1-0.1-0.1-0.1-0.2,0c0,0-0.1,0-0.1,0c-0.3,0-0.6,0.1-0.9,0.1c-1.1,0.2-2.2,0.4-3.3,0.6
			c-1.1,0.2-2.1,0.4-3.2,0.7c-1.2,0.3-2.4,0.7-3.5,1.2c0,0.2,0,0.5,0.1,0.7c0.9-0.4,1.8-0.8,2.7-1.1
			C208.1,158.9,209,158.6,209.9,158.4z"/>
		<polygon class="st2" points="205,154.1 205,154.1 205,154.1 		"/>
		<path class="st2" d="M205.1,153.5c0.5,0.1,0.9,0.1,1.4,0.2c0.1,0,0.1,0,0.2,0c0,0,0-0.1,0.1-0.1c0.6-1.6,2-2.5,3.7-2.4
			c0.5,0,1,0,1.5,0.1c1.1,0.1,1.9,0.6,2.5,1.5c0.2,0.3,0.5,0.5,0.7,0.7c0.1,0.1,0.2,0.2,0.2,0.3c0,0,0,0,0,0c0.1,0,0.2,0.1,0.3,0.1
			c0,0,0,0.1,0,0.1c0,0-0.1,0-0.1,0c0.1,0.1,0.1,0.2,0.2,0.3c0.2,0.3,0.3,0.7,0.4,1c0.1,0,0.2,0,0.3,0c0.3-0.1,0.6-0.1,0.9-0.3
			c0.1-0.1,0.1-0.4,0.2-0.7c0.1-0.4,0-0.5-0.4-0.6c-0.4-0.1-0.9-0.1-1.4-0.2c-0.2,0-0.2,0-0.2-0.2c0-0.6-0.1-1.2-0.2-1.8
			c-0.1-0.8-0.3-1.6-0.7-2.3c-0.2-0.3-0.4-0.6-0.7-0.7c-0.5-0.2-1-0.3-1.5-0.4c-1-0.1-2.1,0-3.1,0.2c-0.3,0.1-0.5,0.1-0.8,0.1
			c-0.6,0-1.1,0-1.7,0c-0.3,0-0.6,0.1-0.7,0.4c-0.4,0.5-0.7,1-0.7,1.7c0,0.3-0.1,0.6-0.1,0.9c-0.1,1-0.1,1.9-0.2,2.9c0,0,0,0,0,0
			C205,153.9,205.1,153.7,205.1,153.5z"/>
		<path class="st2" d="M204.9,155.1c0-0.4,0.1-0.7,0.1-1c0,0,0,0,0,0c0,0,0,0,0,0l0,0c0,0,0,0,0,0c-0.1,0.1-0.1,0.1-0.2,0.2
			c-0.6,0.3-1.1,0.7-1.5,1.3c-0.2,0.4-0.2,0.6,0,1c0.1,0.1,0.2,0.2,0.3,0.3c0.4,0.2,0.7,0.4,1.1,0.4c0.2-0.7,0.5-1.4,0.9-2.1
			C205.4,155.1,205.2,155.1,204.9,155.1z"/>
		<polygon class="st2" points="205,154.1 205,154.1 205,154.1 		"/>
		<path class="st2" d="M214.5,153.8c0.3,0,0.5-0.1,0.8-0.1c-0.1-0.1-0.2-0.2-0.2-0.3c-0.2-0.3-0.5-0.5-0.7-0.7
			c-0.6-0.9-1.5-1.4-2.5-1.5c-0.5-0.1-1,0-1.5-0.1c-1.7-0.1-3,0.8-3.7,2.4c0,0,0,0.1-0.1,0.1c1.2,0.1,2.3,0.2,3.5,0.2
			C211.6,153.9,213.1,153.8,214.5,153.8z"/>
		<path class="st2" d="M206,157.2c1.5-0.3,3-0.7,4.5-1.1c1.4-0.4,2.8-0.7,4.3-0.8c0.4,0,0.9-0.1,1.3-0.1c-0.1-0.3-0.3-0.7-0.4-1
			c0-0.1-0.1-0.2-0.2-0.3c-0.3,0.1-0.6,0.1-1,0.2c-1.1,0.3-2.3,0.6-3.4,1c-0.1,0-0.2,0-0.3,0c-1.4,0-2.9,0.1-4.3,0.1
			c-0.3,0-0.6,0-0.9-0.1c-0.4,0.7-0.7,1.4-0.9,2.1C205.1,157.3,205.6,157.3,206,157.2z"/>
		<path class="st41" d="M215.6,153.8c-0.1,0-0.2-0.1-0.3-0.1c0,0,0,0,0,0c0.1,0.1,0.1,0.1,0.1,0.2
			C215.5,153.9,215.6,153.9,215.6,153.8C215.6,153.9,215.6,153.8,215.6,153.8z"/>
		<polygon class="st41" points="205,154.1 205,154.1 205,154.1 		"/>
		<path class="st41" d="M206.7,153.6c-0.1,0-0.1,0-0.2,0c-0.5,0-0.9-0.1-1.4-0.2c0,0.2-0.1,0.4-0.1,0.6c0,0,0,0,0,0c0,0,0,0,0,0
			c0,0.3-0.1,0.6-0.1,1c0.3,0,0.5,0.1,0.8,0.1c0.2-0.3,0.4-0.7,0.7-1C206.5,154,206.6,153.8,206.7,153.6z"/>
		<path class="st41" d="M214.5,153.8c-1.5,0-2.9,0.1-4.4,0.1c-1.2,0-2.3-0.1-3.5-0.2c-0.1,0.2-0.2,0.4-0.3,0.6
			c-0.2,0.3-0.5,0.6-0.7,1c0.3,0,0.6,0.1,0.9,0.1c1.4,0,2.9,0,4.3-0.1c0.1,0,0.2,0,0.3,0c1.1-0.3,2.3-0.6,3.4-1
			c0.3-0.1,0.6-0.2,1-0.2c0-0.1-0.1-0.1-0.1-0.2C215.1,153.7,214.8,153.8,214.5,153.8z"/>
	</g>
	<g>
		<path class="st41" d="M268.9,70.8C268.9,70.8,268.9,70.9,268.9,70.8c-0.1,0.2-0.1,0.4-0.1,0.6c0,0.1,0,0.2-0.1,0.3
			c0,0.1-0.1,0.2-0.2,0.2c-0.3,0-0.5,0-0.8,0c-0.7,0-1.4,0.1-2,0.1c-0.7,0-1.3,0.1-1.9,0.3c-0.5,0.1-0.9,0.2-1.4,0.4
			c-0.5,0.1-0.9,0.3-1.4,0.4c-0.1,0-0.2,0.1-0.4,0.1c0,0,0,0,0,0c0,0-0.1,0-0.1,0c0,0,0,0.1,0,0.1c0,0,0.1,0,0.1,0
			c0.1,0,0.2-0.1,0.3-0.1c0.4-0.1,0.7-0.2,1.1-0.3c0.3-0.1,0.7-0.2,1-0.3c0.4-0.1,0.8-0.2,1.2-0.2c0.6-0.1,1.1-0.1,1.7-0.1
			c0.4,0,0.8,0,1.3,0c0.6,0,1.3,0,1.9,0c0.3,0,0.5-0.1,0.6-0.4c0.1-0.1,0.1-0.3,0.1-0.4c0-0.2,0.1-0.4,0.1-0.6c0,0,0,0,0-0.1
			C269.5,70.9,269.2,70.9,268.9,70.8C268.9,70.8,268.9,70.8,268.9,70.8z"/>
		<path class="st41" d="M267.1,72.4c0.6,0,1.3,0,1.9,0c0.3,0,0.5-0.1,0.6-0.4c0.1-0.1,0.1-0.3,0.1-0.4c0-0.2,0.1-0.4,0.1-0.6
			c0,0,0,0,0-0.1c-0.3-0.1-0.6-0.1-0.9-0.2c0,0,0,0,0,0c0,0,0,0,0,0c0,0.2-0.1,0.4-0.1,0.6c0,0.1,0,0.2-0.1,0.3
			c0,0.1-0.1,0.2-0.2,0.2c-0.3,0-0.5,0-0.8,0c-0.6,0-1.2,0.1-1.8,0.1c0,0.1,0.1,0.2,0.1,0.3C266.3,72.4,266.7,72.4,267.1,72.4z"/>
		<path class="st1" d="M261.5,78.8c-0.2-0.5-0.3-1-0.4-1.5c-0.1-0.4-0.1-0.8,0.1-1.2c0.1-0.2,0.2-0.4,0.2-0.6c0-0.3,0.1-0.5,0.3-0.7
			c0.1-0.1,0.2-0.2,0.3-0.3c0.3-0.3,0.7-0.3,1,0c0.2,0.3,0.7,0.5,1.1,0.4c0.1,0,0.2,0,0.3,0c0.3,0,0.5-0.1,0.7-0.3
			c0.5-0.4,0.8-1,1.1-1.6c0-0.1,0-0.3,0-0.4l-0.2-0.2c0,0-0.1,0-0.1,0c-0.6,0-1.1,0-1.7,0.1c-0.4,0.1-0.8,0.1-1.2,0.2
			c-0.3,0.1-0.7,0.2-1,0.3c-0.4,0.1-0.7,0.2-1.1,0.3c-0.1,0-0.2,0.1-0.3,0.1c0,0-0.1,0-0.1,0c0,0,0-0.1,0-0.1c0,0,0-0.1,0.1,0
			c0,0,0,0,0,0c0.1,0,0.2-0.1,0.4-0.1c0.5-0.1,0.9-0.3,1.4-0.4c0.5-0.1,0.9-0.3,1.4-0.4c0.6-0.1,1.3-0.2,1.9-0.3c0,0,0.1,0,0.1,0
			l-1-1.3c-0.1,0-0.2,0-0.3,0c0-0.1,0-0.2,0-0.2c0-0.1,0-0.1,0-0.2l-0.7-0.9c-0.9,0.1-1.8,0.3-2.7,0.5c-0.9,0.2-1.9,0.5-2.8,0.7
			c-0.2,0-0.4,0.1-0.6,0c0,0,0,0,0,0.1c-0.6,0.8-1.2,1.7-1.7,2.5c0,0-0.1,0.1-0.1,0.1c-0.1,0.1-0.3,0.2-0.4,0.3
			c-0.1,0.1-0.2,0.3-0.3,0.3c-0.5,0.1-0.9,0.3-1.3,0.6c-0.1,0.1-0.3,0.1-0.4,0.2c-0.2,0.3-0.5,0.3-0.9,0.3c-1-0.1-1.9-0.1-2.9-0.2
			c-1.7-0.1-3.3,0.1-5,0.3c-0.3,0-0.6,0.1-0.9,0.2c-0.6,0.3-0.7,0.6-0.3,1.1c-0.1,0.1-0.1,0.1-0.2,0.2c-0.3,0.3-0.5,0.7-0.7,1
			L261.5,78.8C261.5,78.8,261.5,78.8,261.5,78.8z"/>
		<path class="st1" d="M265.6,72.1c-0.7,0-1.3,0.1-1.9,0.3c-0.5,0.1-0.9,0.2-1.4,0.4c-0.5,0.1-0.9,0.3-1.4,0.4
			c-0.1,0-0.2,0.1-0.4,0.1c0,0,0,0,0,0c0,0-0.1,0-0.1,0c0,0,0,0.1,0,0.1c0,0,0.1,0,0.1,0c0.1,0,0.2-0.1,0.3-0.1
			c0.4-0.1,0.7-0.2,1.1-0.3c0.3-0.1,0.7-0.2,1-0.3c0.4-0.1,0.8-0.2,1.2-0.2c0.6-0.1,1.1-0.1,1.7-0.1c0,0,0.1,0,0.1,0L265.6,72.1
			C265.6,72.1,265.6,72.1,265.6,72.1z"/>
		<path class="st1" d="M264.3,70.8c0.1,0,0.2,0,0.3,0l-0.3-0.4c0,0.1,0,0.1,0,0.2C264.3,70.6,264.3,70.7,264.3,70.8z"/>
		<path class="st1" d="M266.1,72.6c0-0.1-0.1-0.1-0.1-0.2c0,0,0,0-0.1,0L266.1,72.6z"/>
		<path class="st1" d="M263.7,69.5l0.7,0.9c0.1-0.4-0.1-0.7-0.3-0.9C263.9,69.5,263.8,69.5,263.7,69.5
			C263.7,69.5,263.7,69.5,263.7,69.5z"/>
		<path class="st1" d="M265.8,72.1c0,0,0-0.1-0.1-0.1c0-0.1,0-0.2,0-0.3c0-0.2,0-0.4-0.2-0.5c-0.2-0.2-0.5-0.2-0.7-0.3
			c-0.1,0-0.2,0-0.2,0l1,1.3C265.7,72.1,265.8,72.1,265.8,72.1z"/>
		<path class="st1" d="M265.9,72.4C265.9,72.4,266,72.4,265.9,72.4c0-0.1,0-0.2-0.1-0.3c-0.1,0-0.1,0-0.2,0L265.9,72.4z"/>
		<path class="st41" d="M258.7,69.4c-0.1,0-0.1,0-0.2,0c-0.3,0-0.7-0.1-1-0.1c0-0.2,0-0.4,0.1-0.6c0,0,0,0,0,0c0,0,0,0,0,0l0,0
			c0,0,0,0,0,0c0,0-0.1,0.1-0.1,0.1c-0.4,0.2-0.7,0.5-1,0.8c-0.1,0.2-0.1,0.4,0,0.6c0.1,0.1,0.1,0.1,0.2,0.2
			c0.3,0.2,0.6,0.3,0.8,0.3C257.9,70.3,258.3,69.9,258.7,69.4C258.7,69.5,258.7,69.5,258.7,69.4z"/>
		<polygon class="st41" points="257.5,68.7 257.5,68.7 257.5,68.7 		"/>
		<polygon class="st41" points="257.5,68.7 257.5,68.7 257.5,68.7 		"/>
		<path class="st41" d="M257.6,68.3c0.3,0,0.6,0.1,0.9,0.1c0.3,0,0.6,0,0.9,0.1c0-0.1,0.1-0.2,0.1-0.3c0-0.1,0.1-0.3,0.2-0.4
			c0.3-0.4,0.3-0.8,0.4-1.3c0-0.2,0.1-0.3,0.1-0.4c0,0,0.1,0,0.1-0.1c0.2,0.2,0.3,0.4,0.5,0.6c0-0.3,0-0.5,0-0.8c0,0,0.1,0,0.1,0
			c0.4,0.2,0.6,0.5,0.7,0.9l1.4,1.8c0.2,0,0.4,0,0.6,0c0.2,0,0.3,0,0.5,0c0.1,0,0.1,0,0.2,0.1c0,0,0,0,0,0.1
			c-0.2,0.1-0.5,0.1-0.7,0.2c-0.1,0-0.1,0-0.2,0.1c0.1,0.1,0.2,0.1,0.2,0.2c0.2,0.1,0.4,0.3,0.5,0.5c0.2,0,0.4,0,0.6-0.1
			c0.2,0,0.4-0.1,0.5-0.2c0.1-0.1,0.1-0.3,0.1-0.4c0-0.3,0-0.3-0.3-0.4c-0.3-0.1-0.6-0.1-0.8-0.1c-0.1,0-0.1,0-0.1-0.1
			c0-0.4,0-0.8-0.1-1.2c-0.1-0.5-0.2-1-0.4-1.4c-0.1-0.2-0.2-0.4-0.5-0.5c-0.3-0.1-0.6-0.2-1-0.3c-0.6-0.1-1.3,0-1.9,0.1
			c-0.2,0-0.3,0.1-0.5,0.1c-0.4,0-0.7,0-1.1,0c-0.2,0-0.3,0.1-0.5,0.2c-0.2,0.3-0.4,0.6-0.5,1.1c0,0.2,0,0.4-0.1,0.6
			c0,0.6-0.1,1.2-0.1,1.8c0,0,0,0,0,0C257.6,68.6,257.6,68.5,257.6,68.3z"/>
		<path class="st41" d="M258.2,70.7c0.9-0.2,1.9-0.5,2.8-0.7c0.9-0.2,1.8-0.4,2.7-0.5l-0.5-0.6c-0.6,0.2-1.2,0.3-1.8,0.5
			c-0.1,0-0.1,0-0.2,0c-0.9,0-1.7,0-2.6,0c0,0,0,0,0,0c-0.4,0.4-0.8,0.8-1.1,1.3C257.7,70.8,258,70.7,258.2,70.7z"/>
		<path class="st41" d="M262.9,68.6c-0.3-0.2-0.7-0.4-1.1-0.5c-0.1,0-0.2-0.2-0.2-0.3c0-0.2,0-0.5,0-0.7c0-0.1,0-0.2,0-0.3l-0.7-0.9
			c0,0-0.1,0-0.1,0c0,0.3,0,0.5,0,0.8c-0.2-0.2-0.3-0.4-0.5-0.6c0,0-0.1,0-0.1,0.1c0,0.1-0.1,0.3-0.1,0.4c0,0.5-0.1,0.9-0.4,1.3
			c-0.1,0.1-0.2,0.2-0.2,0.4c0,0.1,0,0.2-0.1,0.3c0.5,0,0.9,0.1,1.4,0.1C261.5,68.6,262.2,68.6,262.9,68.6z"/>
		<path class="st41" d="M261.6,67.8c0,0.1,0.1,0.3,0.2,0.3c0.4,0.1,0.7,0.3,1.1,0.5c0,0,0,0,0.1,0l-1.4-1.8c0,0.1,0,0.2,0,0.3
			C261.6,67.3,261.6,67.6,261.6,67.8z"/>
		<path class="st41" d="M263.6,69c-0.1-0.1-0.2-0.1-0.2-0.2c0,0-0.1,0-0.1,0l0.5,0.6c0,0,0,0,0,0c0.1,0,0.3,0,0.4,0
			C263.9,69.3,263.7,69.1,263.6,69z"/>
		<path class="st41" d="M260.8,65.8l0.7,0.9C261.5,66.3,261.2,66,260.8,65.8z"/>
		<polygon class="st2" points="257.5,68.7 257.5,68.7 257.5,68.7 		"/>
		<path class="st2" d="M263.3,68.8c0.1,0,0.1,0,0.2-0.1c0.2-0.1,0.5-0.1,0.7-0.2c0,0,0,0,0-0.1c-0.1,0-0.1-0.1-0.2-0.1
			c-0.2,0-0.3,0-0.5,0c-0.2,0-0.4,0-0.6,0l0.1,0.1C263.1,68.7,263.2,68.8,263.3,68.8z"/>
		<path class="st2" d="M258.5,68.4c-0.3,0-0.6-0.1-0.9-0.1c0,0.1,0,0.3-0.1,0.4c0,0,0,0,0,0c0,0,0,0,0,0c0,0.2,0,0.4-0.1,0.6
			c0.3,0,0.7,0.1,1,0.1c0.1,0,0.1,0,0.2,0c0.3-0.3,0.6-0.6,0.7-0.9C259.1,68.5,258.8,68.5,258.5,68.4z"/>
		<path class="st2" d="M262.9,68.6c-0.7,0-1.4,0-2.1,0c-0.5,0-0.9,0-1.4-0.1c-0.1,0.4-0.4,0.6-0.7,0.9c0.9,0,1.7,0,2.6,0
			c0.1,0,0.1,0,0.2,0c0.6-0.2,1.2-0.3,1.8-0.5l-0.2-0.2C263,68.6,262.9,68.6,262.9,68.6z"/>
		<path class="st2" d="M263,68.6L263,68.6c-0.1-0.1-0.1-0.1-0.1-0.1C262.9,68.6,263,68.6,263,68.6z"/>
		<path class="st2" d="M263,68.6l0.2,0.2c0,0,0.1,0,0.1,0C263.2,68.8,263.1,68.7,263,68.6z"/>
	</g>
	<g>
		<path class="st46" d="M277.8,166.1h-38.2c-1.5,0-2.7-1.2-2.7-2.7v-15.6c0-1.5,1.2-2.7,2.7-2.7h38.2c1.5,0,2.7,1.2,2.7,2.7v15.6
			C280.5,164.9,279.3,166.1,277.8,166.1z"/>
		<path class="st1" d="M266.8,160.1c-0.9-2.3-2-4.5-3.2-6.6c-0.2,0-0.3,0-0.5,0c-1-0.1-2-0.1-3.1,0c-1.1,0.1-2.1,0.1-3.2,0.1
			c-0.2,0-0.3,0-0.5,0c-0.5,0.7-1.1,1.3-1.8,1.7c-1.2,0.6-1.5,1.3-0.5,2.2c0.5,0.4,1.3,0.7,1.9,0.8c0.9,0.1,1.9,0,2.8,0
			c-1.4,0.5-2.7,0.8-4.1,1c-4.5,0.6-6.2,2.8-6.6,6.9H267C267.4,164.1,267.6,162.1,266.8,160.1z"/>
		<polygon class="st41" points="256.6,151.3 256.6,151.3 256.6,151.3 		"/>
		<path class="st41" d="M256.8,150.9c0.3,0.1,0.6,0.2,0.9,0.3c0.8,0.2,1.5,0.4,2.3,0.6c0.9,0,1.8,0.1,2.5,0.5c0.2,0,0.5,0.1,0.7,0.1
			c0.2,0,0.4,0,0.6,0.1c0.1,0,0.1,0.1,0.2,0.1c0,0,0,0,0,0.1c-0.3,0-0.5,0-0.8,0c0,0-0.1,0-0.1,0c0.2,0.2,0.3,0.3,0.4,0.5
			c0.1,0.1,0.1,0.2,0.2,0.3c0.2,0,0.4,0.1,0.6,0.1c0.2,0,0.5,0,0.6-0.1c0.1-0.1,0.1-0.3,0.2-0.4c0.1-0.3,0.1-0.3-0.2-0.5
			c-0.3-0.1-0.6-0.2-0.9-0.3c-0.1,0-0.1-0.1-0.1-0.2c0.1-0.4,0.1-0.9,0.2-1.3c0-0.6,0-1.1-0.1-1.7c-0.1-0.2-0.2-0.5-0.4-0.6
			c-0.3-0.2-0.6-0.4-1-0.5c-0.7-0.2-1.4-0.3-2.1-0.3c-0.2,0-0.4,0-0.6,0c-0.4-0.1-0.8-0.2-1.2-0.2c-0.2,0-0.4,0-0.6,0.2
			c-0.3,0.3-0.6,0.6-0.7,1.1c-0.1,0.2-0.1,0.4-0.2,0.6c-0.2,0.7-0.4,1.3-0.6,2c0,0,0,0,0,0C256.7,151.1,256.7,151,256.8,150.9z"/>
		<polygon class="st41" points="256.6,151.3 256.6,151.3 256.6,151.3 		"/>
		<path class="st41" d="M257.8,152.3c-0.1,0-0.2,0-0.2,0c-0.4-0.1-0.7-0.2-1.1-0.3c0.1-0.3,0.1-0.5,0.2-0.7c0,0,0,0,0,0c0,0,0,0,0,0
			l0,0c0,0,0,0,0,0c-0.1,0-0.1,0.1-0.2,0.1c-0.5,0.1-0.9,0.3-1.2,0.7c-0.2,0.2-0.2,0.4-0.1,0.7c0.1,0.1,0.1,0.2,0.2,0.3
			c0.3,0.3,0.7,0.5,1.1,0.6c0.1-0.1,0.2-0.2,0.2-0.3C256.9,152.8,257.3,152.6,257.8,152.3z"/>
		<path class="st41" d="M262.5,152.3c-0.7-0.4-1.6-0.5-2.5-0.5c0.1,0,0.2,0,0.2,0.1C261,152,261.8,152.1,262.5,152.3z"/>
		<path class="st41" d="M260.1,153.4c1,0,2-0.1,3.1,0c0.2,0,0.3,0,0.5,0c-0.1-0.1-0.1-0.2-0.2-0.3c-0.1-0.2-0.3-0.4-0.4-0.5
			c-0.8,0.1-1.6,0.1-2.4,0.2c-0.1,0-0.1,0-0.2,0c-0.9-0.2-1.8-0.3-2.7-0.5c-0.5,0.2-0.8,0.5-1.1,0.9c-0.1,0.1-0.2,0.2-0.2,0.3
			c0.2,0,0.3,0,0.5,0C258,153.5,259.1,153.5,260.1,153.4z"/>
		<polygon class="st2" points="256.6,151.3 256.6,151.3 256.6,151.3 		"/>
		<path class="st2" d="M257.7,151.2c-0.3-0.1-0.6-0.2-0.9-0.3c-0.1,0.1-0.1,0.3-0.2,0.4c0,0,0,0,0,0c0,0,0,0,0,0
			c-0.1,0.2-0.1,0.4-0.2,0.7c0.4,0.1,0.7,0.3,1.1,0.3c0.1,0,0.2,0,0.2,0c0.6-0.3,1.4-0.5,2.2-0.5
			C259.2,151.6,258.5,151.4,257.7,151.2z"/>
		<path class="st2" d="M264,152.6C264,152.6,264,152.6,264,152.6c0-0.1-0.1-0.2-0.2-0.2c-0.2,0-0.4,0-0.6-0.1
			c-0.2,0-0.5-0.1-0.7-0.1c0.2,0.1,0.4,0.2,0.5,0.4c0,0,0.1,0,0.1,0C263.4,152.6,263.7,152.6,264,152.6z"/>
		<path class="st2" d="M260.2,151.8c-0.1,0-0.2,0-0.2-0.1c-0.8,0-1.6,0.2-2.2,0.5c0.9,0.2,1.8,0.3,2.7,0.5c0.1,0,0.1,0,0.2,0
			c0.8-0.1,1.6-0.1,2.4-0.2c-0.2-0.1-0.3-0.3-0.5-0.4C261.8,152.1,261,152,260.2,151.8z"/>
	</g>
	<g>
		<path class="st19" d="M66.2,90.3L65,93.2c-0.1,0.3,0.1,0.6,0.4,0.6H67c0.3,0,0.5-0.3,0.4-0.6L66.2,90.3z"/>
		<ellipse class="st20" cx="63.2" cy="136.8" rx="1.2" ry="1.7"/>
		<polygon class="st2" points="66.2,98.2 58.3,110.6 74.1,110.6 		"/>
		<polyline class="st20" points="54.1,108.1 57.2,112.6 75.5,112.6 78.3,108.1 		"/>
		<ellipse class="st20" cx="78.3" cy="108.1" rx="1.2" ry="1.7"/>
		<ellipse class="st19" cx="66.2" cy="96" rx="1.8" ry="1.2"/>
		<polyline class="st21" points="59,115 64.2,130.8 69.2,130.8 73.9,115.7 		"/>
		<ellipse class="st20" cx="71" cy="136.8" rx="1.2" ry="1.7"/>
		<ellipse class="st22" cx="54.1" cy="108.1" rx="1.2" ry="1.5"/>
		<rect x="66.2" y="130.8" class="st20" width="1.3" height="7.2"/>
		<line class="st20" x1="63.2" y1="138" x2="70.7" y2="138"/>
		<rect x="65.4" y="138.9" class="st2" width="2.5" height="10"/>
		<g>
			<g>
				<path class="st23" d="M68,151.7c0.4,2,2,3.2,3.7,2.8c1.6-0.5,2.6-2.5,2.2-4.5l-4.9-8.8"/>
				<path class="st23" d="M71,150.7c-0.2-1-1-1.6-1.8-1.4c-0.8,0.2-1.3,1.2-1.2,2.2"/>
				<path class="st23" d="M70.9,150.8c0.1,0.5-0.1,1-0.6,1.1c-0.4,0.1-0.8-0.2-0.9-0.7"/>
			</g>
			<g>
				<path class="st23" d="M72.1,140.6c-0.2-1-1-1.6-1.8-1.3s-1.3,1.2-1.1,2.2"/>
				<path class="st23" d="M70.6,141.1c0.1,0.5,0.5,0.8,0.9,0.7s0.7-0.6,0.6-1.1"/>
				<path class="st23" d="M70.7,141.1c-0.1-0.2,0.1-0.5,0.3-0.6c0.2-0.1,0.4,0.1,0.5,0.3"/>
			</g>
		</g>
		<g>
			<g>
				<path class="st23" d="M64.8,151.2c-0.4,2-2,3.2-3.7,2.8c-1.6-0.5-2.6-2.5-2.2-4.5l4.9-8.8"/>
				<path class="st23" d="M61.9,150.2c0.2-1,1-1.6,1.8-1.4c0.8,0.2,1.3,1.2,1.2,2.2"/>
				<path class="st23" d="M62,150.2c-0.1,0.5,0.1,1,0.6,1.1c0.4,0.1,0.8-0.2,0.9-0.7"/>
			</g>
			<g>
				<path class="st23" d="M60.8,140.1c0.2-1,1-1.6,1.8-1.3c0.8,0.2,1.3,1.2,1.1,2.2"/>
				<path class="st23" d="M62.2,140.6c-0.1,0.5-0.5,0.8-0.9,0.7s-0.7-0.6-0.6-1.1"/>
				<path class="st23" d="M62.2,140.5c0.1-0.2-0.1-0.5-0.3-0.6c-0.2-0.1-0.4,0.1-0.5,0.3"/>
			</g>
		</g>
		<g>
			<rect x="65.7" y="150.1" class="st24" width="1.8" height="92.7"/>
			<rect x="63.8" y="225.7" class="st25" width="4.9" height="23.2"/>
		</g>
	</g>
	<path class="st26" d="M100.9,96.6l-0.8,2c-0.1,0.2,0.1,0.4,0.3,0.4h1.1c0.2,0,0.3-0.2,0.3-0.4L100.9,96.6z"/>
	<ellipse class="st27" cx="98.9" cy="127.7" rx="0.8" ry="1.1"/>
	<polygon class="st2" points="100.9,101.9 95.7,110.2 106.2,110.2 	"/>
	<polyline class="st27" points="92.9,108.5 95,111.5 107.1,111.5 109,108.5 	"/>
	<ellipse class="st27" cx="109" cy="108.5" rx="0.8" ry="1.1"/>
	<ellipse class="st26" cx="100.9" cy="100.5" rx="1.2" ry="0.8"/>
	<polyline class="st15" points="96.1,113.1 99.6,123.6 102.9,123.6 106.1,113.6 	"/>
	<ellipse class="st27" cx="104.1" cy="127.7" rx="0.8" ry="1.1"/>
	<ellipse class="st28" cx="92.9" cy="108.5" rx="0.8" ry="1"/>
	<rect x="100.9" y="123.6" class="st27" width="0.9" height="4.8"/>
	<line class="st27" x1="98.9" y1="128.4" x2="104" y2="128.4"/>
	<rect x="100.4" y="129" class="st2" width="1.7" height="6.7"/>
	<g>
		<g>
			<path class="st29" d="M102.2,137.6c0.3,1.3,1.4,2.2,2.4,1.8s1.8-1.7,1.5-3l-3.3-5.8"/>
			<path class="st29" d="M104.1,136.9c-0.1-0.7-0.7-1.1-1.2-0.9c-0.5,0.2-0.9,0.8-0.8,1.5"/>
			<path class="st29" d="M104.1,136.9c0.1,0.3-0.1,0.7-0.4,0.8s-0.5-0.1-0.6-0.5"/>
		</g>
		<g>
			<path class="st29" d="M104.9,130.2c-0.1-0.7-0.7-1.1-1.2-0.9c-0.5,0.2-0.9,0.8-0.7,1.5"/>
			<path class="st29" d="M103.9,130.5c0.1,0.3,0.3,0.5,0.6,0.5c0.3-0.1,0.4-0.4,0.4-0.7"/>
			<path class="st29" d="M103.9,130.5c0-0.2,0-0.3,0.2-0.4c0.1,0,0.3,0.1,0.3,0.2"/>
		</g>
	</g>
	<g>
		<g>
			<path class="st29" d="M100,137.2c-0.3,1.3-1.4,2.2-2.4,1.8c-1.1-0.3-1.8-1.7-1.5-3l3.3-5.8"/>
			<path class="st29" d="M98.1,136.6c0.1-0.7,0.7-1.1,1.2-0.9c0.5,0.2,0.9,0.8,0.8,1.5"/>
			<path class="st29" d="M98.1,136.6c-0.1,0.3,0.1,0.7,0.4,0.8c0.3,0.1,0.5-0.1,0.6-0.5"/>
		</g>
		<g>
			<path class="st29" d="M97.3,129.8c0.1-0.7,0.7-1.1,1.2-0.9c0.5,0.2,0.9,0.8,0.7,1.5"/>
			<path class="st29" d="M98.3,130.1c-0.1,0.3-0.3,0.5-0.6,0.5c-0.3-0.1-0.4-0.4-0.4-0.7"/>
			<path class="st29" d="M98.3,130.1c0-0.2,0-0.3-0.2-0.4s-0.3,0.1-0.3,0.2"/>
		</g>
	</g>
	<g>
		<rect x="100.6" y="136.5" class="st18" width="1.2" height="61.8"/>
		<rect x="99.4" y="186.9" class="st18" width="3.2" height="15.5"/>
	</g>
	<rect x="443.7" y="157.6" class="st1" width="34.9" height="25.6"/>
	<rect x="445.7" y="161.7" class="st42" width="32.7" height="25.2"/>
	<text transform="matrix(1 0 0 1 456.4388 167.9388)"><tspan x="0" y="0" class="st47 st43 st48">Bus</tspan><tspan x="-1.6" y="10" class="st47 st43 st48">Stop</tspan></text>
	<g>
		<g>
			<g>
				<path class="st49" d="M446.1,152.8c-2.4-0.1-4.3-1.2-4.3-2.7c0.1-1.4,2.1-2.5,4.6-2.5l11.6,2.9"/>
				<path class="st49" d="M446.4,150.2c1.2,0,2.2,0.6,2.2,1.3s-1,1.3-2.3,1.3"/>
			</g>
			<g>
				<path class="st49" d="M457.8,147.9c1.2,0,2.1,0.6,2.1,1.3c0,0.7-1,1.2-2.2,1.2"/>
				<path class="st49" d="M457.7,149.2c-0.6,0-1.1-0.3-1.1-0.6c0-0.3,0.5-0.6,1.1-0.6"/>
				<path class="st49" d="M457.7,149.1c0.3,0,0.6-0.1,0.6-0.3c0-0.2-0.2-0.3-0.5-0.3"/>
			</g>
		</g>
		<g>
			<g>
				<path class="st49" d="M473.7,152.8c2.4-0.1,4.3-1.2,4.3-2.7c-0.1-1.4-2.1-2.5-4.6-2.5l-11.6,2.9"/>
				<path class="st49" d="M473.4,150.2c-1.2,0-2.2,0.6-2.2,1.3s1,1.3,2.3,1.3"/>
				<path class="st49" d="M473.4,150.3c0.6,0,1.1,0.3,1.2,0.6c0,0.4-0.4,0.7-1.1,0.7"/>
			</g>
			<g>
				<path class="st49" d="M462,147.9c-1.2,0-2.1,0.6-2.1,1.3s1,1.2,2.2,1.2"/>
				<path class="st49" d="M462.1,149.2c0.6,0,1.1-0.3,1.1-0.6c0-0.3-0.5-0.6-1.1-0.6"/>
				<path class="st49" d="M462.1,149.1c-0.3,0-0.6-0.1-0.6-0.3s0.2-0.3,0.5-0.3"/>
			</g>
		</g>
	</g>
	<g>
		<g>
			<path class="st1" d="M118.3,281.2c-0.7,1.5-1.6,2.9-2.8,4.1c-0.5,0.5-1,0.8-1.8,0.7c-0.3,0-0.6,0-0.9,0.1c-1,0.3-2.3-0.2-2.9-1
				c-0.7-1-1.8-1-2.6-0.1c-0.2,0.3-0.4,0.5-0.7,0.7c-0.5,0.5-0.8,1.1-0.8,1.8c0,0.5-0.2,1.1-0.5,1.6c-0.5,1.1-0.5,2.1-0.2,3.2
				c0.3,1.3,0.7,2.6,1.1,3.9c0.5,1.6,0.4,3.2-0.1,4.8c-0.5,1.5-1,2.9-1.6,4.4c-0.2,0.6-0.7,1.2-1,1.8c-0.2,0.3-0.3,0.7-0.4,1
				c-0.3,1.1-0.6,2.3-0.7,3.4c-0.4,2.8-0.9,5.6-1,8.5c0,2.2-0.3,4.4-0.3,6.6c0,1.3,0.4,2.6,1.7,3.3c0.4,0.2,0.8,0.7,1.1,1.1
				c0.2,0.4,0.5,1.1,0.3,1.3c-0.3,0.4-0.9,0.8-1.4,0.9c-0.9,0.2-1.8,0.1-2.7,0.2c-1.2,0-2-0.9-2-2.2c0-0.7,0.1-1.4,0.1-2.1
				c0-0.2,0.1-0.4,0-0.6c-1.2-1.9-0.1-3.8-0.3-5.7c-0.2-3.2-0.2-6.4-0.4-9.6c-0.2,0.9-0.4,1.8-0.5,2.7c-0.1,2.3-0.1,4.7-0.2,7
				c-0.1,1.4-0.3,2.8-0.3,4.2c0.1,2.2,0.4,4.3,1.8,6.2c0.4,0.5,0.6,1,0.9,1.6c0.3,0.8,0,1.2-0.9,1.3c-0.9,0.1-1.8,0.1-2.6-0.3
				c-0.5-0.2-1.1,0-1.6-0.1c-0.6,0-0.8-0.4-0.8-0.9c-0.1-1.3-0.1-2.6-0.2-3.9c-0.1-1,0.1-1.9-0.7-2.8c-0.4-0.4,0-1.4,0.1-2.2
				c0-0.9,0-1.8,0-2.7c0-0.9,0-1.8,0-2.7c0-1.3-0.1-2.6-0.2-3.9c-0.1-1.9-0.3-3.7-0.4-5.6c0-0.1,0-0.2,0-0.2
				c-0.3-1.5-0.1-1.6-1.7-1.3c-2.7,0.6-5.2-0.2-7.6-1.6c-2.3-1.3-4.5-2.7-6.7-4.1c-1.2-0.7-2.5-1.3-3.6-1.9
				c-0.7,2.3-1.4,4.4-2.1,6.5c-0.8,2.4-2.2,4.4-4.4,5.9c-1.9,1.3-2.9,3.1-3.2,5.3c-0.1,0.7,0.1,1.4,0.2,2.1c0.2,0.7,0.5,1.4,0.8,2.1
				c0.3,0.8,0.8,1.3,1.6,1.5c0.6,0.2,1.1,0.5,1.6,0.9c0.3,0.2,0.7,0.7,0.6,0.9c-0.3,0.4-0.7,0.7-1.1,1c-0.2,0.1-0.5,0.1-0.8,0.1
				c-0.7,0-1.4,0-2.1,0c-0.8,0-1.3-0.3-1.6-1c-0.5-1.2-0.9-2.4-1.2-3.7c-0.7-2.4-1.3-4.9-2-7.3c-0.2-0.6,0-1,0.4-1.5
				c1-1,1.9-2,2.9-3c0.8-0.9,0.9-2,0.9-3.1c-1,1.6-1.9,3.2-2.9,4.7c-0.9,1.3-2,2.5-2.9,3.7c-2.2,2.9-2.5,6.1-1.4,9.5
				c0.2,0.5,0.6,0.9,1,1.2c0.7,0.6,1.3,1.2,1.5,2.2c0,0.2-0.2,0.7-0.3,0.7c-0.9,0.1-1.8,0.7-2.9,0.3c-0.2-0.1-0.5,0-0.8,0
				c-1,0.1-1.4-0.2-1.5-1.2c-0.3-3-0.7-5.9-1-8.9c-0.1-0.8-0.2-1.7-0.4-2.5c-0.1-0.9,0.2-1.7,1-2.2c1.1-0.9,1.6-2,2.1-3.3
				c1.5-3.8,1.4-7.8,1.6-11.7c0.1-1.4,0.1-2.9,0-4.3c-0.3-2.5,0.9-4.3,2.4-6c0.2-0.2,0.3-0.4,0.5-0.5c-0.9-1.5-0.7-2.3,0.9-2.9
				c0.7-0.3,1.6-0.5,2.4-0.6c4.3-0.4,8.7-1,13.1-0.7c2.5,0.2,5,0.3,7.5,0.5c0.8,0.1,1.6,0.1,2.2-0.7c0.2-0.3,0.7-0.2,1-0.4
				c1-0.8,2.1-1.3,3.3-1.6c0.3-0.1,0.5-0.6,0.8-0.8c0.3-0.3,0.7-0.6,1.1-0.9c0.1-0.1,0.3-0.2,0.4-0.3c1.5-2.2,3-4.5,4.5-6.6
				c0.9-1.2,2-2.4,3.1-3.5c1-1,1.9-1.9,2.1-3.3c0-0.3,0.3-0.7,0.5-1c0.7-1,0.9-2.2,1-3.3c0-0.4,0.2-0.8,0.2-1.2
				c0.1-0.1,0.2-0.1,0.3-0.2c0.4,0.5,0.8,1,1.3,1.5c0-0.7,0-1.4,0-2.1c0.1,0,0.2,0,0.3,0c1.3,0.7,1.9,1.8,1.9,3.3
				c0,0.6,0,1.3,0.1,1.9c0.1,0.3,0.3,0.7,0.6,0.8c1.7,0.5,3.2,1.3,4.5,2.3c1.3,1,2.6,2.1,2,4c-0.1,0.2,0,0.4,0,0.6
				c0.5,0.1,1.1,0,1.5,0.2c0.6,0.2,1.3,0.4,1.9,0.8c0.3,0.2,0.3,0.8,0.4,1.3c0,0.2-0.1,0.6,0,0.8c0.2,0.6,0.5,1.2,0.8,1.7
				C118.3,280.5,118.3,280.9,118.3,281.2z"/>
			<path class="st1" d="M118.3,280.2c-0.3-0.6-0.6-1.1-0.8-1.7c-0.1-0.2,0.1-0.5,0-0.8c-0.1-0.5-0.1-1.1-0.4-1.3
				c-0.5-0.4-1.2-0.6-1.9-0.8c-0.5-0.1-1-0.1-1.5-0.2c0-0.2-0.1-0.4,0-0.6c0.6-2-0.7-3-2-4c-1.3-1.1-2.9-1.8-4.5-2.3
				c-0.3-0.1-0.5-0.5-0.6-0.8c-0.1-0.6-0.1-1.3-0.1-1.9c0-1.5-0.6-2.6-1.9-3.3"/>
		</g>
		<g>
			<path class="st1" d="M112.9,275.3"/>
		</g>
		<g>
			<path class="st1" d="M113.4,276.2"/>
		</g>
		<g>
			<path class="st1" d="M113.4,275.6"/>
		</g>
	</g>
	<path class="st41" d="M96,270c-0.1,0.1-0.2,0.2-0.4,0.3c-1,0.5-1.9,1.2-2.5,2.1c-0.4,0.6-0.4,1,0.1,1.6c0.2,0.2,0.4,0.4,0.6,0.5
		c1.2,0.8,2.5,0.9,3.9,0.6c2.5-0.6,4.9-1.2,7.3-1.8c2.3-0.6,4.6-1.1,7-1.3c0.9-0.1,1.8-0.1,2.7-0.3c0.5-0.1,1-0.2,1.4-0.5
		c0.2-0.2,0.2-0.7,0.3-1.1c0.1-0.7,0-0.8-0.7-1c-0.7-0.2-1.5-0.2-2.2-0.3c-0.2,0-0.3-0.1-0.4-0.3c-0.1-1-0.1-2-0.2-3
		c-0.2-1.3-0.5-2.6-1.1-3.8c-0.3-0.5-0.6-1-1.2-1.2c-0.8-0.3-1.6-0.6-2.5-0.7c-1.7-0.2-3.4,0-5,0.3c-0.4,0.1-0.9,0.2-1.3,0.2
		c-0.9,0-1.9,0-2.8,0c-0.5,0-0.9,0.2-1.2,0.6c-0.6,0.8-1.1,1.7-1.2,2.8c0,0.5-0.1,1-0.1,1.5C96.3,266.8,96.2,268.4,96,270L96,270z"
		/>
	<path class="st50" d="M96,270c0.1-0.3,0.1-0.6,0.2-1c0.8,0.1,1.5,0.2,2.3,0.3c2,0.1,4,0.3,6,0.4c2.4,0,4.7-0.1,7.1-0.1
		c0.4,0,0.9-0.1,1.3-0.1c0.1,0,0.3,0.1,0.4,0.1c0,0.1,0,0.1,0,0.2c-0.6,0.1-1.2,0.3-1.8,0.4c-1.9,0.5-3.7,1-5.5,1.6
		c-0.1,0-0.3,0.1-0.4,0.1c-2.4,0-4.7,0.1-7.1,0.1c-0.9,0-1.8-0.2-2.7-0.3C96,271,96,270.5,96,270C96,270,96,270,96,270z"/>
	<g>
		<path class="st1" d="M257.5,275.8c-1.3-0.4-2.6-0.9-4-1.3c-1.5-0.4-2.9-1-3.4-2.6c-0.4-1.1-1.1-1.7-2.1-2.2
			c-0.8-0.4-1.5-0.9-2.3-1.2c-3.3-1.1-6.6-1.4-9.8,0.4c-4.9,2.8-9.7,5.6-14.6,8.3c-0.9,0.5-2.1,0.8-2.9,0.6c-3-0.8-5.9,0.4-8.9,0.3
			c-2.9-0.1-5.9,0.2-8.8-0.3c-3.2-0.6-6.4-1-9.7-0.9c-2.4,0.1-4.8,0.3-7.2,0.5c-3.3,0.3-6.7,0.5-9.8,2c-0.2,0.1-0.6,0.1-0.9,0
			c-2.9-1.1-6-2-8.7-3.4c-3.6-1.9-7.4-3.2-11.2-4.5c-2.3-0.8-4.8-1.2-6.8,0.5c2.1,3.4,5.7,4.2,9.2,5.2c0.2,0.1,0.6,0.1,0.7,0.3
			c1.1,1.5,2.8,1.4,4.3,1.7c0.2,0,0.5,0,0.6,0.1c2,1.1,4.1,2.2,6.1,3.4c0.8,0.5,1.3,1.4,1.9,2.2c0.1,0.1-0.2,0.7-0.4,0.8
			c-2.3,1.4-4,3.4-5,5.9c-0.5,1.3-0.9,2.7-1.3,4.1c-0.6,2.1-1.5,4.2-1.8,6.4c-0.3,3.4-1.7,6.1-4,8.5c-0.6,0.7-1.1,1.6-1.5,2.4
			c-1.2,2.4-2.2,4.9-3.4,7.3c-1.1,2.2-1.6,4.4-1.2,6.8c0.2,1.2,1,1.6,2,1.7c0.5,0.1,1.4-0.2,1.6-0.6c0.9-1.9,1.5-4,2.4-5.9
			c1.1-2.5,2-5.3,3.7-7.3c3.9-4.4,7.8-8.8,12.8-12.4c0.6,1.2,1.1,2.3,1.7,3.5c0.4,1,1,1.8,1.9,2.4c1.5,1.1,3,2.4,4.2,3.9
			c1.3,1.7,1.7,3.9,2.2,6c0.2,1,0.6,2.1,1.2,2.8c1.5,1.7,3.4,3.1,4.8,4.8c1.5,1.8,3.4,2.8,5.7,3.1c2.3,0.4,4.4-0.7,5.5-2.3
			c0.8-1.1,1.8-2,2.8-2.7l-3.7-3.6c-0.9,0.5-1.8,1-2.6,1.5c-0.1,0.1-0.2,0.3-0.3,0.4c-0.6,0.4-0.2,1.8-1.4,1.6
			c-1.5-0.2-2.9-0.7-3.6-2.1c-0.6-1.2-1-2.5-1.4-3.8c-0.3-1-0.6-2-0.8-3c-0.1-0.4-0.1-1,0-1.4c0.8-2.4,1-4.7,0.6-7.2
			c-0.1-1.1,0-2.2,0-3.2c0-1,0.6-1.2,1.5-1.4c4-0.8,7.8-0.2,11.4,1.2c1.8,0.6,3.4,1.7,5,2.6c0.2,0.1,0.3,0.5,0.4,0.8
			c-0.2,0.4-0.4,0.8-0.6,1.1c-1,1.4-1.7,2.8-2,4.6c-0.3,1.9-0.9,3.9-1.9,5.5c-0.7,1.1-2.4,1.6-3.6,2.3c-0.2,0.1-0.5,0.3-0.7,0.4
			l3.7,3.6c0.7-0.5,1.5-0.8,2.3-1.1c3-0.9,4.7-3,6.2-5.5c1.3-2.2,2.7-4.3,5-5.8c0.3-0.2,0.4-0.5,0.7-0.8c0.8-0.7,1.4-1.6,2.3-2
			c1.8-0.8,3.6-1.4,5.5-2.1c0.7,0.8,1.7,1.6,2.4,2.5c1.1,1.5,1.9,3.1,3,4.6c1.8,2.7,3.8,5.3,5.7,8c0.3,0.5,0.6,1.1,1.1,1.3
			c1.7,0.4,2.3,1.9,3.2,3.1c0.4,0.6,1.2,1.2,1.8,1.3c2.2,0.2,4.4,0.1,6.6,0c0.9-0.1,1.5-0.8,1.5-2c-0.8-0.2-1.7-0.6-2.6-0.7
			c-1.6-0.2-2.9-1.1-3.8-2.3c-1.9-2.3-3.8-4.6-4.6-7.5c-0.1-0.5-0.4-0.9-0.6-1.3c-1.1-2.3-2.4-4.6-3.3-7.1c-0.5-1.2-0.5-2.6-0.4-3.9
			c0-1.9,0.3-3.7,0.5-5.6c0-0.4,0.1-0.8,0.3-1.1c0.4-1.1,0.8-2.2,1.4-3.2c1.1-1.9,2.2-3.9,3.5-5.7c0.4-0.6,1.5-0.9,2.3-0.8
			c2.4,0.3,4.8,0.4,7.1,1.6c1.2,0.6,2.4,0.3,3.4-0.7c0.9-0.9,0.5-1.8,0.1-2.7c0.8-0.2,1.6-0.5,2.6-0.7c-1.6-1.2-3.7-0.1-4.7-1.9
			c1.3-0.3,2.6-0.6,3.9-0.9c1.9-0.4,2.9-1.8,3.6-3.5C258.7,276.9,258.5,276.1,257.5,275.8z"/>
		<g>
			<path class="st2" d="M235.6,286l-2.2-1.2c-1.8-1-3.9,0.3-3.9,2.3v2.7c0,2.1,2.3,3.4,4.1,2.2l2.2-1.5c0.7-0.5,1.2-1.3,1.2-2.2l0,0
				C236.9,287.3,236.4,286.4,235.6,286z"/>
			<path class="st2" d="M238.3,286l2.2-1.2c1.8-1,3.9,0.3,3.9,2.3v2.7c0,2.1-2.3,3.4-4.1,2.2l-2.2-1.5c-0.7-0.5-1.2-1.3-1.2-2.2l0,0
				C236.9,287.3,237.5,286.4,238.3,286z"/>
		</g>
		<path class="st51" d="M221.2,276.6l15.7,12.7L221.2,276.6z"/>
		<g>
			<path class="st41" d="M230.5,268.5c-0.1,0.1-0.3,0.3-0.4,0.4c-1.2,0.6-2.2,1.4-3,2.5c-0.5,0.7-0.4,1.2,0.1,1.9
				c0.2,0.2,0.4,0.5,0.7,0.6c1.4,1,3,1.1,4.6,0.7c2.9-0.7,5.8-1.4,8.7-2.1c2.7-0.7,5.5-1.3,8.3-1.6c1.1-0.1,2.1-0.2,3.1-0.3
				c0.6-0.1,1.2-0.3,1.7-0.6c0.3-0.2,0.2-0.9,0.3-1.3c0.1-0.8,0-1-0.8-1.2c-0.9-0.2-1.7-0.3-2.6-0.4c-0.3,0-0.4-0.1-0.4-0.4
				c-0.1-1.2-0.1-2.4-0.3-3.6c-0.2-1.6-0.5-3.1-1.3-4.5c-0.3-0.6-0.7-1.2-1.4-1.4c-1-0.3-1.9-0.7-2.9-0.8c-2-0.2-4,0-5.9,0.4
				c-0.5,0.1-1,0.2-1.6,0.2c-1.1,0-2.2,0-3.3,0c-0.6,0-1.1,0.3-1.4,0.8c-0.8,1-1.3,2-1.4,3.3c0,0.6-0.1,1.2-0.2,1.8
				C230.8,264.8,230.6,266.7,230.5,268.5L230.5,268.5z"/>
			<path class="st2" d="M230.5,268.5c0.1-0.4,0.1-0.8,0.2-1.2c0.9,0.1,1.8,0.3,2.7,0.3c2.4,0.2,4.7,0.4,7.1,0.4
				c2.8,0,5.6-0.1,8.4-0.1c0.5,0,1-0.1,1.6-0.1c0.2,0,0.3,0.1,0.5,0.2c0,0.1,0,0.1,0,0.2c-0.7,0.2-1.4,0.3-2.1,0.5
				c-2.2,0.6-4.4,1.2-6.6,1.9c-0.2,0-0.3,0.1-0.5,0.1c-2.8,0.1-5.6,0.1-8.4,0.1c-1.1,0-2.1-0.2-3.2-0.3
				C230.4,269.7,230.5,269.1,230.5,268.5C230.5,268.5,230.5,268.5,230.5,268.5z"/>
		</g>
	</g>
	<g>
		<g>
			<path class="st1" d="M295.5,311.4c0.2,2.5,1.5,4.6,2.8,6.6c1.4,2.2,1.2,4.4,0.1,6.6c-0.3,0.6-0.2,1.1,0.1,1.6
				c1.6,2.1,2.2,4.7,2.6,7.2c0.3,1.7,1.9,2.9,3.6,2.4c0.2-0.1,0.5-0.1,0.7-0.1c0.7,0,1.5,0,1.9-0.8c0.1-0.2,0.5-0.3,1-0.5
				c-0.8-0.7-1.5-1.3-2.2-1.9c-0.1-0.1-0.5-0.1-0.6-0.1c-0.8,0.4-1.2,0-1.5-0.6c-1.3-2.7-2-5.5-0.8-8.4c0-0.1,0-0.1,0.1-0.2
				c2-2.1,2.4-5,3.5-7.6c0.9,0.9,1.1,2.5,0.3,3.5c-0.5,0.6-0.5,1-0.1,1.6c0.3,0.4,0.5,0.9,0.5,1.4c0.3,1.9,1.4,3.4,2.6,4.8
				c0.4,0.4,1.1,0.6,1.6,0.8c0.6,0.2,1.2,0.2,1.8,0.3c0.3,0,0.6,0.2,0.8,0.1c0.6-0.2,1.2-0.5,1.9-0.8c-0.5-0.7-0.9-1.4-1.4-2
				c-0.1-0.1-0.5,0.1-0.8,0.1c-0.9,0.3-1.5,0.1-2-0.8c-1-1.8-1.3-3.7-0.8-5.6c0.1-0.5,0.3-1,0.6-1.3c0.8-0.8,1.2-1.8,1.4-2.9
				c0.1-0.6,0.3-1.2,0.6-1.7c1.3-2.4,1.4-5,0.9-7.5c-0.3-1.7,0.2-2.8,1.5-3.9c2.9-2.4,4.8-5.5,6.3-8.9c0.5-1.1,0.6-2.3,0.8-3.5
				c0.1-0.3,0.1-0.6,0.2-1c2.5,0.7,4.5-0.5,6.5-1.6c0.9-0.5,1.7-0.6,2.7-0.1c1.3,0.7,2.8,0.7,4.2,0.3c0.4-0.1,0.8-0.2,1.2-0.4
				c0.4-0.2,0.7-0.4,1-0.6c-0.3-0.4-0.5-0.8-0.8-1.2c-0.1-0.1-0.3-0.2-0.4-0.2c-2.2-0.8-4.3-1.6-6.5-2.3c-0.8-0.3-1.7-0.2-2.4-0.3
				c0.8-0.9,1.7-1.8,3.5-1.5c1,0.2,2.2-0.2,3.3-0.6c0.9-0.3,1.7-1,2.5-1.5c-0.4-0.8-1-1.2-1.8-1.3c-2.2-0.1-4.4-0.3-6.6-0.4
				c-1-0.1-2,0.1-2.8,0.8c-0.3,0.3-1.1,0.4-1.5,0.2c-1.4-0.8-3-1.4-4-2.6c-1.9-2.3-4.4-4.3-5.4-7.3c-0.2-0.6-0.2-1.2,0.5-1.4
				c0.8-0.3,1.6-0.5,2.5-0.5c2.5,0,4.7-1.1,6.7-2.4c0.4-0.2,0.6-0.8,0.8-1.2c0.5-1,0.8-2,1.3-2.9c0.4-0.7,0.1-0.9-0.5-1.1
				c-0.2-0.1-0.5-0.1-0.8-0.1c-2.1-0.1-4.2-0.1-6.5-0.2c0.5-2.3-1.1-2.6-2.6-3c-0.9-0.3-1.9-0.7-2.9-1c0.1-2,0.1-4-0.6-5.9
				c-0.1,0-0.2,0-0.3-0.1c-0.6,1.1-1.1,2.4-1.8,3.4c-0.7,1-0.8,2.5-2.1,3.3c-0.2-1-0.3-1.8-0.5-2.6c-0.1-0.5-0.4-1.1-0.7-1.5
				c-0.3-0.4-0.9-0.6-1.3-1c-0.2,0.4-0.6,0.8-0.7,1.3c-0.6,2.4-1.2,4.9-1.8,7.3c-0.1,0.6-0.2,1.3,0,1.9c0.7,1.8,0.4,3.5,0.2,5.3
				c-0.2,1.5-0.1,3,0.3,4.5c0.2,0.9,0,2.1-0.2,3.1c-0.5,2.6-0.6,5.3,0,7.9c0.5,2.5,0,4.9-0.7,7.2c-0.9,3.2-2.6,5.9-4.4,8.6
				c-1.2,1.8-2.2,3.8-3.3,5.7c-0.3,0.6-0.6,1.3-1,1.8c-1.4,1.8-3.4,1.9-5.1,0.4c-1.7-1.6-1.9-4.2-0.5-6c1.2-1.5,3-1.6,4.4-0.3
				c0.1,0.1,0.2,0.3,0.4,0.3c0.5,0.1,1.1,0.1,1.6,0.2c0-0.5,0.1-1,0-1.5c-0.7-1.8-3.1-3.3-5.1-3.1c-1.3,0.1-2.4,0.3-3.3,1.4
				c-1.3,1.6-2.5,3.3-2.7,5.4c-0.2,2.1-0.1,4.2,1.4,6c2,2.3,5,3,8,1.8c0.2-0.1,0.5-0.2,0.8-0.3C295.4,309.4,295.4,310.4,295.5,311.4
				z"/>
			<path class="st1" d="M295.3,308.4c0.1,1.1,0.1,2.1,0.2,3.1c0.2,2.5,1.5,4.6,2.8,6.6c1.4,2.2,1.2,4.4,0.1,6.6
				c-0.3,0.6-0.2,1.1,0.1,1.6c1.6,2.1,2.2,4.7,2.6,7.2c0.3,1.7,1.9,2.9,3.6,2.4c0.2-0.1,0.5-0.1,0.7-0.1c0.7,0,1.5,0,1.9-0.8
				c0.1-0.2,0.5-0.3,1-0.5c-0.8-0.7-1.5-1.3-2.2-1.9c-0.1-0.1-0.5-0.1-0.6-0.1c-0.8,0.4-1.2,0-1.5-0.6c-1.3-2.7-2-5.5-0.8-8.4
				c0-0.1,0-0.1,0.1-0.2c2-2.1,2.4-5,3.5-7.6c0.9,0.9,1.1,2.5,0.3,3.5c-0.5,0.6-0.5,1-0.1,1.6c0.3,0.4,0.5,0.9,0.5,1.4
				c0.3,1.9,1.4,3.4,2.6,4.8c0.4,0.4,1.1,0.6,1.6,0.8c0.6,0.2,1.2,0.2,1.8,0.3c0.3,0,0.6,0.2,0.8,0.1c0.6-0.2,1.2-0.5,1.9-0.8
				c-0.5-0.7-0.9-1.4-1.4-2c-0.1-0.1-0.5,0.1-0.8,0.1c-0.9,0.3-1.5,0.1-2-0.8c-1-1.8-1.3-3.7-0.8-5.6c0.1-0.5,0.3-1,0.6-1.3
				c0.8-0.8,1.2-1.8,1.4-2.9c0.1-0.6,0.3-1.2,0.6-1.7c1.3-2.4,1.4-5,0.9-7.5c-0.3-1.7,0.2-2.8,1.5-3.9c2.9-2.4,4.8-5.5,6.3-8.9
				c0.5-1.1,0.6-2.3,0.8-3.5c0.1-0.3,0.1-0.6,0.2-1c2.5,0.7,4.5-0.5,6.5-1.6c0.9-0.5,1.7-0.6,2.7-0.1c1.3,0.7,2.8,0.7,4.2,0.3
				c0.4-0.1,0.8-0.2,1.2-0.4c0.4-0.2,0.7-0.4,1-0.6c-0.3-0.4-0.5-0.8-0.8-1.2c-0.1-0.1-0.3-0.2-0.4-0.2c-2.2-0.8-4.3-1.6-6.5-2.3
				c-0.8-0.3-1.7-0.2-2.4-0.3c0.8-0.9,1.7-1.8,3.5-1.5c1,0.2,2.2-0.2,3.3-0.6c0.9-0.3,1.7-1,2.5-1.5c-0.4-0.8-1-1.2-1.8-1.3
				c-2.2-0.1-4.4-0.3-6.6-0.4c-1-0.1-2,0.1-2.8,0.8c-0.3,0.3-1.1,0.4-1.5,0.2c-1.4-0.8-3-1.4-4-2.6c-1.9-2.3-4.4-4.3-5.4-7.3
				c-0.2-0.6-0.2-1.2,0.5-1.4c0.8-0.3,1.6-0.5,2.5-0.5c2.5,0,4.7-1.1,6.7-2.4c0.4-0.2,0.6-0.8,0.8-1.2c0.5-1,0.8-2,1.3-2.9
				c0.4-0.7,0.1-0.9-0.5-1.1c-0.2-0.1-0.5-0.1-0.8-0.1c-2.1-0.1-4.2-0.1-6.5-0.2c0.5-2.3-1.1-2.6-2.6-3c-0.9-0.3-1.9-0.7-2.9-1
				c0.1-2,0.1-4-0.6-5.9c-0.1,0-0.2,0-0.3-0.1c-0.6,1.1-1.1,2.4-1.8,3.4c-0.7,1-0.8,2.5-2.1,3.3c-0.2-1-0.3-1.8-0.5-2.6
				c-0.1-0.5-0.4-1.1-0.7-1.5c-0.3-0.4-0.9-0.6-1.3-1c-0.2,0.4-0.6,0.8-0.7,1.3c-0.6,2.4-1.2,4.9-1.8,7.3c-0.1,0.6-0.2,1.3,0,1.9
				c0.7,1.8,0.4,3.5,0.2,5.3c-0.2,1.5-0.1,3,0.3,4.5c0.2,0.9,0,2.1-0.2,3.1c-0.5,2.6-0.6,5.3,0,7.9c0.5,2.5,0,4.9-0.7,7.2
				c-0.9,3.2-2.6,5.9-4.4,8.6c-1.2,1.8-2.2,3.8-3.3,5.7c-0.3,0.6-0.6,1.3-1,1.8c-1.4,1.8-3.4,1.9-5.1,0.4c-1.7-1.6-1.9-4.2-0.5-6
				c1.2-1.5,3-1.6,4.4-0.3c0.1,0.1,0.2,0.3,0.4,0.3c0.5,0.1,1.1,0.1,1.6,0.2c0-0.5,0.1-1,0-1.5c-0.7-1.8-3.1-3.3-5.1-3.1
				c-1.3,0.1-2.4,0.3-3.3,1.4c-1.3,1.6-2.5,3.3-2.7,5.4c-0.2,2.1-0.1,4.2,1.4,6c2,2.3,5,3,8,1.8C294.8,308.6,295,308.5,295.3,308.4z
				"/>
		</g>
		<path class="st52" d="M316.4,268.8l-11.3-0.1L316.4,268.8z"/>
		<g>
			<path class="st2" d="M316.9,267.7l0.8-0.5c0.7-0.4,1.5,0.1,1.5,0.9v1c0,0.8-0.9,1.3-1.5,0.8l-0.8-0.5c-0.3-0.2-0.4-0.5-0.4-0.8
				l0,0C316.4,268.2,316.6,267.9,316.9,267.7z"/>
			<path class="st2" d="M315.9,267.7l-0.8-0.5c-0.7-0.4-1.5,0.1-1.5,0.9v1c0,0.8,0.9,1.3,1.5,0.8l0.8-0.5c0.3-0.2,0.4-0.5,0.4-0.8
				l0,0C316.4,268.2,316.2,267.9,315.9,267.7z"/>
		</g>
		<g>
			<path class="st41" d="M303.1,255.5c-0.1,0.1-0.2,0.2-0.3,0.3c-0.8,0.6-1.4,1.3-1.9,2.2c-0.2,0.6-0.2,1,0.3,1.4
				c0.2,0.1,0.4,0.3,0.6,0.4c1.2,0.5,2.4,0.4,3.5-0.1c2-0.9,4.1-1.8,6.1-2.7c1.9-0.9,3.9-1.7,5.9-2.3c0.8-0.2,1.5-0.4,2.3-0.7
				c0.4-0.2,0.9-0.4,1.1-0.7c0.2-0.2,0.1-0.7,0-1c0-0.6-0.1-0.7-0.7-0.8c-0.7,0-1.3,0-2,0.1c-0.2,0-0.3,0-0.4-0.2
				c-0.2-0.9-0.4-1.7-0.7-2.6c-0.4-1.1-0.8-2.2-1.6-3.1c-0.3-0.4-0.7-0.8-1.2-0.9c-0.7-0.1-1.5-0.2-2.3-0.2
				c-1.5,0.1-2.9,0.5-4.3,1.1c-0.4,0.1-0.7,0.3-1.1,0.4c-0.8,0.2-1.6,0.3-2.4,0.5c-0.4,0.1-0.8,0.4-1,0.7c-0.4,0.8-0.7,1.7-0.6,2.6
				c0,0.4,0.1,0.9,0.1,1.3C302.8,252.7,302.9,254.1,303.1,255.5L303.1,255.5z"/>
			<path class="st2" d="M303.1,255.5c0-0.3,0-0.6,0-0.9c0.7,0,1.4-0.1,2-0.1c1.8-0.2,3.5-0.3,5.3-0.6c2.1-0.3,4.1-0.8,6.2-1.2
				c0.4-0.1,0.8-0.2,1.1-0.3c0.1,0,0.3,0,0.4,0.1c0,0,0,0.1,0,0.1c-0.5,0.2-1,0.4-1.5,0.7c-1.5,0.7-3.1,1.5-4.6,2.2
				c-0.1,0.1-0.2,0.1-0.4,0.1c-2,0.4-4.1,0.9-6.1,1.2c-0.8,0.1-1.6,0.1-2.4,0.2C303.2,256.4,303.1,256,303.1,255.5
				C303.1,255.5,303.1,255.5,303.1,255.5z"/>
		</g>
		<g>
			<path class="st1" d="M342.2,276c0,0.1-0.1,0.3-0.1,0.4c-0.5,2.4-2.1,3.8-4.5,3.6c-2.1-0.1-3.7-1.8-3.8-4.2c0-0.2,0-0.3,0-0.5
				c0-11.1,0-22.2,0-33.2c0-0.3,0-0.5,0-0.9c2.4,0.1,4.5,0.8,6.4,2.2c1.9,1.4,3,3.3,3.1,5.7c0.2,0,0.2,0.1,0.3,0.1
				c0.6,0,1.4,0.2,1.8-0.1c0.3-0.2,0.3-1,0.5-1.6c0.7-2.4,2.3-3.9,4.4-5.1c4.1-2.1,9.6-1.5,12.9,1.6c1.5,1.3,2,2.1,2.5,5.1
				c0.9,0,1.8,0,2.9,0c-0.1-1.6-0.1-3.2-0.3-4.8c-1-7.4-4.5-13.5-10-18.4c-4.8-4.3-10.4-7.2-16.6-8.5c-2.3-0.5-4.8-0.7-7.2-1
				c-0.2,0-0.4,0-0.7-0.1c0-0.5,0-1,0-1.5c0-0.8-0.5-1.3-1.2-1.3c-0.7,0-1.1,0.5-1.2,1.3c0,0.5,0,1,0,1.5c-1.7,0.2-3.2,0.3-4.8,0.6
				c-8.5,1.3-15.8,5-21.6,11.4c-5.2,5.7-8,12.4-7.9,20.2c0,0.2,0,0.4,0,0.7c1.2,0,2.3,0,3.5,0c0.1,0,0.4-0.3,0.4-0.4
				c0.4-3.8,2.9-5.8,6.3-6.9c3.3-1.1,6.7-0.8,9.7,1.1c2.1,1.3,3.6,3.1,3.9,5.7c0,0.1,0,0.2,0.1,0.3c0,0.1,0.1,0.1,0.1,0.2
				c0.1,0,0.1,0.1,0.2,0.1c0.6,0,1.4,0.2,1.9-0.1c0.4-0.2,0.4-1.1,0.5-1.6c0.6-2.2,2-3.6,3.9-4.7c1.3-0.8,2.7-1.3,4.4-1.4
				c0,0.4,0,0.7,0,1.1c0,11,0,22,0,33.1c0,2.6,1,4.6,3.4,5.9c3.9,2.1,8.7-0.9,8.8-5.4C343.4,276,342.8,276,342.2,276z"/>
			<path class="st1" d="M344,276c-0.6,0-1.2,0-1.8,0c0,0.1-0.1,0.3-0.1,0.4c-0.5,2.4-2.1,3.8-4.5,3.6c-2.1-0.1-3.7-1.8-3.8-4.2
				c0-0.2,0-0.3,0-0.5c0-11.1,0-22.2,0-33.2c0-0.3,0-0.5,0-0.9c2.4,0.1,4.5,0.8,6.4,2.2c1.9,1.4,3,3.3,3.1,5.7
				c0.2,0,0.2,0.1,0.3,0.1c0.6,0,1.4,0.2,1.8-0.1c0.3-0.2,0.3-1,0.5-1.6c0.7-2.4,2.3-3.9,4.4-5.1c4.1-2.1,9.6-1.5,12.9,1.6
				c1.5,1.3,2,2.1,2.5,5.1c0.9,0,1.8,0,2.9,0c-0.1-1.6-0.1-3.2-0.3-4.8c-1-7.4-4.5-13.5-10-18.4c-4.8-4.3-10.4-7.2-16.6-8.5
				c-2.3-0.5-4.8-0.7-7.2-1c-0.2,0-0.4,0-0.7-0.1c0-0.5,0-1,0-1.5c0-0.8-0.5-1.3-1.2-1.3c-0.7,0-1.1,0.5-1.2,1.3c0,0.5,0,1,0,1.5
				c-1.7,0.2-3.2,0.3-4.8,0.6c-8.5,1.3-15.8,5-21.6,11.4c-5.2,5.7-8,12.4-7.9,20.2c0,0.2,0,0.4,0,0.7c1.2,0,2.3,0,3.5,0
				c0.1,0,0.4-0.3,0.4-0.4c0.4-3.8,2.9-5.8,6.3-6.9c3.3-1.1,6.7-0.8,9.7,1.1c2.1,1.3,3.6,3.1,3.9,5.7c0,0.1,0,0.2,0.1,0.3
				c0,0.1,0.1,0.1,0.1,0.2c0.1,0,0.1,0.1,0.2,0.1c0.6,0,1.4,0.2,1.9-0.1c0.4-0.2,0.4-1.1,0.5-1.6c0.6-2.2,2-3.6,3.9-4.7
				c1.3-0.8,2.7-1.3,4.4-1.4c0,0.4,0,0.7,0,1.1c0,11,0,22,0,33.1c0,2.6,1,4.6,3.4,5.9C339.2,283.5,344,280.6,344,276z"/>
		</g>
	</g>
	<g>
		<path class="st1" d="M431.4,266.1c0,4.4,4.7,7.2,8.5,5.2c2.3-1.2,3.3-3.1,3.3-5.7c0-10.6,0-21.3,0-31.9c0-0.3,0-0.7,0-1
			c1.6,0.1,2.9,0.6,4.2,1.3c1.8,1,3.2,2.5,3.7,4.6c0.1,0.5,0.1,1.4,0.5,1.6c0.4,0.3,1.2,0.1,1.8,0.1c0,0,0.1,0,0.1-0.1
			c0-0.1,0.1-0.1,0.1-0.2c0-0.1,0.1-0.2,0.1-0.3c0.2-2.5,1.7-4.2,3.7-5.5c3-1.8,6.2-2.1,9.4-1c3.2,1,5.7,3,6.1,6.7
			c0,0.2,0.3,0.4,0.4,0.4c1.1,0,2.2,0,3.4,0c0-0.3,0-0.5,0-0.7c0.1-7.5-2.6-14-7.6-19.5c-5.6-6.2-12.6-9.7-20.8-11
			c-1.5-0.2-3-0.4-4.6-0.6c0-0.5,0-1,0-1.5c0-0.7-0.5-1.2-1.1-1.2c-0.7,0-1.2,0.5-1.2,1.2c0,0.5,0,1,0,1.5c-0.3,0-0.5,0-0.7,0.1
			c-2.3,0.3-4.6,0.5-6.9,1c-6.1,1.3-11.5,4-16.1,8.2c-5.3,4.8-8.6,10.7-9.6,17.8c-0.2,1.5-0.2,3-0.3,4.6c1,0,1.9,0,2.8,0
			c0.4-2.9,1-3.6,2.4-4.9c3.2-3,8.6-3.6,12.5-1.5c2,1.1,3.6,2.6,4.3,4.9c0.1,0.5,0.1,1.3,0.4,1.5c0.4,0.3,1.1,0.1,1.7,0.1
			c0.1,0,0.1,0,0.3-0.1c0.1-2.3,1.2-4.1,3-5.5c1.8-1.3,3.9-2,6.2-2.1c0,0.3,0,0.6,0,0.8c0,10.7,0,21.4,0,32.1c0,0.2,0,0.3,0,0.5
			c-0.1,2.3-1.6,3.9-3.6,4c-2.2,0.2-3.9-1.2-4.3-3.5c0-0.1-0.1-0.3-0.1-0.4C432.6,266.1,432,266.1,431.4,266.1z"/>
		<path class="st1" d="M431.4,266.1c0.6,0,1.2,0,1.8,0c0,0.1,0.1,0.3,0.1,0.4c0.4,2.3,2.1,3.6,4.3,3.5c2-0.1,3.5-1.8,3.6-4
			c0-0.2,0-0.3,0-0.5c0-10.7,0-21.4,0-32.1c0-0.3,0-0.5,0-0.8c-2.3,0.1-4.4,0.7-6.2,2.1c-1.8,1.4-2.9,3.2-3,5.5
			c-0.2,0-0.2,0.1-0.3,0.1c-0.6,0-1.3,0.2-1.7-0.1c-0.3-0.2-0.3-1-0.4-1.5c-0.6-2.3-2.2-3.8-4.3-4.9c-3.9-2.1-9.2-1.4-12.5,1.5
			c-1.4,1.3-1.9,2-2.4,4.9c-0.9,0-1.7,0-2.8,0c0.1-1.6,0.1-3.1,0.3-4.6c1-7.1,4.4-13,9.6-17.8c4.6-4.2,10-6.9,16.1-8.2
			c2.3-0.5,4.6-0.7,6.9-1c0.2,0,0.4,0,0.7-0.1c0-0.5,0-1,0-1.5c0-0.8,0.5-1.3,1.2-1.2c0.6,0,1.1,0.5,1.1,1.2c0,0.5,0,1,0,1.5
			c1.6,0.2,3.1,0.3,4.6,0.6c8.2,1.3,15.2,4.8,20.8,11c5,5.5,7.7,12,7.6,19.5c0,0.2,0,0.4,0,0.7c-1.1,0-2.3,0-3.4,0
			c-0.1,0-0.4-0.3-0.4-0.4c-0.4-3.7-2.8-5.6-6.1-6.7c-3.2-1-6.4-0.7-9.4,1c-2.1,1.2-3.5,3-3.7,5.5c0,0.1,0,0.2-0.1,0.3
			c0,0.1-0.1,0.1-0.1,0.2c-0.1,0-0.1,0.1-0.1,0.1c-0.6,0-1.4,0.2-1.8-0.1c-0.4-0.2-0.3-1-0.5-1.6c-0.6-2.1-1.9-3.5-3.7-4.6
			c-1.3-0.7-2.6-1.2-4.2-1.3c0,0.4,0,0.7,0,1c0,10.6,0,21.3,0,31.9c0,2.5-1,4.5-3.3,5.7C436.1,273.3,431.4,270.5,431.4,266.1z"/>
	</g>
	<g>
		<path class="st1" d="M486.4,297.4c0.2-0.1,0.4-0.2,0.6-0.3c0.2,0.1,0.4,0.1,0.6,0.2c4.5,2.6,8.7,1,12.7-1.4
			c0.7-0.4,0.8-1.7,1.2-2.6c-0.9-0.2-1.8-0.6-2.6-0.5c-2.2,0.3-4.3,0.9-6.5,1.3c-2,0.4-3.2-0.8-2.9-2.8c0.1-0.4,0.1-0.9-0.1-1.3
			c-1.2-3.3-2.3-6.7-3.6-10c-0.5-1.3-1.3-2.5-2.1-3.6c-2-2.9-3.8-6.1-6.1-8.7c-2.5-2.8-3.9-6-4.2-9.6c-0.5-6.2-3.5-11.3-7.8-15.5
			c-0.8-0.8-2.3-1-3.5-1.1c-0.9-0.1-1.8,0.5-2.7,0.8c-1.3,0.4-2.8,0.3-3.2,2.2c-0.1,0.4-1,0.7-1.6,0.8c-1.3,0.2-2.6,0.2-3.8,0.5
			c-0.7,0.1-2,0.5-2,0.9c-0.2,1.6-1.5,3.4,0.3,4.8c1.8,1.4,3.6,2.7,5.5,3.9c1.8,1.1,2.4,2.8,1.3,4.7c-1.1,1.9-2.2,3.8-3.3,5.7
			c-1.4,2.4-1.3,2.4-3.9,1.4c-2.5-1-5.1-2.1-7.7-2.8c-1.4-0.4-3.1,0.2-4.6,0c-2.7-0.4-4.4,1-5.7,3.1c-0.3,0.5-0.5,1.3-0.3,1.8
			c0.2,0.4,1,0.7,1.6,0.7c2.3,0,4.6-0.6,7-0.5c2.3,0.1,4.2,0.3,5.9,1.8c0.9,0.9,2,1.7,3.1,2.4c2.2,1.5,4.4,3,7.3,1.5
			c0.1,0,0.2,0.1,0.3,0.1c0.2,0.6,0.2,1.4,0.5,2c1,2.3,2.1,4.5,3.1,6.7c0.2,0.6,0.4,1.3,0.2,1.9c-0.8,3.4-1.6,6.7-2.4,10
			c-0.8,3.5-2.2,6.6-5.1,8.9c-0.4,0.3-0.5,1-1,1.9c2.2,0.1,4.1,0.2,6,0.2c0.4,0,1.1-0.6,1.3-1.1c0.7-2.5,1.5-4.9,2.8-7.2
			c0.8-1.5,1.1-3.3,1.7-5c0.7-1.9,1.5-3.8,2.5-6.2c1.8,1.7,3.3,3.1,4.8,4.5c-1.9,0.9-3.2,2.5-5.3,2.5c-0.3,0-0.6,0.2-0.8,0.5
			c-0.3,0.3-0.6,0.8-0.6,1.2c0,0.3,0.6,0.8,0.9,0.8c1.4,0.2,2.9,0.4,4.3,0.4c1.7,0.1,3.4,0,5.1,0c0.3,2.6,2,4,4.6,3.7
			c1-0.1,1.9,0,2.9,0c0,0.2,0.1,0.4,0.1,0.6c-0.4,0.2-0.8,0.4-1.3,0.5c-1,0.1-2.1,0-3.1,0.1c-1.4,0.1-2.4,0.8-2.8,2
			c-0.2,0.6,0.3,1.8,0.7,1.9c0.8,0.3,1.9,0.2,2.7,0.1c3.2-0.3,6.4-1.2,9.6-1.9c2.3-0.4,2.5-1.3,1.2-3.2
			C487.4,300,487,298.6,486.4,297.4z"/>
		<path class="st1" d="M486.4,297.4c0.6,1.2,1,2.6,1.7,3.7c1.3,1.9,1.1,2.7-1.2,3.2c-3.2,0.6-6.4,1.5-9.6,1.9
			c-0.8,0.1-1.9,0.2-2.7-0.1c-0.4-0.1-0.9-1.4-0.7-1.9c0.4-1.3,1.4-2,2.8-2c1,0,2.1,0,3.1-0.1c0.4,0,0.9-0.3,1.3-0.5
			c0-0.2-0.1-0.4-0.1-0.6c-1,0-2-0.1-2.9,0c-2.5,0.3-4.3-1-4.6-3.7c-1.7,0-3.4,0.1-5.1,0c-1.4-0.1-2.9-0.2-4.3-0.4
			c-0.4-0.1-0.9-0.5-0.9-0.8c0-0.4,0.3-0.8,0.6-1.2c0.2-0.2,0.5-0.5,0.8-0.5c2.1,0,3.3-1.6,5.3-2.5c-1.5-1.4-3-2.8-4.8-4.5
			c-1,2.4-1.8,4.3-2.5,6.2c-0.6,1.7-0.8,3.5-1.7,5c-1.3,2.3-2.1,4.7-2.8,7.2c-0.1,0.5-0.8,1.1-1.3,1.1c-1.9,0.1-3.8-0.1-6-0.2
			c0.5-0.9,0.6-1.6,1-1.9c2.9-2.3,4.3-5.4,5.1-8.9c0.8-3.4,1.6-6.7,2.4-10c0.1-0.6,0-1.3-0.2-1.9c-1-2.3-2.1-4.5-3.1-6.7
			c-0.3-0.6-0.3-1.3-0.5-2c-0.1-0.1-0.2-0.2-0.3-0.1c-2.8,1.5-5.1,0-7.3-1.5c-1.1-0.7-2.1-1.5-3.1-2.4c-1.7-1.6-3.6-1.7-5.9-1.8
			c-2.4-0.1-4.7,0.5-7,0.5c-0.6,0-1.4-0.3-1.6-0.7c-0.2-0.5,0-1.3,0.3-1.8c1.2-2.1,2.9-3.5,5.7-3.1c1.5,0.2,3.2-0.4,4.6,0
			c2.6,0.7,5.1,1.8,7.7,2.8c2.6,1,2.5,1,3.9-1.4c1.1-1.9,2.2-3.8,3.3-5.7c1.1-1.9,0.5-3.6-1.3-4.7c-1.9-1.1-3.7-2.5-5.5-3.9
			c-1.8-1.4-0.5-3.2-0.3-4.8c0-0.4,1.3-0.7,2-0.9c1.3-0.2,2.6-0.2,3.8-0.5c0.6-0.1,1.5-0.5,1.6-0.8c0.4-1.9,1.9-1.8,3.2-2.2
			c0.9-0.3,1.8-0.9,2.7-0.8c1.2,0.1,2.7,0.3,3.5,1.1c4.3,4.3,7.2,9.3,7.8,15.5c0.3,3.6,1.6,6.8,4.2,9.6c2.4,2.6,4.1,5.8,6.1,8.7
			c0.8,1.2,1.6,2.3,2.1,3.6c1.3,3.3,2.4,6.7,3.6,10c0.1,0.4,0.1,0.9,0.1,1.3c-0.2,2,0.9,3.2,2.9,2.8c2.2-0.4,4.3-1,6.5-1.3
			c0.8-0.1,1.7,0.3,2.6,0.5c-0.4,0.9-0.5,2.2-1.2,2.6c-4,2.4-8.1,3.9-12.7,1.4c-0.2-0.1-0.4-0.1-0.6-0.2
			C486.8,297.2,486.6,297.3,486.4,297.4z"/>
	</g>
	<g>
		<path class="st41" d="M470.4,244.5c0.1-1.4,0.3-2.7,0.4-4.1c0-0.4,0.1-0.9,0.1-1.3c0.1-0.9-0.2-1.7-0.6-2.5
			c-0.2-0.4-0.5-0.6-0.9-0.7c-0.8-0.2-1.6-0.3-2.3-0.4c-0.4-0.1-0.7-0.2-1.1-0.4c-1.3-0.5-2.7-1-4.2-1.1c-0.7,0-1.5,0.1-2.2,0.2
			c-0.5,0.1-0.9,0.4-1.2,0.8c-0.7,0.9-1.2,1.9-1.5,3c-0.3,0.8-0.5,1.7-0.7,2.5c-0.1,0.2-0.1,0.3-0.4,0.2c-0.6,0-1.3-0.1-1.9-0.1
			c-0.6,0-0.7,0.2-0.7,0.7c0,0.3-0.1,0.8,0,1c0.3,0.3,0.7,0.5,1.1,0.7c0.7,0.3,1.5,0.5,2.2,0.6c2,0.5,3.8,1.3,5.7,2.2
			c2,0.9,3.9,1.8,5.9,2.6c1.1,0.5,2.2,0.6,3.4,0.1c0.2-0.1,0.4-0.2,0.6-0.4c0.4-0.4,0.5-0.8,0.3-1.3c-0.4-0.9-1-1.6-1.8-2.2
			C470.5,244.7,470.5,244.6,470.4,244.5L470.4,244.5z"/>
		<path class="st2" d="M470.4,244.5c0-0.3,0-0.6,0-0.9c-0.7,0-1.3-0.1-2-0.1c-1.7-0.2-3.4-0.3-5.1-0.6c-2-0.3-4-0.8-6-1.2
			c-0.4-0.1-0.7-0.2-1.1-0.3c-0.1,0-0.3,0-0.4,0.1c0,0,0,0.1,0,0.1c0.5,0.2,1,0.4,1.4,0.6c1.5,0.7,2.9,1.4,4.4,2.2
			c0.1,0.1,0.2,0.1,0.3,0.1c2,0.4,3.9,0.8,5.9,1.2c0.7,0.1,1.5,0.1,2.3,0.2C470.3,245.4,470.3,244.9,470.4,244.5
			C470.4,244.5,470.4,244.5,470.4,244.5z"/>
	</g>
	<g id="MUgtc0_1_" class="st53">
		<g class="st54">
			<path class="st2" d="M47.6,50.5c1.1,0.9,2.4,2,3.6,3.1c0.2,0.2,0.3,0.6,0.3,1c0.1,3.6,2,6,5.1,7.6c1.4,0.7,2.9,1.2,4.6,0.5
				c0.7-0.3,1.3-0.3,1.8,0.5c1.9,3.3,4.7,5.1,8.4,5.8c2.9,0.5,5.4-0.4,7.6-1.8c2-1.3,3.8-3.1,4.7-5.5c0.1-0.3,0.6-0.6,1-0.6
				c2.5,0.1,4.7-0.9,6.6-2.5c0.8-0.6,1.4-0.7,2.3-0.3c2.8,1.3,6.9-0.2,8-3.3c0.3-0.8,0.6-1.7,1.1-2.3c0.6-0.7,1.5-1.2,2.4-1.8
				c1.7,2,3.8,3.5,6.4,4.1c2.8,0.6,5.3,0.3,7.8-1c2.7-1.4,4.4-3.8,5.5-6.6c0.1-0.3,0.5-0.6,0.9-0.7c0.8-0.3,1.7-0.3,2.5-0.6
				c3.2-1.2,5.8-4.4,6-8.2c0.2-3.7-2-7.5-5.1-9c-2.4-1.2-4.8-1.3-7.4-0.5c-0.4-0.6-0.8-1.1-1.1-1.6c-3.4-5.5-10.2-7.6-16.1-5.1
				c-0.3,0.1-0.8,0.2-1.1,0.2c-1,0-2.1-0.4-2.9-0.2c-2.2,0.6-3.1-0.5-4.1-2.1c-1.8-2.7-4.5-4.1-7.7-4.6c-3-0.5-5.8,0.2-8.3,1.8
				c-2.3,1.4-4,3.4-5,6c-0.1,0.2-0.4,0.6-0.6,0.6c-0.9,0.1-1.7,0.1-2.6,0.1c-1.3,0-2.7-0.2-3.9,0.2c-1.1,0.3-1.5-0.1-2-0.9
				c-1.4-2.2-3-4.2-5.3-5.5c-5.1-3-10.2-3.1-15.5-0.4c-3.4,1.8-5.6,4.5-7,8c-0.2,0.5-0.4,1-1.1,1c-3.9-0.2-7.1,1.3-9.9,3.8
				c-0.5,0.5-0.9,0.4-1.5,0.1c-2.1-1.2-4.3-1.4-6.5-0.6c-4.4,1.6-6.6,5.6-5.5,10c0.9,3.6,4.6,6.9,9.1,6.5c0.9-0.1,1.2,0.3,1.5,0.9
				c3.2,6.6,11,9.7,17.9,6.9C44.1,52.7,45.8,51.5,47.6,50.5z"/>
			<path class="st2" d="M47.6,50.5c-1.8,1-3.5,2.2-5.3,3c-6.9,2.7-14.7-0.3-17.9-6.9c-0.3-0.6-0.6-1-1.5-0.9
				c-4.6,0.4-8.3-2.9-9.1-6.5c-1-4.4,1.1-8.3,5.5-10c2.2-0.8,4.5-0.6,6.5,0.6c0.5,0.3,1,0.4,1.5-0.1c2.8-2.6,6.1-4,9.9-3.8
				c0.8,0,0.9-0.5,1.1-1c1.4-3.5,3.6-6.2,7-8c5.2-2.8,10.4-2.6,15.5,0.4c2.3,1.3,3.9,3.3,5.3,5.5c0.5,0.8,0.9,1.2,2,0.9
				c1.2-0.3,2.6-0.1,3.9-0.2c0.9,0,1.8,0,2.6-0.1c0.2,0,0.5-0.3,0.6-0.6c1-2.6,2.7-4.6,5-6c2.5-1.6,5.4-2.3,8.3-1.8
				c3.1,0.5,5.9,1.9,7.7,4.6c1.1,1.6,1.9,2.8,4.1,2.1c0.9-0.3,2,0.2,2.9,0.2c0.4,0,0.8-0.1,1.1-0.2c6-2.5,12.7-0.4,16.1,5.1
				c0.3,0.5,0.7,1,1.1,1.6c2.5-0.8,5-0.6,7.4,0.5c3.2,1.6,5.3,5.3,5.1,9c-0.2,3.8-2.8,7-6,8.2c-0.8,0.3-1.7,0.3-2.5,0.6
				c-0.3,0.1-0.7,0.4-0.9,0.7c-1.1,2.8-2.8,5.2-5.5,6.6c-2.5,1.3-5.1,1.6-7.8,1c-2.7-0.6-4.7-2.1-6.4-4.1c-0.8,0.6-1.7,1.1-2.4,1.8
				c-0.5,0.6-0.8,1.5-1.1,2.3c-1.1,3.1-5.2,4.6-8,3.3c-0.9-0.4-1.5-0.4-2.3,0.3c-1.9,1.5-4,2.5-6.6,2.5c-0.3,0-0.9,0.3-1,0.6
				c-0.8,2.5-2.6,4.3-4.7,5.5c-2.2,1.4-4.7,2.3-7.6,1.8c-3.8-0.7-6.5-2.5-8.4-5.8c-0.5-0.8-1.1-0.8-1.8-0.5
				c-1.6,0.7-3.2,0.1-4.6-0.5c-3.1-1.5-5-3.9-5.1-7.6c0-0.3-0.1-0.8-0.3-1C50,52.5,48.7,51.4,47.6,50.5z"/>
		</g>
	</g>
	<g id="iR6lc6_1_" class="st55">
		<g class="st54">
			<linearGradient id="SVGID_10_" gradientUnits="userSpaceOnUse" x1="337.0422" y1="31.0261" x2="451.8535" y2="31.0261">
				<stop  offset="0" style="stop-color:#6BCAD2"/>
				<stop  offset="0.9869" style="stop-color:#023955"/>
			</linearGradient>
			<path class="st56" d="M337,39.6c0-0.3,0-0.7,0-1c0-0.2,0.1-0.4,0.1-0.6c0.4-2.8,1.9-5.1,4.6-6.9c4.4-2.8,9.3-3.2,14.5-1.8
				c1,0.3,2,0.7,3,1.1c-4.5-6.5-0.2-12.6,4.8-15c3.6-1.7,7.4-2.1,11.4-1.1c4,1,6.9,3.1,8.7,6.2c0.1-0.3,0.2-0.5,0.2-0.6
				c0.8-4.2,3.3-7.6,7.3-10.3c6.2-4.1,13.2-5.2,20.8-3.4c5.6,1.3,9.8,4.2,12.7,8.3c2.3,3.3,3.1,6.8,2.1,10.5
				c-0.1,0.5-0.3,1.1-0.5,1.7c2.8-1.6,5.8-2.5,9.1-2.5c4.4-0.1,8.3,1.1,11.3,3.7c3.9,3.4,5.3,7.5,4.5,12c-1.1,6.2-6.9,11-14.5,12.4
				c-3.6,0.6-7,0.4-10.4-0.6c-1-0.3-1.9-0.7-2.9-1c-0.7,0.5-1.4,1-2.2,1.5c-3.9,2.5-8.4,4-13.3,4.6c-1.1,0.2-2.3,0.2-3.4,0.4
				c-0.8,0-1.5,0-2.3,0c-0.3,0-0.6-0.1-0.8-0.1c-1.6-0.2-3.1-0.3-4.7-0.5c-3.7-0.6-7.2-1.8-10.3-3.4c-0.4-0.2-0.6-0.2-1,0
				c-0.6,0.4-1.3,0.8-2,1.1c-3.8,1.7-7.9,2.7-12.3,2.8c-2.5,0-4.9-0.3-7.1-1.3c-3-1.5-4.9-3.5-5.5-6.3c-0.2-0.8-0.1-1.5-0.2-2.4
				c-0.3,0.2-0.5,0.3-0.7,0.5c-2.8,2-6.2,2.7-9.9,2.2c-4.9-0.7-8.4-2.9-10.2-6.8C337.5,41.7,337.3,40.6,337,39.6z"/>
		</g>
	</g>
	<linearGradient id="SVGID_11_" gradientUnits="userSpaceOnUse" x1="222.9862" y1="126.3996" x2="242.3471" y2="126.3996">
		<stop  offset="0" style="stop-color:#6BCAD2"/>
		<stop  offset="0.9869" style="stop-color:#023955"/>
	</linearGradient>
	<line class="st57" x1="242.3" y1="104.6" x2="223" y2="148.2"/>
</g>
<g id="Layer_5">
	<g>
		<path class="st58" d="M122.6,7.6l-4.3,6.7c-1.4,2.2-2.9,4.5-4.4,6.6l0,0c1.4-2.3,2.8-4.5,4.3-6.7L122.6,7.6L122.6,7.6z"/>
	</g>
	<g>
		<path class="st58" d="M32.7,22.6l-4.3,6.7c-1.4,2.2-2.9,4.5-4.4,6.6l0,0c1.4-2.3,2.8-4.5,4.3-6.7L32.7,22.6L32.7,22.6z"/>
	</g>
	<g>
		<path class="st58" d="M79.8,87.7l-4.3,6.7c-1.4,2.2-2.9,4.5-4.4,6.6l0,0c1.4-2.3,2.8-4.5,4.3-6.7L79.8,87.7L79.8,87.7z"/>
	</g>
	<g>
		<path class="st58" d="M45.7,145l-4.3,6.7c-1.4,2.2-2.9,4.5-4.4,6.6l0,0c1.4-2.3,2.8-4.5,4.3-6.7L45.7,145L45.7,145z"/>
	</g>
	<g>
		<polygon class="st58" points="162.6,73.7 150.5,90.4 144.5,98.7 138.4,107 138.4,107 144.4,98.6 150.5,90.3 162.6,73.7 		"/>
	</g>
	<g>
		<polygon class="st58" points="187.2,111.6 167.3,139 157.4,152.6 147.4,166.3 147.4,166.2 157.3,152.5 167.3,138.9 187.2,111.6 		
			"/>
	</g>
	<g>
		<polygon class="st58" points="206.5,46.3 194.4,63 188.3,71.4 182.2,79.7 182.2,79.7 188.2,71.3 194.3,63 206.5,46.3 		"/>
	</g>
	<g>
		<polygon class="st58" points="273.9,3.6 263,21 257.6,29.7 252,38.3 252,38.3 257.4,29.6 262.9,20.9 273.8,3.6 		"/>
	</g>
	<g>
		<polygon class="st58" points="326.2,12.3 306.3,39.7 296.4,53.4 286.4,67 286.3,67 296.2,53.3 306.2,39.6 326.2,12.3 		"/>
	</g>
	<g>
		<polygon class="st58" points="197.5,151.7 182.5,172.4 175,182.7 167.4,193 167.4,193 174.9,182.6 182.4,172.3 197.5,151.7 		"/>
	</g>
	<g>
		<polygon class="st58" points="365,22.5 352.6,39.7 346.4,48.3 340.1,56.8 340,56.8 346.2,48.2 352.5,39.6 365,22.5 		"/>
	</g>
	<g>
		<polygon class="st58" points="290.8,94.3 278.3,111.6 272,120.3 265.6,128.8 265.6,128.8 271.9,120.2 278.2,111.5 290.8,94.3 		
			"/>
	</g>
	<g>
		<polygon class="st58" points="233.4,163.3 221.2,180 215.2,188.4 209,196.7 209,196.7 215,188.3 221.1,180 233.4,163.3 		"/>
	</g>
	<g>
		<polygon class="st58" points="150.5,231.2 137.9,248.7 131.5,257.4 125.1,266.1 125.1,266.1 131.4,257.3 137.8,248.6 150.5,231.2 
					"/>
	</g>
	<g>
		<polygon class="st58" points="261,74.4 246.5,94.4 239.3,104.3 232,114.3 232,114.2 239.2,104.2 246.4,94.3 261,74.4 		"/>
	</g>
	<g>
		<polygon class="st58" points="150.5,117.7 130.6,145 120.7,158.7 110.7,172.3 110.7,172.3 120.6,158.6 130.5,145 150.5,117.7 		
			"/>
	</g>
	<g>
		<polygon class="st58" points="110.7,90.3 90.8,117.7 80.9,131.4 70.9,145 70.9,145 80.8,131.3 90.7,117.6 110.7,90.3 		"/>
	</g>
	<g>
		<polygon class="st58" points="93.8,152.7 73.9,180 64,193.7 54,207.3 54,207.3 63.9,193.6 73.8,180 93.8,152.7 		"/>
	</g>
	<g>
		<polygon class="st58" points="404.8,19 385,46.4 375,60 365,73.7 365,73.7 374.9,60 384.9,46.3 404.8,19 		"/>
	</g>
	<g>
		<polygon class="st58" points="347.8,67 327.9,94.4 318,108 308,121.7 308,121.7 317.9,107.9 327.8,94.3 347.8,67 		"/>
	</g>
	<g>
		<polygon class="st58" points="298.1,138.9 278.3,166.3 268.3,180 258.3,193.6 258.3,193.6 268.2,179.9 278.2,166.2 298.1,138.9 		
			"/>
	</g>
	<g>
		<polygon class="st58" points="440.3,35.7 420.5,63 410.5,76.7 400.5,90.3 400.5,90.3 410.4,76.6 420.4,63 440.3,35.7 		"/>
	</g>
	<g>
		<polygon class="st58" points="438.9,1.9 419,29.3 409.1,43 399.1,56.6 399,56.6 408.9,42.9 418.9,29.2 438.9,1.9 		"/>
	</g>
	<g>
		<polygon class="st58" points="487.2,3.2 467.4,30.6 457.4,44.3 447.4,57.9 447.4,57.9 457.3,44.2 467.3,30.5 487.2,3.2 		"/>
	</g>
	<g>
		<polygon class="st58" points="384.9,73.7 365.1,101 355.1,114.7 345.1,128.3 345.1,128.3 355,114.6 365,101 384.9,73.7 		"/>
	</g>
	<g>
		<polygon class="st58" points="461.9,55.8 442,83.2 432.1,96.9 422,110.5 422,110.5 431.9,96.8 441.9,83.1 461.8,55.8 		"/>
	</g>
	<g>
		<polygon class="st58" points="392.4,107 372.5,134.4 362.5,148 352.5,161.7 352.5,161.7 362.4,148 372.4,134.3 392.3,107 		"/>
	</g>
	<g>
		<polygon class="st58" points="331.7,155.6 311.8,183 301.9,196.7 291.9,210.3 291.9,210.3 301.8,196.6 311.7,182.9 331.7,155.6 		
			"/>
	</g>
	<g>
		<polygon class="st58" points="261,224.5 241.1,251.9 231.2,265.5 221.2,279.2 221.2,279.2 231.1,265.5 241,251.8 261,224.5 		"/>
	</g>
	<g>
		<polygon class="st58" points="367.7,183 347.9,210.3 337.9,224 327.9,237.6 327.9,237.6 337.8,223.9 347.8,210.3 367.7,183 		"/>
	</g>
	<g>
		<polygon class="st58" points="430,124.3 410.1,151.7 400.2,165.4 390.2,179 390.2,179 400.1,165.3 410,151.6 430,124.3 		"/>
	</g>
	<g>
		<polygon class="st58" points="495.9,82.1 481,102.8 473.5,113.1 465.9,123.4 465.9,123.4 473.3,113 480.9,102.7 495.9,82.1 		"/>
	</g>
	<g>
		<polygon class="st58" points="467.3,131 447.5,158.4 437.5,172 427.5,185.7 427.5,185.7 437.4,172 447.4,158.3 467.3,131 		"/>
	</g>
	<g>
		<polygon class="st58" points="398.1,216.1 378.2,243.4 368.3,257.1 358.3,270.7 358.2,270.7 368.1,257 378.1,243.4 398.1,216.1 		
			"/>
	</g>
	<g>
		<polygon class="st58" points="461.9,192.8 442,220.2 432.1,233.9 422,247.5 422,247.5 431.9,233.8 441.9,220.1 461.8,192.8 		"/>
	</g>
	<g>
		<polygon class="st58" points="222.7,203.9 202.8,231.3 192.9,244.9 182.9,258.6 182.9,258.6 192.8,244.9 202.7,231.2 222.7,203.9 
					"/>
	</g>
	<g>
		<polygon class="st58" points="175.1,2.1 162.8,19 156.7,27.5 150.5,35.9 150.5,35.9 156.6,27.4 162.7,19 175.1,2.1 		"/>
	</g>
	<g>
		<polygon class="st58" points="83.2,12.4 71,29.3 64.8,37.7 58.6,46.1 58.6,46.1 64.7,37.6 70.9,29.2 83.2,12.4 		"/>
	</g>
	<g>
		<polygon class="st58" points="219.2,5.4 206.7,22.6 200.5,31.1 194.2,39.7 194.2,39.7 200.4,31.1 206.6,22.5 219.1,5.4 		"/>
	</g>
	<g>
		<polygon class="st58" points="137.8,183 118,210.3 108,224 98,237.6 98,237.6 107.9,223.9 117.9,210.3 137.8,183 		"/>
	</g>
</g>
<g id="Layer_6" class="st53">
	<g id="MUgtc0_2_" class="st54">
		<g>
			<linearGradient id="SVGID_12_" gradientUnits="userSpaceOnUse" x1="96.7561" y1="31.0261" x2="217.5499" y2="31.0261">
				<stop  offset="0" style="stop-color:#6BCAD2"/>
				<stop  offset="0.9869" style="stop-color:#023955"/>
			</linearGradient>
			<path class="st59" d="M130.8,39.6c1.1,0.9,2.4,2,3.6,3.1c0.2,0.2,0.3,0.6,0.3,1c0.1,3.6,2,6,5.1,7.6c1.4,0.7,2.9,1.2,4.6,0.5
				c0.7-0.3,1.3-0.3,1.8,0.5c1.9,3.3,4.7,5.1,8.4,5.8c2.9,0.5,5.4-0.4,7.6-1.8c2-1.3,3.8-3.1,4.7-5.5c0.1-0.3,0.6-0.6,1-0.6
				c2.5,0.1,4.7-0.9,6.6-2.5c0.8-0.6,1.4-0.7,2.3-0.3c2.8,1.3,6.9-0.2,8-3.3c0.3-0.8,0.6-1.7,1.1-2.3c0.6-0.7,1.5-1.2,2.4-1.8
				c1.7,2,3.8,3.5,6.4,4.1c2.8,0.6,5.3,0.3,7.8-1c2.7-1.4,4.4-3.8,5.5-6.6c0.1-0.3,0.5-0.6,0.9-0.7c0.8-0.3,1.7-0.3,2.5-0.6
				c3.2-1.2,5.8-4.4,6-8.2c0.2-3.7-2-7.5-5.1-9c-2.4-1.2-4.8-1.3-7.4-0.5c-0.4-0.6-0.8-1.1-1.1-1.6c-3.4-5.5-10.2-7.6-16.1-5.1
				c-0.3,0.1-0.8,0.2-1.1,0.2c-1,0-2.1-0.4-2.9-0.2c-2.2,0.6-3.1-0.5-4.1-2.1c-1.8-2.7-4.5-4.1-7.7-4.6c-3-0.5-5.8,0.2-8.3,1.8
				c-2.3,1.4-4,3.4-5,6c-0.1,0.2-0.4,0.6-0.6,0.6c-0.9,0.1-1.7,0.1-2.6,0.1c-1.3,0-2.7-0.2-3.9,0.2c-1.1,0.3-1.5-0.1-2-0.9
				c-1.4-2.2-3-4.2-5.3-5.5c-5.1-3-10.2-3.1-15.5-0.4c-3.4,1.8-5.6,4.5-7,8c-0.2,0.5-0.4,1-1.1,1c-3.9-0.2-7.1,1.3-9.9,3.8
				c-0.5,0.5-0.9,0.4-1.5,0.1c-2.1-1.2-4.3-1.4-6.5-0.6c-4.4,1.6-6.6,5.6-5.5,10c0.9,3.6,4.6,6.9,9.1,6.5c0.9-0.1,1.2,0.3,1.5,0.9
				c3.2,6.6,11,9.7,17.9,6.9C127.4,41.8,129,40.6,130.8,39.6z"/>
			<linearGradient id="SVGID_13_" gradientUnits="userSpaceOnUse" x1="96.7561" y1="31.0261" x2="217.5499" y2="31.0261">
				<stop  offset="0" style="stop-color:#6BCAD2"/>
				<stop  offset="0.9869" style="stop-color:#023955"/>
			</linearGradient>
			<path class="st60" d="M130.8,39.6c-1.8,1-3.5,2.2-5.3,3c-6.9,2.7-14.7-0.3-17.9-6.9c-0.3-0.6-0.6-1-1.5-0.9
				c-4.6,0.4-8.3-2.9-9.1-6.5c-1-4.4,1.1-8.3,5.5-10c2.2-0.8,4.5-0.6,6.5,0.6c0.5,0.3,1,0.4,1.5-0.1c2.8-2.6,6.1-4,9.9-3.8
				c0.8,0,0.9-0.5,1.1-1c1.4-3.5,3.6-6.2,7-8c5.2-2.8,10.4-2.6,15.5,0.4c2.3,1.3,3.9,3.3,5.3,5.5c0.5,0.8,0.9,1.2,2,0.9
				c1.2-0.3,2.6-0.1,3.9-0.2c0.9,0,1.8,0,2.6-0.1c0.2,0,0.5-0.3,0.6-0.6c1-2.6,2.7-4.6,5-6c2.5-1.6,5.4-2.3,8.3-1.8
				c3.1,0.5,5.9,1.9,7.7,4.6c1.1,1.6,1.9,2.8,4.1,2.1c0.9-0.3,2,0.2,2.9,0.2c0.4,0,0.8-0.1,1.1-0.2c6-2.5,12.7-0.4,16.1,5.1
				c0.3,0.5,0.7,1,1.1,1.6c2.5-0.8,5-0.6,7.4,0.5c3.2,1.6,5.3,5.3,5.1,9c-0.2,3.8-2.8,7-6,8.2c-0.8,0.3-1.7,0.3-2.5,0.6
				c-0.3,0.1-0.7,0.4-0.9,0.7c-1.1,2.8-2.8,5.2-5.5,6.6c-2.5,1.3-5.1,1.6-7.8,1c-2.7-0.6-4.7-2.1-6.4-4.1c-0.8,0.6-1.7,1.1-2.4,1.8
				c-0.5,0.6-0.8,1.5-1.1,2.3c-1.1,3.1-5.2,4.6-8,3.3c-0.9-0.4-1.5-0.4-2.3,0.3c-1.9,1.5-4,2.5-6.6,2.5c-0.3,0-0.9,0.3-1,0.6
				c-0.8,2.5-2.6,4.3-4.7,5.5c-2.2,1.4-4.7,2.3-7.6,1.8c-3.8-0.7-6.5-2.5-8.4-5.8c-0.5-0.8-1.1-0.8-1.8-0.5
				c-1.6,0.7-3.2,0.1-4.6-0.5c-3.1-1.5-5-3.9-5.1-7.6c0-0.3-0.1-0.8-0.3-1C133.2,41.6,132,40.5,130.8,39.6z"/>
		</g>
	</g>
</g>
<g id="Layer_7" class="st53">
	<text transform="matrix(1 0 0 1 300.8259 30.5536)" class="st54"><tspan x="0" y="0" class="st1 st61 st62">Contact Information :</tspan><tspan x="0" y="9.6" class="st1 st43 st44">For more information, please contact</tspan><tspan x="0" y="19.2" class="st1 st43 st44">Debra Hansen, Corporate Relations Manager</tspan><tspan x="0" y="28.8" class="st1 st43 st44">Phone</tspan><tspan x="0" y="38.4" class="st1 st43 st44">619.243.3408</tspan><tspan x="0" y="48" class="st1 st43 st44">Email</tspan><tspan x="0" y="57.6" class="st1 st43 st44">events@sdhumane.org</tspan></text>
</g>
</svg>
