<svg id="Layer_1" data-name="Layer 1" xmlns="http://www.w3.org/2000/svg" viewBox="0 0 93.37 102.16"><defs><style>.cls-1{fill:#023955;}.cls-2{fill:#de8082;}</style></defs><title>time</title><path class="cls-1" d="M80.91,22.29H64.2v6.1l3.82.2c.67,1.8,0,2.37-1.68,2.59a46.84,46.84,0,0,0-.88,92.69c32.18,5.06,59.64-23.83,52.65-56.13-4.32-20-19.26-33.51-39.51-36.58-1.72-.26-2.19-1-1.43-2.75h3.74ZM101.1,35.12l9.46,9.46,3.91-3.69-9.71-9.49Z" transform="translate(-25.84 -22.29)"/><path class="cls-1" d="M80.91,22.29v6.12H77.17c-.76,1.78-.29,2.49,1.43,2.75,20.25,3.07,35.19,16.6,39.51,36.58,7,32.3-20.47,61.19-52.65,56.13a46.84,46.84,0,0,1,.88-92.69C68,31,68.69,30.39,68,28.59l-3.82-.2v-6.1Zm0,61.23a29.68,29.68,0,0,0-1.8-2.36c-1.21-1.3-2.44-2.41-2.52-4.52-.08-1.86-1.64-2.87-3.52-3.32A6.75,6.75,0,0,1,70,71.87c-5.77-5.65-11.44-11.4-17.15-17.11-.53-.53-1.05-1.26-1.7-1.44s-2-.25-2.39.2a3.73,3.73,0,0,0-.37,2.6c.06.49.73.92,1.15,1.35C55.31,63.26,61.08,69,66.75,74.87a7.27,7.27,0,0,1,1.58,3.22,4.88,4.88,0,0,0,3.74,3.78,14.89,14.89,0,0,1,3.43,1.72c.69.43,1.14,1.3,1.86,1.61a3.37,3.37,0,0,0,2.3,0C80.17,85.06,80.44,84.24,80.93,83.52Z" transform="translate(-25.84 -22.29)"/><path class="cls-1" d="M101.1,35.12l3.66-3.72,9.71,9.49-3.91,3.69Z" transform="translate(-25.84 -22.29)"/><path class="cls-2" d="M80.93,83.52c-.49.72-.76,1.54-1.27,1.72a3.37,3.37,0,0,1-2.3,0c-.72-.31-1.17-1.18-1.86-1.61a14.89,14.89,0,0,0-3.43-1.72,4.88,4.88,0,0,1-3.74-3.78,7.27,7.27,0,0,0-1.58-3.22C61.08,69,55.31,63.26,49.57,57.47c-.42-.43-1.09-.86-1.15-1.35a3.73,3.73,0,0,1,.37-2.6c.37-.45,1.64-.42,2.39-.2s1.17.91,1.7,1.44C58.59,60.47,64.26,66.22,70,71.87a6.75,6.75,0,0,0,3.06,1.45c1.88.45,3.44,1.46,3.52,3.32.08,2.11,1.31,3.22,2.52,4.52A29.68,29.68,0,0,1,80.93,83.52Z" transform="translate(-25.84 -22.29)"/><circle class="cls-2" cx="45.82" cy="54.49" r="5.68"/></svg>