<svg id="Layer_1" data-name="Layer 1" xmlns="http://www.w3.org/2000/svg" viewBox="0 0 160.18 191.87"><defs><style>.cls-1{fill:#023955;}.cls-2{fill:#fff;}</style></defs><title>volunteer</title><path class="cls-1" d="M154.41,185.18l.72.56c-2.33,3.67-4.67,7.32-7,11-1.32,2.09-.89,3.89,1,5.44,4.05,3.35,12.27,1.68,16.11-3.08,1.55-1.93,3.69-3.37,5.35-5.22s4.08-3.78,4.07-5.67c0-3.5-1.4-7-2.6-10.43a3.88,3.88,0,0,0-3-2.06c-2.71.28-3.23-1.44-4.24-3.47h4.74a16.08,16.08,0,0,0,15.77-11.05c3.15-9.47,1.36-18.67-2.85-27.29-2.7-5.52-6.7-10.39-9.8-15.75-2.52-4.36-4.55-9-6.8-13.51l.61-.33,2.63,1.23c.95-2.81,2.73-5.27.46-8.15a48.87,48.87,0,0,1-3.33-5.31c-.88-1.48-1.7-3-2.5-4.5-1.25-2.4-2.54-4.8-1.12-7.52-.72-.27-1.94-.4-2.05-.82-.54-2-2.26-1.82-3.67-2.36a47.13,47.13,0,0,1-6.8-3A3.82,3.82,0,0,1,148.73,71c-.1-4.76-1.76-9-3.9-13.14a11.83,11.83,0,0,0-7.28-6,39,39,0,0,1-5.93-2.58c-2.29-1.18-4.16-1.28-6,1-.74.9-2.16,1.25-3.29,1.83-2.81,1.44-5.63,2.87-8.63,4.39,0-4,0-8.16,0-12.35,0-1.56.77-2.06,2.22-1.94,12.23,1,24.28-1.54,36.43-1.88a83.09,83.09,0,0,0,27.53-5.81c-4-2.76-7.95-5.72-12.12-8.23-8.18-4.92-16.56-9.45-26.3-10.57q-11.85-1.35-23.7-2.74c-2-.24-4.1-1.06-6-.78-6.35.9-12.62,2.38-19,3.26-7.42,1-14.82,2-21.39,5.92-3.44,2.07-6.84,4.21-10.07,6.59-4.71,3.46-9.25,7.16-14.17,11,2.32.61,4.56.61,6,1.69,3.1,2.33,6.43,1.9,9.84,1.81,2.46-.06,4.91,0,7.37,0l32.67.09c3,0,6,0,9.53,0V82.57c-2.05-1.49-5-2.53-5.32-4.09-.78-4-3.74-5-6.61-5.78-5.66-1.64-11.46-2.39-16.44,2-5.84,5.12-9.84,11.57-13.84,18.17A235.28,235.28,0,0,1,55,114.75c-4.55,5.87-9.93,11.09-14.6,16.88-3.14,3.88-5.71,8.22-8.49,12.38a28.87,28.87,0,0,0-5.14,15.73c-.09,5.18.25,10.38.47,15.56.23,5.68,3.32,9.09,9,8.5,6-.63,11.88-2.24,17.74-3.73,4.58-1.16,9.21-1.66,12.87,1.53,3.21,2.79,6.3,3.48,9.91,1.8A4.72,4.72,0,0,0,79,180.27c.35-2.69-2.33-5.35-5-5.68s-5.64-.86-8.46-1.31l.11-.95c1.6,0,3.19,0,4.79,0,.66,0,1.77.07,1.92-.25,1.18-2.44,3.23-1.34,4.89-1.21s3.43.84,5.16,1.14a6.7,6.7,0,0,1,5.64,4.83c.65,1.84,1.77,4.12,3.33,4.9a11.66,11.66,0,0,0,10.72,0c1.82-.89,2.22-2.24.89-3.41a13.86,13.86,0,0,0-5.26-2.86,7.45,7.45,0,0,1-4.81-3.76c-2.88-4.78-1.85-10.13-2.67-15.19-.53-3.3-.1-6.74-.1-10.36l14.51,1.71c-1.41,4.26.93,7.46,4,9.46,4.3,2.77,7.87,6.19,11.66,9.52,3.42,3,8.22,4.43,12.41,6.56l8.89,4.58c-2,1.44-3.19,2.37-4.45,3.28-1.72,1.24-3.43,2.53-2.43,5,.93,2.32,4.1,4.15,6.49,3.66,4.23-.86,7.85-2.56,9-7.3a6.37,6.37,0,0,1,1.15-1.65C152.54,182.54,153.48,183.86,154.41,185.18Z" transform="translate(-26.71 -12.06)"/><path class="cls-1" d="M154.41,185.18c-.93-1.32-1.87-2.64-3-4.21a6.37,6.37,0,0,0-1.15,1.65c-1.15,4.74-4.77,6.44-9,7.3-2.39.49-5.56-1.34-6.49-3.66-1-2.52.71-3.81,2.43-5,1.26-.91,2.49-1.84,4.45-3.28l-8.89-4.58c-4.19-2.13-9-3.56-12.41-6.56-3.79-3.33-7.36-6.75-11.66-9.52-3.12-2-5.46-5.2-4-9.46L90.16,146.1c0,3.62-.43,7.06.1,10.36.82,5.06-.21,10.41,2.67,15.19a7.45,7.45,0,0,0,4.81,3.76,13.86,13.86,0,0,1,5.26,2.86c1.33,1.17.93,2.52-.89,3.41a11.66,11.66,0,0,1-10.72,0c-1.56-.78-2.68-3.06-3.33-4.9A6.7,6.7,0,0,0,82.42,172c-1.73-.3-3.42-1-5.16-1.14s-3.71-1.23-4.89,1.21c-.15.32-1.26.24-1.92.25-1.6,0-3.19,0-4.79,0l-.11.95c2.82.45,5.63.95,8.46,1.31s5.37,3,5,5.68a4.72,4.72,0,0,1-2.33,3.13c-3.61,1.68-6.7,1-9.91-1.8-3.66-3.19-8.29-2.69-12.87-1.53-5.86,1.49-11.76,3.1-17.74,3.73-5.66.59-8.75-2.82-9-8.5-.22-5.18-.56-10.38-.47-15.56A28.87,28.87,0,0,1,31.87,144c2.78-4.16,5.35-8.5,8.49-12.38,4.67-5.79,10-11,14.6-16.88a235.28,235.28,0,0,0,15.37-21.9c4-6.6,8-13,13.84-18.17,5-4.37,10.78-3.62,16.44-2,2.87.83,5.83,1.75,6.61,5.78.3,1.56,3.27,2.6,5.32,4.09V42.51c-3.52,0-6.52,0-9.53,0l-32.67-.09c-2.46,0-4.91-.09-7.37,0-3.41.09-6.74.52-9.84-1.81-1.44-1.08-3.68-1.08-6-1.69,4.92-3.84,9.46-7.54,14.17-11,3.23-2.38,6.63-4.52,10.07-6.59,6.57-3.95,14-4.89,21.39-5.92,6.35-.88,12.62-2.36,19-3.26,1.94-.28,4,.54,6,.78q11.85,1.41,23.7,2.74c9.74,1.12,18.12,5.65,26.3,10.57,4.17,2.51,8.08,5.47,12.12,8.23a83.09,83.09,0,0,1-27.53,5.81c-12.15.34-24.2,2.84-36.43,1.88-1.45-.12-2.23.38-2.22,1.94,0,4.19,0,8.39,0,12.35,3-1.52,5.82-3,8.63-4.39,1.13-.58,2.55-.93,3.29-1.83,1.82-2.23,3.69-2.13,6-1a39,39,0,0,0,5.93,2.58,11.83,11.83,0,0,1,7.28,6c2.14,4.11,3.8,8.38,3.9,13.14a3.82,3.82,0,0,0,1.34,2.85,47.13,47.13,0,0,0,6.8,3c1.41.54,3.13.33,3.67,2.36.11.42,1.33.55,2.05.82-1.42,2.72-.13,5.12,1.12,7.52.8,1.52,1.62,3,2.5,4.5a48.87,48.87,0,0,0,3.33,5.31c2.27,2.88.49,5.34-.46,8.15l-2.63-1.23-.61.33c2.25,4.52,4.28,9.15,6.8,13.51,3.1,5.36,7.1,10.23,9.8,15.75,4.21,8.62,6,17.82,2.85,27.29a16.08,16.08,0,0,1-15.77,11.05h-4.74c1,2,1.53,3.75,4.24,3.47a3.88,3.88,0,0,1,3,2.06c1.2,3.39,2.59,6.93,2.6,10.43,0,1.89-2.49,3.9-4.07,5.67s-3.8,3.29-5.35,5.22c-3.84,4.76-12.06,6.43-16.11,3.08-1.88-1.55-2.31-3.35-1-5.44,2.31-3.68,4.65-7.33,7-11ZM109.18,99c-2.36.31-4.06.48-5.75.77a4,4,0,0,0-2.06.76c-3.66,3.51-5.52,11.75-3.14,16.17a9.55,9.55,0,0,1,.62,8.37c-.58,1.64-1.42,3.18-2.08,4.79-.55,1.35-1.39,2.87.5,3.83,2.17,1.11,4.41,2.11,6.68,3a1.9,1.9,0,0,0,1.76-.37c2-2.79,4.54-3.47,7.73-2.41.46.16,1.09-.16,2-.32-.61-2.51-1.23-4.85-1.73-7.22-.73-3.41-2.27-7-1.87-10.26C112.63,109.9,109.69,104.59,109.18,99Zm11.14-12.32c-.69,2.3-.82,4.55-1.93,6.13-2.67,3.79-2.85,7.71-1.71,11.92.63,2.32,1.31,4.63,2,6.95l.84-.16c2.28-7.74.71-16.43,6.39-23.66Zm-40.27,67c-3.31,2.11-6.25,3.62-8.73,5.68a2.38,2.38,0,0,0,1,4.33c3.14.75,6.41,1,10.19,1.48C81.61,161,80.93,157.8,80.05,153.68ZM127,134l.49.93c1.84-.85,4.52-1.22,5.36-2.67,1.65-2.82.74-4.2-2.58-6.5ZM114.65,77.65c-1,4-.49,5.13,2.75,6.11C117.07,81.44,117.27,79.06,114.65,77.65Zm-.4-3.93c3.12-3.47,1.12-5.83-.4-8.26Z" transform="translate(-26.71 -12.06)"/><path class="cls-2" d="M109.18,99c.51,5.56,3.45,10.87,2.67,17.13-.4,3.3,1.14,6.85,1.87,10.26.5,2.37,1.12,4.71,1.73,7.22-.92.16-1.55.48-2,.32-3.19-1.06-5.73-.38-7.73,2.41a1.9,1.9,0,0,1-1.76.37c-2.27-.91-4.51-1.91-6.68-3-1.89-1-1-2.48-.5-3.83.66-1.61,1.5-3.15,2.08-4.79a9.55,9.55,0,0,0-.62-8.37c-2.38-4.42-.52-12.66,3.14-16.17a4,4,0,0,1,2.06-.76C105.12,99.51,106.82,99.34,109.18,99Z" transform="translate(-26.71 -12.06)"/><path class="cls-2" d="M120.32,86.71l5.55,1.18c-5.68,7.23-4.11,15.92-6.39,23.66l-.84.16c-.65-2.32-1.33-4.63-2-6.95-1.14-4.21-1-8.13,1.71-11.92C119.5,91.26,119.63,89,120.32,86.71Z" transform="translate(-26.71 -12.06)"/><path class="cls-2" d="M80.05,153.68c.88,4.12,1.56,7.33,2.45,11.49-3.78-.52-7-.73-10.19-1.48a2.38,2.38,0,0,1-1-4.33C73.8,157.3,76.74,155.79,80.05,153.68Z" transform="translate(-26.71 -12.06)"/><path class="cls-2" d="M127,134l3.27-8.24c3.32,2.3,4.23,3.68,2.58,6.5-.84,1.45-3.52,1.82-5.36,2.67Z" transform="translate(-26.71 -12.06)"/><path class="cls-2" d="M114.65,77.65c2.62,1.41,2.42,3.79,2.75,6.11C114.16,82.78,113.64,81.67,114.65,77.65Z" transform="translate(-26.71 -12.06)"/><path class="cls-2" d="M114.25,73.72l-.4-8.26C115.37,67.89,117.37,70.25,114.25,73.72Z" transform="translate(-26.71 -12.06)"/></svg>